solid OpenSCAD_Model
  facet normal 1 -0 0
    outer loop
      vertex 39 42.9 69.45
      vertex 39 44 68.55
      vertex 39 44 69.45
    endloop
  endfacet
  facet normal 1 0 0
    outer loop
      vertex 39 44 68.55
      vertex 39 42.9 69.45
      vertex 39 42.9 68.55
    endloop
  endfacet
  facet normal -0 0 1
    outer loop
      vertex -39 44 69.45
      vertex -1.1 42.9 69.45
      vertex -1.1 44 69.45
    endloop
  endfacet
  facet normal 0 0 1
    outer loop
      vertex -1.1 42.9 69.45
      vertex -39 44 69.45
      vertex -39 42.9 69.45
    endloop
  endfacet
  facet normal 0 0 1
    outer loop
      vertex -1.1 44 69.45
      vertex 0 44 69.45
      vertex 0 82 69.45
    endloop
  endfacet
  facet normal 0 0 1
    outer loop
      vertex 0 44 69.45
      vertex -1.1 44 69.45
      vertex 0 42.9 69.45
    endloop
  endfacet
  facet normal 0 0 1
    outer loop
      vertex -1.1 44 69.45
      vertex 0 82 69.45
      vertex -1.1 82 69.45
    endloop
  endfacet
  facet normal 0 0 1
    outer loop
      vertex -1.1 42.9 69.45
      vertex 0 42.9 69.45
      vertex -1.1 44 69.45
    endloop
  endfacet
  facet normal 0 0 1
    outer loop
      vertex 0 42.9 69.45
      vertex -1.1 42.9 69.45
      vertex 0 6 69.45
    endloop
  endfacet
  facet normal 0 0 1
    outer loop
      vertex 0 6 69.45
      vertex -1.1 42.9 69.45
      vertex -1.1 6 69.45
    endloop
  endfacet
  facet normal -0 0 1
    outer loop
      vertex 0 44 69.45
      vertex 39 42.9 69.45
      vertex 39 44 69.45
    endloop
  endfacet
  facet normal 0 0 1
    outer loop
      vertex 39 42.9 69.45
      vertex 0 44 69.45
      vertex 0 42.9 69.45
    endloop
  endfacet
  facet normal 0 0 -1
    outer loop
      vertex -39 42.9 68.55
      vertex -1.1 44 68.55
      vertex -1.1 42.9 68.55
    endloop
  endfacet
  facet normal -0 0 -1
    outer loop
      vertex -1.1 44 68.55
      vertex -39 42.9 68.55
      vertex -39 44 68.55
    endloop
  endfacet
  facet normal 0 0 -1
    outer loop
      vertex -1.1 42.9 68.55
      vertex 0 42.9 68.55
      vertex 0 6 68.55
    endloop
  endfacet
  facet normal 0 0 -1
    outer loop
      vertex 0 42.9 68.55
      vertex -1.1 42.9 68.55
      vertex 0 44 68.55
    endloop
  endfacet
  facet normal 0 0 -1
    outer loop
      vertex -1.1 42.9 68.55
      vertex 0 6 68.55
      vertex -1.1 6 68.55
    endloop
  endfacet
  facet normal 0 0 -1
    outer loop
      vertex -1.1 44 68.55
      vertex 0 44 68.55
      vertex -1.1 42.9 68.55
    endloop
  endfacet
  facet normal 0 0 -1
    outer loop
      vertex 0 44 68.55
      vertex -1.1 44 68.55
      vertex 0 54.5 68.55
    endloop
  endfacet
  facet normal -0 0 -1
    outer loop
      vertex 0 54.5 68.55
      vertex -1.1 44 68.55
      vertex -1.1 54.5 68.55
    endloop
  endfacet
  facet normal 0 0 -1
    outer loop
      vertex 0 42.9 68.55
      vertex 39 44 68.55
      vertex 39 42.9 68.55
    endloop
  endfacet
  facet normal -0 0 -1
    outer loop
      vertex 39 44 68.55
      vertex 0 42.9 68.55
      vertex 0 44 68.55
    endloop
  endfacet
  facet normal 0 0 -1
    outer loop
      vertex -1.1 57.5 68.55
      vertex 0 82 68.55
      vertex 0 57.5 68.55
    endloop
  endfacet
  facet normal -0 0 -1
    outer loop
      vertex 0 82 68.55
      vertex -1.1 57.5 68.55
      vertex -1.1 82 68.55
    endloop
  endfacet
  facet normal -1 0 0
    outer loop
      vertex -39 42.9 68.55
      vertex -39 44 69.45
      vertex -39 44 68.55
    endloop
  endfacet
  facet normal -1 -0 0
    outer loop
      vertex -39 44 69.45
      vertex -39 42.9 68.55
      vertex -39 42.9 69.45
    endloop
  endfacet
  facet normal 0 1 -0
    outer loop
      vertex -1.1 44 68.55
      vertex -39 44 69.45
      vertex -1.1 44 69.45
    endloop
  endfacet
  facet normal 0 1 0
    outer loop
      vertex -39 44 69.45
      vertex -1.1 44 68.55
      vertex -39 44 68.55
    endloop
  endfacet
  facet normal 0 1 -0
    outer loop
      vertex 39 44 68.55
      vertex 0 44 69.45
      vertex 39 44 69.45
    endloop
  endfacet
  facet normal 0 1 0
    outer loop
      vertex 0 44 69.45
      vertex 39 44 68.55
      vertex 0 44 68.55
    endloop
  endfacet
  facet normal 0 -1 0
    outer loop
      vertex -39 42.9 68.55
      vertex -1.1 42.9 69.45
      vertex -39 42.9 69.45
    endloop
  endfacet
  facet normal 0 -1 -0
    outer loop
      vertex -1.1 42.9 69.45
      vertex -39 42.9 68.55
      vertex -1.1 42.9 68.55
    endloop
  endfacet
  facet normal 0 -1 0
    outer loop
      vertex 0 42.9 68.55
      vertex 39 42.9 69.45
      vertex 0 42.9 69.45
    endloop
  endfacet
  facet normal 0 -1 -0
    outer loop
      vertex 39 42.9 69.45
      vertex 0 42.9 68.55
      vertex 39 42.9 68.55
    endloop
  endfacet
  facet normal 1 0 0
    outer loop
      vertex 0 82 69.45
      vertex 0 57.5 69
      vertex 0 82 68.55
    endloop
  endfacet
  facet normal 1 -0 0
    outer loop
      vertex 0 44 69.45
      vertex 0 57.5 69
      vertex 0 82 69.45
    endloop
  endfacet
  facet normal 1 0 0
    outer loop
      vertex 0 57.5 69
      vertex 0 44 69.45
      vertex 0 54.5 69
    endloop
  endfacet
  facet normal 1 0 0
    outer loop
      vertex 0 44 68.55
      vertex 0 54.5 69
      vertex 0 44 69.45
    endloop
  endfacet
  facet normal 1 0 0
    outer loop
      vertex 0 54.5 69
      vertex 0 44 68.55
      vertex 0 54.5 68.55
    endloop
  endfacet
  facet normal 1 0 0
    outer loop
      vertex 0 82 68.55
      vertex 0 57.5 69
      vertex 0 57.5 68.55
    endloop
  endfacet
  facet normal 1 -0 0
    outer loop
      vertex 0 6 69.45
      vertex 0 42.9 68.55
      vertex 0 42.9 69.45
    endloop
  endfacet
  facet normal 1 0 0
    outer loop
      vertex 0 42.9 68.55
      vertex 0 6 69.45
      vertex 0 6 68.55
    endloop
  endfacet
  facet normal -1 0 0
    outer loop
      vertex -1.1 54.5 68.55
      vertex -1.1 44 68.55
      vertex -1.1 54.5 69
    endloop
  endfacet
  facet normal -1 0 0
    outer loop
      vertex -1.1 57.5 69
      vertex -1.1 82 68.55
      vertex -1.1 57.5 68.55
    endloop
  endfacet
  facet normal -1 0 0
    outer loop
      vertex -1.1 82 68.55
      vertex -1.1 57.5 69
      vertex -1.1 82 69.45
    endloop
  endfacet
  facet normal -1 0 0
    outer loop
      vertex -1.1 44 69.45
      vertex -1.1 57.5 69
      vertex -1.1 54.5 69
    endloop
  endfacet
  facet normal -1 0 0
    outer loop
      vertex -1.1 57.5 69
      vertex -1.1 44 69.45
      vertex -1.1 82 69.45
    endloop
  endfacet
  facet normal -1 0 0
    outer loop
      vertex -1.1 44 69.45
      vertex -1.1 54.5 69
      vertex -1.1 44 68.55
    endloop
  endfacet
  facet normal -1 0 0
    outer loop
      vertex -1.1 6 68.55
      vertex -1.1 42.9 69.45
      vertex -1.1 42.9 68.55
    endloop
  endfacet
  facet normal -1 -0 0
    outer loop
      vertex -1.1 42.9 69.45
      vertex -1.1 6 68.55
      vertex -1.1 6 69.45
    endloop
  endfacet
  facet normal 0 1 -0
    outer loop
      vertex 0 82 68.55
      vertex -1.1 82 69.45
      vertex 0 82 69.45
    endloop
  endfacet
  facet normal 0 1 0
    outer loop
      vertex -1.1 82 69.45
      vertex 0 82 68.55
      vertex -1.1 82 68.55
    endloop
  endfacet
  facet normal 0 -1 0
    outer loop
      vertex -1.1 6 68.55
      vertex 0 6 69.45
      vertex -1.1 6 69.45
    endloop
  endfacet
  facet normal 0 -1 -0
    outer loop
      vertex 0 6 69.45
      vertex -1.1 6 68.55
      vertex 0 6 68.55
    endloop
  endfacet
  facet normal 1 -0 0
    outer loop
      vertex 65 -2.5 7
      vertex 65 95.5 0
      vertex 65 95.5 7
    endloop
  endfacet
  facet normal 1 0 0
    outer loop
      vertex 65 95.5 0
      vertex 65 -2.5 7
      vertex 65 -2.5 0
    endloop
  endfacet
  facet normal 0.471419 -0.881909 0
    outer loop
      vertex 63.4567 -4.8097 0
      vertex 63.8889 -4.57867 7
      vertex 63.4567 -4.8097 7
    endloop
  endfacet
  facet normal 0.471419 -0.881909 0
    outer loop
      vertex 63.8889 -4.57867 7
      vertex 63.4567 -4.8097 0
      vertex 63.8889 -4.57867 0
    endloop
  endfacet
  facet normal 0.95692 -0.290353 0
    outer loop
      vertex 64.8097 -3.45671 7
      vertex 64.952 -2.98773 0
      vertex 64.952 -2.98773 7
    endloop
  endfacet
  facet normal 0.95692 -0.290353 0
    outer loop
      vertex 64.952 -2.98773 0
      vertex 64.8097 -3.45671 7
      vertex 64.8097 -3.45671 0
    endloop
  endfacet
  facet normal 0 1 -0
    outer loop
      vertex 55 5 0
      vertex -55 5 7
      vertex 55 5 7
    endloop
  endfacet
  facet normal 0 1 0
    outer loop
      vertex -55 5 7
      vertex 55 5 0
      vertex -55 5 0
    endloop
  endfacet
  facet normal 0 -1 0
    outer loop
      vertex -62.5 -5 0
      vertex 62.5 -5 7
      vertex -62.5 -5 7
    endloop
  endfacet
  facet normal 0 -1 -0
    outer loop
      vertex 62.5 -5 7
      vertex -62.5 -5 0
      vertex 62.5 -5 0
    endloop
  endfacet
  facet normal 0.773016 -0.634386 0
    outer loop
      vertex 64.2678 -4.26777 7
      vertex 64.5787 -3.88893 0
      vertex 64.5787 -3.88893 7
    endloop
  endfacet
  facet normal 0.773016 -0.634386 0
    outer loop
      vertex 64.5787 -3.88893 0
      vertex 64.2678 -4.26777 7
      vertex 64.2678 -4.26777 0
    endloop
  endfacet
  facet normal -0.290267 -0.956946 0
    outer loop
      vertex -63.4567 -4.8097 0
      vertex -62.9877 -4.95196 7
      vertex -63.4567 -4.8097 7
    endloop
  endfacet
  facet normal -0.290267 -0.956946 -0
    outer loop
      vertex -62.9877 -4.95196 7
      vertex -63.4567 -4.8097 0
      vertex -62.9877 -4.95196 0
    endloop
  endfacet
  facet normal 0.995192 -0.0979419 0
    outer loop
      vertex 64.952 -2.98773 7
      vertex 65 -2.5 0
      vertex 65 -2.5 7
    endloop
  endfacet
  facet normal 0.995192 -0.0979419 0
    outer loop
      vertex 65 -2.5 0
      vertex 64.952 -2.98773 7
      vertex 64.952 -2.98773 0
    endloop
  endfacet
  facet normal -0.634326 -0.773066 0
    outer loop
      vertex -64.2678 -4.26777 0
      vertex -63.8889 -4.57867 7
      vertex -64.2678 -4.26777 7
    endloop
  endfacet
  facet normal -0.634326 -0.773066 -0
    outer loop
      vertex -63.8889 -4.57867 7
      vertex -64.2678 -4.26777 0
      vertex -63.8889 -4.57867 0
    endloop
  endfacet
  facet normal -0.881944 -0.471355 0
    outer loop
      vertex -64.5787 -3.88893 0
      vertex -64.8097 -3.45671 7
      vertex -64.8097 -3.45671 0
    endloop
  endfacet
  facet normal -0.881944 -0.471355 0
    outer loop
      vertex -64.8097 -3.45671 7
      vertex -64.5787 -3.88893 0
      vertex -64.5787 -3.88893 7
    endloop
  endfacet
  facet normal -0.773016 -0.634386 0
    outer loop
      vertex -64.2678 -4.26777 0
      vertex -64.5787 -3.88893 7
      vertex -64.5787 -3.88893 0
    endloop
  endfacet
  facet normal -0.773016 -0.634386 0
    outer loop
      vertex -64.5787 -3.88893 7
      vertex -64.2678 -4.26777 0
      vertex -64.2678 -4.26777 7
    endloop
  endfacet
  facet normal 0.881944 -0.471355 0
    outer loop
      vertex 64.5787 -3.88893 7
      vertex 64.8097 -3.45671 0
      vertex 64.8097 -3.45671 7
    endloop
  endfacet
  facet normal 0.881944 -0.471355 0
    outer loop
      vertex 64.8097 -3.45671 0
      vertex 64.5787 -3.88893 7
      vertex 64.5787 -3.88893 0
    endloop
  endfacet
  facet normal 0.290267 -0.956946 0
    outer loop
      vertex 62.9877 -4.95196 0
      vertex 63.4567 -4.8097 7
      vertex 62.9877 -4.95196 7
    endloop
  endfacet
  facet normal 0.290267 -0.956946 0
    outer loop
      vertex 63.4567 -4.8097 7
      vertex 62.9877 -4.95196 0
      vertex 63.4567 -4.8097 0
    endloop
  endfacet
  facet normal 0.0980287 -0.995184 0
    outer loop
      vertex 62.5 -5 0
      vertex 62.9877 -4.95196 7
      vertex 62.5 -5 7
    endloop
  endfacet
  facet normal 0.0980287 -0.995184 0
    outer loop
      vertex 62.9877 -4.95196 7
      vertex 62.5 -5 0
      vertex 62.9877 -4.95196 0
    endloop
  endfacet
  facet normal -0.471419 -0.881909 0
    outer loop
      vertex -63.8889 -4.57867 0
      vertex -63.4567 -4.8097 7
      vertex -63.8889 -4.57867 7
    endloop
  endfacet
  facet normal -0.471419 -0.881909 -0
    outer loop
      vertex -63.4567 -4.8097 7
      vertex -63.8889 -4.57867 0
      vertex -63.4567 -4.8097 0
    endloop
  endfacet
  facet normal -1 0 0
    outer loop
      vertex -65 -2.5 0
      vertex -65 95.5 7
      vertex -65 95.5 0
    endloop
  endfacet
  facet normal -1 -0 0
    outer loop
      vertex -65 95.5 7
      vertex -65 -2.5 0
      vertex -65 -2.5 7
    endloop
  endfacet
  facet normal 0.634326 -0.773066 0
    outer loop
      vertex 63.8889 -4.57867 0
      vertex 64.2678 -4.26777 7
      vertex 63.8889 -4.57867 7
    endloop
  endfacet
  facet normal 0.634326 -0.773066 0
    outer loop
      vertex 64.2678 -4.26777 7
      vertex 63.8889 -4.57867 0
      vertex 64.2678 -4.26777 0
    endloop
  endfacet
  facet normal -0.95692 -0.290353 0
    outer loop
      vertex -64.8097 -3.45671 0
      vertex -64.952 -2.98773 7
      vertex -64.952 -2.98773 0
    endloop
  endfacet
  facet normal -0.95692 -0.290353 0
    outer loop
      vertex -64.952 -2.98773 7
      vertex -64.8097 -3.45671 0
      vertex -64.8097 -3.45671 7
    endloop
  endfacet
  facet normal -0.0980287 -0.995184 0
    outer loop
      vertex -62.9877 -4.95196 0
      vertex -62.5 -5 7
      vertex -62.9877 -4.95196 7
    endloop
  endfacet
  facet normal -0.0980287 -0.995184 -0
    outer loop
      vertex -62.5 -5 7
      vertex -62.9877 -4.95196 0
      vertex -62.5 -5 0
    endloop
  endfacet
  facet normal -0.995192 -0.0979419 0
    outer loop
      vertex -64.952 -2.98773 0
      vertex -65 -2.5 7
      vertex -65 -2.5 0
    endloop
  endfacet
  facet normal -0.995192 -0.0979419 0
    outer loop
      vertex -65 -2.5 7
      vertex -64.952 -2.98773 0
      vertex -64.952 -2.98773 7
    endloop
  endfacet
  facet normal 0 0 1
    outer loop
      vertex 62.5 98 7
      vertex 65 95.5 7
      vertex 64.952 95.9877 7
    endloop
  endfacet
  facet normal 0 0 1
    outer loop
      vertex 65 95.5 7
      vertex 55 88 7
      vertex 65 -2.5 7
    endloop
  endfacet
  facet normal 0 0 1
    outer loop
      vertex 62.5 98 7
      vertex 64.952 95.9877 7
      vertex 64.8097 96.4567 7
    endloop
  endfacet
  facet normal -0 0 1
    outer loop
      vertex 55 5 7
      vertex 65 -2.5 7
      vertex 55 88 7
    endloop
  endfacet
  facet normal 0 0 1
    outer loop
      vertex 62.5 98 7
      vertex 64.8097 96.4567 7
      vertex 64.5787 96.8889 7
    endloop
  endfacet
  facet normal 0 -0 1
    outer loop
      vertex 62.5 -5 7
      vertex 65 -2.5 7
      vertex 55 5 7
    endloop
  endfacet
  facet normal 0 0 1
    outer loop
      vertex 62.5 98 7
      vertex 64.5787 96.8889 7
      vertex 64.2678 97.2678 7
    endloop
  endfacet
  facet normal 0 0 1
    outer loop
      vertex 65 -2.5 7
      vertex 62.5 -5 7
      vertex 64.952 -2.98773 7
    endloop
  endfacet
  facet normal 0 0 1
    outer loop
      vertex 62.5 98 7
      vertex 64.2678 97.2678 7
      vertex 63.8889 97.5787 7
    endloop
  endfacet
  facet normal 0 0 1
    outer loop
      vertex 64.952 -2.98773 7
      vertex 62.5 -5 7
      vertex 64.8097 -3.45671 7
    endloop
  endfacet
  facet normal 0 0 1
    outer loop
      vertex 62.5 98 7
      vertex 63.8889 97.5787 7
      vertex 63.4567 97.8097 7
    endloop
  endfacet
  facet normal 0 0 1
    outer loop
      vertex 64.8097 -3.45671 7
      vertex 62.5 -5 7
      vertex 64.5787 -3.88893 7
    endloop
  endfacet
  facet normal 0 0 1
    outer loop
      vertex 62.5 98 7
      vertex 63.4567 97.8097 7
      vertex 62.9877 97.952 7
    endloop
  endfacet
  facet normal 0 0 1
    outer loop
      vertex 64.5787 -3.88893 7
      vertex 62.5 -5 7
      vertex 64.2678 -4.26777 7
    endloop
  endfacet
  facet normal 0 0 1
    outer loop
      vertex 65 95.5 7
      vertex 62.5 98 7
      vertex 55 88 7
    endloop
  endfacet
  facet normal 0 0 1
    outer loop
      vertex 64.2678 -4.26777 7
      vertex 62.5 -5 7
      vertex 63.8889 -4.57867 7
    endloop
  endfacet
  facet normal 0 0 1
    outer loop
      vertex 63.8889 -4.57867 7
      vertex 62.5 -5 7
      vertex 63.4567 -4.8097 7
    endloop
  endfacet
  facet normal 0 0 1
    outer loop
      vertex 62.5 98 7
      vertex -55 88 7
      vertex 55 88 7
    endloop
  endfacet
  facet normal -0 0 1
    outer loop
      vertex -65 95.5 7
      vertex -55 88 7
      vertex -62.5 98 7
    endloop
  endfacet
  facet normal -0 0 1
    outer loop
      vertex -62.5 98 7
      vertex -55 88 7
      vertex 62.5 98 7
    endloop
  endfacet
  facet normal 0 0 1
    outer loop
      vertex 63.4567 -4.8097 7
      vertex 62.5 -5 7
      vertex 62.9877 -4.95196 7
    endloop
  endfacet
  facet normal -0 0 1
    outer loop
      vertex -55 5 7
      vertex 62.5 -5 7
      vertex 55 5 7
    endloop
  endfacet
  facet normal 0 0 1
    outer loop
      vertex -55 5 7
      vertex -62.5 -5 7
      vertex 62.5 -5 7
    endloop
  endfacet
  facet normal 0 0 1
    outer loop
      vertex -55 88 7
      vertex -65 95.5 7
      vertex -55 5 7
    endloop
  endfacet
  facet normal 0 0 1
    outer loop
      vertex -65 95.5 7
      vertex -62.5 98 7
      vertex -62.9877 97.952 7
    endloop
  endfacet
  facet normal 0 0 1
    outer loop
      vertex -65 -2.5 7
      vertex -55 5 7
      vertex -65 95.5 7
    endloop
  endfacet
  facet normal 0 0 1
    outer loop
      vertex -65 95.5 7
      vertex -62.9877 97.952 7
      vertex -63.4567 97.8097 7
    endloop
  endfacet
  facet normal 0 0 1
    outer loop
      vertex -55 5 7
      vertex -65 -2.5 7
      vertex -62.5 -5 7
    endloop
  endfacet
  facet normal 0 0 1
    outer loop
      vertex -65 95.5 7
      vertex -63.4567 97.8097 7
      vertex -63.8889 97.5787 7
    endloop
  endfacet
  facet normal 0 0 1
    outer loop
      vertex -62.5 -5 7
      vertex -65 -2.5 7
      vertex -62.9877 -4.95196 7
    endloop
  endfacet
  facet normal 0 0 1
    outer loop
      vertex -65 95.5 7
      vertex -63.8889 97.5787 7
      vertex -64.2678 97.2678 7
    endloop
  endfacet
  facet normal 0 0 1
    outer loop
      vertex -62.9877 -4.95196 7
      vertex -65 -2.5 7
      vertex -63.4567 -4.8097 7
    endloop
  endfacet
  facet normal 0 0 1
    outer loop
      vertex -65 95.5 7
      vertex -64.2678 97.2678 7
      vertex -64.5787 96.8889 7
    endloop
  endfacet
  facet normal 0 0 1
    outer loop
      vertex -63.4567 -4.8097 7
      vertex -65 -2.5 7
      vertex -63.8889 -4.57867 7
    endloop
  endfacet
  facet normal 0 0 1
    outer loop
      vertex -65 95.5 7
      vertex -64.5787 96.8889 7
      vertex -64.8097 96.4567 7
    endloop
  endfacet
  facet normal 0 0 1
    outer loop
      vertex -63.8889 -4.57867 7
      vertex -65 -2.5 7
      vertex -64.2678 -4.26777 7
    endloop
  endfacet
  facet normal 0 0 1
    outer loop
      vertex -65 95.5 7
      vertex -64.8097 96.4567 7
      vertex -64.952 95.9877 7
    endloop
  endfacet
  facet normal 0 0 1
    outer loop
      vertex -64.2678 -4.26777 7
      vertex -65 -2.5 7
      vertex -64.5787 -3.88893 7
    endloop
  endfacet
  facet normal 0 0 1
    outer loop
      vertex -64.5787 -3.88893 7
      vertex -65 -2.5 7
      vertex -64.8097 -3.45671 7
    endloop
  endfacet
  facet normal 0 0 1
    outer loop
      vertex -64.8097 -3.45671 7
      vertex -65 -2.5 7
      vertex -64.952 -2.98773 7
    endloop
  endfacet
  facet normal 0 0 -1
    outer loop
      vertex 62.5 -5 0
      vertex 65 -2.5 0
      vertex 64.952 -2.98773 0
    endloop
  endfacet
  facet normal 0 0 -1
    outer loop
      vertex 65 -2.5 0
      vertex 55 5 0
      vertex 65 95.5 0
    endloop
  endfacet
  facet normal 0 0 -1
    outer loop
      vertex 62.5 -5 0
      vertex 64.952 -2.98773 0
      vertex 64.8097 -3.45671 0
    endloop
  endfacet
  facet normal 0 0 -1
    outer loop
      vertex 55 88 0
      vertex 65 95.5 0
      vertex 55 5 0
    endloop
  endfacet
  facet normal 0 0 -1
    outer loop
      vertex 62.5 -5 0
      vertex 64.8097 -3.45671 0
      vertex 64.5787 -3.88893 0
    endloop
  endfacet
  facet normal 0 -0 -1
    outer loop
      vertex 62.5 98 0
      vertex 65 95.5 0
      vertex 55 88 0
    endloop
  endfacet
  facet normal 0 0 -1
    outer loop
      vertex 62.5 -5 0
      vertex 64.5787 -3.88893 0
      vertex 64.2678 -4.26777 0
    endloop
  endfacet
  facet normal 0 0 -1
    outer loop
      vertex 65 95.5 0
      vertex 62.5 98 0
      vertex 64.952 95.9877 0
    endloop
  endfacet
  facet normal 0 0 -1
    outer loop
      vertex 62.5 -5 0
      vertex 64.2678 -4.26777 0
      vertex 63.8889 -4.57867 0
    endloop
  endfacet
  facet normal 0 0 -1
    outer loop
      vertex 64.952 95.9877 0
      vertex 62.5 98 0
      vertex 64.8097 96.4567 0
    endloop
  endfacet
  facet normal 0 0 -1
    outer loop
      vertex 62.5 -5 0
      vertex 63.8889 -4.57867 0
      vertex 63.4567 -4.8097 0
    endloop
  endfacet
  facet normal 0 0 -1
    outer loop
      vertex 64.8097 96.4567 0
      vertex 62.5 98 0
      vertex 64.5787 96.8889 0
    endloop
  endfacet
  facet normal 0 0 -1
    outer loop
      vertex 62.5 -5 0
      vertex 63.4567 -4.8097 0
      vertex 62.9877 -4.95196 0
    endloop
  endfacet
  facet normal 0 0 -1
    outer loop
      vertex 64.5787 96.8889 0
      vertex 62.5 98 0
      vertex 64.2678 97.2678 0
    endloop
  endfacet
  facet normal -0 0 -1
    outer loop
      vertex 65 -2.5 0
      vertex 62.5 -5 0
      vertex 55 5 0
    endloop
  endfacet
  facet normal 0 0 -1
    outer loop
      vertex 64.2678 97.2678 0
      vertex 62.5 98 0
      vertex 63.8889 97.5787 0
    endloop
  endfacet
  facet normal 0 0 -1
    outer loop
      vertex 63.8889 97.5787 0
      vertex 62.5 98 0
      vertex 63.4567 97.8097 0
    endloop
  endfacet
  facet normal 0 0 -1
    outer loop
      vertex 62.5 -5 0
      vertex -55 5 0
      vertex 55 5 0
    endloop
  endfacet
  facet normal 0 0 -1
    outer loop
      vertex -65 -2.5 0
      vertex -55 5 0
      vertex -62.5 -5 0
    endloop
  endfacet
  facet normal 0 0 -1
    outer loop
      vertex -62.5 -5 0
      vertex -55 5 0
      vertex 62.5 -5 0
    endloop
  endfacet
  facet normal 0 0 -1
    outer loop
      vertex 63.4567 97.8097 0
      vertex 62.5 98 0
      vertex 62.9877 97.952 0
    endloop
  endfacet
  facet normal 0 0 -1
    outer loop
      vertex -55 88 0
      vertex 62.5 98 0
      vertex 55 88 0
    endloop
  endfacet
  facet normal 0 0 -1
    outer loop
      vertex -55 88 0
      vertex -62.5 98 0
      vertex 62.5 98 0
    endloop
  endfacet
  facet normal -0 0 -1
    outer loop
      vertex -55 5 0
      vertex -65 -2.5 0
      vertex -55 88 0
    endloop
  endfacet
  facet normal 0 0 -1
    outer loop
      vertex -65 -2.5 0
      vertex -62.5 -5 0
      vertex -62.9877 -4.95196 0
    endloop
  endfacet
  facet normal 0 0 -1
    outer loop
      vertex -65 95.5 0
      vertex -55 88 0
      vertex -65 -2.5 0
    endloop
  endfacet
  facet normal 0 0 -1
    outer loop
      vertex -65 -2.5 0
      vertex -62.9877 -4.95196 0
      vertex -63.4567 -4.8097 0
    endloop
  endfacet
  facet normal 0 0 -1
    outer loop
      vertex -55 88 0
      vertex -65 95.5 0
      vertex -62.5 98 0
    endloop
  endfacet
  facet normal 0 0 -1
    outer loop
      vertex -65 -2.5 0
      vertex -63.4567 -4.8097 0
      vertex -63.8889 -4.57867 0
    endloop
  endfacet
  facet normal 0 0 -1
    outer loop
      vertex -62.5 98 0
      vertex -65 95.5 0
      vertex -62.9877 97.952 0
    endloop
  endfacet
  facet normal 0 0 -1
    outer loop
      vertex -65 -2.5 0
      vertex -63.8889 -4.57867 0
      vertex -64.2678 -4.26777 0
    endloop
  endfacet
  facet normal 0 0 -1
    outer loop
      vertex -62.9877 97.952 0
      vertex -65 95.5 0
      vertex -63.4567 97.8097 0
    endloop
  endfacet
  facet normal 0 0 -1
    outer loop
      vertex -65 -2.5 0
      vertex -64.2678 -4.26777 0
      vertex -64.5787 -3.88893 0
    endloop
  endfacet
  facet normal 0 0 -1
    outer loop
      vertex -63.4567 97.8097 0
      vertex -65 95.5 0
      vertex -63.8889 97.5787 0
    endloop
  endfacet
  facet normal 0 0 -1
    outer loop
      vertex -65 -2.5 0
      vertex -64.5787 -3.88893 0
      vertex -64.8097 -3.45671 0
    endloop
  endfacet
  facet normal 0 0 -1
    outer loop
      vertex -63.8889 97.5787 0
      vertex -65 95.5 0
      vertex -64.2678 97.2678 0
    endloop
  endfacet
  facet normal 0 0 -1
    outer loop
      vertex -65 -2.5 0
      vertex -64.8097 -3.45671 0
      vertex -64.952 -2.98773 0
    endloop
  endfacet
  facet normal 0 0 -1
    outer loop
      vertex -64.2678 97.2678 0
      vertex -65 95.5 0
      vertex -64.5787 96.8889 0
    endloop
  endfacet
  facet normal 0 0 -1
    outer loop
      vertex -64.5787 96.8889 0
      vertex -65 95.5 0
      vertex -64.8097 96.4567 0
    endloop
  endfacet
  facet normal 0 0 -1
    outer loop
      vertex -64.8097 96.4567 0
      vertex -65 95.5 0
      vertex -64.952 95.9877 0
    endloop
  endfacet
  facet normal 1 -0 0
    outer loop
      vertex -55 5 7
      vertex -55 88 0
      vertex -55 88 7
    endloop
  endfacet
  facet normal 1 0 0
    outer loop
      vertex -55 88 0
      vertex -55 5 7
      vertex -55 5 0
    endloop
  endfacet
  facet normal -1 0 0
    outer loop
      vertex 55 5 0
      vertex 55 88 7
      vertex 55 88 0
    endloop
  endfacet
  facet normal -1 -0 0
    outer loop
      vertex 55 88 7
      vertex 55 5 0
      vertex 55 5 7
    endloop
  endfacet
  facet normal 0 1 -0
    outer loop
      vertex 62.5 98 0
      vertex -62.5 98 7
      vertex 62.5 98 7
    endloop
  endfacet
  facet normal 0 1 0
    outer loop
      vertex -62.5 98 7
      vertex 62.5 98 0
      vertex -62.5 98 0
    endloop
  endfacet
  facet normal 0 -1 0
    outer loop
      vertex -55 88 0
      vertex 55 88 7
      vertex -55 88 7
    endloop
  endfacet
  facet normal 0 -1 -0
    outer loop
      vertex 55 88 7
      vertex -55 88 0
      vertex 55 88 0
    endloop
  endfacet
  facet normal -0.956923 0.290341 0
    outer loop
      vertex -64.952 95.9877 0
      vertex -64.8097 96.4567 7
      vertex -64.8097 96.4567 0
    endloop
  endfacet
  facet normal -0.956923 0.290341 0
    outer loop
      vertex -64.8097 96.4567 7
      vertex -64.952 95.9877 0
      vertex -64.952 95.9877 7
    endloop
  endfacet
  facet normal -0.634326 0.773066 0
    outer loop
      vertex -63.8889 97.5787 0
      vertex -64.2678 97.2678 7
      vertex -63.8889 97.5787 7
    endloop
  endfacet
  facet normal -0.634326 0.773066 0
    outer loop
      vertex -64.2678 97.2678 7
      vertex -63.8889 97.5787 0
      vertex -64.2678 97.2678 0
    endloop
  endfacet
  facet normal 0.0979479 0.995192 -0
    outer loop
      vertex 62.9877 97.952 0
      vertex 62.5 98 7
      vertex 62.9877 97.952 7
    endloop
  endfacet
  facet normal 0.0979479 0.995192 0
    outer loop
      vertex 62.5 98 7
      vertex 62.9877 97.952 0
      vertex 62.5 98 0
    endloop
  endfacet
  facet normal 0.634326 0.773066 -0
    outer loop
      vertex 64.2678 97.2678 0
      vertex 63.8889 97.5787 7
      vertex 64.2678 97.2678 7
    endloop
  endfacet
  facet normal 0.634326 0.773066 0
    outer loop
      vertex 63.8889 97.5787 7
      vertex 64.2678 97.2678 0
      vertex 63.8889 97.5787 0
    endloop
  endfacet
  facet normal -0.290341 0.956923 0
    outer loop
      vertex -62.9877 97.952 0
      vertex -63.4567 97.8097 7
      vertex -62.9877 97.952 7
    endloop
  endfacet
  facet normal -0.290341 0.956923 0
    outer loop
      vertex -63.4567 97.8097 7
      vertex -62.9877 97.952 0
      vertex -63.4567 97.8097 0
    endloop
  endfacet
  facet normal 0.995192 0.0979479 0
    outer loop
      vertex 65 95.5 7
      vertex 64.952 95.9877 0
      vertex 64.952 95.9877 7
    endloop
  endfacet
  facet normal 0.995192 0.0979479 0
    outer loop
      vertex 64.952 95.9877 0
      vertex 65 95.5 7
      vertex 65 95.5 0
    endloop
  endfacet
  facet normal -0.773066 0.634326 0
    outer loop
      vertex -64.5787 96.8889 0
      vertex -64.2678 97.2678 7
      vertex -64.2678 97.2678 0
    endloop
  endfacet
  facet normal -0.773066 0.634326 0
    outer loop
      vertex -64.2678 97.2678 7
      vertex -64.5787 96.8889 0
      vertex -64.5787 96.8889 7
    endloop
  endfacet
  facet normal 0.881935 0.471372 0
    outer loop
      vertex 64.8097 96.4567 7
      vertex 64.5787 96.8889 0
      vertex 64.5787 96.8889 7
    endloop
  endfacet
  facet normal 0.881935 0.471372 0
    outer loop
      vertex 64.5787 96.8889 0
      vertex 64.8097 96.4567 7
      vertex 64.8097 96.4567 0
    endloop
  endfacet
  facet normal -0.995192 0.0979479 0
    outer loop
      vertex -65 95.5 0
      vertex -64.952 95.9877 7
      vertex -64.952 95.9877 0
    endloop
  endfacet
  facet normal -0.995192 0.0979479 0
    outer loop
      vertex -64.952 95.9877 7
      vertex -65 95.5 0
      vertex -65 95.5 7
    endloop
  endfacet
  facet normal -0.471372 0.881935 0
    outer loop
      vertex -63.4567 97.8097 0
      vertex -63.8889 97.5787 7
      vertex -63.4567 97.8097 7
    endloop
  endfacet
  facet normal -0.471372 0.881935 0
    outer loop
      vertex -63.8889 97.5787 7
      vertex -63.4567 97.8097 0
      vertex -63.8889 97.5787 0
    endloop
  endfacet
  facet normal -0.0979479 0.995192 0
    outer loop
      vertex -62.5 98 0
      vertex -62.9877 97.952 7
      vertex -62.5 98 7
    endloop
  endfacet
  facet normal -0.0979479 0.995192 0
    outer loop
      vertex -62.9877 97.952 7
      vertex -62.5 98 0
      vertex -62.9877 97.952 0
    endloop
  endfacet
  facet normal -0.881935 0.471372 0
    outer loop
      vertex -64.8097 96.4567 0
      vertex -64.5787 96.8889 7
      vertex -64.5787 96.8889 0
    endloop
  endfacet
  facet normal -0.881935 0.471372 0
    outer loop
      vertex -64.5787 96.8889 7
      vertex -64.8097 96.4567 0
      vertex -64.8097 96.4567 7
    endloop
  endfacet
  facet normal 0.290341 0.956923 -0
    outer loop
      vertex 63.4567 97.8097 0
      vertex 62.9877 97.952 7
      vertex 63.4567 97.8097 7
    endloop
  endfacet
  facet normal 0.290341 0.956923 0
    outer loop
      vertex 62.9877 97.952 7
      vertex 63.4567 97.8097 0
      vertex 62.9877 97.952 0
    endloop
  endfacet
  facet normal 0.471372 0.881935 -0
    outer loop
      vertex 63.8889 97.5787 0
      vertex 63.4567 97.8097 7
      vertex 63.8889 97.5787 7
    endloop
  endfacet
  facet normal 0.471372 0.881935 0
    outer loop
      vertex 63.4567 97.8097 7
      vertex 63.8889 97.5787 0
      vertex 63.4567 97.8097 0
    endloop
  endfacet
  facet normal 0.956923 0.290341 0
    outer loop
      vertex 64.952 95.9877 7
      vertex 64.8097 96.4567 0
      vertex 64.8097 96.4567 7
    endloop
  endfacet
  facet normal 0.956923 0.290341 0
    outer loop
      vertex 64.8097 96.4567 0
      vertex 64.952 95.9877 7
      vertex 64.952 95.9877 0
    endloop
  endfacet
  facet normal 0.773066 0.634326 0
    outer loop
      vertex 64.5787 96.8889 7
      vertex 64.2678 97.2678 0
      vertex 64.2678 97.2678 7
    endloop
  endfacet
  facet normal 0.773066 0.634326 0
    outer loop
      vertex 64.2678 97.2678 0
      vertex 64.5787 96.8889 7
      vertex 64.5787 96.8889 0
    endloop
  endfacet
  facet normal -0.881941 -0.47136 0
    outer loop
      vertex -27.7978 37.0333 7
      vertex -27.9087 37.2408 27
      vertex -27.9087 37.2408 7
    endloop
  endfacet
  facet normal -0.881941 -0.47136 0
    outer loop
      vertex -27.9087 37.2408 27
      vertex -27.7978 37.0333 7
      vertex -27.7978 37.0333 27
    endloop
  endfacet
  facet normal 0.634649 0.772801 -0
    outer loop
      vertex 27.6485 39.1485 7
      vertex 27.4667 39.2978 27
      vertex 27.6485 39.1485 27
    endloop
  endfacet
  facet normal 0.634649 0.772801 0
    outer loop
      vertex 27.4667 39.2978 27
      vertex 27.6485 39.1485 7
      vertex 27.4667 39.2978 7
    endloop
  endfacet
  facet normal 0.995167 -0.0981989 0
    outer loop
      vertex 27.9769 37.4659 27
      vertex 28 37.7 7
      vertex 28 37.7 27
    endloop
  endfacet
  facet normal 0.995167 -0.0981989 0
    outer loop
      vertex 28 37.7 7
      vertex 27.9769 37.4659 27
      vertex 27.9769 37.4659 7
    endloop
  endfacet
  facet normal 0 -1 0
    outer loop
      vertex -26.8 36.5 7
      vertex 26.8 36.5 27
      vertex -26.8 36.5 27
    endloop
  endfacet
  facet normal 0 -1 -0
    outer loop
      vertex 26.8 36.5 27
      vertex -26.8 36.5 7
      vertex 26.8 36.5 7
    endloop
  endfacet
  facet normal 0 0 -1
    outer loop
      vertex 26.8 36.5 7
      vertex 28 37.7 7
      vertex 27.9769 37.4659 7
    endloop
  endfacet
  facet normal -0 0 -1
    outer loop
      vertex 28 37.7 7
      vertex 26.8 36.5 7
      vertex 28 38.3 7
    endloop
  endfacet
  facet normal 0 0 -1
    outer loop
      vertex 26.8 36.5 7
      vertex 27.9769 37.4659 7
      vertex 27.9087 37.2408 7
    endloop
  endfacet
  facet normal 0 0 -1
    outer loop
      vertex 26.8 39.5 7
      vertex 28 38.3 7
      vertex 26.8 36.5 7
    endloop
  endfacet
  facet normal 0 0 -1
    outer loop
      vertex 26.8 36.5 7
      vertex 27.9087 37.2408 7
      vertex 27.7978 37.0333 7
    endloop
  endfacet
  facet normal 0 0 -1
    outer loop
      vertex 28 38.3 7
      vertex 26.8 39.5 7
      vertex 27.9769 38.5341 7
    endloop
  endfacet
  facet normal 0 0 -1
    outer loop
      vertex 26.8 36.5 7
      vertex 27.7978 37.0333 7
      vertex 27.6485 36.8515 7
    endloop
  endfacet
  facet normal 0 0 -1
    outer loop
      vertex 27.9769 38.5341 7
      vertex 26.8 39.5 7
      vertex 27.9087 38.7592 7
    endloop
  endfacet
  facet normal 0 0 -1
    outer loop
      vertex 26.8 36.5 7
      vertex 27.6485 36.8515 7
      vertex 27.4667 36.7022 7
    endloop
  endfacet
  facet normal 0 0 -1
    outer loop
      vertex 27.9087 38.7592 7
      vertex 26.8 39.5 7
      vertex 27.7978 38.9667 7
    endloop
  endfacet
  facet normal 0 0 -1
    outer loop
      vertex 26.8 36.5 7
      vertex 27.4667 36.7022 7
      vertex 27.2592 36.5913 7
    endloop
  endfacet
  facet normal 0 0 -1
    outer loop
      vertex 27.7978 38.9667 7
      vertex 26.8 39.5 7
      vertex 27.6485 39.1485 7
    endloop
  endfacet
  facet normal 0 0 -1
    outer loop
      vertex 26.8 36.5 7
      vertex 27.2592 36.5913 7
      vertex 27.0341 36.5231 7
    endloop
  endfacet
  facet normal 0 0 -1
    outer loop
      vertex 27.6485 39.1485 7
      vertex 26.8 39.5 7
      vertex 27.4667 39.2978 7
    endloop
  endfacet
  facet normal 0 0 -1
    outer loop
      vertex 27.4667 39.2978 7
      vertex 26.8 39.5 7
      vertex 27.2592 39.4087 7
    endloop
  endfacet
  facet normal 0 0 -1
    outer loop
      vertex 27.2592 39.4087 7
      vertex 26.8 39.5 7
      vertex 27.0341 39.4769 7
    endloop
  endfacet
  facet normal 0 0 -1
    outer loop
      vertex -26.8 36.5 7
      vertex 26.8 39.5 7
      vertex 26.8 36.5 7
    endloop
  endfacet
  facet normal 0 0 -1
    outer loop
      vertex -26.8 36.5 7
      vertex -26.8 39.5 7
      vertex 26.8 39.5 7
    endloop
  endfacet
  facet normal 0 0 -1
    outer loop
      vertex -28 37.7 7
      vertex -26.8 36.5 7
      vertex -27.0341 36.5231 7
    endloop
  endfacet
  facet normal 0 0 -1
    outer loop
      vertex -26.8 36.5 7
      vertex -28 37.7 7
      vertex -26.8 39.5 7
    endloop
  endfacet
  facet normal 0 0 -1
    outer loop
      vertex -28 37.7 7
      vertex -27.0341 36.5231 7
      vertex -27.2592 36.5913 7
    endloop
  endfacet
  facet normal 0 0 -1
    outer loop
      vertex -28 38.3 7
      vertex -26.8 39.5 7
      vertex -28 37.7 7
    endloop
  endfacet
  facet normal 0 0 -1
    outer loop
      vertex -28 37.7 7
      vertex -27.2592 36.5913 7
      vertex -27.4667 36.7022 7
    endloop
  endfacet
  facet normal 0 0 -1
    outer loop
      vertex -26.8 39.5 7
      vertex -28 38.3 7
      vertex -27.0341 39.4769 7
    endloop
  endfacet
  facet normal 0 0 -1
    outer loop
      vertex -28 37.7 7
      vertex -27.4667 36.7022 7
      vertex -27.6485 36.8515 7
    endloop
  endfacet
  facet normal 0 0 -1
    outer loop
      vertex -27.0341 39.4769 7
      vertex -28 38.3 7
      vertex -27.2592 39.4087 7
    endloop
  endfacet
  facet normal 0 0 -1
    outer loop
      vertex -28 37.7 7
      vertex -27.6485 36.8515 7
      vertex -27.7978 37.0333 7
    endloop
  endfacet
  facet normal 0 0 -1
    outer loop
      vertex -27.2592 39.4087 7
      vertex -28 38.3 7
      vertex -27.4667 39.2978 7
    endloop
  endfacet
  facet normal 0 0 -1
    outer loop
      vertex -28 37.7 7
      vertex -27.7978 37.0333 7
      vertex -27.9087 37.2408 7
    endloop
  endfacet
  facet normal 0 0 -1
    outer loop
      vertex -27.4667 39.2978 7
      vertex -28 38.3 7
      vertex -27.6485 39.1485 7
    endloop
  endfacet
  facet normal 0 0 -1
    outer loop
      vertex -28 37.7 7
      vertex -27.9087 37.2408 7
      vertex -27.9769 37.4659 7
    endloop
  endfacet
  facet normal 0 0 -1
    outer loop
      vertex -27.6485 39.1485 7
      vertex -28 38.3 7
      vertex -27.7978 38.9667 7
    endloop
  endfacet
  facet normal 0 0 -1
    outer loop
      vertex -27.7978 38.9667 7
      vertex -28 38.3 7
      vertex -27.9087 38.7592 7
    endloop
  endfacet
  facet normal 0 0 -1
    outer loop
      vertex -27.9087 38.7592 7
      vertex -28 38.3 7
      vertex -27.9769 38.5341 7
    endloop
  endfacet
  facet normal 0.957039 0.28996 0
    outer loop
      vertex 27.9769 38.5341 27
      vertex 27.9087 38.7592 7
      vertex 27.9087 38.7592 27
    endloop
  endfacet
  facet normal 0.957039 0.28996 0
    outer loop
      vertex 27.9087 38.7592 7
      vertex 27.9769 38.5341 27
      vertex 27.9769 38.5341 7
    endloop
  endfacet
  facet normal -0.634649 -0.772801 0
    outer loop
      vertex -27.6485 36.8515 7
      vertex -27.4667 36.7022 27
      vertex -27.6485 36.8515 27
    endloop
  endfacet
  facet normal -0.634649 -0.772801 -0
    outer loop
      vertex -27.4667 36.7022 27
      vertex -27.6485 36.8515 7
      vertex -27.4667 36.7022 7
    endloop
  endfacet
  facet normal -0.957039 -0.28996 0
    outer loop
      vertex -27.9087 37.2408 7
      vertex -27.9769 37.4659 27
      vertex -27.9769 37.4659 7
    endloop
  endfacet
  facet normal -0.957039 -0.28996 0
    outer loop
      vertex -27.9769 37.4659 27
      vertex -27.9087 37.2408 7
      vertex -27.9087 37.2408 27
    endloop
  endfacet
  facet normal -0.957039 0.28996 0
    outer loop
      vertex -27.9769 38.5341 7
      vertex -27.9087 38.7592 27
      vertex -27.9087 38.7592 7
    endloop
  endfacet
  facet normal -0.957039 0.28996 0
    outer loop
      vertex -27.9087 38.7592 27
      vertex -27.9769 38.5341 7
      vertex -27.9769 38.5341 27
    endloop
  endfacet
  facet normal -0.995167 0.0981989 0
    outer loop
      vertex -28 38.3 7
      vertex -27.9769 38.5341 27
      vertex -27.9769 38.5341 7
    endloop
  endfacet
  facet normal -0.995167 0.0981989 0
    outer loop
      vertex -27.9769 38.5341 27
      vertex -28 38.3 7
      vertex -28 38.3 27
    endloop
  endfacet
  facet normal -0.28996 -0.957039 0
    outer loop
      vertex -27.2592 36.5913 7
      vertex -27.0341 36.5231 27
      vertex -27.2592 36.5913 27
    endloop
  endfacet
  facet normal -0.28996 -0.957039 -0
    outer loop
      vertex -27.0341 36.5231 27
      vertex -27.2592 36.5913 7
      vertex -27.0341 36.5231 7
    endloop
  endfacet
  facet normal 0 1 -0
    outer loop
      vertex 26.8 39.5 7
      vertex -26.8 39.5 27
      vertex 26.8 39.5 27
    endloop
  endfacet
  facet normal 0 1 0
    outer loop
      vertex -26.8 39.5 27
      vertex 26.8 39.5 7
      vertex -26.8 39.5 7
    endloop
  endfacet
  facet normal -0.47136 -0.881941 0
    outer loop
      vertex -27.4667 36.7022 7
      vertex -27.2592 36.5913 27
      vertex -27.4667 36.7022 27
    endloop
  endfacet
  facet normal -0.47136 -0.881941 -0
    outer loop
      vertex -27.2592 36.5913 27
      vertex -27.4667 36.7022 7
      vertex -27.2592 36.5913 7
    endloop
  endfacet
  facet normal -0.0981989 -0.995167 0
    outer loop
      vertex -27.0341 36.5231 7
      vertex -26.8 36.5 27
      vertex -27.0341 36.5231 27
    endloop
  endfacet
  facet normal -0.0981989 -0.995167 -0
    outer loop
      vertex -26.8 36.5 27
      vertex -27.0341 36.5231 7
      vertex -26.8 36.5 7
    endloop
  endfacet
  facet normal 0.995167 0.0981989 0
    outer loop
      vertex 28 38.3 27
      vertex 27.9769 38.5341 7
      vertex 27.9769 38.5341 27
    endloop
  endfacet
  facet normal 0.995167 0.0981989 0
    outer loop
      vertex 27.9769 38.5341 7
      vertex 28 38.3 27
      vertex 28 38.3 7
    endloop
  endfacet
  facet normal -0.772801 -0.634649 0
    outer loop
      vertex -27.6485 36.8515 7
      vertex -27.7978 37.0333 27
      vertex -27.7978 37.0333 7
    endloop
  endfacet
  facet normal -0.772801 -0.634649 0
    outer loop
      vertex -27.7978 37.0333 27
      vertex -27.6485 36.8515 7
      vertex -27.6485 36.8515 27
    endloop
  endfacet
  facet normal 0.47136 -0.881941 0
    outer loop
      vertex 27.2592 36.5913 7
      vertex 27.4667 36.7022 27
      vertex 27.2592 36.5913 27
    endloop
  endfacet
  facet normal 0.47136 -0.881941 0
    outer loop
      vertex 27.4667 36.7022 27
      vertex 27.2592 36.5913 7
      vertex 27.4667 36.7022 7
    endloop
  endfacet
  facet normal 0.0981989 0.995167 -0
    outer loop
      vertex 27.0341 39.4769 7
      vertex 26.8 39.5 27
      vertex 27.0341 39.4769 27
    endloop
  endfacet
  facet normal 0.0981989 0.995167 0
    outer loop
      vertex 26.8 39.5 27
      vertex 27.0341 39.4769 7
      vertex 26.8 39.5 7
    endloop
  endfacet
  facet normal 0.47136 0.881941 -0
    outer loop
      vertex 27.4667 39.2978 7
      vertex 27.2592 39.4087 27
      vertex 27.4667 39.2978 27
    endloop
  endfacet
  facet normal 0.47136 0.881941 0
    outer loop
      vertex 27.2592 39.4087 27
      vertex 27.4667 39.2978 7
      vertex 27.2592 39.4087 7
    endloop
  endfacet
  facet normal 0 0 1
    outer loop
      vertex 26.8 39.5 27
      vertex 28 38.3 27
      vertex 27.9769 38.5341 27
    endloop
  endfacet
  facet normal 0 0 1
    outer loop
      vertex 28 38.3 27
      vertex 26.8 39.5 27
      vertex 28 37.7 27
    endloop
  endfacet
  facet normal 0 0 1
    outer loop
      vertex 26.8 39.5 27
      vertex 27.9769 38.5341 27
      vertex 27.9087 38.7592 27
    endloop
  endfacet
  facet normal 0 0 1
    outer loop
      vertex 26.8 36.5 27
      vertex 28 37.7 27
      vertex 26.8 39.5 27
    endloop
  endfacet
  facet normal 0 0 1
    outer loop
      vertex 26.8 39.5 27
      vertex 27.9087 38.7592 27
      vertex 27.7978 38.9667 27
    endloop
  endfacet
  facet normal 0 0 1
    outer loop
      vertex 28 37.7 27
      vertex 26.8 36.5 27
      vertex 27.9769 37.4659 27
    endloop
  endfacet
  facet normal 0 0 1
    outer loop
      vertex 26.8 39.5 27
      vertex 27.7978 38.9667 27
      vertex 27.6485 39.1485 27
    endloop
  endfacet
  facet normal 0 0 1
    outer loop
      vertex 27.9769 37.4659 27
      vertex 26.8 36.5 27
      vertex 27.9087 37.2408 27
    endloop
  endfacet
  facet normal 0 0 1
    outer loop
      vertex 26.8 39.5 27
      vertex 27.6485 39.1485 27
      vertex 27.4667 39.2978 27
    endloop
  endfacet
  facet normal 0 0 1
    outer loop
      vertex 27.9087 37.2408 27
      vertex 26.8 36.5 27
      vertex 27.7978 37.0333 27
    endloop
  endfacet
  facet normal 0 0 1
    outer loop
      vertex 26.8 39.5 27
      vertex 27.4667 39.2978 27
      vertex 27.2592 39.4087 27
    endloop
  endfacet
  facet normal 0 0 1
    outer loop
      vertex 27.7978 37.0333 27
      vertex 26.8 36.5 27
      vertex 27.6485 36.8515 27
    endloop
  endfacet
  facet normal 0 0 1
    outer loop
      vertex 26.8 39.5 27
      vertex 27.2592 39.4087 27
      vertex 27.0341 39.4769 27
    endloop
  endfacet
  facet normal 0 0 1
    outer loop
      vertex 27.6485 36.8515 27
      vertex 26.8 36.5 27
      vertex 27.4667 36.7022 27
    endloop
  endfacet
  facet normal 0 0 1
    outer loop
      vertex 27.4667 36.7022 27
      vertex 26.8 36.5 27
      vertex 27.2592 36.5913 27
    endloop
  endfacet
  facet normal 0 0 1
    outer loop
      vertex 27.2592 36.5913 27
      vertex 26.8 36.5 27
      vertex 27.0341 36.5231 27
    endloop
  endfacet
  facet normal -0 0 1
    outer loop
      vertex -26.8 39.5 27
      vertex 26.8 36.5 27
      vertex 26.8 39.5 27
    endloop
  endfacet
  facet normal 0 0 1
    outer loop
      vertex -26.8 39.5 27
      vertex -26.8 36.5 27
      vertex 26.8 36.5 27
    endloop
  endfacet
  facet normal 0 0 1
    outer loop
      vertex -28 38.3 27
      vertex -26.8 39.5 27
      vertex -27.0341 39.4769 27
    endloop
  endfacet
  facet normal 0 0 1
    outer loop
      vertex -26.8 39.5 27
      vertex -28 38.3 27
      vertex -26.8 36.5 27
    endloop
  endfacet
  facet normal 0 0 1
    outer loop
      vertex -28 38.3 27
      vertex -27.0341 39.4769 27
      vertex -27.2592 39.4087 27
    endloop
  endfacet
  facet normal -0 0 1
    outer loop
      vertex -28 37.7 27
      vertex -26.8 36.5 27
      vertex -28 38.3 27
    endloop
  endfacet
  facet normal 0 0 1
    outer loop
      vertex -28 38.3 27
      vertex -27.2592 39.4087 27
      vertex -27.4667 39.2978 27
    endloop
  endfacet
  facet normal 0 0 1
    outer loop
      vertex -26.8 36.5 27
      vertex -28 37.7 27
      vertex -27.0341 36.5231 27
    endloop
  endfacet
  facet normal 0 0 1
    outer loop
      vertex -28 38.3 27
      vertex -27.4667 39.2978 27
      vertex -27.6485 39.1485 27
    endloop
  endfacet
  facet normal 0 0 1
    outer loop
      vertex -27.0341 36.5231 27
      vertex -28 37.7 27
      vertex -27.2592 36.5913 27
    endloop
  endfacet
  facet normal 0 0 1
    outer loop
      vertex -28 38.3 27
      vertex -27.6485 39.1485 27
      vertex -27.7978 38.9667 27
    endloop
  endfacet
  facet normal 0 0 1
    outer loop
      vertex -27.2592 36.5913 27
      vertex -28 37.7 27
      vertex -27.4667 36.7022 27
    endloop
  endfacet
  facet normal 0 0 1
    outer loop
      vertex -28 38.3 27
      vertex -27.7978 38.9667 27
      vertex -27.9087 38.7592 27
    endloop
  endfacet
  facet normal 0 0 1
    outer loop
      vertex -27.4667 36.7022 27
      vertex -28 37.7 27
      vertex -27.6485 36.8515 27
    endloop
  endfacet
  facet normal 0 0 1
    outer loop
      vertex -28 38.3 27
      vertex -27.9087 38.7592 27
      vertex -27.9769 38.5341 27
    endloop
  endfacet
  facet normal 0 0 1
    outer loop
      vertex -27.6485 36.8515 27
      vertex -28 37.7 27
      vertex -27.7978 37.0333 27
    endloop
  endfacet
  facet normal 0 0 1
    outer loop
      vertex -27.7978 37.0333 27
      vertex -28 37.7 27
      vertex -27.9087 37.2408 27
    endloop
  endfacet
  facet normal 0 0 1
    outer loop
      vertex -27.9087 37.2408 27
      vertex -28 37.7 27
      vertex -27.9769 37.4659 27
    endloop
  endfacet
  facet normal 1 -0 0
    outer loop
      vertex 28 37.7 27
      vertex 28 38.3 7
      vertex 28 38.3 27
    endloop
  endfacet
  facet normal 1 0 0
    outer loop
      vertex 28 38.3 7
      vertex 28 37.7 27
      vertex 28 37.7 7
    endloop
  endfacet
  facet normal 0.28996 -0.957039 0
    outer loop
      vertex 27.0341 36.5231 7
      vertex 27.2592 36.5913 27
      vertex 27.0341 36.5231 27
    endloop
  endfacet
  facet normal 0.28996 -0.957039 0
    outer loop
      vertex 27.2592 36.5913 27
      vertex 27.0341 36.5231 7
      vertex 27.2592 36.5913 7
    endloop
  endfacet
  facet normal -0.995167 -0.0981989 0
    outer loop
      vertex -27.9769 37.4659 7
      vertex -28 37.7 27
      vertex -28 37.7 7
    endloop
  endfacet
  facet normal -0.995167 -0.0981989 0
    outer loop
      vertex -28 37.7 27
      vertex -27.9769 37.4659 7
      vertex -27.9769 37.4659 27
    endloop
  endfacet
  facet normal 0.957039 -0.28996 0
    outer loop
      vertex 27.9087 37.2408 27
      vertex 27.9769 37.4659 7
      vertex 27.9769 37.4659 27
    endloop
  endfacet
  facet normal 0.957039 -0.28996 0
    outer loop
      vertex 27.9769 37.4659 7
      vertex 27.9087 37.2408 27
      vertex 27.9087 37.2408 7
    endloop
  endfacet
  facet normal -0.634649 0.772801 0
    outer loop
      vertex -27.4667 39.2978 7
      vertex -27.6485 39.1485 27
      vertex -27.4667 39.2978 27
    endloop
  endfacet
  facet normal -0.634649 0.772801 0
    outer loop
      vertex -27.6485 39.1485 27
      vertex -27.4667 39.2978 7
      vertex -27.6485 39.1485 7
    endloop
  endfacet
  facet normal 0.881941 0.47136 0
    outer loop
      vertex 27.9087 38.7592 27
      vertex 27.7978 38.9667 7
      vertex 27.7978 38.9667 27
    endloop
  endfacet
  facet normal 0.881941 0.47136 0
    outer loop
      vertex 27.7978 38.9667 7
      vertex 27.9087 38.7592 27
      vertex 27.9087 38.7592 7
    endloop
  endfacet
  facet normal 0.772801 0.634649 0
    outer loop
      vertex 27.7978 38.9667 27
      vertex 27.6485 39.1485 7
      vertex 27.6485 39.1485 27
    endloop
  endfacet
  facet normal 0.772801 0.634649 0
    outer loop
      vertex 27.6485 39.1485 7
      vertex 27.7978 38.9667 27
      vertex 27.7978 38.9667 7
    endloop
  endfacet
  facet normal -0.28996 0.957039 0
    outer loop
      vertex -27.0341 39.4769 7
      vertex -27.2592 39.4087 27
      vertex -27.0341 39.4769 27
    endloop
  endfacet
  facet normal -0.28996 0.957039 0
    outer loop
      vertex -27.2592 39.4087 27
      vertex -27.0341 39.4769 7
      vertex -27.2592 39.4087 7
    endloop
  endfacet
  facet normal -0.881941 0.47136 0
    outer loop
      vertex -27.9087 38.7592 7
      vertex -27.7978 38.9667 27
      vertex -27.7978 38.9667 7
    endloop
  endfacet
  facet normal -0.881941 0.47136 0
    outer loop
      vertex -27.7978 38.9667 27
      vertex -27.9087 38.7592 7
      vertex -27.9087 38.7592 27
    endloop
  endfacet
  facet normal -0.47136 0.881941 0
    outer loop
      vertex -27.2592 39.4087 7
      vertex -27.4667 39.2978 27
      vertex -27.2592 39.4087 27
    endloop
  endfacet
  facet normal -0.47136 0.881941 0
    outer loop
      vertex -27.4667 39.2978 27
      vertex -27.2592 39.4087 7
      vertex -27.4667 39.2978 7
    endloop
  endfacet
  facet normal 0.28996 0.957039 -0
    outer loop
      vertex 27.2592 39.4087 7
      vertex 27.0341 39.4769 27
      vertex 27.2592 39.4087 27
    endloop
  endfacet
  facet normal 0.28996 0.957039 0
    outer loop
      vertex 27.0341 39.4769 27
      vertex 27.2592 39.4087 7
      vertex 27.0341 39.4769 7
    endloop
  endfacet
  facet normal 0.0981989 -0.995167 0
    outer loop
      vertex 26.8 36.5 7
      vertex 27.0341 36.5231 27
      vertex 26.8 36.5 27
    endloop
  endfacet
  facet normal 0.0981989 -0.995167 0
    outer loop
      vertex 27.0341 36.5231 27
      vertex 26.8 36.5 7
      vertex 27.0341 36.5231 7
    endloop
  endfacet
  facet normal 0.772801 -0.634649 0
    outer loop
      vertex 27.6485 36.8515 27
      vertex 27.7978 37.0333 7
      vertex 27.7978 37.0333 27
    endloop
  endfacet
  facet normal 0.772801 -0.634649 0
    outer loop
      vertex 27.7978 37.0333 7
      vertex 27.6485 36.8515 27
      vertex 27.6485 36.8515 7
    endloop
  endfacet
  facet normal -0.772801 0.634649 0
    outer loop
      vertex -27.7978 38.9667 7
      vertex -27.6485 39.1485 27
      vertex -27.6485 39.1485 7
    endloop
  endfacet
  facet normal -0.772801 0.634649 0
    outer loop
      vertex -27.6485 39.1485 27
      vertex -27.7978 38.9667 7
      vertex -27.7978 38.9667 27
    endloop
  endfacet
  facet normal -1 0 0
    outer loop
      vertex -28 37.7 7
      vertex -28 38.3 27
      vertex -28 38.3 7
    endloop
  endfacet
  facet normal -1 -0 0
    outer loop
      vertex -28 38.3 27
      vertex -28 37.7 7
      vertex -28 37.7 27
    endloop
  endfacet
  facet normal -0.0981989 0.995167 0
    outer loop
      vertex -26.8 39.5 7
      vertex -27.0341 39.4769 27
      vertex -26.8 39.5 27
    endloop
  endfacet
  facet normal -0.0981989 0.995167 0
    outer loop
      vertex -27.0341 39.4769 27
      vertex -26.8 39.5 7
      vertex -27.0341 39.4769 7
    endloop
  endfacet
  facet normal 0.881941 -0.47136 0
    outer loop
      vertex 27.7978 37.0333 27
      vertex 27.9087 37.2408 7
      vertex 27.9087 37.2408 27
    endloop
  endfacet
  facet normal 0.881941 -0.47136 0
    outer loop
      vertex 27.9087 37.2408 7
      vertex 27.7978 37.0333 27
      vertex 27.7978 37.0333 7
    endloop
  endfacet
  facet normal 0.634649 -0.772801 0
    outer loop
      vertex 27.4667 36.7022 7
      vertex 27.6485 36.8515 27
      vertex 27.4667 36.7022 27
    endloop
  endfacet
  facet normal 0.634649 -0.772801 0
    outer loop
      vertex 27.6485 36.8515 27
      vertex 27.4667 36.7022 7
      vertex 27.6485 36.8515 7
    endloop
  endfacet
  facet normal -0.881941 -0.47136 0
    outer loop
      vertex -26.7978 55.0333 7
      vertex -26.9087 55.2408 69
      vertex -26.9087 55.2408 7
    endloop
  endfacet
  facet normal -0.881941 -0.47136 0
    outer loop
      vertex -26.9087 55.2408 69
      vertex -26.7978 55.0333 7
      vertex -26.7978 55.0333 69
    endloop
  endfacet
  facet normal 0.634649 0.772801 -0
    outer loop
      vertex 26.6485 57.1485 7
      vertex 26.4667 57.2978 69
      vertex 26.6485 57.1485 69
    endloop
  endfacet
  facet normal 0.634649 0.772801 0
    outer loop
      vertex 26.4667 57.2978 69
      vertex 26.6485 57.1485 7
      vertex 26.4667 57.2978 7
    endloop
  endfacet
  facet normal 0.995167 -0.0981989 0
    outer loop
      vertex 26.9769 55.4659 69
      vertex 27 55.7 7
      vertex 27 55.7 69
    endloop
  endfacet
  facet normal 0.995167 -0.0981989 0
    outer loop
      vertex 27 55.7 7
      vertex 26.9769 55.4659 69
      vertex 26.9769 55.4659 7
    endloop
  endfacet
  facet normal 0 -1 0
    outer loop
      vertex -25.8 54.5 69
      vertex -1.1 54.5 68.55
      vertex -1.1 54.5 69
    endloop
  endfacet
  facet normal 0 -1 -0
    outer loop
      vertex -1.1 54.5 68.55
      vertex -25.8 54.5 7
      vertex 0 54.5 68.55
    endloop
  endfacet
  facet normal 0 -1 0
    outer loop
      vertex -25.8 54.5 7
      vertex -1.1 54.5 68.55
      vertex -25.8 54.5 69
    endloop
  endfacet
  facet normal 0 -1 0
    outer loop
      vertex 0 54.5 68.55
      vertex 25.8 54.5 69
      vertex 0 54.5 69
    endloop
  endfacet
  facet normal 0 -1 0
    outer loop
      vertex 25.8 54.5 7
      vertex 0 54.5 68.55
      vertex -25.8 54.5 7
    endloop
  endfacet
  facet normal 0 -1 0
    outer loop
      vertex 0 54.5 68.55
      vertex 25.8 54.5 7
      vertex 25.8 54.5 69
    endloop
  endfacet
  facet normal 0 0 -1
    outer loop
      vertex 25.8 54.5 7
      vertex 27 55.7 7
      vertex 26.9769 55.4659 7
    endloop
  endfacet
  facet normal -0 0 -1
    outer loop
      vertex 27 55.7 7
      vertex 25.8 54.5 7
      vertex 27 56.3 7
    endloop
  endfacet
  facet normal 0 0 -1
    outer loop
      vertex 25.8 54.5 7
      vertex 26.9769 55.4659 7
      vertex 26.9087 55.2408 7
    endloop
  endfacet
  facet normal 0 0 -1
    outer loop
      vertex 25.8 57.5 7
      vertex 27 56.3 7
      vertex 25.8 54.5 7
    endloop
  endfacet
  facet normal 0 0 -1
    outer loop
      vertex 25.8 54.5 7
      vertex 26.9087 55.2408 7
      vertex 26.7978 55.0333 7
    endloop
  endfacet
  facet normal 0 0 -1
    outer loop
      vertex 27 56.3 7
      vertex 25.8 57.5 7
      vertex 26.9769 56.5341 7
    endloop
  endfacet
  facet normal 0 0 -1
    outer loop
      vertex 25.8 54.5 7
      vertex 26.7978 55.0333 7
      vertex 26.6485 54.8515 7
    endloop
  endfacet
  facet normal 0 0 -1
    outer loop
      vertex 26.9769 56.5341 7
      vertex 25.8 57.5 7
      vertex 26.9087 56.7592 7
    endloop
  endfacet
  facet normal 0 0 -1
    outer loop
      vertex 25.8 54.5 7
      vertex 26.6485 54.8515 7
      vertex 26.4667 54.7022 7
    endloop
  endfacet
  facet normal 0 0 -1
    outer loop
      vertex 26.9087 56.7592 7
      vertex 25.8 57.5 7
      vertex 26.7978 56.9667 7
    endloop
  endfacet
  facet normal 0 0 -1
    outer loop
      vertex 25.8 54.5 7
      vertex 26.4667 54.7022 7
      vertex 26.2592 54.5913 7
    endloop
  endfacet
  facet normal 0 0 -1
    outer loop
      vertex 26.7978 56.9667 7
      vertex 25.8 57.5 7
      vertex 26.6485 57.1485 7
    endloop
  endfacet
  facet normal 0 0 -1
    outer loop
      vertex 25.8 54.5 7
      vertex 26.2592 54.5913 7
      vertex 26.0341 54.5231 7
    endloop
  endfacet
  facet normal 0 0 -1
    outer loop
      vertex 26.6485 57.1485 7
      vertex 25.8 57.5 7
      vertex 26.4667 57.2978 7
    endloop
  endfacet
  facet normal 0 0 -1
    outer loop
      vertex 26.4667 57.2978 7
      vertex 25.8 57.5 7
      vertex 26.2592 57.4087 7
    endloop
  endfacet
  facet normal 0 0 -1
    outer loop
      vertex 26.2592 57.4087 7
      vertex 25.8 57.5 7
      vertex 26.0341 57.4769 7
    endloop
  endfacet
  facet normal 0 0 -1
    outer loop
      vertex -25.8 54.5 7
      vertex 25.8 57.5 7
      vertex 25.8 54.5 7
    endloop
  endfacet
  facet normal 0 0 -1
    outer loop
      vertex -25.8 54.5 7
      vertex -25.8 57.5 7
      vertex 25.8 57.5 7
    endloop
  endfacet
  facet normal 0 0 -1
    outer loop
      vertex -27 55.7 7
      vertex -25.8 54.5 7
      vertex -26.0341 54.5231 7
    endloop
  endfacet
  facet normal 0 0 -1
    outer loop
      vertex -25.8 54.5 7
      vertex -27 55.7 7
      vertex -25.8 57.5 7
    endloop
  endfacet
  facet normal 0 0 -1
    outer loop
      vertex -27 55.7 7
      vertex -26.0341 54.5231 7
      vertex -26.2592 54.5913 7
    endloop
  endfacet
  facet normal 0 0 -1
    outer loop
      vertex -27 56.3 7
      vertex -25.8 57.5 7
      vertex -27 55.7 7
    endloop
  endfacet
  facet normal 0 0 -1
    outer loop
      vertex -27 55.7 7
      vertex -26.2592 54.5913 7
      vertex -26.4667 54.7022 7
    endloop
  endfacet
  facet normal 0 0 -1
    outer loop
      vertex -25.8 57.5 7
      vertex -27 56.3 7
      vertex -26.0341 57.4769 7
    endloop
  endfacet
  facet normal 0 0 -1
    outer loop
      vertex -27 55.7 7
      vertex -26.4667 54.7022 7
      vertex -26.6485 54.8515 7
    endloop
  endfacet
  facet normal 0 0 -1
    outer loop
      vertex -26.0341 57.4769 7
      vertex -27 56.3 7
      vertex -26.2592 57.4087 7
    endloop
  endfacet
  facet normal 0 0 -1
    outer loop
      vertex -27 55.7 7
      vertex -26.6485 54.8515 7
      vertex -26.7978 55.0333 7
    endloop
  endfacet
  facet normal 0 0 -1
    outer loop
      vertex -26.2592 57.4087 7
      vertex -27 56.3 7
      vertex -26.4667 57.2978 7
    endloop
  endfacet
  facet normal 0 0 -1
    outer loop
      vertex -27 55.7 7
      vertex -26.7978 55.0333 7
      vertex -26.9087 55.2408 7
    endloop
  endfacet
  facet normal 0 0 -1
    outer loop
      vertex -26.4667 57.2978 7
      vertex -27 56.3 7
      vertex -26.6485 57.1485 7
    endloop
  endfacet
  facet normal 0 0 -1
    outer loop
      vertex -27 55.7 7
      vertex -26.9087 55.2408 7
      vertex -26.9769 55.4659 7
    endloop
  endfacet
  facet normal 0 0 -1
    outer loop
      vertex -26.6485 57.1485 7
      vertex -27 56.3 7
      vertex -26.7978 56.9667 7
    endloop
  endfacet
  facet normal 0 0 -1
    outer loop
      vertex -26.7978 56.9667 7
      vertex -27 56.3 7
      vertex -26.9087 56.7592 7
    endloop
  endfacet
  facet normal 0 0 -1
    outer loop
      vertex -26.9087 56.7592 7
      vertex -27 56.3 7
      vertex -26.9769 56.5341 7
    endloop
  endfacet
  facet normal 0.957039 0.28996 0
    outer loop
      vertex 26.9769 56.5341 69
      vertex 26.9087 56.7592 7
      vertex 26.9087 56.7592 69
    endloop
  endfacet
  facet normal 0.957039 0.28996 0
    outer loop
      vertex 26.9087 56.7592 7
      vertex 26.9769 56.5341 69
      vertex 26.9769 56.5341 7
    endloop
  endfacet
  facet normal -0.634649 -0.772801 0
    outer loop
      vertex -26.6485 54.8515 7
      vertex -26.4667 54.7022 69
      vertex -26.6485 54.8515 69
    endloop
  endfacet
  facet normal -0.634649 -0.772801 -0
    outer loop
      vertex -26.4667 54.7022 69
      vertex -26.6485 54.8515 7
      vertex -26.4667 54.7022 7
    endloop
  endfacet
  facet normal -0.957039 -0.28996 0
    outer loop
      vertex -26.9087 55.2408 7
      vertex -26.9769 55.4659 69
      vertex -26.9769 55.4659 7
    endloop
  endfacet
  facet normal -0.957039 -0.28996 0
    outer loop
      vertex -26.9769 55.4659 69
      vertex -26.9087 55.2408 7
      vertex -26.9087 55.2408 69
    endloop
  endfacet
  facet normal -0.957039 0.28996 0
    outer loop
      vertex -26.9769 56.5341 7
      vertex -26.9087 56.7592 69
      vertex -26.9087 56.7592 7
    endloop
  endfacet
  facet normal -0.957039 0.28996 0
    outer loop
      vertex -26.9087 56.7592 69
      vertex -26.9769 56.5341 7
      vertex -26.9769 56.5341 69
    endloop
  endfacet
  facet normal -0.995167 0.0981989 0
    outer loop
      vertex -27 56.3 7
      vertex -26.9769 56.5341 69
      vertex -26.9769 56.5341 7
    endloop
  endfacet
  facet normal -0.995167 0.0981989 0
    outer loop
      vertex -26.9769 56.5341 69
      vertex -27 56.3 7
      vertex -27 56.3 69
    endloop
  endfacet
  facet normal -0.28996 -0.957039 0
    outer loop
      vertex -26.2592 54.5913 7
      vertex -26.0341 54.5231 69
      vertex -26.2592 54.5913 69
    endloop
  endfacet
  facet normal -0.28996 -0.957039 -0
    outer loop
      vertex -26.0341 54.5231 69
      vertex -26.2592 54.5913 7
      vertex -26.0341 54.5231 7
    endloop
  endfacet
  facet normal 0 1 0
    outer loop
      vertex 25.8 57.5 69
      vertex 0 57.5 68.55
      vertex 0 57.5 69
    endloop
  endfacet
  facet normal 0 1 0
    outer loop
      vertex -25.8 57.5 7
      vertex 0 57.5 68.55
      vertex 25.8 57.5 7
    endloop
  endfacet
  facet normal 0 1 -0
    outer loop
      vertex 25.8 57.5 7
      vertex 0 57.5 68.55
      vertex 25.8 57.5 69
    endloop
  endfacet
  facet normal 0 1 -0
    outer loop
      vertex -1.1 57.5 68.55
      vertex -25.8 57.5 69
      vertex -1.1 57.5 69
    endloop
  endfacet
  facet normal 0 1 0
    outer loop
      vertex 0 57.5 68.55
      vertex -25.8 57.5 7
      vertex -1.1 57.5 68.55
    endloop
  endfacet
  facet normal 0 1 0
    outer loop
      vertex -1.1 57.5 68.55
      vertex -25.8 57.5 7
      vertex -25.8 57.5 69
    endloop
  endfacet
  facet normal -0.47136 -0.881941 0
    outer loop
      vertex -26.4667 54.7022 7
      vertex -26.2592 54.5913 69
      vertex -26.4667 54.7022 69
    endloop
  endfacet
  facet normal -0.47136 -0.881941 -0
    outer loop
      vertex -26.2592 54.5913 69
      vertex -26.4667 54.7022 7
      vertex -26.2592 54.5913 7
    endloop
  endfacet
  facet normal 0.995167 0.0981989 0
    outer loop
      vertex 27 56.3 69
      vertex 26.9769 56.5341 7
      vertex 26.9769 56.5341 69
    endloop
  endfacet
  facet normal 0.995167 0.0981989 0
    outer loop
      vertex 26.9769 56.5341 7
      vertex 27 56.3 69
      vertex 27 56.3 7
    endloop
  endfacet
  facet normal -0.772801 -0.634649 0
    outer loop
      vertex -26.6485 54.8515 7
      vertex -26.7978 55.0333 69
      vertex -26.7978 55.0333 7
    endloop
  endfacet
  facet normal -0.772801 -0.634649 0
    outer loop
      vertex -26.7978 55.0333 69
      vertex -26.6485 54.8515 7
      vertex -26.6485 54.8515 69
    endloop
  endfacet
  facet normal 0.47136 -0.881941 0
    outer loop
      vertex 26.2592 54.5913 7
      vertex 26.4667 54.7022 69
      vertex 26.2592 54.5913 69
    endloop
  endfacet
  facet normal 0.47136 -0.881941 0
    outer loop
      vertex 26.4667 54.7022 69
      vertex 26.2592 54.5913 7
      vertex 26.4667 54.7022 7
    endloop
  endfacet
  facet normal 0.0981989 0.995167 -0
    outer loop
      vertex 26.0341 57.4769 7
      vertex 25.8 57.5 69
      vertex 26.0341 57.4769 69
    endloop
  endfacet
  facet normal 0.0981989 0.995167 0
    outer loop
      vertex 25.8 57.5 69
      vertex 26.0341 57.4769 7
      vertex 25.8 57.5 7
    endloop
  endfacet
  facet normal 0.47136 0.881941 -0
    outer loop
      vertex 26.4667 57.2978 7
      vertex 26.2592 57.4087 69
      vertex 26.4667 57.2978 69
    endloop
  endfacet
  facet normal 0.47136 0.881941 0
    outer loop
      vertex 26.2592 57.4087 69
      vertex 26.4667 57.2978 7
      vertex 26.2592 57.4087 7
    endloop
  endfacet
  facet normal -0 0 1
    outer loop
      vertex -25.8 57.5 69
      vertex -1.1 54.5 69
      vertex -1.1 57.5 69
    endloop
  endfacet
  facet normal 0 0 1
    outer loop
      vertex -25.8 57.5 69
      vertex -25.8 54.5 69
      vertex -1.1 54.5 69
    endloop
  endfacet
  facet normal 0 0 1
    outer loop
      vertex -27 56.3 69
      vertex -25.8 57.5 69
      vertex -26.0341 57.4769 69
    endloop
  endfacet
  facet normal 0 0 1
    outer loop
      vertex -25.8 57.5 69
      vertex -27 56.3 69
      vertex -25.8 54.5 69
    endloop
  endfacet
  facet normal 0 0 1
    outer loop
      vertex -27 56.3 69
      vertex -26.0341 57.4769 69
      vertex -26.2592 57.4087 69
    endloop
  endfacet
  facet normal -0 0 1
    outer loop
      vertex -27 55.7 69
      vertex -25.8 54.5 69
      vertex -27 56.3 69
    endloop
  endfacet
  facet normal 0 0 1
    outer loop
      vertex -27 56.3 69
      vertex -26.2592 57.4087 69
      vertex -26.4667 57.2978 69
    endloop
  endfacet
  facet normal 0 0 1
    outer loop
      vertex -25.8 54.5 69
      vertex -27 55.7 69
      vertex -26.0341 54.5231 69
    endloop
  endfacet
  facet normal 0 0 1
    outer loop
      vertex -27 56.3 69
      vertex -26.4667 57.2978 69
      vertex -26.6485 57.1485 69
    endloop
  endfacet
  facet normal 0 0 1
    outer loop
      vertex -26.0341 54.5231 69
      vertex -27 55.7 69
      vertex -26.2592 54.5913 69
    endloop
  endfacet
  facet normal 0 0 1
    outer loop
      vertex -27 56.3 69
      vertex -26.6485 57.1485 69
      vertex -26.7978 56.9667 69
    endloop
  endfacet
  facet normal 0 0 1
    outer loop
      vertex -26.2592 54.5913 69
      vertex -27 55.7 69
      vertex -26.4667 54.7022 69
    endloop
  endfacet
  facet normal 0 0 1
    outer loop
      vertex -27 56.3 69
      vertex -26.7978 56.9667 69
      vertex -26.9087 56.7592 69
    endloop
  endfacet
  facet normal 0 0 1
    outer loop
      vertex -26.4667 54.7022 69
      vertex -27 55.7 69
      vertex -26.6485 54.8515 69
    endloop
  endfacet
  facet normal 0 0 1
    outer loop
      vertex -27 56.3 69
      vertex -26.9087 56.7592 69
      vertex -26.9769 56.5341 69
    endloop
  endfacet
  facet normal 0 0 1
    outer loop
      vertex -26.6485 54.8515 69
      vertex -27 55.7 69
      vertex -26.7978 55.0333 69
    endloop
  endfacet
  facet normal 0 0 1
    outer loop
      vertex -26.7978 55.0333 69
      vertex -27 55.7 69
      vertex -26.9087 55.2408 69
    endloop
  endfacet
  facet normal 0 0 1
    outer loop
      vertex -26.9087 55.2408 69
      vertex -27 55.7 69
      vertex -26.9769 55.4659 69
    endloop
  endfacet
  facet normal 0 0 1
    outer loop
      vertex 25.8 57.5 69
      vertex 27 56.3 69
      vertex 26.9769 56.5341 69
    endloop
  endfacet
  facet normal 0 0 1
    outer loop
      vertex 27 56.3 69
      vertex 25.8 57.5 69
      vertex 27 55.7 69
    endloop
  endfacet
  facet normal 0 0 1
    outer loop
      vertex 25.8 57.5 69
      vertex 26.9769 56.5341 69
      vertex 26.9087 56.7592 69
    endloop
  endfacet
  facet normal 0 0 1
    outer loop
      vertex 25.8 54.5 69
      vertex 27 55.7 69
      vertex 25.8 57.5 69
    endloop
  endfacet
  facet normal 0 0 1
    outer loop
      vertex 25.8 57.5 69
      vertex 26.9087 56.7592 69
      vertex 26.7978 56.9667 69
    endloop
  endfacet
  facet normal 0 0 1
    outer loop
      vertex 27 55.7 69
      vertex 25.8 54.5 69
      vertex 26.9769 55.4659 69
    endloop
  endfacet
  facet normal 0 0 1
    outer loop
      vertex 25.8 57.5 69
      vertex 26.7978 56.9667 69
      vertex 26.6485 57.1485 69
    endloop
  endfacet
  facet normal 0 0 1
    outer loop
      vertex 26.9769 55.4659 69
      vertex 25.8 54.5 69
      vertex 26.9087 55.2408 69
    endloop
  endfacet
  facet normal 0 0 1
    outer loop
      vertex 25.8 57.5 69
      vertex 26.6485 57.1485 69
      vertex 26.4667 57.2978 69
    endloop
  endfacet
  facet normal 0 0 1
    outer loop
      vertex 26.9087 55.2408 69
      vertex 25.8 54.5 69
      vertex 26.7978 55.0333 69
    endloop
  endfacet
  facet normal 0 0 1
    outer loop
      vertex 25.8 57.5 69
      vertex 26.4667 57.2978 69
      vertex 26.2592 57.4087 69
    endloop
  endfacet
  facet normal 0 0 1
    outer loop
      vertex 26.7978 55.0333 69
      vertex 25.8 54.5 69
      vertex 26.6485 54.8515 69
    endloop
  endfacet
  facet normal 0 0 1
    outer loop
      vertex 25.8 57.5 69
      vertex 26.2592 57.4087 69
      vertex 26.0341 57.4769 69
    endloop
  endfacet
  facet normal 0 0 1
    outer loop
      vertex 26.6485 54.8515 69
      vertex 25.8 54.5 69
      vertex 26.4667 54.7022 69
    endloop
  endfacet
  facet normal 0 0 1
    outer loop
      vertex 26.4667 54.7022 69
      vertex 25.8 54.5 69
      vertex 26.2592 54.5913 69
    endloop
  endfacet
  facet normal 0 0 1
    outer loop
      vertex 26.2592 54.5913 69
      vertex 25.8 54.5 69
      vertex 26.0341 54.5231 69
    endloop
  endfacet
  facet normal -0 0 1
    outer loop
      vertex 0 57.5 69
      vertex 25.8 54.5 69
      vertex 25.8 57.5 69
    endloop
  endfacet
  facet normal 0 0 1
    outer loop
      vertex 25.8 54.5 69
      vertex 0 57.5 69
      vertex 0 54.5 69
    endloop
  endfacet
  facet normal 1 -0 0
    outer loop
      vertex 27 55.7 69
      vertex 27 56.3 7
      vertex 27 56.3 69
    endloop
  endfacet
  facet normal 1 0 0
    outer loop
      vertex 27 56.3 7
      vertex 27 55.7 69
      vertex 27 55.7 7
    endloop
  endfacet
  facet normal 0.28996 -0.957039 0
    outer loop
      vertex 26.0341 54.5231 7
      vertex 26.2592 54.5913 69
      vertex 26.0341 54.5231 69
    endloop
  endfacet
  facet normal 0.28996 -0.957039 0
    outer loop
      vertex 26.2592 54.5913 69
      vertex 26.0341 54.5231 7
      vertex 26.2592 54.5913 7
    endloop
  endfacet
  facet normal -0.995167 -0.0981989 0
    outer loop
      vertex -26.9769 55.4659 7
      vertex -27 55.7 69
      vertex -27 55.7 7
    endloop
  endfacet
  facet normal -0.995167 -0.0981989 0
    outer loop
      vertex -27 55.7 69
      vertex -26.9769 55.4659 7
      vertex -26.9769 55.4659 69
    endloop
  endfacet
  facet normal 0.957039 -0.28996 0
    outer loop
      vertex 26.9087 55.2408 69
      vertex 26.9769 55.4659 7
      vertex 26.9769 55.4659 69
    endloop
  endfacet
  facet normal 0.957039 -0.28996 0
    outer loop
      vertex 26.9769 55.4659 7
      vertex 26.9087 55.2408 69
      vertex 26.9087 55.2408 7
    endloop
  endfacet
  facet normal -0.634649 0.772801 0
    outer loop
      vertex -26.4667 57.2978 7
      vertex -26.6485 57.1485 69
      vertex -26.4667 57.2978 69
    endloop
  endfacet
  facet normal -0.634649 0.772801 0
    outer loop
      vertex -26.6485 57.1485 69
      vertex -26.4667 57.2978 7
      vertex -26.6485 57.1485 7
    endloop
  endfacet
  facet normal 0.881941 0.47136 0
    outer loop
      vertex 26.9087 56.7592 69
      vertex 26.7978 56.9667 7
      vertex 26.7978 56.9667 69
    endloop
  endfacet
  facet normal 0.881941 0.47136 0
    outer loop
      vertex 26.7978 56.9667 7
      vertex 26.9087 56.7592 69
      vertex 26.9087 56.7592 7
    endloop
  endfacet
  facet normal 0.772801 0.634649 0
    outer loop
      vertex 26.7978 56.9667 69
      vertex 26.6485 57.1485 7
      vertex 26.6485 57.1485 69
    endloop
  endfacet
  facet normal 0.772801 0.634649 0
    outer loop
      vertex 26.6485 57.1485 7
      vertex 26.7978 56.9667 69
      vertex 26.7978 56.9667 7
    endloop
  endfacet
  facet normal -0.28996 0.957039 0
    outer loop
      vertex -26.0341 57.4769 7
      vertex -26.2592 57.4087 69
      vertex -26.0341 57.4769 69
    endloop
  endfacet
  facet normal -0.28996 0.957039 0
    outer loop
      vertex -26.2592 57.4087 69
      vertex -26.0341 57.4769 7
      vertex -26.2592 57.4087 7
    endloop
  endfacet
  facet normal -0.881941 0.47136 0
    outer loop
      vertex -26.9087 56.7592 7
      vertex -26.7978 56.9667 69
      vertex -26.7978 56.9667 7
    endloop
  endfacet
  facet normal -0.881941 0.47136 0
    outer loop
      vertex -26.7978 56.9667 69
      vertex -26.9087 56.7592 7
      vertex -26.9087 56.7592 69
    endloop
  endfacet
  facet normal -0.0981989 -0.995167 0
    outer loop
      vertex -26.0341 54.5231 7
      vertex -25.8 54.5 69
      vertex -26.0341 54.5231 69
    endloop
  endfacet
  facet normal -0.0981989 -0.995167 -0
    outer loop
      vertex -25.8 54.5 69
      vertex -26.0341 54.5231 7
      vertex -25.8 54.5 7
    endloop
  endfacet
  facet normal -0.47136 0.881941 0
    outer loop
      vertex -26.2592 57.4087 7
      vertex -26.4667 57.2978 69
      vertex -26.2592 57.4087 69
    endloop
  endfacet
  facet normal -0.47136 0.881941 0
    outer loop
      vertex -26.4667 57.2978 69
      vertex -26.2592 57.4087 7
      vertex -26.4667 57.2978 7
    endloop
  endfacet
  facet normal 0.28996 0.957039 -0
    outer loop
      vertex 26.2592 57.4087 7
      vertex 26.0341 57.4769 69
      vertex 26.2592 57.4087 69
    endloop
  endfacet
  facet normal 0.28996 0.957039 0
    outer loop
      vertex 26.0341 57.4769 69
      vertex 26.2592 57.4087 7
      vertex 26.0341 57.4769 7
    endloop
  endfacet
  facet normal 0.0981989 -0.995167 0
    outer loop
      vertex 25.8 54.5 7
      vertex 26.0341 54.5231 69
      vertex 25.8 54.5 69
    endloop
  endfacet
  facet normal 0.0981989 -0.995167 0
    outer loop
      vertex 26.0341 54.5231 69
      vertex 25.8 54.5 7
      vertex 26.0341 54.5231 7
    endloop
  endfacet
  facet normal 0.772801 -0.634649 0
    outer loop
      vertex 26.6485 54.8515 69
      vertex 26.7978 55.0333 7
      vertex 26.7978 55.0333 69
    endloop
  endfacet
  facet normal 0.772801 -0.634649 0
    outer loop
      vertex 26.7978 55.0333 7
      vertex 26.6485 54.8515 69
      vertex 26.6485 54.8515 7
    endloop
  endfacet
  facet normal -0.772801 0.634649 0
    outer loop
      vertex -26.7978 56.9667 7
      vertex -26.6485 57.1485 69
      vertex -26.6485 57.1485 7
    endloop
  endfacet
  facet normal -0.772801 0.634649 0
    outer loop
      vertex -26.6485 57.1485 69
      vertex -26.7978 56.9667 7
      vertex -26.7978 56.9667 69
    endloop
  endfacet
  facet normal -1 0 0
    outer loop
      vertex -27 55.7 7
      vertex -27 56.3 69
      vertex -27 56.3 7
    endloop
  endfacet
  facet normal -1 -0 0
    outer loop
      vertex -27 56.3 69
      vertex -27 55.7 7
      vertex -27 55.7 69
    endloop
  endfacet
  facet normal -0.0981989 0.995167 0
    outer loop
      vertex -25.8 57.5 7
      vertex -26.0341 57.4769 69
      vertex -25.8 57.5 69
    endloop
  endfacet
  facet normal -0.0981989 0.995167 0
    outer loop
      vertex -26.0341 57.4769 69
      vertex -25.8 57.5 7
      vertex -26.0341 57.4769 7
    endloop
  endfacet
  facet normal 0.881941 -0.47136 0
    outer loop
      vertex 26.7978 55.0333 69
      vertex 26.9087 55.2408 7
      vertex 26.9087 55.2408 69
    endloop
  endfacet
  facet normal 0.881941 -0.47136 0
    outer loop
      vertex 26.9087 55.2408 7
      vertex 26.7978 55.0333 69
      vertex 26.7978 55.0333 7
    endloop
  endfacet
  facet normal 0.634649 -0.772801 0
    outer loop
      vertex 26.4667 54.7022 7
      vertex 26.6485 54.8515 69
      vertex 26.4667 54.7022 69
    endloop
  endfacet
  facet normal 0.634649 -0.772801 0
    outer loop
      vertex 26.6485 54.8515 69
      vertex 26.4667 54.7022 7
      vertex 26.6485 54.8515 7
    endloop
  endfacet
endsolid OpenSCAD_Model
