solid OpenSCAD_Model
  facet normal 0.290171 -0.956975 0
    outer loop
      vertex -91.0906 -21.3669 0
      vertex -90.556 -21.2048 4.7
      vertex -91.0906 -21.3669 4.7
    endloop
  endfacet
  facet normal 0.290171 -0.956975 0
    outer loop
      vertex -90.556 -21.2048 4.7
      vertex -91.0906 -21.3669 0
      vertex -90.556 -21.2048 0
    endloop
  endfacet
  facet normal -0.956975 -0.290171 0
    outer loop
      vertex -87.2048 -23.444 0
      vertex -87.3669 -22.9094 4.7
      vertex -87.3669 -22.9094 0
    endloop
  endfacet
  facet normal -0.956975 -0.290171 0
    outer loop
      vertex -87.3669 -22.9094 4.7
      vertex -87.2048 -23.444 0
      vertex -87.2048 -23.444 4.7
    endloop
  endfacet
  facet normal -0.995178 -0.0980859 0
    outer loop
      vertex -87.15 -24 0
      vertex -87.2048 -23.444 4.7
      vertex -87.2048 -23.444 0
    endloop
  endfacet
  facet normal -0.995178 -0.0980859 0
    outer loop
      vertex -87.2048 -23.444 4.7
      vertex -87.15 -24 0
      vertex -87.15 -24 4.7
    endloop
  endfacet
  facet normal -0.881927 -0.471387 0
    outer loop
      vertex -87.3669 -22.9094 0
      vertex -87.6303 -22.4166 4.7
      vertex -87.6303 -22.4166 0
    endloop
  endfacet
  facet normal -0.881927 -0.471387 0
    outer loop
      vertex -87.6303 -22.4166 4.7
      vertex -87.3669 -22.9094 0
      vertex -87.3669 -22.9094 4.7
    endloop
  endfacet
  facet normal -0.995178 0.0980859 0
    outer loop
      vertex -87.2048 -24.556 0
      vertex -87.15 -24 4.7
      vertex -87.15 -24 0
    endloop
  endfacet
  facet normal -0.995178 0.0980859 0
    outer loop
      vertex -87.15 -24 4.7
      vertex -87.2048 -24.556 0
      vertex -87.2048 -24.556 4.7
    endloop
  endfacet
  facet normal -0.290122 0.95699 0
    outer loop
      vertex -88.9093 -26.6331 0
      vertex -89.444 -26.7952 4.7
      vertex -88.9093 -26.6331 4.7
    endloop
  endfacet
  facet normal -0.290122 0.95699 0
    outer loop
      vertex -89.444 -26.7952 4.7
      vertex -88.9093 -26.6331 0
      vertex -89.444 -26.7952 0
    endloop
  endfacet
  facet normal -0.773055 -0.634339 0
    outer loop
      vertex -87.6303 -22.4166 0
      vertex -87.9847 -21.9847 4.7
      vertex -87.9847 -21.9847 0
    endloop
  endfacet
  facet normal -0.773055 -0.634339 0
    outer loop
      vertex -87.9847 -21.9847 4.7
      vertex -87.6303 -22.4166 0
      vertex -87.6303 -22.4166 4.7
    endloop
  endfacet
  facet normal 0.881927 0.471387 0
    outer loop
      vertex -92.3697 -25.5834 4.7
      vertex -92.6331 -25.0906 0
      vertex -92.6331 -25.0906 4.7
    endloop
  endfacet
  facet normal 0.881927 0.471387 0
    outer loop
      vertex -92.6331 -25.0906 0
      vertex -92.3697 -25.5834 4.7
      vertex -92.3697 -25.5834 0
    endloop
  endfacet
  facet normal 0.773055 -0.634339 0
    outer loop
      vertex -92.3697 -22.4166 4.7
      vertex -92.0153 -21.9847 0
      vertex -92.0153 -21.9847 4.7
    endloop
  endfacet
  facet normal 0.773055 -0.634339 0
    outer loop
      vertex -92.0153 -21.9847 0
      vertex -92.3697 -22.4166 4.7
      vertex -92.3697 -22.4166 0
    endloop
  endfacet
  facet normal 0.995178 -0.0980859 0
    outer loop
      vertex -92.85 -24 4.7
      vertex -92.7952 -23.444 0
      vertex -92.7952 -23.444 4.7
    endloop
  endfacet
  facet normal 0.995178 -0.0980859 0
    outer loop
      vertex -92.7952 -23.444 0
      vertex -92.85 -24 4.7
      vertex -92.85 -24 0
    endloop
  endfacet
  facet normal 0.290171 0.956975 -0
    outer loop
      vertex -90.556 -26.7952 0
      vertex -91.0906 -26.6331 4.7
      vertex -90.556 -26.7952 4.7
    endloop
  endfacet
  facet normal 0.290171 0.956975 0
    outer loop
      vertex -91.0906 -26.6331 4.7
      vertex -90.556 -26.7952 0
      vertex -91.0906 -26.6331 0
    endloop
  endfacet
  facet normal -0.956975 0.290171 0
    outer loop
      vertex -87.3669 -25.0906 0
      vertex -87.2048 -24.556 4.7
      vertex -87.2048 -24.556 0
    endloop
  endfacet
  facet normal -0.956975 0.290171 0
    outer loop
      vertex -87.2048 -24.556 4.7
      vertex -87.3669 -25.0906 0
      vertex -87.3669 -25.0906 4.7
    endloop
  endfacet
  facet normal 0.773055 0.634339 0
    outer loop
      vertex -92.0153 -26.0153 4.7
      vertex -92.3697 -25.5834 0
      vertex -92.3697 -25.5834 4.7
    endloop
  endfacet
  facet normal 0.773055 0.634339 0
    outer loop
      vertex -92.3697 -25.5834 0
      vertex -92.0153 -26.0153 4.7
      vertex -92.0153 -26.0153 0
    endloop
  endfacet
  facet normal -0.634339 0.773055 0
    outer loop
      vertex -87.9847 -26.0153 0
      vertex -88.4166 -26.3697 4.7
      vertex -87.9847 -26.0153 4.7
    endloop
  endfacet
  facet normal -0.634339 0.773055 0
    outer loop
      vertex -88.4166 -26.3697 4.7
      vertex -87.9847 -26.0153 0
      vertex -88.4166 -26.3697 0
    endloop
  endfacet
  facet normal 0.471387 -0.881927 0
    outer loop
      vertex -91.5834 -21.6303 0
      vertex -91.0906 -21.3669 4.7
      vertex -91.5834 -21.6303 4.7
    endloop
  endfacet
  facet normal 0.471387 -0.881927 0
    outer loop
      vertex -91.0906 -21.3669 4.7
      vertex -91.5834 -21.6303 0
      vertex -91.0906 -21.3669 0
    endloop
  endfacet
  facet normal 0.956975 0.290171 0
    outer loop
      vertex -92.6331 -25.0906 4.7
      vertex -92.7952 -24.556 0
      vertex -92.7952 -24.556 4.7
    endloop
  endfacet
  facet normal 0.956975 0.290171 0
    outer loop
      vertex -92.7952 -24.556 0
      vertex -92.6331 -25.0906 4.7
      vertex -92.6331 -25.0906 0
    endloop
  endfacet
  facet normal 0.0980859 0.995178 -0
    outer loop
      vertex -90 -26.85 0
      vertex -90.556 -26.7952 4.7
      vertex -90 -26.85 4.7
    endloop
  endfacet
  facet normal 0.0980859 0.995178 0
    outer loop
      vertex -90.556 -26.7952 4.7
      vertex -90 -26.85 0
      vertex -90.556 -26.7952 0
    endloop
  endfacet
  facet normal -0.773055 0.634339 0
    outer loop
      vertex -87.9847 -26.0153 0
      vertex -87.6303 -25.5834 4.7
      vertex -87.6303 -25.5834 0
    endloop
  endfacet
  facet normal -0.773055 0.634339 0
    outer loop
      vertex -87.6303 -25.5834 4.7
      vertex -87.9847 -26.0153 0
      vertex -87.9847 -26.0153 4.7
    endloop
  endfacet
  facet normal -0.471461 -0.881887 0
    outer loop
      vertex -88.9093 -21.3669 0
      vertex -88.4166 -21.6303 4.7
      vertex -88.9093 -21.3669 4.7
    endloop
  endfacet
  facet normal -0.471461 -0.881887 -0
    outer loop
      vertex -88.4166 -21.6303 4.7
      vertex -88.9093 -21.3669 0
      vertex -88.4166 -21.6303 0
    endloop
  endfacet
  facet normal 0.0980859 -0.995178 0
    outer loop
      vertex -90.556 -21.2048 0
      vertex -90 -21.15 4.7
      vertex -90.556 -21.2048 4.7
    endloop
  endfacet
  facet normal 0.0980859 -0.995178 0
    outer loop
      vertex -90 -21.15 4.7
      vertex -90.556 -21.2048 0
      vertex -90 -21.15 0
    endloop
  endfacet
  facet normal -0.290122 -0.95699 0
    outer loop
      vertex -89.444 -21.2048 0
      vertex -88.9093 -21.3669 4.7
      vertex -89.444 -21.2048 4.7
    endloop
  endfacet
  facet normal -0.290122 -0.95699 -0
    outer loop
      vertex -88.9093 -21.3669 4.7
      vertex -89.444 -21.2048 0
      vertex -88.9093 -21.3669 0
    endloop
  endfacet
  facet normal -0.881927 0.471387 0
    outer loop
      vertex -87.6303 -25.5834 0
      vertex -87.3669 -25.0906 4.7
      vertex -87.3669 -25.0906 0
    endloop
  endfacet
  facet normal -0.881927 0.471387 0
    outer loop
      vertex -87.3669 -25.0906 4.7
      vertex -87.6303 -25.5834 0
      vertex -87.6303 -25.5834 4.7
    endloop
  endfacet
  facet normal -0.471461 0.881887 0
    outer loop
      vertex -88.4166 -26.3697 0
      vertex -88.9093 -26.6331 4.7
      vertex -88.4166 -26.3697 4.7
    endloop
  endfacet
  facet normal -0.471461 0.881887 0
    outer loop
      vertex -88.9093 -26.6331 4.7
      vertex -88.4166 -26.3697 0
      vertex -88.9093 -26.6331 0
    endloop
  endfacet
  facet normal 0.881927 -0.471387 0
    outer loop
      vertex -92.6331 -22.9094 4.7
      vertex -92.3697 -22.4166 0
      vertex -92.3697 -22.4166 4.7
    endloop
  endfacet
  facet normal 0.881927 -0.471387 0
    outer loop
      vertex -92.3697 -22.4166 0
      vertex -92.6331 -22.9094 4.7
      vertex -92.6331 -22.9094 0
    endloop
  endfacet
  facet normal 0.634339 -0.773055 0
    outer loop
      vertex -92.0153 -21.9847 0
      vertex -91.5834 -21.6303 4.7
      vertex -92.0153 -21.9847 4.7
    endloop
  endfacet
  facet normal 0.634339 -0.773055 0
    outer loop
      vertex -91.5834 -21.6303 4.7
      vertex -92.0153 -21.9847 0
      vertex -91.5834 -21.6303 0
    endloop
  endfacet
  facet normal 0.471387 0.881927 -0
    outer loop
      vertex -91.0906 -26.6331 0
      vertex -91.5834 -26.3697 4.7
      vertex -91.0906 -26.6331 4.7
    endloop
  endfacet
  facet normal 0.471387 0.881927 0
    outer loop
      vertex -91.5834 -26.3697 4.7
      vertex -91.0906 -26.6331 0
      vertex -91.5834 -26.3697 0
    endloop
  endfacet
  facet normal -0.634339 -0.773055 0
    outer loop
      vertex -88.4166 -21.6303 0
      vertex -87.9847 -21.9847 4.7
      vertex -88.4166 -21.6303 4.7
    endloop
  endfacet
  facet normal -0.634339 -0.773055 -0
    outer loop
      vertex -87.9847 -21.9847 4.7
      vertex -88.4166 -21.6303 0
      vertex -87.9847 -21.9847 0
    endloop
  endfacet
  facet normal -0.0980859 -0.995178 0
    outer loop
      vertex -90 -21.15 0
      vertex -89.444 -21.2048 4.7
      vertex -90 -21.15 4.7
    endloop
  endfacet
  facet normal -0.0980859 -0.995178 -0
    outer loop
      vertex -89.444 -21.2048 4.7
      vertex -90 -21.15 0
      vertex -89.444 -21.2048 0
    endloop
  endfacet
  facet normal 0.634339 0.773055 -0
    outer loop
      vertex -91.5834 -26.3697 0
      vertex -92.0153 -26.0153 4.7
      vertex -91.5834 -26.3697 4.7
    endloop
  endfacet
  facet normal 0.634339 0.773055 0
    outer loop
      vertex -92.0153 -26.0153 4.7
      vertex -91.5834 -26.3697 0
      vertex -92.0153 -26.0153 0
    endloop
  endfacet
  facet normal 0.995178 0.0980859 0
    outer loop
      vertex -92.7952 -24.556 4.7
      vertex -92.85 -24 0
      vertex -92.85 -24 4.7
    endloop
  endfacet
  facet normal 0.995178 0.0980859 0
    outer loop
      vertex -92.85 -24 0
      vertex -92.7952 -24.556 4.7
      vertex -92.7952 -24.556 0
    endloop
  endfacet
  facet normal -0.0980859 0.995178 0
    outer loop
      vertex -89.444 -26.7952 0
      vertex -90 -26.85 4.7
      vertex -89.444 -26.7952 4.7
    endloop
  endfacet
  facet normal -0.0980859 0.995178 0
    outer loop
      vertex -90 -26.85 4.7
      vertex -89.444 -26.7952 0
      vertex -90 -26.85 0
    endloop
  endfacet
  facet normal 0.956975 -0.290171 0
    outer loop
      vertex -92.7952 -23.444 4.7
      vertex -92.6331 -22.9094 0
      vertex -92.6331 -22.9094 4.7
    endloop
  endfacet
  facet normal 0.956975 -0.290171 0
    outer loop
      vertex -92.6331 -22.9094 0
      vertex -92.7952 -23.444 4.7
      vertex -92.7952 -23.444 0
    endloop
  endfacet
  facet normal -0.956975 -0.290171 0
    outer loop
      vertex -87.2048 24.556 0
      vertex -87.3669 25.0906 4.7
      vertex -87.3669 25.0906 0
    endloop
  endfacet
  facet normal -0.956975 -0.290171 0
    outer loop
      vertex -87.3669 25.0906 4.7
      vertex -87.2048 24.556 0
      vertex -87.2048 24.556 4.7
    endloop
  endfacet
  facet normal -0.995178 -0.0980859 0
    outer loop
      vertex -87.15 24 0
      vertex -87.2048 24.556 4.7
      vertex -87.2048 24.556 0
    endloop
  endfacet
  facet normal -0.995178 -0.0980859 0
    outer loop
      vertex -87.2048 24.556 4.7
      vertex -87.15 24 0
      vertex -87.15 24 4.7
    endloop
  endfacet
  facet normal -0.881927 -0.471387 0
    outer loop
      vertex -87.3669 25.0906 0
      vertex -87.6303 25.5834 4.7
      vertex -87.6303 25.5834 0
    endloop
  endfacet
  facet normal -0.881927 -0.471387 0
    outer loop
      vertex -87.6303 25.5834 4.7
      vertex -87.3669 25.0906 0
      vertex -87.3669 25.0906 4.7
    endloop
  endfacet
  facet normal -0.471461 0.881887 0
    outer loop
      vertex -88.4166 21.6303 0
      vertex -88.9093 21.3669 4.7
      vertex -88.4166 21.6303 4.7
    endloop
  endfacet
  facet normal -0.471461 0.881887 0
    outer loop
      vertex -88.9093 21.3669 4.7
      vertex -88.4166 21.6303 0
      vertex -88.9093 21.3669 0
    endloop
  endfacet
  facet normal -0.881927 0.471387 0
    outer loop
      vertex -87.6303 22.4166 0
      vertex -87.3669 22.9094 4.7
      vertex -87.3669 22.9094 0
    endloop
  endfacet
  facet normal -0.881927 0.471387 0
    outer loop
      vertex -87.3669 22.9094 4.7
      vertex -87.6303 22.4166 0
      vertex -87.6303 22.4166 4.7
    endloop
  endfacet
  facet normal -0.634339 -0.773055 0
    outer loop
      vertex -88.4166 26.3697 0
      vertex -87.9847 26.0153 4.7
      vertex -88.4166 26.3697 4.7
    endloop
  endfacet
  facet normal -0.634339 -0.773055 -0
    outer loop
      vertex -87.9847 26.0153 4.7
      vertex -88.4166 26.3697 0
      vertex -87.9847 26.0153 0
    endloop
  endfacet
  facet normal -0.995178 0.0980859 0
    outer loop
      vertex -87.2048 23.444 0
      vertex -87.15 24 4.7
      vertex -87.15 24 0
    endloop
  endfacet
  facet normal -0.995178 0.0980859 0
    outer loop
      vertex -87.15 24 4.7
      vertex -87.2048 23.444 0
      vertex -87.2048 23.444 4.7
    endloop
  endfacet
  facet normal 0.881927 0.471387 0
    outer loop
      vertex -92.3697 22.4166 4.7
      vertex -92.6331 22.9094 0
      vertex -92.6331 22.9094 4.7
    endloop
  endfacet
  facet normal 0.881927 0.471387 0
    outer loop
      vertex -92.6331 22.9094 0
      vertex -92.3697 22.4166 4.7
      vertex -92.3697 22.4166 0
    endloop
  endfacet
  facet normal 0.995178 -0.0980859 0
    outer loop
      vertex -92.85 24 4.7
      vertex -92.7952 24.556 0
      vertex -92.7952 24.556 4.7
    endloop
  endfacet
  facet normal 0.995178 -0.0980859 0
    outer loop
      vertex -92.7952 24.556 0
      vertex -92.85 24 4.7
      vertex -92.85 24 0
    endloop
  endfacet
  facet normal 0.634339 -0.773055 0
    outer loop
      vertex -92.0153 26.0153 0
      vertex -91.5834 26.3697 4.7
      vertex -92.0153 26.0153 4.7
    endloop
  endfacet
  facet normal 0.634339 -0.773055 0
    outer loop
      vertex -91.5834 26.3697 4.7
      vertex -92.0153 26.0153 0
      vertex -91.5834 26.3697 0
    endloop
  endfacet
  facet normal 0.471387 0.881927 -0
    outer loop
      vertex -91.0906 21.3669 0
      vertex -91.5834 21.6303 4.7
      vertex -91.0906 21.3669 4.7
    endloop
  endfacet
  facet normal 0.471387 0.881927 0
    outer loop
      vertex -91.5834 21.6303 4.7
      vertex -91.0906 21.3669 0
      vertex -91.5834 21.6303 0
    endloop
  endfacet
  facet normal -0.290122 0.95699 0
    outer loop
      vertex -88.9093 21.3669 0
      vertex -89.444 21.2048 4.7
      vertex -88.9093 21.3669 4.7
    endloop
  endfacet
  facet normal -0.290122 0.95699 0
    outer loop
      vertex -89.444 21.2048 4.7
      vertex -88.9093 21.3669 0
      vertex -89.444 21.2048 0
    endloop
  endfacet
  facet normal 0.773055 -0.634339 0
    outer loop
      vertex -92.3697 25.5834 4.7
      vertex -92.0153 26.0153 0
      vertex -92.0153 26.0153 4.7
    endloop
  endfacet
  facet normal 0.773055 -0.634339 0
    outer loop
      vertex -92.0153 26.0153 0
      vertex -92.3697 25.5834 4.7
      vertex -92.3697 25.5834 0
    endloop
  endfacet
  facet normal -0.773055 -0.634339 0
    outer loop
      vertex -87.6303 25.5834 0
      vertex -87.9847 26.0153 4.7
      vertex -87.9847 26.0153 0
    endloop
  endfacet
  facet normal -0.773055 -0.634339 0
    outer loop
      vertex -87.9847 26.0153 4.7
      vertex -87.6303 25.5834 0
      vertex -87.6303 25.5834 4.7
    endloop
  endfacet
  facet normal 0.471387 -0.881927 0
    outer loop
      vertex -91.5834 26.3697 0
      vertex -91.0906 26.6331 4.7
      vertex -91.5834 26.3697 4.7
    endloop
  endfacet
  facet normal 0.471387 -0.881927 0
    outer loop
      vertex -91.0906 26.6331 4.7
      vertex -91.5834 26.3697 0
      vertex -91.0906 26.6331 0
    endloop
  endfacet
  facet normal 0.290171 -0.956975 0
    outer loop
      vertex -91.0906 26.6331 0
      vertex -90.556 26.7952 4.7
      vertex -91.0906 26.6331 4.7
    endloop
  endfacet
  facet normal 0.290171 -0.956975 0
    outer loop
      vertex -90.556 26.7952 4.7
      vertex -91.0906 26.6331 0
      vertex -90.556 26.7952 0
    endloop
  endfacet
  facet normal 0.0980859 0.995178 -0
    outer loop
      vertex -90 21.15 0
      vertex -90.556 21.2048 4.7
      vertex -90 21.15 4.7
    endloop
  endfacet
  facet normal 0.0980859 0.995178 0
    outer loop
      vertex -90.556 21.2048 4.7
      vertex -90 21.15 0
      vertex -90.556 21.2048 0
    endloop
  endfacet
  facet normal 0.290171 0.956975 -0
    outer loop
      vertex -90.556 21.2048 0
      vertex -91.0906 21.3669 4.7
      vertex -90.556 21.2048 4.7
    endloop
  endfacet
  facet normal 0.290171 0.956975 0
    outer loop
      vertex -91.0906 21.3669 4.7
      vertex -90.556 21.2048 0
      vertex -91.0906 21.3669 0
    endloop
  endfacet
  facet normal 0.0980859 -0.995178 0
    outer loop
      vertex -90.556 26.7952 0
      vertex -90 26.85 4.7
      vertex -90.556 26.7952 4.7
    endloop
  endfacet
  facet normal 0.0980859 -0.995178 0
    outer loop
      vertex -90 26.85 4.7
      vertex -90.556 26.7952 0
      vertex -90 26.85 0
    endloop
  endfacet
  facet normal -0.773055 0.634339 0
    outer loop
      vertex -87.9847 21.9847 0
      vertex -87.6303 22.4166 4.7
      vertex -87.6303 22.4166 0
    endloop
  endfacet
  facet normal -0.773055 0.634339 0
    outer loop
      vertex -87.6303 22.4166 4.7
      vertex -87.9847 21.9847 0
      vertex -87.9847 21.9847 4.7
    endloop
  endfacet
  facet normal -0.290122 -0.95699 0
    outer loop
      vertex -89.444 26.7952 0
      vertex -88.9093 26.6331 4.7
      vertex -89.444 26.7952 4.7
    endloop
  endfacet
  facet normal -0.290122 -0.95699 -0
    outer loop
      vertex -88.9093 26.6331 4.7
      vertex -89.444 26.7952 0
      vertex -88.9093 26.6331 0
    endloop
  endfacet
  facet normal 0.956975 0.290171 0
    outer loop
      vertex -92.6331 22.9094 4.7
      vertex -92.7952 23.444 0
      vertex -92.7952 23.444 4.7
    endloop
  endfacet
  facet normal 0.956975 0.290171 0
    outer loop
      vertex -92.7952 23.444 0
      vertex -92.6331 22.9094 4.7
      vertex -92.6331 22.9094 0
    endloop
  endfacet
  facet normal -0.634339 0.773055 0
    outer loop
      vertex -87.9847 21.9847 0
      vertex -88.4166 21.6303 4.7
      vertex -87.9847 21.9847 4.7
    endloop
  endfacet
  facet normal -0.634339 0.773055 0
    outer loop
      vertex -88.4166 21.6303 4.7
      vertex -87.9847 21.9847 0
      vertex -88.4166 21.6303 0
    endloop
  endfacet
  facet normal -0.471461 -0.881887 0
    outer loop
      vertex -88.9093 26.6331 0
      vertex -88.4166 26.3697 4.7
      vertex -88.9093 26.6331 4.7
    endloop
  endfacet
  facet normal -0.471461 -0.881887 -0
    outer loop
      vertex -88.4166 26.3697 4.7
      vertex -88.9093 26.6331 0
      vertex -88.4166 26.3697 0
    endloop
  endfacet
  facet normal 0.773055 0.634339 0
    outer loop
      vertex -92.0153 21.9847 4.7
      vertex -92.3697 22.4166 0
      vertex -92.3697 22.4166 4.7
    endloop
  endfacet
  facet normal 0.773055 0.634339 0
    outer loop
      vertex -92.3697 22.4166 0
      vertex -92.0153 21.9847 4.7
      vertex -92.0153 21.9847 0
    endloop
  endfacet
  facet normal -0.956975 0.290171 0
    outer loop
      vertex -87.3669 22.9094 0
      vertex -87.2048 23.444 4.7
      vertex -87.2048 23.444 0
    endloop
  endfacet
  facet normal -0.956975 0.290171 0
    outer loop
      vertex -87.2048 23.444 4.7
      vertex -87.3669 22.9094 0
      vertex -87.3669 22.9094 4.7
    endloop
  endfacet
  facet normal -0.0980859 0.995178 0
    outer loop
      vertex -89.444 21.2048 0
      vertex -90 21.15 4.7
      vertex -89.444 21.2048 4.7
    endloop
  endfacet
  facet normal -0.0980859 0.995178 0
    outer loop
      vertex -90 21.15 4.7
      vertex -89.444 21.2048 0
      vertex -90 21.15 0
    endloop
  endfacet
  facet normal 0.634339 0.773055 -0
    outer loop
      vertex -91.5834 21.6303 0
      vertex -92.0153 21.9847 4.7
      vertex -91.5834 21.6303 4.7
    endloop
  endfacet
  facet normal 0.634339 0.773055 0
    outer loop
      vertex -92.0153 21.9847 4.7
      vertex -91.5834 21.6303 0
      vertex -92.0153 21.9847 0
    endloop
  endfacet
  facet normal 0.956975 -0.290171 0
    outer loop
      vertex -92.7952 24.556 4.7
      vertex -92.6331 25.0906 0
      vertex -92.6331 25.0906 4.7
    endloop
  endfacet
  facet normal 0.956975 -0.290171 0
    outer loop
      vertex -92.6331 25.0906 0
      vertex -92.7952 24.556 4.7
      vertex -92.7952 24.556 0
    endloop
  endfacet
  facet normal -0.0980859 -0.995178 0
    outer loop
      vertex -90 26.85 0
      vertex -89.444 26.7952 4.7
      vertex -90 26.85 4.7
    endloop
  endfacet
  facet normal -0.0980859 -0.995178 -0
    outer loop
      vertex -89.444 26.7952 4.7
      vertex -90 26.85 0
      vertex -89.444 26.7952 0
    endloop
  endfacet
  facet normal 0.881927 -0.471387 0
    outer loop
      vertex -92.6331 25.0906 4.7
      vertex -92.3697 25.5834 0
      vertex -92.3697 25.5834 4.7
    endloop
  endfacet
  facet normal 0.881927 -0.471387 0
    outer loop
      vertex -92.3697 25.5834 0
      vertex -92.6331 25.0906 4.7
      vertex -92.6331 25.0906 0
    endloop
  endfacet
  facet normal 0.995178 0.0980859 0
    outer loop
      vertex -92.7952 23.444 4.7
      vertex -92.85 24 0
      vertex -92.85 24 4.7
    endloop
  endfacet
  facet normal 0.995178 0.0980859 0
    outer loop
      vertex -92.85 24 0
      vertex -92.7952 23.444 4.7
      vertex -92.7952 23.444 0
    endloop
  endfacet
  facet normal -0.29039 0.956908 0
    outer loop
      vertex -115.171 31.8847 0
      vertex -116.296 31.5433 5
      vertex -115.171 31.8847 5
    endloop
  endfacet
  facet normal -0.29039 0.956908 0
    outer loop
      vertex -116.296 31.5433 5
      vertex -115.171 31.8847 0
      vertex -116.296 31.5433 0
    endloop
  endfacet
  facet normal -0.471537 -0.881846 0
    outer loop
      vertex -117.333 -30.9888 0
      vertex -116.296 -31.5433 5
      vertex -117.333 -30.9888 5
    endloop
  endfacet
  facet normal -0.471537 -0.881846 -0
    outer loop
      vertex -116.296 -31.5433 5
      vertex -117.333 -30.9888 0
      vertex -116.296 -31.5433 0
    endloop
  endfacet
  facet normal -0.95681 0.290715 0
    outer loop
      vertex -119.885 27.1705 0
      vertex -119.543 28.2961 5
      vertex -119.543 28.2961 0
    endloop
  endfacet
  facet normal -0.95681 0.290715 0
    outer loop
      vertex -119.543 28.2961 5
      vertex -119.885 27.1705 0
      vertex -119.885 27.1705 5
    endloop
  endfacet
  facet normal -0.773078 0.634311 0
    outer loop
      vertex -118.989 29.3334 0
      vertex -118.243 30.2426 5
      vertex -118.243 30.2426 0
    endloop
  endfacet
  facet normal -0.773078 0.634311 0
    outer loop
      vertex -118.243 30.2426 5
      vertex -118.989 29.3334 0
      vertex -118.989 29.3334 5
    endloop
  endfacet
  facet normal -0.88208 0.4711 0
    outer loop
      vertex -119.543 28.2961 0
      vertex -118.989 29.3334 5
      vertex -118.989 29.3334 0
    endloop
  endfacet
  facet normal -0.88208 0.4711 0
    outer loop
      vertex -118.989 29.3334 5
      vertex -119.543 28.2961 0
      vertex -119.543 28.2961 5
    endloop
  endfacet
  facet normal -0.995208 0.0977778 0
    outer loop
      vertex -120 26 0
      vertex -119.885 27.1705 5
      vertex -119.885 27.1705 0
    endloop
  endfacet
  facet normal -0.995208 0.0977778 0
    outer loop
      vertex -119.885 27.1705 5
      vertex -120 26 0
      vertex -120 26 5
    endloop
  endfacet
  facet normal -0 0 1
    outer loop
      vertex -114 32 5
      vertex -114.366 31.8655 5
      vertex -113 32 5
    endloop
  endfacet
  facet normal -0 0 1
    outer loop
      vertex -115.171 31.8847 5
      vertex -114.366 31.8655 5
      vertex -114 32 5
    endloop
  endfacet
  facet normal 0 0 1
    outer loop
      vertex -115.171 31.8847 5
      vertex -115.679 31.4672 5
      vertex -114.366 31.8655 5
    endloop
  endfacet
  facet normal -0 0 1
    outer loop
      vertex -116.296 31.5433 5
      vertex -115.679 31.4672 5
      vertex -115.171 31.8847 5
    endloop
  endfacet
  facet normal 0 0 1
    outer loop
      vertex -116.296 31.5433 5
      vertex -116.889 30.8203 5
      vertex -115.679 31.4672 5
    endloop
  endfacet
  facet normal -0 0 1
    outer loop
      vertex -117.333 30.9888 5
      vertex -116.889 30.8203 5
      vertex -116.296 31.5433 5
    endloop
  endfacet
  facet normal 0 0 1
    outer loop
      vertex -117.333 30.9888 5
      vertex -117.95 29.9497 5
      vertex -116.889 30.8203 5
    endloop
  endfacet
  facet normal -0 0 1
    outer loop
      vertex -118.243 30.2426 5
      vertex -117.95 29.9497 5
      vertex -117.333 30.9888 5
    endloop
  endfacet
  facet normal 0 0 1
    outer loop
      vertex -118.989 29.3334 5
      vertex -117.95 29.9497 5
      vertex -118.243 30.2426 5
    endloop
  endfacet
  facet normal 0 0 1
    outer loop
      vertex -117.95 29.9497 5
      vertex -118.989 29.3334 5
      vertex -118.82 28.889 5
    endloop
  endfacet
  facet normal 0 0 1
    outer loop
      vertex -119.543 28.2961 5
      vertex -118.82 28.889 5
      vertex -118.989 29.3334 5
    endloop
  endfacet
  facet normal 0 0 1
    outer loop
      vertex -118.82 28.889 5
      vertex -119.543 28.2961 5
      vertex -119.467 27.6788 5
    endloop
  endfacet
  facet normal 0 0 1
    outer loop
      vertex -119.885 27.1705 5
      vertex -119.467 27.6788 5
      vertex -119.543 28.2961 5
    endloop
  endfacet
  facet normal 0 0 1
    outer loop
      vertex -119.467 27.6788 5
      vertex -119.885 27.1705 5
      vertex -119.865 26.3656 5
    endloop
  endfacet
  facet normal 0 0 1
    outer loop
      vertex -120 26 5
      vertex -119.865 26.3656 5
      vertex -119.885 27.1705 5
    endloop
  endfacet
  facet normal 0 0 1
    outer loop
      vertex -119.865 26.3656 5
      vertex -120 26 5
      vertex -120 25 5
    endloop
  endfacet
  facet normal 0 0 1
    outer loop
      vertex -114.366 -31.8655 5
      vertex -114 -32 5
      vertex -113 -32 5
    endloop
  endfacet
  facet normal 0 0 1
    outer loop
      vertex -114.366 -31.8655 5
      vertex -115.171 -31.8847 5
      vertex -114 -32 5
    endloop
  endfacet
  facet normal 0 0 1
    outer loop
      vertex -115.679 -31.4672 5
      vertex -115.171 -31.8847 5
      vertex -114.366 -31.8655 5
    endloop
  endfacet
  facet normal 0 0 1
    outer loop
      vertex -115.679 -31.4672 5
      vertex -116.296 -31.5433 5
      vertex -115.171 -31.8847 5
    endloop
  endfacet
  facet normal 0 0 1
    outer loop
      vertex -116.889 -30.8203 5
      vertex -116.296 -31.5433 5
      vertex -115.679 -31.4672 5
    endloop
  endfacet
  facet normal 0 0 1
    outer loop
      vertex -116.889 -30.8203 5
      vertex -117.333 -30.9888 5
      vertex -116.296 -31.5433 5
    endloop
  endfacet
  facet normal 0 0 1
    outer loop
      vertex -117.95 -29.9497 5
      vertex -117.333 -30.9888 5
      vertex -116.889 -30.8203 5
    endloop
  endfacet
  facet normal 0 0 1
    outer loop
      vertex -117.95 -29.9497 5
      vertex -118.243 -30.2426 5
      vertex -117.333 -30.9888 5
    endloop
  endfacet
  facet normal -0 0 1
    outer loop
      vertex -118.989 -29.3334 5
      vertex -117.95 -29.9497 5
      vertex -118.82 -28.889 5
    endloop
  endfacet
  facet normal 0 0 1
    outer loop
      vertex -117.95 -29.9497 5
      vertex -118.989 -29.3334 5
      vertex -118.243 -30.2426 5
    endloop
  endfacet
  facet normal -0 0 1
    outer loop
      vertex -119.543 -28.2961 5
      vertex -118.82 -28.889 5
      vertex -119.467 -27.6788 5
    endloop
  endfacet
  facet normal 0 0 1
    outer loop
      vertex -118.82 -28.889 5
      vertex -119.543 -28.2961 5
      vertex -118.989 -29.3334 5
    endloop
  endfacet
  facet normal -0 0 1
    outer loop
      vertex -119.885 -27.1705 5
      vertex -119.467 -27.6788 5
      vertex -119.865 -26.3656 5
    endloop
  endfacet
  facet normal 0 0 1
    outer loop
      vertex -119.467 -27.6788 5
      vertex -119.885 -27.1705 5
      vertex -119.543 -28.2961 5
    endloop
  endfacet
  facet normal -0 0 1
    outer loop
      vertex -120 -26 5
      vertex -119.865 -26.3656 5
      vertex -120 -25 5
    endloop
  endfacet
  facet normal 0 0 1
    outer loop
      vertex -119.865 -26.3656 5
      vertex -120 -26 5
      vertex -119.885 -27.1705 5
    endloop
  endfacet
  facet normal -0.097989 0.995187 0
    outer loop
      vertex -114 32 0
      vertex -115.171 31.8847 5
      vertex -114 32 5
    endloop
  endfacet
  facet normal -0.097989 0.995187 0
    outer loop
      vertex -115.171 31.8847 5
      vertex -114 32 0
      vertex -115.171 31.8847 0
    endloop
  endfacet
  facet normal 0 1 0
    outer loop
      vertex 0 32 7.7
      vertex -113 32 5
      vertex -113 32 7.7
    endloop
  endfacet
  facet normal 0 1 -0
    outer loop
      vertex 0 32 0
      vertex -113 32 5
      vertex 0 32 7.7
    endloop
  endfacet
  facet normal 0 1 0
    outer loop
      vertex -114 32 0
      vertex -113 32 5
      vertex 0 32 0
    endloop
  endfacet
  facet normal 0 1 0
    outer loop
      vertex -113 32 5
      vertex -114 32 0
      vertex -114 32 5
    endloop
  endfacet
  facet normal -0.471537 0.881846 0
    outer loop
      vertex -116.296 31.5433 0
      vertex -117.333 30.9888 5
      vertex -116.296 31.5433 5
    endloop
  endfacet
  facet normal -0.471537 0.881846 0
    outer loop
      vertex -117.333 30.9888 5
      vertex -116.296 31.5433 0
      vertex -117.333 30.9888 0
    endloop
  endfacet
  facet normal -0.95681 -0.290715 0
    outer loop
      vertex -119.543 -28.2961 0
      vertex -119.885 -27.1705 5
      vertex -119.885 -27.1705 0
    endloop
  endfacet
  facet normal -0.95681 -0.290715 0
    outer loop
      vertex -119.885 -27.1705 5
      vertex -119.543 -28.2961 0
      vertex -119.543 -28.2961 5
    endloop
  endfacet
  facet normal 0 -1 0
    outer loop
      vertex -114 -32 5
      vertex -114 -32 0
      vertex -113 -32 5
    endloop
  endfacet
  facet normal 0 -1 0
    outer loop
      vertex -113 -32 5
      vertex 0 -32 7.7
      vertex -113 -32 7.7
    endloop
  endfacet
  facet normal 0 -1 0
    outer loop
      vertex 0 -32 0
      vertex -113 -32 5
      vertex -114 -32 0
    endloop
  endfacet
  facet normal 0 -1 0
    outer loop
      vertex -113 -32 5
      vertex 0 -32 0
      vertex 0 -32 7.7
    endloop
  endfacet
  facet normal -1 0 0
    outer loop
      vertex -120 26 0
      vertex -120 25 5
      vertex -120 26 5
    endloop
  endfacet
  facet normal -1 0 0
    outer loop
      vertex -120 25 5
      vertex -120 -25 5
      vertex -120 25 7.7
    endloop
  endfacet
  facet normal -1 0 0
    outer loop
      vertex -120 26 0
      vertex -120 -25 5
      vertex -120 25 5
    endloop
  endfacet
  facet normal -1 0 0
    outer loop
      vertex -120 -26 0
      vertex -120 -25 5
      vertex -120 26 0
    endloop
  endfacet
  facet normal -1 -0 0
    outer loop
      vertex -120 -25 5
      vertex -120 -26 0
      vertex -120 -26 5
    endloop
  endfacet
  facet normal -1 -0 0
    outer loop
      vertex -120 25 7.7
      vertex -120 -25 5
      vertex -120 -25 7.7
    endloop
  endfacet
  facet normal -0.097989 -0.995187 0
    outer loop
      vertex -115.171 -31.8847 0
      vertex -114 -32 5
      vertex -115.171 -31.8847 5
    endloop
  endfacet
  facet normal -0.097989 -0.995187 -0
    outer loop
      vertex -114 -32 5
      vertex -115.171 -31.8847 0
      vertex -114 -32 0
    endloop
  endfacet
  facet normal -0.995208 -0.0977778 0
    outer loop
      vertex -119.885 -27.1705 0
      vertex -120 -26 5
      vertex -120 -26 0
    endloop
  endfacet
  facet normal -0.995208 -0.0977778 0
    outer loop
      vertex -120 -26 5
      vertex -119.885 -27.1705 0
      vertex -119.885 -27.1705 5
    endloop
  endfacet
  facet normal -0.63408 -0.773268 0
    outer loop
      vertex -118.243 -30.2426 0
      vertex -117.333 -30.9888 5
      vertex -118.243 -30.2426 5
    endloop
  endfacet
  facet normal -0.63408 -0.773268 -0
    outer loop
      vertex -117.333 -30.9888 5
      vertex -118.243 -30.2426 0
      vertex -117.333 -30.9888 0
    endloop
  endfacet
  facet normal -0.773078 -0.634311 0
    outer loop
      vertex -118.243 -30.2426 0
      vertex -118.989 -29.3334 5
      vertex -118.989 -29.3334 0
    endloop
  endfacet
  facet normal -0.773078 -0.634311 0
    outer loop
      vertex -118.989 -29.3334 5
      vertex -118.243 -30.2426 0
      vertex -118.243 -30.2426 5
    endloop
  endfacet
  facet normal -0.29039 -0.956908 0
    outer loop
      vertex -116.296 -31.5433 0
      vertex -115.171 -31.8847 5
      vertex -116.296 -31.5433 5
    endloop
  endfacet
  facet normal -0.29039 -0.956908 -0
    outer loop
      vertex -115.171 -31.8847 5
      vertex -116.296 -31.5433 0
      vertex -115.171 -31.8847 0
    endloop
  endfacet
  facet normal -0.88208 -0.4711 0
    outer loop
      vertex -118.989 -29.3334 0
      vertex -119.543 -28.2961 5
      vertex -119.543 -28.2961 0
    endloop
  endfacet
  facet normal -0.88208 -0.4711 0
    outer loop
      vertex -119.543 -28.2961 5
      vertex -118.989 -29.3334 0
      vertex -118.989 -29.3334 5
    endloop
  endfacet
  facet normal -0.63408 0.773268 0
    outer loop
      vertex -117.333 30.9888 0
      vertex -118.243 30.2426 5
      vertex -117.333 30.9888 5
    endloop
  endfacet
  facet normal -0.63408 0.773268 0
    outer loop
      vertex -118.243 30.2426 5
      vertex -117.333 30.9888 0
      vertex -118.243 30.2426 0
    endloop
  endfacet
  facet normal 0 0 -1
    outer loop
      vertex 0 -32 0
      vertex -87.3669 -22.9094 0
      vertex 0 32 0
    endloop
  endfacet
  facet normal 0 0 -1
    outer loop
      vertex 0 32 0
      vertex -87.2048 23.444 0
      vertex -87.15 24 0
    endloop
  endfacet
  facet normal 0 0 -1
    outer loop
      vertex -87.3669 22.9094 0
      vertex 0 32 0
      vertex -87.3669 -22.9094 0
    endloop
  endfacet
  facet normal 0 0 -1
    outer loop
      vertex 0 32 0
      vertex -87.3669 22.9094 0
      vertex -87.2048 23.444 0
    endloop
  endfacet
  facet normal 0 0 -1
    outer loop
      vertex -87.6303 -22.4166 0
      vertex -87.3669 22.9094 0
      vertex -87.3669 -22.9094 0
    endloop
  endfacet
  facet normal 0 0 -1
    outer loop
      vertex -87.6303 -22.4166 0
      vertex -87.6303 22.4166 0
      vertex -87.3669 22.9094 0
    endloop
  endfacet
  facet normal 0 0 -1
    outer loop
      vertex -87.9847 -21.9847 0
      vertex -87.6303 22.4166 0
      vertex -87.6303 -22.4166 0
    endloop
  endfacet
  facet normal 0 0 -1
    outer loop
      vertex -87.9847 -21.9847 0
      vertex -87.9847 21.9847 0
      vertex -87.6303 22.4166 0
    endloop
  endfacet
  facet normal 0 0 -1
    outer loop
      vertex -88.4166 -21.6303 0
      vertex -87.9847 21.9847 0
      vertex -87.9847 -21.9847 0
    endloop
  endfacet
  facet normal 0 0 -1
    outer loop
      vertex -88.4166 -21.6303 0
      vertex -88.4166 21.6303 0
      vertex -87.9847 21.9847 0
    endloop
  endfacet
  facet normal 0 0 -1
    outer loop
      vertex -88.9093 -21.3669 0
      vertex -88.4166 21.6303 0
      vertex -88.4166 -21.6303 0
    endloop
  endfacet
  facet normal 0 0 -1
    outer loop
      vertex -88.9093 -21.3669 0
      vertex -88.9093 21.3669 0
      vertex -88.4166 21.6303 0
    endloop
  endfacet
  facet normal 0 0 -1
    outer loop
      vertex -89.444 -21.2048 0
      vertex -88.9093 21.3669 0
      vertex -88.9093 -21.3669 0
    endloop
  endfacet
  facet normal 0 0 -1
    outer loop
      vertex -89.444 -21.2048 0
      vertex -89.444 21.2048 0
      vertex -88.9093 21.3669 0
    endloop
  endfacet
  facet normal 0 0 -1
    outer loop
      vertex -90 -21.15 0
      vertex -89.444 21.2048 0
      vertex -89.444 -21.2048 0
    endloop
  endfacet
  facet normal 0 0 -1
    outer loop
      vertex -90 -21.15 0
      vertex -90 21.15 0
      vertex -89.444 21.2048 0
    endloop
  endfacet
  facet normal 0 0 -1
    outer loop
      vertex -90.556 -21.2048 0
      vertex -90 21.15 0
      vertex -90 -21.15 0
    endloop
  endfacet
  facet normal 0 0 -1
    outer loop
      vertex -90.556 -21.2048 0
      vertex -90.556 21.2048 0
      vertex -90 21.15 0
    endloop
  endfacet
  facet normal 0 0 -1
    outer loop
      vertex -91.0906 -21.3669 0
      vertex -90.556 21.2048 0
      vertex -90.556 -21.2048 0
    endloop
  endfacet
  facet normal 0 0 -1
    outer loop
      vertex -91.0906 -21.3669 0
      vertex -91.0906 21.3669 0
      vertex -90.556 21.2048 0
    endloop
  endfacet
  facet normal 0 0 -1
    outer loop
      vertex -91.5834 -21.6303 0
      vertex -91.0906 21.3669 0
      vertex -91.0906 -21.3669 0
    endloop
  endfacet
  facet normal 0 0 -1
    outer loop
      vertex -91.5834 -21.6303 0
      vertex -91.5834 21.6303 0
      vertex -91.0906 21.3669 0
    endloop
  endfacet
  facet normal 0 0 -1
    outer loop
      vertex -92.0153 -21.9847 0
      vertex -91.5834 21.6303 0
      vertex -91.5834 -21.6303 0
    endloop
  endfacet
  facet normal 0 0 -1
    outer loop
      vertex -92.0153 -21.9847 0
      vertex -92.0153 21.9847 0
      vertex -91.5834 21.6303 0
    endloop
  endfacet
  facet normal 0 0 -1
    outer loop
      vertex -120 -26 0
      vertex -92.0153 -21.9847 0
      vertex -92.3697 -22.4166 0
    endloop
  endfacet
  facet normal -0 0 -1
    outer loop
      vertex -92.0153 -21.9847 0
      vertex -120 -26 0
      vertex -92.0153 21.9847 0
    endloop
  endfacet
  facet normal 0 0 -1
    outer loop
      vertex -120 -26 0
      vertex -92.3697 -22.4166 0
      vertex -92.6331 -22.9094 0
    endloop
  endfacet
  facet normal 0 0 -1
    outer loop
      vertex -120 26 0
      vertex -92.0153 21.9847 0
      vertex -120 -26 0
    endloop
  endfacet
  facet normal 0 0 -1
    outer loop
      vertex -120 -26 0
      vertex -92.6331 -22.9094 0
      vertex -92.7952 -23.444 0
    endloop
  endfacet
  facet normal 0 0 -1
    outer loop
      vertex -92.0153 21.9847 0
      vertex -120 26 0
      vertex -92.3697 22.4166 0
    endloop
  endfacet
  facet normal 0 0 -1
    outer loop
      vertex -114 -32 0
      vertex -92.7952 -23.444 0
      vertex -92.85 -24 0
    endloop
  endfacet
  facet normal 0 0 -1
    outer loop
      vertex -92.3697 22.4166 0
      vertex -120 26 0
      vertex -92.6331 22.9094 0
    endloop
  endfacet
  facet normal 0 0 -1
    outer loop
      vertex -87.2048 -23.444 0
      vertex 0 -32 0
      vertex -87.15 -24 0
    endloop
  endfacet
  facet normal 0 0 -1
    outer loop
      vertex 0 -32 0
      vertex -87.2048 -24.556 0
      vertex -87.15 -24 0
    endloop
  endfacet
  facet normal 0 0 -1
    outer loop
      vertex 0 -32 0
      vertex -87.3669 -25.0906 0
      vertex -87.2048 -24.556 0
    endloop
  endfacet
  facet normal 0 0 -1
    outer loop
      vertex 0 -32 0
      vertex -87.6303 -25.5834 0
      vertex -87.3669 -25.0906 0
    endloop
  endfacet
  facet normal 0 0 -1
    outer loop
      vertex 0 -32 0
      vertex -87.9847 -26.0153 0
      vertex -87.6303 -25.5834 0
    endloop
  endfacet
  facet normal 0 0 -1
    outer loop
      vertex 0 -32 0
      vertex -88.4166 -26.3697 0
      vertex -87.9847 -26.0153 0
    endloop
  endfacet
  facet normal 0 0 -1
    outer loop
      vertex 0 -32 0
      vertex -88.9093 -26.6331 0
      vertex -88.4166 -26.3697 0
    endloop
  endfacet
  facet normal 0 0 -1
    outer loop
      vertex 0 -32 0
      vertex -89.444 -26.7952 0
      vertex -88.9093 -26.6331 0
    endloop
  endfacet
  facet normal 0 0 -1
    outer loop
      vertex -114 -32 0
      vertex -89.444 -26.7952 0
      vertex 0 -32 0
    endloop
  endfacet
  facet normal 0 0 -1
    outer loop
      vertex -92.7952 -23.444 0
      vertex -114 -32 0
      vertex -120 -26 0
    endloop
  endfacet
  facet normal -0 0 -1
    outer loop
      vertex -92.7952 -24.556 0
      vertex -114 -32 0
      vertex -92.85 -24 0
    endloop
  endfacet
  facet normal -0 0 -1
    outer loop
      vertex -92.6331 -25.0906 0
      vertex -114 -32 0
      vertex -92.7952 -24.556 0
    endloop
  endfacet
  facet normal -0 0 -1
    outer loop
      vertex -92.3697 -25.5834 0
      vertex -114 -32 0
      vertex -92.6331 -25.0906 0
    endloop
  endfacet
  facet normal -0 0 -1
    outer loop
      vertex -92.0153 -26.0153 0
      vertex -114 -32 0
      vertex -92.3697 -25.5834 0
    endloop
  endfacet
  facet normal -0 0 -1
    outer loop
      vertex -91.5834 -26.3697 0
      vertex -114 -32 0
      vertex -92.0153 -26.0153 0
    endloop
  endfacet
  facet normal -0 0 -1
    outer loop
      vertex -91.0906 -26.6331 0
      vertex -114 -32 0
      vertex -91.5834 -26.3697 0
    endloop
  endfacet
  facet normal -0 0 -1
    outer loop
      vertex -90.556 -26.7952 0
      vertex -114 -32 0
      vertex -91.0906 -26.6331 0
    endloop
  endfacet
  facet normal -0 0 -1
    outer loop
      vertex -90 -26.85 0
      vertex -114 -32 0
      vertex -90.556 -26.7952 0
    endloop
  endfacet
  facet normal 0 0 -1
    outer loop
      vertex -89.444 -26.7952 0
      vertex -114 -32 0
      vertex -90 -26.85 0
    endloop
  endfacet
  facet normal 0 0 -1
    outer loop
      vertex -87.3669 -22.9094 0
      vertex 0 -32 0
      vertex -87.2048 -23.444 0
    endloop
  endfacet
  facet normal 0 0 -1
    outer loop
      vertex -87.2048 24.556 0
      vertex 0 32 0
      vertex -87.15 24 0
    endloop
  endfacet
  facet normal 0 0 -1
    outer loop
      vertex -87.3669 25.0906 0
      vertex 0 32 0
      vertex -87.2048 24.556 0
    endloop
  endfacet
  facet normal 0 0 -1
    outer loop
      vertex -87.6303 25.5834 0
      vertex 0 32 0
      vertex -87.3669 25.0906 0
    endloop
  endfacet
  facet normal 0 0 -1
    outer loop
      vertex -87.9847 26.0153 0
      vertex 0 32 0
      vertex -87.6303 25.5834 0
    endloop
  endfacet
  facet normal 0 0 -1
    outer loop
      vertex -88.4166 26.3697 0
      vertex 0 32 0
      vertex -87.9847 26.0153 0
    endloop
  endfacet
  facet normal 0 0 -1
    outer loop
      vertex -88.9093 26.6331 0
      vertex 0 32 0
      vertex -88.4166 26.3697 0
    endloop
  endfacet
  facet normal 0 0 -1
    outer loop
      vertex -89.444 26.7952 0
      vertex 0 32 0
      vertex -88.9093 26.6331 0
    endloop
  endfacet
  facet normal 0 0 -1
    outer loop
      vertex -114 32 0
      vertex -89.444 26.7952 0
      vertex -90 26.85 0
    endloop
  endfacet
  facet normal 0 0 -1
    outer loop
      vertex -92.6331 22.9094 0
      vertex -120 26 0
      vertex -92.7952 23.444 0
    endloop
  endfacet
  facet normal 0 -0 -1
    outer loop
      vertex -114 32 0
      vertex -92.7952 23.444 0
      vertex -120 26 0
    endloop
  endfacet
  facet normal 0 0 -1
    outer loop
      vertex -89.444 26.7952 0
      vertex -114 32 0
      vertex 0 32 0
    endloop
  endfacet
  facet normal 0 0 -1
    outer loop
      vertex -90.556 26.7952 0
      vertex -114 32 0
      vertex -90 26.85 0
    endloop
  endfacet
  facet normal 0 0 -1
    outer loop
      vertex -91.0906 26.6331 0
      vertex -114 32 0
      vertex -90.556 26.7952 0
    endloop
  endfacet
  facet normal 0 0 -1
    outer loop
      vertex -91.5834 26.3697 0
      vertex -114 32 0
      vertex -91.0906 26.6331 0
    endloop
  endfacet
  facet normal 0 0 -1
    outer loop
      vertex -92.0153 26.0153 0
      vertex -114 32 0
      vertex -91.5834 26.3697 0
    endloop
  endfacet
  facet normal 0 0 -1
    outer loop
      vertex -92.3697 25.5834 0
      vertex -114 32 0
      vertex -92.0153 26.0153 0
    endloop
  endfacet
  facet normal 0 0 -1
    outer loop
      vertex -92.6331 25.0906 0
      vertex -114 32 0
      vertex -92.3697 25.5834 0
    endloop
  endfacet
  facet normal 0 0 -1
    outer loop
      vertex -92.7952 23.444 0
      vertex -114 32 0
      vertex -92.85 24 0
    endloop
  endfacet
  facet normal 0 0 -1
    outer loop
      vertex -120 -26 0
      vertex -114 -32 0
      vertex -115.171 -31.8847 0
    endloop
  endfacet
  facet normal 0 0 -1
    outer loop
      vertex -92.85 24 0
      vertex -114 32 0
      vertex -92.7952 24.556 0
    endloop
  endfacet
  facet normal 0 0 -1
    outer loop
      vertex -120 -26 0
      vertex -115.171 -31.8847 0
      vertex -116.296 -31.5433 0
    endloop
  endfacet
  facet normal 0 0 -1
    outer loop
      vertex -92.7952 24.556 0
      vertex -114 32 0
      vertex -92.6331 25.0906 0
    endloop
  endfacet
  facet normal 0 0 -1
    outer loop
      vertex -120 -26 0
      vertex -116.296 -31.5433 0
      vertex -117.333 -30.9888 0
    endloop
  endfacet
  facet normal 0 0 -1
    outer loop
      vertex -114 32 0
      vertex -120 26 0
      vertex -115.171 31.8847 0
    endloop
  endfacet
  facet normal 0 0 -1
    outer loop
      vertex -120 -26 0
      vertex -117.333 -30.9888 0
      vertex -118.243 -30.2426 0
    endloop
  endfacet
  facet normal 0 0 -1
    outer loop
      vertex -115.171 31.8847 0
      vertex -120 26 0
      vertex -116.296 31.5433 0
    endloop
  endfacet
  facet normal 0 0 -1
    outer loop
      vertex -120 -26 0
      vertex -118.243 -30.2426 0
      vertex -118.989 -29.3334 0
    endloop
  endfacet
  facet normal 0 0 -1
    outer loop
      vertex -116.296 31.5433 0
      vertex -120 26 0
      vertex -117.333 30.9888 0
    endloop
  endfacet
  facet normal 0 0 -1
    outer loop
      vertex -120 -26 0
      vertex -118.989 -29.3334 0
      vertex -119.543 -28.2961 0
    endloop
  endfacet
  facet normal 0 0 -1
    outer loop
      vertex -117.333 30.9888 0
      vertex -120 26 0
      vertex -118.243 30.2426 0
    endloop
  endfacet
  facet normal 0 0 -1
    outer loop
      vertex -120 -26 0
      vertex -119.543 -28.2961 0
      vertex -119.885 -27.1705 0
    endloop
  endfacet
  facet normal 0 0 -1
    outer loop
      vertex -118.243 30.2426 0
      vertex -120 26 0
      vertex -118.989 29.3334 0
    endloop
  endfacet
  facet normal 0 0 -1
    outer loop
      vertex -118.989 29.3334 0
      vertex -120 26 0
      vertex -119.543 28.2961 0
    endloop
  endfacet
  facet normal 0 0 -1
    outer loop
      vertex -119.543 28.2961 0
      vertex -120 26 0
      vertex -119.885 27.1705 0
    endloop
  endfacet
  facet normal -0 0 1
    outer loop
      vertex -7 0 47.4
      vertex -1.2 -1.2 47.4
      vertex -1.2 0 47.4
    endloop
  endfacet
  facet normal 0 0 1
    outer loop
      vertex -1.2 -1.2 47.4
      vertex -7 0 47.4
      vertex -7 -1.2 47.4
    endloop
  endfacet
  facet normal 0 0 1
    outer loop
      vertex -1.2 0 47.4
      vertex 0 7 47.4
      vertex -1.2 7 47.4
    endloop
  endfacet
  facet normal 0 0 1
    outer loop
      vertex 0 7 47.4
      vertex -1.2 0 47.4
      vertex 0 -7 47.4
    endloop
  endfacet
  facet normal -0 0 1
    outer loop
      vertex -1.2 -1.2 47.4
      vertex 0 -7 47.4
      vertex -1.2 0 47.4
    endloop
  endfacet
  facet normal 0 0 1
    outer loop
      vertex 0 -7 47.4
      vertex -1.2 -1.2 47.4
      vertex -1.2 -7 47.4
    endloop
  endfacet
  facet normal 0 0 -1
    outer loop
      vertex -7 -1.2 46.6
      vertex -1.2 0 46.6
      vertex -1.2 -1.2 46.6
    endloop
  endfacet
  facet normal -0 0 -1
    outer loop
      vertex -1.2 0 46.6
      vertex -7 -1.2 46.6
      vertex -7 0 46.6
    endloop
  endfacet
  facet normal 0 0 -1
    outer loop
      vertex -1.2 -1.2 46.6
      vertex 0 -7 46.6
      vertex -1.2 -7 46.6
    endloop
  endfacet
  facet normal 0 0 -1
    outer loop
      vertex -1.2 0 46.6
      vertex 0 -7 46.6
      vertex -1.2 -1.2 46.6
    endloop
  endfacet
  facet normal 0 0 -1
    outer loop
      vertex 0 -7 46.6
      vertex -1.2 0 46.6
      vertex 0 7 46.6
    endloop
  endfacet
  facet normal -0 0 -1
    outer loop
      vertex 0 7 46.6
      vertex -1.2 0 46.6
      vertex -1.2 7 46.6
    endloop
  endfacet
  facet normal -1 0 0
    outer loop
      vertex -7 -1.2 46.6
      vertex -7 0 47.4
      vertex -7 0 46.6
    endloop
  endfacet
  facet normal -1 -0 0
    outer loop
      vertex -7 0 47.4
      vertex -7 -1.2 46.6
      vertex -7 -1.2 47.4
    endloop
  endfacet
  facet normal 0 1 -0
    outer loop
      vertex -1.2 0 46.6
      vertex -7 0 47.4
      vertex -1.2 0 47.4
    endloop
  endfacet
  facet normal 0 1 0
    outer loop
      vertex -7 0 47.4
      vertex -1.2 0 46.6
      vertex -7 0 46.6
    endloop
  endfacet
  facet normal 0 -1 0
    outer loop
      vertex -7 -1.2 46.6
      vertex -1.2 -1.2 47.4
      vertex -7 -1.2 47.4
    endloop
  endfacet
  facet normal 0 -1 -0
    outer loop
      vertex -1.2 -1.2 47.4
      vertex -7 -1.2 46.6
      vertex -1.2 -1.2 46.6
    endloop
  endfacet
  facet normal 1 -0 0
    outer loop
      vertex 0 -7 47.4
      vertex 0 7 46.6
      vertex 0 7 47.4
    endloop
  endfacet
  facet normal 1 0 0
    outer loop
      vertex 0 7 46.6
      vertex 0 -7 47.4
      vertex 0 -7 46.6
    endloop
  endfacet
  facet normal 1 0 0
    outer loop
      vertex 0 -32 7.7
      vertex 0 32 7.7
      vertex 0 28 42.7
    endloop
  endfacet
  facet normal 1 0 0
    outer loop
      vertex 0 -32 7.7
      vertex 0 28 42.7
      vertex 0 -28 42.7
    endloop
  endfacet
  facet normal 1 0 0
    outer loop
      vertex 0 32 7.7
      vertex 0 -32 7.7
      vertex 0 32 0
    endloop
  endfacet
  facet normal 1 0 0
    outer loop
      vertex 0 32 0
      vertex 0 -32 7.7
      vertex 0 -32 0
    endloop
  endfacet
  facet normal -1 0 0
    outer loop
      vertex -1.2 0 46.6
      vertex -1.2 7 47.4
      vertex -1.2 7 46.6
    endloop
  endfacet
  facet normal -1 -0 0
    outer loop
      vertex -1.2 7 47.4
      vertex -1.2 0 46.6
      vertex -1.2 0 47.4
    endloop
  endfacet
  facet normal -1 0 0
    outer loop
      vertex -1.2 -7 46.6
      vertex -1.2 -1.2 47.4
      vertex -1.2 -1.2 46.6
    endloop
  endfacet
  facet normal -1 -0 0
    outer loop
      vertex -1.2 -1.2 47.4
      vertex -1.2 -7 46.6
      vertex -1.2 -7 47.4
    endloop
  endfacet
  facet normal 0 1 -0
    outer loop
      vertex 0 7 46.6
      vertex -1.2 7 47.4
      vertex 0 7 47.4
    endloop
  endfacet
  facet normal 0 1 0
    outer loop
      vertex -1.2 7 47.4
      vertex 0 7 46.6
      vertex -1.2 7 46.6
    endloop
  endfacet
  facet normal 0 -1 0
    outer loop
      vertex -1.2 -7 46.6
      vertex 0 -7 47.4
      vertex -1.2 -7 47.4
    endloop
  endfacet
  facet normal 0 -1 -0
    outer loop
      vertex 0 -7 47.4
      vertex -1.2 -7 46.6
      vertex 0 -7 46.6
    endloop
  endfacet
  facet normal -0.705993 0.579064 0.407748
    outer loop
      vertex -117.95 29.9497 7.7
      vertex -118.82 28.889 7.7
      vertex -100.536 26.5355 42.7
    endloop
  endfacet
  facet normal -0.590775 -0.719977 0.364168
    outer loop
      vertex -100.536 -26.5355 42.7
      vertex -117.95 -29.9497 7.7
      vertex -116.889 -30.8203 7.7
    endloop
  endfacet
  facet normal 0 -0.993533 0.113547
    outer loop
      vertex 0 -32 7.7
      vertex -97 -28 42.7
      vertex -113 -32 7.7
    endloop
  endfacet
  facet normal 0 -0.993533 0.113547
    outer loop
      vertex -97 -28 42.7
      vertex 0 -32 7.7
      vertex 0 -28 42.7
    endloop
  endfacet
  facet normal -0.852216 0.258287 0.454989
    outer loop
      vertex -119.467 27.6788 7.7
      vertex -119.865 26.3656 7.7
      vertex -101.619 24.9134 42.7
    endloop
  endfacet
  facet normal -0.590598 0.720153 0.364107
    outer loop
      vertex -99.7778 27.1573 42.7
      vertex -116.889 30.8203 7.7
      vertex -100.536 26.5355 42.7
    endloop
  endfacet
  facet normal -0 0 1
    outer loop
      vertex -97 28 42.7
      vertex 0 -28 42.7
      vertex 0 28 42.7
    endloop
  endfacet
  facet normal 0 0 1
    outer loop
      vertex -97 28 42.7
      vertex -97 -28 42.7
      vertex 0 -28 42.7
    endloop
  endfacet
  facet normal 0 0 1
    outer loop
      vertex -102 23 42.7
      vertex -97 28 42.7
      vertex -97.9754 27.9039 42.7
    endloop
  endfacet
  facet normal 0 0 1
    outer loop
      vertex -97 28 42.7
      vertex -102 23 42.7
      vertex -97 -28 42.7
    endloop
  endfacet
  facet normal 0 0 1
    outer loop
      vertex -102 23 42.7
      vertex -97.9754 27.9039 42.7
      vertex -98.9134 27.6194 42.7
    endloop
  endfacet
  facet normal -0 0 1
    outer loop
      vertex -102 -23 42.7
      vertex -97 -28 42.7
      vertex -102 23 42.7
    endloop
  endfacet
  facet normal 0 0 1
    outer loop
      vertex -102 23 42.7
      vertex -98.9134 27.6194 42.7
      vertex -99.7778 27.1573 42.7
    endloop
  endfacet
  facet normal 0 0 1
    outer loop
      vertex -97 -28 42.7
      vertex -102 -23 42.7
      vertex -97.9754 -27.9039 42.7
    endloop
  endfacet
  facet normal 0 0 1
    outer loop
      vertex -102 23 42.7
      vertex -99.7778 27.1573 42.7
      vertex -100.536 26.5355 42.7
    endloop
  endfacet
  facet normal 0 0 1
    outer loop
      vertex -97.9754 -27.9039 42.7
      vertex -102 -23 42.7
      vertex -98.9134 -27.6194 42.7
    endloop
  endfacet
  facet normal 0 0 1
    outer loop
      vertex -102 23 42.7
      vertex -100.536 26.5355 42.7
      vertex -101.157 25.7779 42.7
    endloop
  endfacet
  facet normal 0 0 1
    outer loop
      vertex -98.9134 -27.6194 42.7
      vertex -102 -23 42.7
      vertex -99.7778 -27.1573 42.7
    endloop
  endfacet
  facet normal 0 0 1
    outer loop
      vertex -102 23 42.7
      vertex -101.157 25.7779 42.7
      vertex -101.619 24.9134 42.7
    endloop
  endfacet
  facet normal 0 0 1
    outer loop
      vertex -99.7778 -27.1573 42.7
      vertex -102 -23 42.7
      vertex -100.536 -26.5355 42.7
    endloop
  endfacet
  facet normal 0 0 1
    outer loop
      vertex -102 23 42.7
      vertex -101.619 24.9134 42.7
      vertex -101.904 23.9755 42.7
    endloop
  endfacet
  facet normal 0 0 1
    outer loop
      vertex -100.536 -26.5355 42.7
      vertex -102 -23 42.7
      vertex -101.157 -25.7779 42.7
    endloop
  endfacet
  facet normal 0 0 1
    outer loop
      vertex -101.157 -25.7779 42.7
      vertex -102 -23 42.7
      vertex -101.619 -24.9134 42.7
    endloop
  endfacet
  facet normal 0 0 1
    outer loop
      vertex -101.619 -24.9134 42.7
      vertex -102 -23 42.7
      vertex -101.904 -23.9755 42.7
    endloop
  endfacet
  facet normal -0.0979888 -0.995188 0
    outer loop
      vertex -114.366 -31.8655 5
      vertex -113 -32 7.7
      vertex -114.366 -31.8655 7.7
    endloop
  endfacet
  facet normal -0.0979888 -0.995188 -0
    outer loop
      vertex -113 -32 7.7
      vertex -114.366 -31.8655 5
      vertex -113 -32 5
    endloop
  endfacet
  facet normal -0.471477 -0.881878 0
    outer loop
      vertex -116.889 -30.8203 5
      vertex -115.679 -31.4672 7.7
      vertex -116.889 -30.8203 7.7
    endloop
  endfacet
  facet normal -0.471477 -0.881878 -0
    outer loop
      vertex -115.679 -31.4672 7.7
      vertex -116.889 -30.8203 5
      vertex -115.679 -31.4672 5
    endloop
  endfacet
  facet normal -0.634332 0.773061 0
    outer loop
      vertex -116.889 30.8203 5
      vertex -117.95 29.9497 7.7
      vertex -116.889 30.8203 7.7
    endloop
  endfacet
  facet normal -0.634332 0.773061 0
    outer loop
      vertex -117.95 29.9497 7.7
      vertex -116.889 30.8203 5
      vertex -117.95 29.9497 5
    endloop
  endfacet
  facet normal -0.852056 0.258915 0.454932
    outer loop
      vertex -101.619 24.9134 42.7
      vertex -119.865 26.3656 7.7
      vertex -101.904 23.9755 42.7
    endloop
  endfacet
  facet normal 0 0.993533 0.113547
    outer loop
      vertex 0 32 7.7
      vertex -97 28 42.7
      vertex 0 28 42.7
    endloop
  endfacet
  facet normal 0 0.993533 0.113547
    outer loop
      vertex -97 28 42.7
      vertex 0 32 7.7
      vertex -113 32 7.7
    endloop
  endfacet
  facet normal -0.590775 0.719977 0.364168
    outer loop
      vertex -116.889 30.8203 7.7
      vertex -117.95 29.9497 7.7
      vertex -100.536 26.5355 42.7
    endloop
  endfacet
  facet normal -0.590598 -0.720153 0.364107
    outer loop
      vertex -100.536 -26.5355 42.7
      vertex -116.889 -30.8203 7.7
      vertex -99.7778 -27.1573 42.7
    endloop
  endfacet
  facet normal -0.889288 0 0.457348
    outer loop
      vertex -120 25 7.7
      vertex -102 -23 42.7
      vertex -102 23 42.7
    endloop
  endfacet
  facet normal -0.889288 0 0.457348
    outer loop
      vertex -102 -23 42.7
      vertex -120 25 7.7
      vertex -120 -25 7.7
    endloop
  endfacet
  facet normal -0.957012 0.290048 0
    outer loop
      vertex -119.865 26.3656 5
      vertex -119.467 27.6788 7.7
      vertex -119.467 27.6788 5
    endloop
  endfacet
  facet normal -0.957012 0.290048 0
    outer loop
      vertex -119.467 27.6788 7.7
      vertex -119.865 26.3656 5
      vertex -119.865 26.3656 7.7
    endloop
  endfacet
  facet normal -0.792871 0.423887 0.437807
    outer loop
      vertex -118.82 28.889 7.7
      vertex -119.467 27.6788 7.7
      vertex -101.157 25.7779 42.7
    endloop
  endfacet
  facet normal -0.883847 -0.0873751 0.459543
    outer loop
      vertex -102 -23 42.7
      vertex -120 -25 7.7
      vertex -119.865 -26.3656 7.7
    endloop
  endfacet
  facet normal -0.883893 0.0869849 0.459529
    outer loop
      vertex -101.904 23.9755 42.7
      vertex -119.865 26.3656 7.7
      vertex -102 23 42.7
    endloop
  endfacet
  facet normal -0.634332 -0.773061 0
    outer loop
      vertex -117.95 -29.9497 5
      vertex -116.889 -30.8203 7.7
      vertex -117.95 -29.9497 7.7
    endloop
  endfacet
  facet normal -0.634332 -0.773061 -0
    outer loop
      vertex -116.889 -30.8203 7.7
      vertex -117.95 -29.9497 5
      vertex -116.889 -30.8203 5
    endloop
  endfacet
  facet normal -0.88188 -0.471473 0
    outer loop
      vertex -118.82 -28.889 5
      vertex -119.467 -27.6788 7.7
      vertex -119.467 -27.6788 5
    endloop
  endfacet
  facet normal -0.88188 -0.471473 0
    outer loop
      vertex -119.467 -27.6788 7.7
      vertex -118.82 -28.889 5
      vertex -118.82 -28.889 7.7
    endloop
  endfacet
  facet normal -0.70615 0.578826 0.407815
    outer loop
      vertex -100.536 26.5355 42.7
      vertex -118.82 28.889 7.7
      vertex -101.157 25.7779 42.7
    endloop
  endfacet
  facet normal -0.705993 -0.579064 0.407748
    outer loop
      vertex -100.536 -26.5355 42.7
      vertex -118.82 -28.889 7.7
      vertex -117.95 -29.9497 7.7
    endloop
  endfacet
  facet normal -0.290289 0.956939 0
    outer loop
      vertex -114.366 31.8655 5
      vertex -115.679 31.4672 7.7
      vertex -114.366 31.8655 7.7
    endloop
  endfacet
  facet normal -0.290289 0.956939 0
    outer loop
      vertex -115.679 31.4672 7.7
      vertex -114.366 31.8655 5
      vertex -115.679 31.4672 5
    endloop
  endfacet
  facet normal -0.0968392 0.982903 0.156603
    outer loop
      vertex -97 28 42.7
      vertex -114.366 31.8655 7.7
      vertex -97.9754 27.9039 42.7
    endloop
  endfacet
  facet normal -0.995149 0.0983781 0
    outer loop
      vertex -120 25 5
      vertex -119.865 26.3656 7.7
      vertex -119.865 26.3656 5
    endloop
  endfacet
  facet normal -0.995149 0.0983781 0
    outer loop
      vertex -119.865 26.3656 7.7
      vertex -120 25 5
      vertex -120 25 7.7
    endloop
  endfacet
  facet normal -0.448657 -0.839254 0.30718
    outer loop
      vertex -99.7778 -27.1573 42.7
      vertex -115.679 -31.4672 7.7
      vertex -98.9134 -27.6194 42.7
    endloop
  endfacet
  facet normal -0.0979888 0.995188 0
    outer loop
      vertex -113 32 5
      vertex -114.366 31.8655 7.7
      vertex -113 32 7.7
    endloop
  endfacet
  facet normal -0.0979888 0.995188 0
    outer loop
      vertex -114.366 31.8655 7.7
      vertex -113 32 5
      vertex -114.366 31.8655 5
    endloop
  endfacet
  facet normal 0 0 -1
    outer loop
      vertex -87.2048 -24.556 4.7
      vertex -87.2048 -23.444 4.7
      vertex -87.15 -24 4.7
    endloop
  endfacet
  facet normal 0 0 -1
    outer loop
      vertex -87.3669 -25.0906 4.7
      vertex -87.2048 -23.444 4.7
      vertex -87.2048 -24.556 4.7
    endloop
  endfacet
  facet normal 0 0 -1
    outer loop
      vertex -87.3669 -25.0906 4.7
      vertex -87.3669 -22.9094 4.7
      vertex -87.2048 -23.444 4.7
    endloop
  endfacet
  facet normal 0 0 -1
    outer loop
      vertex -87.6303 -25.5834 4.7
      vertex -87.3669 -22.9094 4.7
      vertex -87.3669 -25.0906 4.7
    endloop
  endfacet
  facet normal 0 0 -1
    outer loop
      vertex -87.6303 -25.5834 4.7
      vertex -87.6303 -22.4166 4.7
      vertex -87.3669 -22.9094 4.7
    endloop
  endfacet
  facet normal 0 0 -1
    outer loop
      vertex -87.9847 -26.0153 4.7
      vertex -87.6303 -22.4166 4.7
      vertex -87.6303 -25.5834 4.7
    endloop
  endfacet
  facet normal 0 0 -1
    outer loop
      vertex -87.9847 -26.0153 4.7
      vertex -87.9847 -21.9847 4.7
      vertex -87.6303 -22.4166 4.7
    endloop
  endfacet
  facet normal 0 0 -1
    outer loop
      vertex -88.4166 -26.3697 4.7
      vertex -87.9847 -21.9847 4.7
      vertex -87.9847 -26.0153 4.7
    endloop
  endfacet
  facet normal 0 0 -1
    outer loop
      vertex -88.4166 -26.3697 4.7
      vertex -88.4166 -21.6303 4.7
      vertex -87.9847 -21.9847 4.7
    endloop
  endfacet
  facet normal 0 0 -1
    outer loop
      vertex -88.9093 -26.6331 4.7
      vertex -88.4166 -21.6303 4.7
      vertex -88.4166 -26.3697 4.7
    endloop
  endfacet
  facet normal 0 0 -1
    outer loop
      vertex -88.9093 -26.6331 4.7
      vertex -88.9093 -21.3669 4.7
      vertex -88.4166 -21.6303 4.7
    endloop
  endfacet
  facet normal 0 0 -1
    outer loop
      vertex -89.444 -26.7952 4.7
      vertex -88.9093 -21.3669 4.7
      vertex -88.9093 -26.6331 4.7
    endloop
  endfacet
  facet normal 0 0 -1
    outer loop
      vertex -89.444 -26.7952 4.7
      vertex -89.444 -21.2048 4.7
      vertex -88.9093 -21.3669 4.7
    endloop
  endfacet
  facet normal 0 0 -1
    outer loop
      vertex -90 -26.85 4.7
      vertex -89.444 -21.2048 4.7
      vertex -89.444 -26.7952 4.7
    endloop
  endfacet
  facet normal 0 0 -1
    outer loop
      vertex -90 -26.85 4.7
      vertex -90 -21.15 4.7
      vertex -89.444 -21.2048 4.7
    endloop
  endfacet
  facet normal 0 0 -1
    outer loop
      vertex -90.556 -26.7952 4.7
      vertex -90 -21.15 4.7
      vertex -90 -26.85 4.7
    endloop
  endfacet
  facet normal 0 0 -1
    outer loop
      vertex -90.556 -26.7952 4.7
      vertex -90.556 -21.2048 4.7
      vertex -90 -21.15 4.7
    endloop
  endfacet
  facet normal 0 0 -1
    outer loop
      vertex -91.0906 -26.6331 4.7
      vertex -90.556 -21.2048 4.7
      vertex -90.556 -26.7952 4.7
    endloop
  endfacet
  facet normal 0 0 -1
    outer loop
      vertex -91.0906 -26.6331 4.7
      vertex -91.0906 -21.3669 4.7
      vertex -90.556 -21.2048 4.7
    endloop
  endfacet
  facet normal 0 0 -1
    outer loop
      vertex -91.5834 -26.3697 4.7
      vertex -91.0906 -21.3669 4.7
      vertex -91.0906 -26.6331 4.7
    endloop
  endfacet
  facet normal 0 0 -1
    outer loop
      vertex -91.5834 -26.3697 4.7
      vertex -91.5834 -21.6303 4.7
      vertex -91.0906 -21.3669 4.7
    endloop
  endfacet
  facet normal 0 0 -1
    outer loop
      vertex -92.0153 -26.0153 4.7
      vertex -91.5834 -21.6303 4.7
      vertex -91.5834 -26.3697 4.7
    endloop
  endfacet
  facet normal 0 0 -1
    outer loop
      vertex -92.0153 -26.0153 4.7
      vertex -92.0153 -21.9847 4.7
      vertex -91.5834 -21.6303 4.7
    endloop
  endfacet
  facet normal 0 0 -1
    outer loop
      vertex -92.3697 -25.5834 4.7
      vertex -92.0153 -21.9847 4.7
      vertex -92.0153 -26.0153 4.7
    endloop
  endfacet
  facet normal 0 0 -1
    outer loop
      vertex -92.3697 -25.5834 4.7
      vertex -92.3697 -22.4166 4.7
      vertex -92.0153 -21.9847 4.7
    endloop
  endfacet
  facet normal 0 0 -1
    outer loop
      vertex -92.6331 -25.0906 4.7
      vertex -92.3697 -22.4166 4.7
      vertex -92.3697 -25.5834 4.7
    endloop
  endfacet
  facet normal 0 0 -1
    outer loop
      vertex -92.6331 -25.0906 4.7
      vertex -92.6331 -22.9094 4.7
      vertex -92.3697 -22.4166 4.7
    endloop
  endfacet
  facet normal 0 0 -1
    outer loop
      vertex -92.7952 -24.556 4.7
      vertex -92.6331 -22.9094 4.7
      vertex -92.6331 -25.0906 4.7
    endloop
  endfacet
  facet normal 0 0 -1
    outer loop
      vertex -92.7952 -24.556 4.7
      vertex -92.7952 -23.444 4.7
      vertex -92.6331 -22.9094 4.7
    endloop
  endfacet
  facet normal 0 -0 -1
    outer loop
      vertex -92.7952 -23.444 4.7
      vertex -92.7952 -24.556 4.7
      vertex -92.85 -24 4.7
    endloop
  endfacet
  facet normal 0 0 -1
    outer loop
      vertex -87.2048 23.444 4.7
      vertex -87.2048 24.556 4.7
      vertex -87.15 24 4.7
    endloop
  endfacet
  facet normal 0 0 -1
    outer loop
      vertex -87.3669 22.9094 4.7
      vertex -87.2048 24.556 4.7
      vertex -87.2048 23.444 4.7
    endloop
  endfacet
  facet normal 0 0 -1
    outer loop
      vertex -87.3669 22.9094 4.7
      vertex -87.3669 25.0906 4.7
      vertex -87.2048 24.556 4.7
    endloop
  endfacet
  facet normal 0 0 -1
    outer loop
      vertex -87.6303 22.4166 4.7
      vertex -87.3669 25.0906 4.7
      vertex -87.3669 22.9094 4.7
    endloop
  endfacet
  facet normal 0 0 -1
    outer loop
      vertex -87.6303 22.4166 4.7
      vertex -87.6303 25.5834 4.7
      vertex -87.3669 25.0906 4.7
    endloop
  endfacet
  facet normal 0 0 -1
    outer loop
      vertex -87.9847 21.9847 4.7
      vertex -87.6303 25.5834 4.7
      vertex -87.6303 22.4166 4.7
    endloop
  endfacet
  facet normal 0 0 -1
    outer loop
      vertex -87.9847 21.9847 4.7
      vertex -87.9847 26.0153 4.7
      vertex -87.6303 25.5834 4.7
    endloop
  endfacet
  facet normal 0 0 -1
    outer loop
      vertex -88.4166 21.6303 4.7
      vertex -87.9847 26.0153 4.7
      vertex -87.9847 21.9847 4.7
    endloop
  endfacet
  facet normal 0 0 -1
    outer loop
      vertex -88.4166 21.6303 4.7
      vertex -88.4166 26.3697 4.7
      vertex -87.9847 26.0153 4.7
    endloop
  endfacet
  facet normal 0 0 -1
    outer loop
      vertex -88.9093 21.3669 4.7
      vertex -88.4166 26.3697 4.7
      vertex -88.4166 21.6303 4.7
    endloop
  endfacet
  facet normal 0 0 -1
    outer loop
      vertex -88.9093 21.3669 4.7
      vertex -88.9093 26.6331 4.7
      vertex -88.4166 26.3697 4.7
    endloop
  endfacet
  facet normal 0 0 -1
    outer loop
      vertex -89.444 21.2048 4.7
      vertex -88.9093 26.6331 4.7
      vertex -88.9093 21.3669 4.7
    endloop
  endfacet
  facet normal 0 0 -1
    outer loop
      vertex -89.444 21.2048 4.7
      vertex -89.444 26.7952 4.7
      vertex -88.9093 26.6331 4.7
    endloop
  endfacet
  facet normal 0 0 -1
    outer loop
      vertex -90 21.15 4.7
      vertex -89.444 26.7952 4.7
      vertex -89.444 21.2048 4.7
    endloop
  endfacet
  facet normal 0 0 -1
    outer loop
      vertex -90 21.15 4.7
      vertex -90 26.85 4.7
      vertex -89.444 26.7952 4.7
    endloop
  endfacet
  facet normal 0 0 -1
    outer loop
      vertex -90.556 21.2048 4.7
      vertex -90 26.85 4.7
      vertex -90 21.15 4.7
    endloop
  endfacet
  facet normal 0 0 -1
    outer loop
      vertex -90.556 21.2048 4.7
      vertex -90.556 26.7952 4.7
      vertex -90 26.85 4.7
    endloop
  endfacet
  facet normal 0 0 -1
    outer loop
      vertex -91.0906 21.3669 4.7
      vertex -90.556 26.7952 4.7
      vertex -90.556 21.2048 4.7
    endloop
  endfacet
  facet normal 0 0 -1
    outer loop
      vertex -91.0906 21.3669 4.7
      vertex -91.0906 26.6331 4.7
      vertex -90.556 26.7952 4.7
    endloop
  endfacet
  facet normal 0 0 -1
    outer loop
      vertex -91.5834 21.6303 4.7
      vertex -91.0906 26.6331 4.7
      vertex -91.0906 21.3669 4.7
    endloop
  endfacet
  facet normal 0 0 -1
    outer loop
      vertex -91.5834 21.6303 4.7
      vertex -91.5834 26.3697 4.7
      vertex -91.0906 26.6331 4.7
    endloop
  endfacet
  facet normal 0 0 -1
    outer loop
      vertex -92.0153 21.9847 4.7
      vertex -91.5834 26.3697 4.7
      vertex -91.5834 21.6303 4.7
    endloop
  endfacet
  facet normal 0 0 -1
    outer loop
      vertex -92.0153 21.9847 4.7
      vertex -92.0153 26.0153 4.7
      vertex -91.5834 26.3697 4.7
    endloop
  endfacet
  facet normal 0 0 -1
    outer loop
      vertex -92.3697 22.4166 4.7
      vertex -92.0153 26.0153 4.7
      vertex -92.0153 21.9847 4.7
    endloop
  endfacet
  facet normal 0 0 -1
    outer loop
      vertex -92.3697 22.4166 4.7
      vertex -92.3697 25.5834 4.7
      vertex -92.0153 26.0153 4.7
    endloop
  endfacet
  facet normal 0 0 -1
    outer loop
      vertex -92.6331 22.9094 4.7
      vertex -92.3697 25.5834 4.7
      vertex -92.3697 22.4166 4.7
    endloop
  endfacet
  facet normal 0 0 -1
    outer loop
      vertex -92.6331 22.9094 4.7
      vertex -92.6331 25.0906 4.7
      vertex -92.3697 25.5834 4.7
    endloop
  endfacet
  facet normal 0 0 -1
    outer loop
      vertex -92.7952 23.444 4.7
      vertex -92.6331 25.0906 4.7
      vertex -92.6331 22.9094 4.7
    endloop
  endfacet
  facet normal 0 0 -1
    outer loop
      vertex -92.7952 23.444 4.7
      vertex -92.7952 24.556 4.7
      vertex -92.6331 25.0906 4.7
    endloop
  endfacet
  facet normal 0 -0 -1
    outer loop
      vertex -92.7952 24.556 4.7
      vertex -92.7952 23.444 4.7
      vertex -92.85 24 4.7
    endloop
  endfacet
  facet normal -0.957012 -0.290048 0
    outer loop
      vertex -119.467 -27.6788 5
      vertex -119.865 -26.3656 7.7
      vertex -119.865 -26.3656 5
    endloop
  endfacet
  facet normal -0.957012 -0.290048 0
    outer loop
      vertex -119.865 -26.3656 7.7
      vertex -119.467 -27.6788 5
      vertex -119.467 -27.6788 7.7
    endloop
  endfacet
  facet normal -0.79293 -0.423752 0.43783
    outer loop
      vertex -101.619 -24.9134 42.7
      vertex -119.467 -27.6788 7.7
      vertex -101.157 -25.7779 42.7
    endloop
  endfacet
  facet normal -0.792871 -0.423887 0.437807
    outer loop
      vertex -101.157 -25.7779 42.7
      vertex -119.467 -27.6788 7.7
      vertex -118.82 -28.889 7.7
    endloop
  endfacet
  facet normal -0.448657 0.839254 0.30718
    outer loop
      vertex -98.9134 27.6194 42.7
      vertex -115.679 31.4672 7.7
      vertex -99.7778 27.1573 42.7
    endloop
  endfacet
  facet normal -0.883893 -0.0869849 0.459529
    outer loop
      vertex -102 -23 42.7
      vertex -119.865 -26.3656 7.7
      vertex -101.904 -23.9755 42.7
    endloop
  endfacet
  facet normal -0.883847 0.0873751 0.459543
    outer loop
      vertex -119.865 26.3656 7.7
      vertex -120 25 7.7
      vertex -102 23 42.7
    endloop
  endfacet
  facet normal -0.79293 0.423752 0.43783
    outer loop
      vertex -101.157 25.7779 42.7
      vertex -119.467 27.6788 7.7
      vertex -101.619 24.9134 42.7
    endloop
  endfacet
  facet normal -0.773187 0.634178 0
    outer loop
      vertex -118.82 28.889 5
      vertex -117.95 29.9497 7.7
      vertex -117.95 29.9497 5
    endloop
  endfacet
  facet normal -0.773187 0.634178 0
    outer loop
      vertex -117.95 29.9497 7.7
      vertex -118.82 28.889 5
      vertex -118.82 28.889 7.7
    endloop
  endfacet
  facet normal -0.88188 0.471473 0
    outer loop
      vertex -119.467 27.6788 5
      vertex -118.82 28.889 7.7
      vertex -118.82 28.889 5
    endloop
  endfacet
  facet normal -0.88188 0.471473 0
    outer loop
      vertex -118.82 28.889 7.7
      vertex -119.467 27.6788 5
      vertex -119.467 27.6788 7.7
    endloop
  endfacet
  facet normal -0.44868 0.839238 0.307188
    outer loop
      vertex -115.679 31.4672 7.7
      vertex -116.889 30.8203 7.7
      vertex -99.7778 27.1573 42.7
    endloop
  endfacet
  facet normal -0.471477 0.881878 0
    outer loop
      vertex -115.679 31.4672 5
      vertex -116.889 30.8203 7.7
      vertex -115.679 31.4672 7.7
    endloop
  endfacet
  facet normal -0.471477 0.881878 0
    outer loop
      vertex -116.889 30.8203 7.7
      vertex -115.679 31.4672 5
      vertex -116.889 30.8203 5
    endloop
  endfacet
  facet normal -0.995149 -0.0983781 0
    outer loop
      vertex -119.865 -26.3656 5
      vertex -120 -25 7.7
      vertex -120 -25 5
    endloop
  endfacet
  facet normal -0.995149 -0.0983781 0
    outer loop
      vertex -120 -25 7.7
      vertex -119.865 -26.3656 5
      vertex -119.865 -26.3656 7.7
    endloop
  endfacet
  facet normal -0.290289 -0.956939 0
    outer loop
      vertex -115.679 -31.4672 5
      vertex -114.366 -31.8655 7.7
      vertex -115.679 -31.4672 7.7
    endloop
  endfacet
  facet normal -0.290289 -0.956939 -0
    outer loop
      vertex -114.366 -31.8655 7.7
      vertex -115.679 -31.4672 5
      vertex -114.366 -31.8655 5
    endloop
  endfacet
  facet normal -0.773187 -0.634178 0
    outer loop
      vertex -117.95 -29.9497 5
      vertex -118.82 -28.889 7.7
      vertex -118.82 -28.889 5
    endloop
  endfacet
  facet normal -0.773187 -0.634178 0
    outer loop
      vertex -118.82 -28.889 7.7
      vertex -117.95 -29.9497 5
      vertex -117.95 -29.9497 7.7
    endloop
  endfacet
  facet normal -0.0967802 -0.982913 0.156575
    outer loop
      vertex -97 -28 42.7
      vertex -114.366 -31.8655 7.7
      vertex -113 -32 7.7
    endloop
  endfacet
  facet normal -0.0968392 -0.982903 0.156603
    outer loop
      vertex -97.9754 -27.9039 42.7
      vertex -114.366 -31.8655 7.7
      vertex -97 -28 42.7
    endloop
  endfacet
  facet normal -0.852056 -0.258915 0.454932
    outer loop
      vertex -101.904 -23.9755 42.7
      vertex -119.865 -26.3656 7.7
      vertex -101.619 -24.9134 42.7
    endloop
  endfacet
  facet normal -0.852216 -0.258287 0.454989
    outer loop
      vertex -101.619 -24.9134 42.7
      vertex -119.865 -26.3656 7.7
      vertex -119.467 -27.6788 7.7
    endloop
  endfacet
  facet normal -0.0967802 0.982913 0.156575
    outer loop
      vertex -113 32 7.7
      vertex -114.366 31.8655 7.7
      vertex -97 28 42.7
    endloop
  endfacet
  facet normal -0.28196 0.929626 0.237266
    outer loop
      vertex -97.9754 27.9039 42.7
      vertex -114.366 31.8655 7.7
      vertex -98.9134 27.6194 42.7
    endloop
  endfacet
  facet normal -0.281998 0.92961 0.237281
    outer loop
      vertex -114.366 31.8655 7.7
      vertex -115.679 31.4672 7.7
      vertex -98.9134 27.6194 42.7
    endloop
  endfacet
  facet normal -0.70615 -0.578826 0.407815
    outer loop
      vertex -101.157 -25.7779 42.7
      vertex -118.82 -28.889 7.7
      vertex -100.536 -26.5355 42.7
    endloop
  endfacet
  facet normal -0.44868 -0.839238 0.307188
    outer loop
      vertex -99.7778 -27.1573 42.7
      vertex -116.889 -30.8203 7.7
      vertex -115.679 -31.4672 7.7
    endloop
  endfacet
  facet normal -0.281998 -0.92961 0.237281
    outer loop
      vertex -98.9134 -27.6194 42.7
      vertex -115.679 -31.4672 7.7
      vertex -114.366 -31.8655 7.7
    endloop
  endfacet
  facet normal -0.28196 -0.929626 0.237266
    outer loop
      vertex -98.9134 -27.6194 42.7
      vertex -114.366 -31.8655 7.7
      vertex -97.9754 -27.9039 42.7
    endloop
  endfacet
endsolid OpenSCAD_Model
