solid OpenSCAD_Model
  facet normal 0.290171 -0.956975 0
    outer loop
      vertex -91.0906 -21.3669 0
      vertex -90.556 -21.2048 4.7
      vertex -91.0906 -21.3669 4.7
    endloop
  endfacet
  facet normal 0.290171 -0.956975 0
    outer loop
      vertex -90.556 -21.2048 4.7
      vertex -91.0906 -21.3669 0
      vertex -90.556 -21.2048 0
    endloop
  endfacet
  facet normal -0.956975 -0.290171 0
    outer loop
      vertex -87.2048 -23.444 0
      vertex -87.3669 -22.9094 4.7
      vertex -87.3669 -22.9094 0
    endloop
  endfacet
  facet normal -0.956975 -0.290171 0
    outer loop
      vertex -87.3669 -22.9094 4.7
      vertex -87.2048 -23.444 0
      vertex -87.2048 -23.444 4.7
    endloop
  endfacet
  facet normal -0.995178 -0.0980859 0
    outer loop
      vertex -87.15 -24 0
      vertex -87.2048 -23.444 4.7
      vertex -87.2048 -23.444 0
    endloop
  endfacet
  facet normal -0.995178 -0.0980859 0
    outer loop
      vertex -87.2048 -23.444 4.7
      vertex -87.15 -24 0
      vertex -87.15 -24 4.7
    endloop
  endfacet
  facet normal -0.881927 -0.471387 0
    outer loop
      vertex -87.3669 -22.9094 0
      vertex -87.6303 -22.4166 4.7
      vertex -87.6303 -22.4166 0
    endloop
  endfacet
  facet normal -0.881927 -0.471387 0
    outer loop
      vertex -87.6303 -22.4166 4.7
      vertex -87.3669 -22.9094 0
      vertex -87.3669 -22.9094 4.7
    endloop
  endfacet
  facet normal -0.995178 0.0980859 0
    outer loop
      vertex -87.2048 -24.556 0
      vertex -87.15 -24 4.7
      vertex -87.15 -24 0
    endloop
  endfacet
  facet normal -0.995178 0.0980859 0
    outer loop
      vertex -87.15 -24 4.7
      vertex -87.2048 -24.556 0
      vertex -87.2048 -24.556 4.7
    endloop
  endfacet
  facet normal -0.290122 0.95699 0
    outer loop
      vertex -88.9093 -26.6331 0
      vertex -89.444 -26.7952 4.7
      vertex -88.9093 -26.6331 4.7
    endloop
  endfacet
  facet normal -0.290122 0.95699 0
    outer loop
      vertex -89.444 -26.7952 4.7
      vertex -88.9093 -26.6331 0
      vertex -89.444 -26.7952 0
    endloop
  endfacet
  facet normal -0.773055 -0.634339 0
    outer loop
      vertex -87.6303 -22.4166 0
      vertex -87.9847 -21.9847 4.7
      vertex -87.9847 -21.9847 0
    endloop
  endfacet
  facet normal -0.773055 -0.634339 0
    outer loop
      vertex -87.9847 -21.9847 4.7
      vertex -87.6303 -22.4166 0
      vertex -87.6303 -22.4166 4.7
    endloop
  endfacet
  facet normal 0.881927 0.471387 0
    outer loop
      vertex -92.3697 -25.5834 4.7
      vertex -92.6331 -25.0906 0
      vertex -92.6331 -25.0906 4.7
    endloop
  endfacet
  facet normal 0.881927 0.471387 0
    outer loop
      vertex -92.6331 -25.0906 0
      vertex -92.3697 -25.5834 4.7
      vertex -92.3697 -25.5834 0
    endloop
  endfacet
  facet normal 0.773055 -0.634339 0
    outer loop
      vertex -92.3697 -22.4166 4.7
      vertex -92.0153 -21.9847 0
      vertex -92.0153 -21.9847 4.7
    endloop
  endfacet
  facet normal 0.773055 -0.634339 0
    outer loop
      vertex -92.0153 -21.9847 0
      vertex -92.3697 -22.4166 4.7
      vertex -92.3697 -22.4166 0
    endloop
  endfacet
  facet normal 0.995178 -0.0980859 0
    outer loop
      vertex -92.85 -24 4.7
      vertex -92.7952 -23.444 0
      vertex -92.7952 -23.444 4.7
    endloop
  endfacet
  facet normal 0.995178 -0.0980859 0
    outer loop
      vertex -92.7952 -23.444 0
      vertex -92.85 -24 4.7
      vertex -92.85 -24 0
    endloop
  endfacet
  facet normal 0.290171 0.956975 -0
    outer loop
      vertex -90.556 -26.7952 0
      vertex -91.0906 -26.6331 4.7
      vertex -90.556 -26.7952 4.7
    endloop
  endfacet
  facet normal 0.290171 0.956975 0
    outer loop
      vertex -91.0906 -26.6331 4.7
      vertex -90.556 -26.7952 0
      vertex -91.0906 -26.6331 0
    endloop
  endfacet
  facet normal -0.956975 0.290171 0
    outer loop
      vertex -87.3669 -25.0906 0
      vertex -87.2048 -24.556 4.7
      vertex -87.2048 -24.556 0
    endloop
  endfacet
  facet normal -0.956975 0.290171 0
    outer loop
      vertex -87.2048 -24.556 4.7
      vertex -87.3669 -25.0906 0
      vertex -87.3669 -25.0906 4.7
    endloop
  endfacet
  facet normal 0.773055 0.634339 0
    outer loop
      vertex -92.0153 -26.0153 4.7
      vertex -92.3697 -25.5834 0
      vertex -92.3697 -25.5834 4.7
    endloop
  endfacet
  facet normal 0.773055 0.634339 0
    outer loop
      vertex -92.3697 -25.5834 0
      vertex -92.0153 -26.0153 4.7
      vertex -92.0153 -26.0153 0
    endloop
  endfacet
  facet normal -0.634339 0.773055 0
    outer loop
      vertex -87.9847 -26.0153 0
      vertex -88.4166 -26.3697 4.7
      vertex -87.9847 -26.0153 4.7
    endloop
  endfacet
  facet normal -0.634339 0.773055 0
    outer loop
      vertex -88.4166 -26.3697 4.7
      vertex -87.9847 -26.0153 0
      vertex -88.4166 -26.3697 0
    endloop
  endfacet
  facet normal 0.471387 -0.881927 0
    outer loop
      vertex -91.5834 -21.6303 0
      vertex -91.0906 -21.3669 4.7
      vertex -91.5834 -21.6303 4.7
    endloop
  endfacet
  facet normal 0.471387 -0.881927 0
    outer loop
      vertex -91.0906 -21.3669 4.7
      vertex -91.5834 -21.6303 0
      vertex -91.0906 -21.3669 0
    endloop
  endfacet
  facet normal 0.956975 0.290171 0
    outer loop
      vertex -92.6331 -25.0906 4.7
      vertex -92.7952 -24.556 0
      vertex -92.7952 -24.556 4.7
    endloop
  endfacet
  facet normal 0.956975 0.290171 0
    outer loop
      vertex -92.7952 -24.556 0
      vertex -92.6331 -25.0906 4.7
      vertex -92.6331 -25.0906 0
    endloop
  endfacet
  facet normal 0.0980859 0.995178 -0
    outer loop
      vertex -90 -26.85 0
      vertex -90.556 -26.7952 4.7
      vertex -90 -26.85 4.7
    endloop
  endfacet
  facet normal 0.0980859 0.995178 0
    outer loop
      vertex -90.556 -26.7952 4.7
      vertex -90 -26.85 0
      vertex -90.556 -26.7952 0
    endloop
  endfacet
  facet normal -0.773055 0.634339 0
    outer loop
      vertex -87.9847 -26.0153 0
      vertex -87.6303 -25.5834 4.7
      vertex -87.6303 -25.5834 0
    endloop
  endfacet
  facet normal -0.773055 0.634339 0
    outer loop
      vertex -87.6303 -25.5834 4.7
      vertex -87.9847 -26.0153 0
      vertex -87.9847 -26.0153 4.7
    endloop
  endfacet
  facet normal -0.471461 -0.881887 0
    outer loop
      vertex -88.9093 -21.3669 0
      vertex -88.4166 -21.6303 4.7
      vertex -88.9093 -21.3669 4.7
    endloop
  endfacet
  facet normal -0.471461 -0.881887 -0
    outer loop
      vertex -88.4166 -21.6303 4.7
      vertex -88.9093 -21.3669 0
      vertex -88.4166 -21.6303 0
    endloop
  endfacet
  facet normal 0.0980859 -0.995178 0
    outer loop
      vertex -90.556 -21.2048 0
      vertex -90 -21.15 4.7
      vertex -90.556 -21.2048 4.7
    endloop
  endfacet
  facet normal 0.0980859 -0.995178 0
    outer loop
      vertex -90 -21.15 4.7
      vertex -90.556 -21.2048 0
      vertex -90 -21.15 0
    endloop
  endfacet
  facet normal -0.290122 -0.95699 0
    outer loop
      vertex -89.444 -21.2048 0
      vertex -88.9093 -21.3669 4.7
      vertex -89.444 -21.2048 4.7
    endloop
  endfacet
  facet normal -0.290122 -0.95699 -0
    outer loop
      vertex -88.9093 -21.3669 4.7
      vertex -89.444 -21.2048 0
      vertex -88.9093 -21.3669 0
    endloop
  endfacet
  facet normal -0.881927 0.471387 0
    outer loop
      vertex -87.6303 -25.5834 0
      vertex -87.3669 -25.0906 4.7
      vertex -87.3669 -25.0906 0
    endloop
  endfacet
  facet normal -0.881927 0.471387 0
    outer loop
      vertex -87.3669 -25.0906 4.7
      vertex -87.6303 -25.5834 0
      vertex -87.6303 -25.5834 4.7
    endloop
  endfacet
  facet normal -0.471461 0.881887 0
    outer loop
      vertex -88.4166 -26.3697 0
      vertex -88.9093 -26.6331 4.7
      vertex -88.4166 -26.3697 4.7
    endloop
  endfacet
  facet normal -0.471461 0.881887 0
    outer loop
      vertex -88.9093 -26.6331 4.7
      vertex -88.4166 -26.3697 0
      vertex -88.9093 -26.6331 0
    endloop
  endfacet
  facet normal 0.881927 -0.471387 0
    outer loop
      vertex -92.6331 -22.9094 4.7
      vertex -92.3697 -22.4166 0
      vertex -92.3697 -22.4166 4.7
    endloop
  endfacet
  facet normal 0.881927 -0.471387 0
    outer loop
      vertex -92.3697 -22.4166 0
      vertex -92.6331 -22.9094 4.7
      vertex -92.6331 -22.9094 0
    endloop
  endfacet
  facet normal 0.634339 -0.773055 0
    outer loop
      vertex -92.0153 -21.9847 0
      vertex -91.5834 -21.6303 4.7
      vertex -92.0153 -21.9847 4.7
    endloop
  endfacet
  facet normal 0.634339 -0.773055 0
    outer loop
      vertex -91.5834 -21.6303 4.7
      vertex -92.0153 -21.9847 0
      vertex -91.5834 -21.6303 0
    endloop
  endfacet
  facet normal 0.471387 0.881927 -0
    outer loop
      vertex -91.0906 -26.6331 0
      vertex -91.5834 -26.3697 4.7
      vertex -91.0906 -26.6331 4.7
    endloop
  endfacet
  facet normal 0.471387 0.881927 0
    outer loop
      vertex -91.5834 -26.3697 4.7
      vertex -91.0906 -26.6331 0
      vertex -91.5834 -26.3697 0
    endloop
  endfacet
  facet normal -0.634339 -0.773055 0
    outer loop
      vertex -88.4166 -21.6303 0
      vertex -87.9847 -21.9847 4.7
      vertex -88.4166 -21.6303 4.7
    endloop
  endfacet
  facet normal -0.634339 -0.773055 -0
    outer loop
      vertex -87.9847 -21.9847 4.7
      vertex -88.4166 -21.6303 0
      vertex -87.9847 -21.9847 0
    endloop
  endfacet
  facet normal -0.0980859 -0.995178 0
    outer loop
      vertex -90 -21.15 0
      vertex -89.444 -21.2048 4.7
      vertex -90 -21.15 4.7
    endloop
  endfacet
  facet normal -0.0980859 -0.995178 -0
    outer loop
      vertex -89.444 -21.2048 4.7
      vertex -90 -21.15 0
      vertex -89.444 -21.2048 0
    endloop
  endfacet
  facet normal 0.634339 0.773055 -0
    outer loop
      vertex -91.5834 -26.3697 0
      vertex -92.0153 -26.0153 4.7
      vertex -91.5834 -26.3697 4.7
    endloop
  endfacet
  facet normal 0.634339 0.773055 0
    outer loop
      vertex -92.0153 -26.0153 4.7
      vertex -91.5834 -26.3697 0
      vertex -92.0153 -26.0153 0
    endloop
  endfacet
  facet normal 0.995178 0.0980859 0
    outer loop
      vertex -92.7952 -24.556 4.7
      vertex -92.85 -24 0
      vertex -92.85 -24 4.7
    endloop
  endfacet
  facet normal 0.995178 0.0980859 0
    outer loop
      vertex -92.85 -24 0
      vertex -92.7952 -24.556 4.7
      vertex -92.7952 -24.556 0
    endloop
  endfacet
  facet normal -0.0980859 0.995178 0
    outer loop
      vertex -89.444 -26.7952 0
      vertex -90 -26.85 4.7
      vertex -89.444 -26.7952 4.7
    endloop
  endfacet
  facet normal -0.0980859 0.995178 0
    outer loop
      vertex -90 -26.85 4.7
      vertex -89.444 -26.7952 0
      vertex -90 -26.85 0
    endloop
  endfacet
  facet normal 0.956975 -0.290171 0
    outer loop
      vertex -92.7952 -23.444 4.7
      vertex -92.6331 -22.9094 0
      vertex -92.6331 -22.9094 4.7
    endloop
  endfacet
  facet normal 0.956975 -0.290171 0
    outer loop
      vertex -92.6331 -22.9094 0
      vertex -92.7952 -23.444 4.7
      vertex -92.7952 -23.444 0
    endloop
  endfacet
  facet normal -0.956975 -0.290171 0
    outer loop
      vertex -87.2048 24.556 0
      vertex -87.3669 25.0906 4.7
      vertex -87.3669 25.0906 0
    endloop
  endfacet
  facet normal -0.956975 -0.290171 0
    outer loop
      vertex -87.3669 25.0906 4.7
      vertex -87.2048 24.556 0
      vertex -87.2048 24.556 4.7
    endloop
  endfacet
  facet normal -0.995178 -0.0980859 0
    outer loop
      vertex -87.15 24 0
      vertex -87.2048 24.556 4.7
      vertex -87.2048 24.556 0
    endloop
  endfacet
  facet normal -0.995178 -0.0980859 0
    outer loop
      vertex -87.2048 24.556 4.7
      vertex -87.15 24 0
      vertex -87.15 24 4.7
    endloop
  endfacet
  facet normal -0.881927 -0.471387 0
    outer loop
      vertex -87.3669 25.0906 0
      vertex -87.6303 25.5834 4.7
      vertex -87.6303 25.5834 0
    endloop
  endfacet
  facet normal -0.881927 -0.471387 0
    outer loop
      vertex -87.6303 25.5834 4.7
      vertex -87.3669 25.0906 0
      vertex -87.3669 25.0906 4.7
    endloop
  endfacet
  facet normal -0.471461 0.881887 0
    outer loop
      vertex -88.4166 21.6303 0
      vertex -88.9093 21.3669 4.7
      vertex -88.4166 21.6303 4.7
    endloop
  endfacet
  facet normal -0.471461 0.881887 0
    outer loop
      vertex -88.9093 21.3669 4.7
      vertex -88.4166 21.6303 0
      vertex -88.9093 21.3669 0
    endloop
  endfacet
  facet normal -0.881927 0.471387 0
    outer loop
      vertex -87.6303 22.4166 0
      vertex -87.3669 22.9094 4.7
      vertex -87.3669 22.9094 0
    endloop
  endfacet
  facet normal -0.881927 0.471387 0
    outer loop
      vertex -87.3669 22.9094 4.7
      vertex -87.6303 22.4166 0
      vertex -87.6303 22.4166 4.7
    endloop
  endfacet
  facet normal -0.634339 -0.773055 0
    outer loop
      vertex -88.4166 26.3697 0
      vertex -87.9847 26.0153 4.7
      vertex -88.4166 26.3697 4.7
    endloop
  endfacet
  facet normal -0.634339 -0.773055 -0
    outer loop
      vertex -87.9847 26.0153 4.7
      vertex -88.4166 26.3697 0
      vertex -87.9847 26.0153 0
    endloop
  endfacet
  facet normal -0.995178 0.0980859 0
    outer loop
      vertex -87.2048 23.444 0
      vertex -87.15 24 4.7
      vertex -87.15 24 0
    endloop
  endfacet
  facet normal -0.995178 0.0980859 0
    outer loop
      vertex -87.15 24 4.7
      vertex -87.2048 23.444 0
      vertex -87.2048 23.444 4.7
    endloop
  endfacet
  facet normal 0.881927 0.471387 0
    outer loop
      vertex -92.3697 22.4166 4.7
      vertex -92.6331 22.9094 0
      vertex -92.6331 22.9094 4.7
    endloop
  endfacet
  facet normal 0.881927 0.471387 0
    outer loop
      vertex -92.6331 22.9094 0
      vertex -92.3697 22.4166 4.7
      vertex -92.3697 22.4166 0
    endloop
  endfacet
  facet normal 0.995178 -0.0980859 0
    outer loop
      vertex -92.85 24 4.7
      vertex -92.7952 24.556 0
      vertex -92.7952 24.556 4.7
    endloop
  endfacet
  facet normal 0.995178 -0.0980859 0
    outer loop
      vertex -92.7952 24.556 0
      vertex -92.85 24 4.7
      vertex -92.85 24 0
    endloop
  endfacet
  facet normal 0.634339 -0.773055 0
    outer loop
      vertex -92.0153 26.0153 0
      vertex -91.5834 26.3697 4.7
      vertex -92.0153 26.0153 4.7
    endloop
  endfacet
  facet normal 0.634339 -0.773055 0
    outer loop
      vertex -91.5834 26.3697 4.7
      vertex -92.0153 26.0153 0
      vertex -91.5834 26.3697 0
    endloop
  endfacet
  facet normal 0.471387 0.881927 -0
    outer loop
      vertex -91.0906 21.3669 0
      vertex -91.5834 21.6303 4.7
      vertex -91.0906 21.3669 4.7
    endloop
  endfacet
  facet normal 0.471387 0.881927 0
    outer loop
      vertex -91.5834 21.6303 4.7
      vertex -91.0906 21.3669 0
      vertex -91.5834 21.6303 0
    endloop
  endfacet
  facet normal -0.290122 0.95699 0
    outer loop
      vertex -88.9093 21.3669 0
      vertex -89.444 21.2048 4.7
      vertex -88.9093 21.3669 4.7
    endloop
  endfacet
  facet normal -0.290122 0.95699 0
    outer loop
      vertex -89.444 21.2048 4.7
      vertex -88.9093 21.3669 0
      vertex -89.444 21.2048 0
    endloop
  endfacet
  facet normal 0.773055 -0.634339 0
    outer loop
      vertex -92.3697 25.5834 4.7
      vertex -92.0153 26.0153 0
      vertex -92.0153 26.0153 4.7
    endloop
  endfacet
  facet normal 0.773055 -0.634339 0
    outer loop
      vertex -92.0153 26.0153 0
      vertex -92.3697 25.5834 4.7
      vertex -92.3697 25.5834 0
    endloop
  endfacet
  facet normal -0.773055 -0.634339 0
    outer loop
      vertex -87.6303 25.5834 0
      vertex -87.9847 26.0153 4.7
      vertex -87.9847 26.0153 0
    endloop
  endfacet
  facet normal -0.773055 -0.634339 0
    outer loop
      vertex -87.9847 26.0153 4.7
      vertex -87.6303 25.5834 0
      vertex -87.6303 25.5834 4.7
    endloop
  endfacet
  facet normal 0.471387 -0.881927 0
    outer loop
      vertex -91.5834 26.3697 0
      vertex -91.0906 26.6331 4.7
      vertex -91.5834 26.3697 4.7
    endloop
  endfacet
  facet normal 0.471387 -0.881927 0
    outer loop
      vertex -91.0906 26.6331 4.7
      vertex -91.5834 26.3697 0
      vertex -91.0906 26.6331 0
    endloop
  endfacet
  facet normal 0.290171 -0.956975 0
    outer loop
      vertex -91.0906 26.6331 0
      vertex -90.556 26.7952 4.7
      vertex -91.0906 26.6331 4.7
    endloop
  endfacet
  facet normal 0.290171 -0.956975 0
    outer loop
      vertex -90.556 26.7952 4.7
      vertex -91.0906 26.6331 0
      vertex -90.556 26.7952 0
    endloop
  endfacet
  facet normal 0.0980859 0.995178 -0
    outer loop
      vertex -90 21.15 0
      vertex -90.556 21.2048 4.7
      vertex -90 21.15 4.7
    endloop
  endfacet
  facet normal 0.0980859 0.995178 0
    outer loop
      vertex -90.556 21.2048 4.7
      vertex -90 21.15 0
      vertex -90.556 21.2048 0
    endloop
  endfacet
  facet normal 0.290171 0.956975 -0
    outer loop
      vertex -90.556 21.2048 0
      vertex -91.0906 21.3669 4.7
      vertex -90.556 21.2048 4.7
    endloop
  endfacet
  facet normal 0.290171 0.956975 0
    outer loop
      vertex -91.0906 21.3669 4.7
      vertex -90.556 21.2048 0
      vertex -91.0906 21.3669 0
    endloop
  endfacet
  facet normal 0.0980859 -0.995178 0
    outer loop
      vertex -90.556 26.7952 0
      vertex -90 26.85 4.7
      vertex -90.556 26.7952 4.7
    endloop
  endfacet
  facet normal 0.0980859 -0.995178 0
    outer loop
      vertex -90 26.85 4.7
      vertex -90.556 26.7952 0
      vertex -90 26.85 0
    endloop
  endfacet
  facet normal -0.773055 0.634339 0
    outer loop
      vertex -87.9847 21.9847 0
      vertex -87.6303 22.4166 4.7
      vertex -87.6303 22.4166 0
    endloop
  endfacet
  facet normal -0.773055 0.634339 0
    outer loop
      vertex -87.6303 22.4166 4.7
      vertex -87.9847 21.9847 0
      vertex -87.9847 21.9847 4.7
    endloop
  endfacet
  facet normal -0.290122 -0.95699 0
    outer loop
      vertex -89.444 26.7952 0
      vertex -88.9093 26.6331 4.7
      vertex -89.444 26.7952 4.7
    endloop
  endfacet
  facet normal -0.290122 -0.95699 -0
    outer loop
      vertex -88.9093 26.6331 4.7
      vertex -89.444 26.7952 0
      vertex -88.9093 26.6331 0
    endloop
  endfacet
  facet normal 0.956975 0.290171 0
    outer loop
      vertex -92.6331 22.9094 4.7
      vertex -92.7952 23.444 0
      vertex -92.7952 23.444 4.7
    endloop
  endfacet
  facet normal 0.956975 0.290171 0
    outer loop
      vertex -92.7952 23.444 0
      vertex -92.6331 22.9094 4.7
      vertex -92.6331 22.9094 0
    endloop
  endfacet
  facet normal -0.634339 0.773055 0
    outer loop
      vertex -87.9847 21.9847 0
      vertex -88.4166 21.6303 4.7
      vertex -87.9847 21.9847 4.7
    endloop
  endfacet
  facet normal -0.634339 0.773055 0
    outer loop
      vertex -88.4166 21.6303 4.7
      vertex -87.9847 21.9847 0
      vertex -88.4166 21.6303 0
    endloop
  endfacet
  facet normal -0.471461 -0.881887 0
    outer loop
      vertex -88.9093 26.6331 0
      vertex -88.4166 26.3697 4.7
      vertex -88.9093 26.6331 4.7
    endloop
  endfacet
  facet normal -0.471461 -0.881887 -0
    outer loop
      vertex -88.4166 26.3697 4.7
      vertex -88.9093 26.6331 0
      vertex -88.4166 26.3697 0
    endloop
  endfacet
  facet normal 0.773055 0.634339 0
    outer loop
      vertex -92.0153 21.9847 4.7
      vertex -92.3697 22.4166 0
      vertex -92.3697 22.4166 4.7
    endloop
  endfacet
  facet normal 0.773055 0.634339 0
    outer loop
      vertex -92.3697 22.4166 0
      vertex -92.0153 21.9847 4.7
      vertex -92.0153 21.9847 0
    endloop
  endfacet
  facet normal -0.956975 0.290171 0
    outer loop
      vertex -87.3669 22.9094 0
      vertex -87.2048 23.444 4.7
      vertex -87.2048 23.444 0
    endloop
  endfacet
  facet normal -0.956975 0.290171 0
    outer loop
      vertex -87.2048 23.444 4.7
      vertex -87.3669 22.9094 0
      vertex -87.3669 22.9094 4.7
    endloop
  endfacet
  facet normal -0.0980859 0.995178 0
    outer loop
      vertex -89.444 21.2048 0
      vertex -90 21.15 4.7
      vertex -89.444 21.2048 4.7
    endloop
  endfacet
  facet normal -0.0980859 0.995178 0
    outer loop
      vertex -90 21.15 4.7
      vertex -89.444 21.2048 0
      vertex -90 21.15 0
    endloop
  endfacet
  facet normal 0.634339 0.773055 -0
    outer loop
      vertex -91.5834 21.6303 0
      vertex -92.0153 21.9847 4.7
      vertex -91.5834 21.6303 4.7
    endloop
  endfacet
  facet normal 0.634339 0.773055 0
    outer loop
      vertex -92.0153 21.9847 4.7
      vertex -91.5834 21.6303 0
      vertex -92.0153 21.9847 0
    endloop
  endfacet
  facet normal 0.956975 -0.290171 0
    outer loop
      vertex -92.7952 24.556 4.7
      vertex -92.6331 25.0906 0
      vertex -92.6331 25.0906 4.7
    endloop
  endfacet
  facet normal 0.956975 -0.290171 0
    outer loop
      vertex -92.6331 25.0906 0
      vertex -92.7952 24.556 4.7
      vertex -92.7952 24.556 0
    endloop
  endfacet
  facet normal -0.0980859 -0.995178 0
    outer loop
      vertex -90 26.85 0
      vertex -89.444 26.7952 4.7
      vertex -90 26.85 4.7
    endloop
  endfacet
  facet normal -0.0980859 -0.995178 -0
    outer loop
      vertex -89.444 26.7952 4.7
      vertex -90 26.85 0
      vertex -89.444 26.7952 0
    endloop
  endfacet
  facet normal 0.881927 -0.471387 0
    outer loop
      vertex -92.6331 25.0906 4.7
      vertex -92.3697 25.5834 0
      vertex -92.3697 25.5834 4.7
    endloop
  endfacet
  facet normal 0.881927 -0.471387 0
    outer loop
      vertex -92.3697 25.5834 0
      vertex -92.6331 25.0906 4.7
      vertex -92.6331 25.0906 0
    endloop
  endfacet
  facet normal 0.995178 0.0980859 0
    outer loop
      vertex -92.7952 23.444 4.7
      vertex -92.85 24 0
      vertex -92.85 24 4.7
    endloop
  endfacet
  facet normal 0.995178 0.0980859 0
    outer loop
      vertex -92.85 24 0
      vertex -92.7952 23.444 4.7
      vertex -92.7952 23.444 0
    endloop
  endfacet
  facet normal -0.29039 -0.956908 0
    outer loop
      vertex -116.296 -31.5433 0
      vertex -115.171 -31.8847 5
      vertex -116.296 -31.5433 5
    endloop
  endfacet
  facet normal -0.29039 -0.956908 -0
    outer loop
      vertex -115.171 -31.8847 5
      vertex -116.296 -31.5433 0
      vertex -115.171 -31.8847 0
    endloop
  endfacet
  facet normal -0.097989 0.995187 0
    outer loop
      vertex -114 32 0
      vertex -115.171 31.8847 5
      vertex -114 32 5
    endloop
  endfacet
  facet normal -0.097989 0.995187 0
    outer loop
      vertex -115.171 31.8847 5
      vertex -114 32 0
      vertex -115.171 31.8847 0
    endloop
  endfacet
  facet normal -0.097989 -0.995187 0
    outer loop
      vertex -115.171 -31.8847 0
      vertex -114 -32 5
      vertex -115.171 -31.8847 5
    endloop
  endfacet
  facet normal -0.097989 -0.995187 -0
    outer loop
      vertex -114 -32 5
      vertex -115.171 -31.8847 0
      vertex -114 -32 0
    endloop
  endfacet
  facet normal -1 0 0
    outer loop
      vertex -120 26 0
      vertex -120 24 5
      vertex -120 26 5
    endloop
  endfacet
  facet normal -1 0 0
    outer loop
      vertex -120 24 5
      vertex -120 -24 5
      vertex -120 24 7.7
    endloop
  endfacet
  facet normal -1 0 0
    outer loop
      vertex -120 26 0
      vertex -120 -24 5
      vertex -120 24 5
    endloop
  endfacet
  facet normal -1 0 0
    outer loop
      vertex -120 -26 0
      vertex -120 -24 5
      vertex -120 26 0
    endloop
  endfacet
  facet normal -1 -0 0
    outer loop
      vertex -120 -24 5
      vertex -120 -26 0
      vertex -120 -26 5
    endloop
  endfacet
  facet normal -1 -0 0
    outer loop
      vertex -120 24 7.7
      vertex -120 -24 5
      vertex -120 -24 7.7
    endloop
  endfacet
  facet normal -0.63408 0.773268 0
    outer loop
      vertex -117.333 30.9888 0
      vertex -118.243 30.2426 5
      vertex -117.333 30.9888 5
    endloop
  endfacet
  facet normal -0.63408 0.773268 0
    outer loop
      vertex -118.243 30.2426 5
      vertex -117.333 30.9888 0
      vertex -118.243 30.2426 0
    endloop
  endfacet
  facet normal -0 0 1
    outer loop
      vertex -114 32 5
      vertex -113.561 31.8463 5
      vertex -112 32 5
    endloop
  endfacet
  facet normal 0 0 1
    outer loop
      vertex -114 32 5
      vertex -115.061 31.391 5
      vertex -113.561 31.8463 5
    endloop
  endfacet
  facet normal -0 0 1
    outer loop
      vertex -115.171 31.8847 5
      vertex -115.061 31.391 5
      vertex -114 32 5
    endloop
  endfacet
  facet normal -0 0 1
    outer loop
      vertex -116.296 31.5433 5
      vertex -115.061 31.391 5
      vertex -115.171 31.8847 5
    endloop
  endfacet
  facet normal 0 0 1
    outer loop
      vertex -116.296 31.5433 5
      vertex -116.445 30.6518 5
      vertex -115.061 31.391 5
    endloop
  endfacet
  facet normal -0 0 1
    outer loop
      vertex -117.333 30.9888 5
      vertex -116.445 30.6518 5
      vertex -116.296 31.5433 5
    endloop
  endfacet
  facet normal 0 0 1
    outer loop
      vertex -117.333 30.9888 5
      vertex -117.657 29.6569 5
      vertex -116.445 30.6518 5
    endloop
  endfacet
  facet normal -0 0 1
    outer loop
      vertex -118.243 30.2426 5
      vertex -117.657 29.6569 5
      vertex -117.333 30.9888 5
    endloop
  endfacet
  facet normal 0 0 1
    outer loop
      vertex -118.989 29.3334 5
      vertex -117.657 29.6569 5
      vertex -118.243 30.2426 5
    endloop
  endfacet
  facet normal 0 0 1
    outer loop
      vertex -117.657 29.6569 5
      vertex -118.989 29.3334 5
      vertex -118.652 28.4446 5
    endloop
  endfacet
  facet normal 0 0 1
    outer loop
      vertex -119.543 28.2961 5
      vertex -118.652 28.4446 5
      vertex -118.989 29.3334 5
    endloop
  endfacet
  facet normal 0 0 1
    outer loop
      vertex -118.652 28.4446 5
      vertex -119.543 28.2961 5
      vertex -119.391 27.0615 5
    endloop
  endfacet
  facet normal -0 0 1
    outer loop
      vertex -119.885 27.1705 5
      vertex -119.391 27.0615 5
      vertex -119.543 28.2961 5
    endloop
  endfacet
  facet normal 0 0 1
    outer loop
      vertex -120 26 5
      vertex -119.391 27.0615 5
      vertex -119.885 27.1705 5
    endloop
  endfacet
  facet normal 0 0 1
    outer loop
      vertex -119.391 27.0615 5
      vertex -120 26 5
      vertex -119.846 25.5607 5
    endloop
  endfacet
  facet normal 0 0 1
    outer loop
      vertex -119.846 25.5607 5
      vertex -120 26 5
      vertex -120 24 5
    endloop
  endfacet
  facet normal 0 0 1
    outer loop
      vertex -113.561 -31.8463 5
      vertex -114 -32 5
      vertex -112 -32 5
    endloop
  endfacet
  facet normal 0 0 1
    outer loop
      vertex -115.061 -31.391 5
      vertex -114 -32 5
      vertex -113.561 -31.8463 5
    endloop
  endfacet
  facet normal 0 0 1
    outer loop
      vertex -115.061 -31.391 5
      vertex -115.171 -31.8847 5
      vertex -114 -32 5
    endloop
  endfacet
  facet normal 0 0 1
    outer loop
      vertex -115.061 -31.391 5
      vertex -116.296 -31.5433 5
      vertex -115.171 -31.8847 5
    endloop
  endfacet
  facet normal 0 0 1
    outer loop
      vertex -116.445 -30.6518 5
      vertex -116.296 -31.5433 5
      vertex -115.061 -31.391 5
    endloop
  endfacet
  facet normal 0 0 1
    outer loop
      vertex -116.445 -30.6518 5
      vertex -117.333 -30.9888 5
      vertex -116.296 -31.5433 5
    endloop
  endfacet
  facet normal 0 0 1
    outer loop
      vertex -117.657 -29.6569 5
      vertex -117.333 -30.9888 5
      vertex -116.445 -30.6518 5
    endloop
  endfacet
  facet normal 0 0 1
    outer loop
      vertex -117.657 -29.6569 5
      vertex -118.243 -30.2426 5
      vertex -117.333 -30.9888 5
    endloop
  endfacet
  facet normal -0 0 1
    outer loop
      vertex -118.989 -29.3334 5
      vertex -117.657 -29.6569 5
      vertex -118.652 -28.4446 5
    endloop
  endfacet
  facet normal 0 0 1
    outer loop
      vertex -117.657 -29.6569 5
      vertex -118.989 -29.3334 5
      vertex -118.243 -30.2426 5
    endloop
  endfacet
  facet normal -0 0 1
    outer loop
      vertex -119.543 -28.2961 5
      vertex -118.652 -28.4446 5
      vertex -119.391 -27.0615 5
    endloop
  endfacet
  facet normal 0 0 1
    outer loop
      vertex -118.652 -28.4446 5
      vertex -119.543 -28.2961 5
      vertex -118.989 -29.3334 5
    endloop
  endfacet
  facet normal -0 0 1
    outer loop
      vertex -120 -26 5
      vertex -119.391 -27.0615 5
      vertex -119.846 -25.5607 5
    endloop
  endfacet
  facet normal 0 0 1
    outer loop
      vertex -119.391 -27.0615 5
      vertex -119.885 -27.1705 5
      vertex -119.543 -28.2961 5
    endloop
  endfacet
  facet normal 0 0 1
    outer loop
      vertex -120 -26 5
      vertex -119.846 -25.5607 5
      vertex -120 -24 5
    endloop
  endfacet
  facet normal 0 0 1
    outer loop
      vertex -119.391 -27.0615 5
      vertex -120 -26 5
      vertex -119.885 -27.1705 5
    endloop
  endfacet
  facet normal -0.29039 0.956908 0
    outer loop
      vertex -115.171 31.8847 0
      vertex -116.296 31.5433 5
      vertex -115.171 31.8847 5
    endloop
  endfacet
  facet normal -0.29039 0.956908 0
    outer loop
      vertex -116.296 31.5433 5
      vertex -115.171 31.8847 0
      vertex -116.296 31.5433 0
    endloop
  endfacet
  facet normal -0.95681 -0.290715 0
    outer loop
      vertex -119.543 -28.2961 0
      vertex -119.885 -27.1705 5
      vertex -119.885 -27.1705 0
    endloop
  endfacet
  facet normal -0.95681 -0.290715 0
    outer loop
      vertex -119.885 -27.1705 5
      vertex -119.543 -28.2961 0
      vertex -119.543 -28.2961 5
    endloop
  endfacet
  facet normal -0.995208 0.0977778 0
    outer loop
      vertex -120 26 0
      vertex -119.885 27.1705 5
      vertex -119.885 27.1705 0
    endloop
  endfacet
  facet normal -0.995208 0.0977778 0
    outer loop
      vertex -119.885 27.1705 5
      vertex -120 26 0
      vertex -120 26 5
    endloop
  endfacet
  facet normal 0 -1 0
    outer loop
      vertex -114 -32 5
      vertex -114 -32 0
      vertex -112 -32 5
    endloop
  endfacet
  facet normal 0 -1 0
    outer loop
      vertex -112 -32 5
      vertex 0 -32 7.7
      vertex -112 -32 7.7
    endloop
  endfacet
  facet normal 0 -1 0
    outer loop
      vertex 0 -32 0
      vertex -112 -32 5
      vertex -114 -32 0
    endloop
  endfacet
  facet normal 0 -1 0
    outer loop
      vertex -112 -32 5
      vertex 0 -32 0
      vertex 0 -32 7.7
    endloop
  endfacet
  facet normal 0 0 -1
    outer loop
      vertex 0 -32 0
      vertex -87.3669 -22.9094 0
      vertex 0 32 0
    endloop
  endfacet
  facet normal 0 0 -1
    outer loop
      vertex 0 32 0
      vertex -87.2048 23.444 0
      vertex -87.15 24 0
    endloop
  endfacet
  facet normal 0 0 -1
    outer loop
      vertex -87.3669 22.9094 0
      vertex 0 32 0
      vertex -87.3669 -22.9094 0
    endloop
  endfacet
  facet normal 0 0 -1
    outer loop
      vertex 0 32 0
      vertex -87.3669 22.9094 0
      vertex -87.2048 23.444 0
    endloop
  endfacet
  facet normal 0 0 -1
    outer loop
      vertex -87.6303 -22.4166 0
      vertex -87.3669 22.9094 0
      vertex -87.3669 -22.9094 0
    endloop
  endfacet
  facet normal 0 0 -1
    outer loop
      vertex -87.6303 -22.4166 0
      vertex -87.6303 22.4166 0
      vertex -87.3669 22.9094 0
    endloop
  endfacet
  facet normal 0 0 -1
    outer loop
      vertex -87.9847 -21.9847 0
      vertex -87.6303 22.4166 0
      vertex -87.6303 -22.4166 0
    endloop
  endfacet
  facet normal 0 0 -1
    outer loop
      vertex -87.9847 -21.9847 0
      vertex -87.9847 21.9847 0
      vertex -87.6303 22.4166 0
    endloop
  endfacet
  facet normal 0 0 -1
    outer loop
      vertex -88.4166 -21.6303 0
      vertex -87.9847 21.9847 0
      vertex -87.9847 -21.9847 0
    endloop
  endfacet
  facet normal 0 0 -1
    outer loop
      vertex -88.4166 -21.6303 0
      vertex -88.4166 21.6303 0
      vertex -87.9847 21.9847 0
    endloop
  endfacet
  facet normal 0 0 -1
    outer loop
      vertex -88.9093 -21.3669 0
      vertex -88.4166 21.6303 0
      vertex -88.4166 -21.6303 0
    endloop
  endfacet
  facet normal 0 0 -1
    outer loop
      vertex -88.9093 -21.3669 0
      vertex -88.9093 21.3669 0
      vertex -88.4166 21.6303 0
    endloop
  endfacet
  facet normal 0 0 -1
    outer loop
      vertex -89.444 -21.2048 0
      vertex -88.9093 21.3669 0
      vertex -88.9093 -21.3669 0
    endloop
  endfacet
  facet normal 0 0 -1
    outer loop
      vertex -89.444 -21.2048 0
      vertex -89.444 21.2048 0
      vertex -88.9093 21.3669 0
    endloop
  endfacet
  facet normal 0 0 -1
    outer loop
      vertex -90 -21.15 0
      vertex -89.444 21.2048 0
      vertex -89.444 -21.2048 0
    endloop
  endfacet
  facet normal 0 0 -1
    outer loop
      vertex -90 -21.15 0
      vertex -90 21.15 0
      vertex -89.444 21.2048 0
    endloop
  endfacet
  facet normal 0 0 -1
    outer loop
      vertex -90.556 -21.2048 0
      vertex -90 21.15 0
      vertex -90 -21.15 0
    endloop
  endfacet
  facet normal 0 0 -1
    outer loop
      vertex -90.556 -21.2048 0
      vertex -90.556 21.2048 0
      vertex -90 21.15 0
    endloop
  endfacet
  facet normal 0 0 -1
    outer loop
      vertex -91.0906 -21.3669 0
      vertex -90.556 21.2048 0
      vertex -90.556 -21.2048 0
    endloop
  endfacet
  facet normal 0 0 -1
    outer loop
      vertex -91.0906 -21.3669 0
      vertex -91.0906 21.3669 0
      vertex -90.556 21.2048 0
    endloop
  endfacet
  facet normal 0 0 -1
    outer loop
      vertex -91.5834 -21.6303 0
      vertex -91.0906 21.3669 0
      vertex -91.0906 -21.3669 0
    endloop
  endfacet
  facet normal 0 0 -1
    outer loop
      vertex -91.5834 -21.6303 0
      vertex -91.5834 21.6303 0
      vertex -91.0906 21.3669 0
    endloop
  endfacet
  facet normal 0 0 -1
    outer loop
      vertex -92.0153 -21.9847 0
      vertex -91.5834 21.6303 0
      vertex -91.5834 -21.6303 0
    endloop
  endfacet
  facet normal 0 0 -1
    outer loop
      vertex -92.0153 -21.9847 0
      vertex -92.0153 21.9847 0
      vertex -91.5834 21.6303 0
    endloop
  endfacet
  facet normal 0 0 -1
    outer loop
      vertex -120 -26 0
      vertex -92.0153 -21.9847 0
      vertex -92.3697 -22.4166 0
    endloop
  endfacet
  facet normal -0 0 -1
    outer loop
      vertex -92.0153 -21.9847 0
      vertex -120 -26 0
      vertex -92.0153 21.9847 0
    endloop
  endfacet
  facet normal 0 0 -1
    outer loop
      vertex -120 -26 0
      vertex -92.3697 -22.4166 0
      vertex -92.6331 -22.9094 0
    endloop
  endfacet
  facet normal 0 0 -1
    outer loop
      vertex -120 26 0
      vertex -92.0153 21.9847 0
      vertex -120 -26 0
    endloop
  endfacet
  facet normal 0 0 -1
    outer loop
      vertex -120 -26 0
      vertex -92.6331 -22.9094 0
      vertex -92.7952 -23.444 0
    endloop
  endfacet
  facet normal 0 0 -1
    outer loop
      vertex -92.0153 21.9847 0
      vertex -120 26 0
      vertex -92.3697 22.4166 0
    endloop
  endfacet
  facet normal 0 0 -1
    outer loop
      vertex -114 -32 0
      vertex -92.7952 -23.444 0
      vertex -92.85 -24 0
    endloop
  endfacet
  facet normal 0 0 -1
    outer loop
      vertex -92.3697 22.4166 0
      vertex -120 26 0
      vertex -92.6331 22.9094 0
    endloop
  endfacet
  facet normal 0 0 -1
    outer loop
      vertex -87.2048 -23.444 0
      vertex 0 -32 0
      vertex -87.15 -24 0
    endloop
  endfacet
  facet normal 0 0 -1
    outer loop
      vertex 0 -32 0
      vertex -87.2048 -24.556 0
      vertex -87.15 -24 0
    endloop
  endfacet
  facet normal 0 0 -1
    outer loop
      vertex 0 -32 0
      vertex -87.3669 -25.0906 0
      vertex -87.2048 -24.556 0
    endloop
  endfacet
  facet normal 0 0 -1
    outer loop
      vertex 0 -32 0
      vertex -87.6303 -25.5834 0
      vertex -87.3669 -25.0906 0
    endloop
  endfacet
  facet normal 0 0 -1
    outer loop
      vertex 0 -32 0
      vertex -87.9847 -26.0153 0
      vertex -87.6303 -25.5834 0
    endloop
  endfacet
  facet normal 0 0 -1
    outer loop
      vertex 0 -32 0
      vertex -88.4166 -26.3697 0
      vertex -87.9847 -26.0153 0
    endloop
  endfacet
  facet normal 0 0 -1
    outer loop
      vertex 0 -32 0
      vertex -88.9093 -26.6331 0
      vertex -88.4166 -26.3697 0
    endloop
  endfacet
  facet normal 0 0 -1
    outer loop
      vertex 0 -32 0
      vertex -89.444 -26.7952 0
      vertex -88.9093 -26.6331 0
    endloop
  endfacet
  facet normal 0 0 -1
    outer loop
      vertex -114 -32 0
      vertex -89.444 -26.7952 0
      vertex 0 -32 0
    endloop
  endfacet
  facet normal 0 0 -1
    outer loop
      vertex -92.7952 -23.444 0
      vertex -114 -32 0
      vertex -120 -26 0
    endloop
  endfacet
  facet normal -0 0 -1
    outer loop
      vertex -92.7952 -24.556 0
      vertex -114 -32 0
      vertex -92.85 -24 0
    endloop
  endfacet
  facet normal -0 0 -1
    outer loop
      vertex -92.6331 -25.0906 0
      vertex -114 -32 0
      vertex -92.7952 -24.556 0
    endloop
  endfacet
  facet normal -0 0 -1
    outer loop
      vertex -92.3697 -25.5834 0
      vertex -114 -32 0
      vertex -92.6331 -25.0906 0
    endloop
  endfacet
  facet normal -0 0 -1
    outer loop
      vertex -92.0153 -26.0153 0
      vertex -114 -32 0
      vertex -92.3697 -25.5834 0
    endloop
  endfacet
  facet normal -0 0 -1
    outer loop
      vertex -91.5834 -26.3697 0
      vertex -114 -32 0
      vertex -92.0153 -26.0153 0
    endloop
  endfacet
  facet normal -0 0 -1
    outer loop
      vertex -91.0906 -26.6331 0
      vertex -114 -32 0
      vertex -91.5834 -26.3697 0
    endloop
  endfacet
  facet normal -0 0 -1
    outer loop
      vertex -90.556 -26.7952 0
      vertex -114 -32 0
      vertex -91.0906 -26.6331 0
    endloop
  endfacet
  facet normal -0 0 -1
    outer loop
      vertex -90 -26.85 0
      vertex -114 -32 0
      vertex -90.556 -26.7952 0
    endloop
  endfacet
  facet normal 0 0 -1
    outer loop
      vertex -89.444 -26.7952 0
      vertex -114 -32 0
      vertex -90 -26.85 0
    endloop
  endfacet
  facet normal 0 0 -1
    outer loop
      vertex -87.3669 -22.9094 0
      vertex 0 -32 0
      vertex -87.2048 -23.444 0
    endloop
  endfacet
  facet normal 0 0 -1
    outer loop
      vertex -87.2048 24.556 0
      vertex 0 32 0
      vertex -87.15 24 0
    endloop
  endfacet
  facet normal 0 0 -1
    outer loop
      vertex -87.3669 25.0906 0
      vertex 0 32 0
      vertex -87.2048 24.556 0
    endloop
  endfacet
  facet normal 0 0 -1
    outer loop
      vertex -87.6303 25.5834 0
      vertex 0 32 0
      vertex -87.3669 25.0906 0
    endloop
  endfacet
  facet normal 0 0 -1
    outer loop
      vertex -87.9847 26.0153 0
      vertex 0 32 0
      vertex -87.6303 25.5834 0
    endloop
  endfacet
  facet normal 0 0 -1
    outer loop
      vertex -88.4166 26.3697 0
      vertex 0 32 0
      vertex -87.9847 26.0153 0
    endloop
  endfacet
  facet normal 0 0 -1
    outer loop
      vertex -88.9093 26.6331 0
      vertex 0 32 0
      vertex -88.4166 26.3697 0
    endloop
  endfacet
  facet normal 0 0 -1
    outer loop
      vertex -89.444 26.7952 0
      vertex 0 32 0
      vertex -88.9093 26.6331 0
    endloop
  endfacet
  facet normal 0 0 -1
    outer loop
      vertex -114 32 0
      vertex -89.444 26.7952 0
      vertex -90 26.85 0
    endloop
  endfacet
  facet normal 0 0 -1
    outer loop
      vertex -92.6331 22.9094 0
      vertex -120 26 0
      vertex -92.7952 23.444 0
    endloop
  endfacet
  facet normal 0 -0 -1
    outer loop
      vertex -114 32 0
      vertex -92.7952 23.444 0
      vertex -120 26 0
    endloop
  endfacet
  facet normal 0 0 -1
    outer loop
      vertex -89.444 26.7952 0
      vertex -114 32 0
      vertex 0 32 0
    endloop
  endfacet
  facet normal 0 0 -1
    outer loop
      vertex -90.556 26.7952 0
      vertex -114 32 0
      vertex -90 26.85 0
    endloop
  endfacet
  facet normal 0 0 -1
    outer loop
      vertex -91.0906 26.6331 0
      vertex -114 32 0
      vertex -90.556 26.7952 0
    endloop
  endfacet
  facet normal 0 0 -1
    outer loop
      vertex -91.5834 26.3697 0
      vertex -114 32 0
      vertex -91.0906 26.6331 0
    endloop
  endfacet
  facet normal 0 0 -1
    outer loop
      vertex -92.0153 26.0153 0
      vertex -114 32 0
      vertex -91.5834 26.3697 0
    endloop
  endfacet
  facet normal 0 0 -1
    outer loop
      vertex -92.3697 25.5834 0
      vertex -114 32 0
      vertex -92.0153 26.0153 0
    endloop
  endfacet
  facet normal 0 0 -1
    outer loop
      vertex -92.6331 25.0906 0
      vertex -114 32 0
      vertex -92.3697 25.5834 0
    endloop
  endfacet
  facet normal 0 0 -1
    outer loop
      vertex -92.7952 23.444 0
      vertex -114 32 0
      vertex -92.85 24 0
    endloop
  endfacet
  facet normal 0 0 -1
    outer loop
      vertex -120 -26 0
      vertex -114 -32 0
      vertex -115.171 -31.8847 0
    endloop
  endfacet
  facet normal 0 0 -1
    outer loop
      vertex -92.85 24 0
      vertex -114 32 0
      vertex -92.7952 24.556 0
    endloop
  endfacet
  facet normal 0 0 -1
    outer loop
      vertex -120 -26 0
      vertex -115.171 -31.8847 0
      vertex -116.296 -31.5433 0
    endloop
  endfacet
  facet normal 0 0 -1
    outer loop
      vertex -92.7952 24.556 0
      vertex -114 32 0
      vertex -92.6331 25.0906 0
    endloop
  endfacet
  facet normal 0 0 -1
    outer loop
      vertex -120 -26 0
      vertex -116.296 -31.5433 0
      vertex -117.333 -30.9888 0
    endloop
  endfacet
  facet normal 0 0 -1
    outer loop
      vertex -114 32 0
      vertex -120 26 0
      vertex -115.171 31.8847 0
    endloop
  endfacet
  facet normal 0 0 -1
    outer loop
      vertex -120 -26 0
      vertex -117.333 -30.9888 0
      vertex -118.243 -30.2426 0
    endloop
  endfacet
  facet normal 0 0 -1
    outer loop
      vertex -115.171 31.8847 0
      vertex -120 26 0
      vertex -116.296 31.5433 0
    endloop
  endfacet
  facet normal 0 0 -1
    outer loop
      vertex -120 -26 0
      vertex -118.243 -30.2426 0
      vertex -118.989 -29.3334 0
    endloop
  endfacet
  facet normal 0 0 -1
    outer loop
      vertex -116.296 31.5433 0
      vertex -120 26 0
      vertex -117.333 30.9888 0
    endloop
  endfacet
  facet normal 0 0 -1
    outer loop
      vertex -120 -26 0
      vertex -118.989 -29.3334 0
      vertex -119.543 -28.2961 0
    endloop
  endfacet
  facet normal 0 0 -1
    outer loop
      vertex -117.333 30.9888 0
      vertex -120 26 0
      vertex -118.243 30.2426 0
    endloop
  endfacet
  facet normal 0 0 -1
    outer loop
      vertex -120 -26 0
      vertex -119.543 -28.2961 0
      vertex -119.885 -27.1705 0
    endloop
  endfacet
  facet normal 0 0 -1
    outer loop
      vertex -118.243 30.2426 0
      vertex -120 26 0
      vertex -118.989 29.3334 0
    endloop
  endfacet
  facet normal 0 0 -1
    outer loop
      vertex -118.989 29.3334 0
      vertex -120 26 0
      vertex -119.543 28.2961 0
    endloop
  endfacet
  facet normal 0 0 -1
    outer loop
      vertex -119.543 28.2961 0
      vertex -120 26 0
      vertex -119.885 27.1705 0
    endloop
  endfacet
  facet normal -0.471537 -0.881846 0
    outer loop
      vertex -117.333 -30.9888 0
      vertex -116.296 -31.5433 5
      vertex -117.333 -30.9888 5
    endloop
  endfacet
  facet normal -0.471537 -0.881846 -0
    outer loop
      vertex -116.296 -31.5433 5
      vertex -117.333 -30.9888 0
      vertex -116.296 -31.5433 0
    endloop
  endfacet
  facet normal -0.471537 0.881846 0
    outer loop
      vertex -116.296 31.5433 0
      vertex -117.333 30.9888 5
      vertex -116.296 31.5433 5
    endloop
  endfacet
  facet normal -0.471537 0.881846 0
    outer loop
      vertex -117.333 30.9888 5
      vertex -116.296 31.5433 0
      vertex -117.333 30.9888 0
    endloop
  endfacet
  facet normal 0 1 0
    outer loop
      vertex 0 32 7.7
      vertex -112 32 5
      vertex -112 32 7.7
    endloop
  endfacet
  facet normal 0 1 -0
    outer loop
      vertex 0 32 0
      vertex -112 32 5
      vertex 0 32 7.7
    endloop
  endfacet
  facet normal 0 1 0
    outer loop
      vertex -114 32 0
      vertex -112 32 5
      vertex 0 32 0
    endloop
  endfacet
  facet normal 0 1 0
    outer loop
      vertex -112 32 5
      vertex -114 32 0
      vertex -114 32 5
    endloop
  endfacet
  facet normal -0.773078 0.634311 0
    outer loop
      vertex -118.989 29.3334 0
      vertex -118.243 30.2426 5
      vertex -118.243 30.2426 0
    endloop
  endfacet
  facet normal -0.773078 0.634311 0
    outer loop
      vertex -118.243 30.2426 5
      vertex -118.989 29.3334 0
      vertex -118.989 29.3334 5
    endloop
  endfacet
  facet normal -0.63408 -0.773268 0
    outer loop
      vertex -118.243 -30.2426 0
      vertex -117.333 -30.9888 5
      vertex -118.243 -30.2426 5
    endloop
  endfacet
  facet normal -0.63408 -0.773268 -0
    outer loop
      vertex -117.333 -30.9888 5
      vertex -118.243 -30.2426 0
      vertex -117.333 -30.9888 0
    endloop
  endfacet
  facet normal -0.995208 -0.0977778 0
    outer loop
      vertex -119.885 -27.1705 0
      vertex -120 -26 5
      vertex -120 -26 0
    endloop
  endfacet
  facet normal -0.995208 -0.0977778 0
    outer loop
      vertex -120 -26 5
      vertex -119.885 -27.1705 0
      vertex -119.885 -27.1705 5
    endloop
  endfacet
  facet normal -0.88208 -0.4711 0
    outer loop
      vertex -118.989 -29.3334 0
      vertex -119.543 -28.2961 5
      vertex -119.543 -28.2961 0
    endloop
  endfacet
  facet normal -0.88208 -0.4711 0
    outer loop
      vertex -119.543 -28.2961 5
      vertex -118.989 -29.3334 0
      vertex -118.989 -29.3334 5
    endloop
  endfacet
  facet normal -0.95681 0.290715 0
    outer loop
      vertex -119.885 27.1705 0
      vertex -119.543 28.2961 5
      vertex -119.543 28.2961 0
    endloop
  endfacet
  facet normal -0.95681 0.290715 0
    outer loop
      vertex -119.543 28.2961 5
      vertex -119.885 27.1705 0
      vertex -119.885 27.1705 5
    endloop
  endfacet
  facet normal -0.88208 0.4711 0
    outer loop
      vertex -119.543 28.2961 0
      vertex -118.989 29.3334 5
      vertex -118.989 29.3334 0
    endloop
  endfacet
  facet normal -0.88208 0.4711 0
    outer loop
      vertex -118.989 29.3334 5
      vertex -119.543 28.2961 0
      vertex -119.543 28.2961 5
    endloop
  endfacet
  facet normal -0.773078 -0.634311 0
    outer loop
      vertex -118.243 -30.2426 0
      vertex -118.989 -29.3334 5
      vertex -118.989 -29.3334 0
    endloop
  endfacet
  facet normal -0.773078 -0.634311 0
    outer loop
      vertex -118.989 -29.3334 5
      vertex -118.243 -30.2426 0
      vertex -118.243 -30.2426 5
    endloop
  endfacet
  facet normal -0 0 1
    outer loop
      vertex -7 0 52.4
      vertex -1.2 -1.2 52.4
      vertex -1.2 0 52.4
    endloop
  endfacet
  facet normal 0 0 1
    outer loop
      vertex -1.2 -1.2 52.4
      vertex -7 0 52.4
      vertex -7 -1.2 52.4
    endloop
  endfacet
  facet normal 0 0 1
    outer loop
      vertex -1.2 0 52.4
      vertex 0 7 52.4
      vertex -1.2 7 52.4
    endloop
  endfacet
  facet normal 0 0 1
    outer loop
      vertex 0 7 52.4
      vertex -1.2 0 52.4
      vertex 0 -7 52.4
    endloop
  endfacet
  facet normal -0 0 1
    outer loop
      vertex -1.2 -1.2 52.4
      vertex 0 -7 52.4
      vertex -1.2 0 52.4
    endloop
  endfacet
  facet normal 0 0 1
    outer loop
      vertex 0 -7 52.4
      vertex -1.2 -1.2 52.4
      vertex -1.2 -7 52.4
    endloop
  endfacet
  facet normal 0 0 -1
    outer loop
      vertex -7 -1.2 51.6
      vertex -1.2 0 51.6
      vertex -1.2 -1.2 51.6
    endloop
  endfacet
  facet normal -0 0 -1
    outer loop
      vertex -1.2 0 51.6
      vertex -7 -1.2 51.6
      vertex -7 0 51.6
    endloop
  endfacet
  facet normal 0 0 -1
    outer loop
      vertex -1.2 -1.2 51.6
      vertex 0 -7 51.6
      vertex -1.2 -7 51.6
    endloop
  endfacet
  facet normal 0 0 -1
    outer loop
      vertex -1.2 0 51.6
      vertex 0 -7 51.6
      vertex -1.2 -1.2 51.6
    endloop
  endfacet
  facet normal 0 0 -1
    outer loop
      vertex 0 -7 51.6
      vertex -1.2 0 51.6
      vertex 0 7 51.6
    endloop
  endfacet
  facet normal -0 0 -1
    outer loop
      vertex 0 7 51.6
      vertex -1.2 0 51.6
      vertex -1.2 7 51.6
    endloop
  endfacet
  facet normal -1 0 0
    outer loop
      vertex -7 -1.2 51.6
      vertex -7 0 52.4
      vertex -7 0 51.6
    endloop
  endfacet
  facet normal -1 -0 0
    outer loop
      vertex -7 0 52.4
      vertex -7 -1.2 51.6
      vertex -7 -1.2 52.4
    endloop
  endfacet
  facet normal 0 1 -0
    outer loop
      vertex -1.2 0 51.6
      vertex -7 0 52.4
      vertex -1.2 0 52.4
    endloop
  endfacet
  facet normal 0 1 0
    outer loop
      vertex -7 0 52.4
      vertex -1.2 0 51.6
      vertex -7 0 51.6
    endloop
  endfacet
  facet normal 0 -1 0
    outer loop
      vertex -7 -1.2 51.6
      vertex -1.2 -1.2 52.4
      vertex -7 -1.2 52.4
    endloop
  endfacet
  facet normal 0 -1 -0
    outer loop
      vertex -1.2 -1.2 52.4
      vertex -7 -1.2 51.6
      vertex -1.2 -1.2 51.6
    endloop
  endfacet
  facet normal 1 -0 0
    outer loop
      vertex 0 -7 52.4
      vertex 0 7 51.6
      vertex 0 7 52.4
    endloop
  endfacet
  facet normal 1 0 0
    outer loop
      vertex 0 7 51.6
      vertex 0 -7 52.4
      vertex 0 -7 51.6
    endloop
  endfacet
  facet normal 1 0 0
    outer loop
      vertex 0 -32 7.7
      vertex 0 32 7.7
      vertex 0 24 48.7
    endloop
  endfacet
  facet normal 1 0 0
    outer loop
      vertex 0 -32 7.7
      vertex 0 24 48.7
      vertex 0 -24 48.7
    endloop
  endfacet
  facet normal 1 0 0
    outer loop
      vertex 0 32 7.7
      vertex 0 -32 7.7
      vertex 0 32 0
    endloop
  endfacet
  facet normal 1 0 0
    outer loop
      vertex 0 32 0
      vertex 0 -32 7.7
      vertex 0 -32 0
    endloop
  endfacet
  facet normal -1 0 0
    outer loop
      vertex -1.2 0 51.6
      vertex -1.2 7 52.4
      vertex -1.2 7 51.6
    endloop
  endfacet
  facet normal -1 -0 0
    outer loop
      vertex -1.2 7 52.4
      vertex -1.2 0 51.6
      vertex -1.2 0 52.4
    endloop
  endfacet
  facet normal -1 0 0
    outer loop
      vertex -1.2 -7 51.6
      vertex -1.2 -1.2 52.4
      vertex -1.2 -1.2 51.6
    endloop
  endfacet
  facet normal -1 -0 0
    outer loop
      vertex -1.2 -1.2 52.4
      vertex -1.2 -7 51.6
      vertex -1.2 -7 52.4
    endloop
  endfacet
  facet normal 0 1 -0
    outer loop
      vertex 0 7 51.6
      vertex -1.2 7 52.4
      vertex 0 7 52.4
    endloop
  endfacet
  facet normal 0 1 0
    outer loop
      vertex -1.2 7 52.4
      vertex 0 7 51.6
      vertex -1.2 7 51.6
    endloop
  endfacet
  facet normal 0 -1 0
    outer loop
      vertex -1.2 -7 51.6
      vertex 0 -7 52.4
      vertex -1.2 -7 52.4
    endloop
  endfacet
  facet normal 0 -1 -0
    outer loop
      vertex 0 -7 52.4
      vertex -1.2 -7 51.6
      vertex 0 -7 51.6
    endloop
  endfacet
  facet normal -0.552641 -0.673235 0.491266
    outer loop
      vertex -90.2426 -22.2426 48.7
      vertex -117.657 -29.6569 7.7
      vertex -116.445 -30.6518 7.7
    endloop
  endfacet
  facet normal -0.271978 0.896715 0.349186
    outer loop
      vertex -87.1705 23.8847 48.7
      vertex -115.061 31.391 7.7
      vertex -88.2961 23.5433 48.7
    endloop
  endfacet
  facet normal -0.653557 -0.536388 0.533996
    outer loop
      vertex -90.9888 -21.3334 48.7
      vertex -118.652 -28.4446 7.7
      vertex -90.2426 -22.2426 48.7
    endloop
  endfacet
  facet normal -0.09496 0.964012 0.24832
    outer loop
      vertex -86 24 48.7
      vertex -113.561 31.8463 7.7
      vertex -87.1705 23.8847 48.7
    endloop
  endfacet
  facet normal -0.272154 0.896621 0.349289
    outer loop
      vertex -113.561 31.8463 7.7
      vertex -115.061 31.391 7.7
      vertex -87.1705 23.8847 48.7
    endloop
  endfacet
  facet normal -0.290448 -0.956891 0
    outer loop
      vertex -115.061 -31.391 5
      vertex -113.561 -31.8463 7.7
      vertex -115.061 -31.391 7.7
    endloop
  endfacet
  facet normal -0.290448 -0.956891 -0
    outer loop
      vertex -113.561 -31.8463 7.7
      vertex -115.061 -31.391 5
      vertex -113.561 -31.8463 5
    endloop
  endfacet
  facet normal -0.817593 -0.0805369 0.570137
    outer loop
      vertex -92 -18 48.7
      vertex -119.846 -25.5607 7.7
      vertex -91.8847 -19.1705 48.7
    endloop
  endfacet
  facet normal -0.825801 0 0.563962
    outer loop
      vertex -120 24 7.7
      vertex -92 -18 48.7
      vertex -92 18 48.7
    endloop
  endfacet
  facet normal -0.825801 0 0.563962
    outer loop
      vertex -92 -18 48.7
      vertex -120 24 7.7
      vertex -120 -24 7.7
    endloop
  endfacet
  facet normal -0.817572 0.0806728 0.570148
    outer loop
      vertex -119.846 25.5607 7.7
      vertex -120 24 7.7
      vertex -92 18 48.7
    endloop
  endfacet
  facet normal 0 0.981491 0.19151
    outer loop
      vertex 0 32 7.7
      vertex -86 24 48.7
      vertex 0 24 48.7
    endloop
  endfacet
  facet normal 0 0.981491 0.19151
    outer loop
      vertex -86 24 48.7
      vertex 0 32 7.7
      vertex -112 32 7.7
    endloop
  endfacet
  facet normal -0.425576 0.796123 0.430201
    outer loop
      vertex -88.2961 23.5433 48.7
      vertex -115.061 31.391 7.7
      vertex -89.3334 22.9888 48.7
    endloop
  endfacet
  facet normal -0.42532 0.796324 0.430082
    outer loop
      vertex -115.061 31.391 7.7
      vertex -116.445 30.6518 7.7
      vertex -89.3334 22.9888 48.7
    endloop
  endfacet
  facet normal -0.881996 -0.471257 0
    outer loop
      vertex -118.652 -28.4446 5
      vertex -119.391 -27.0615 7.7
      vertex -119.391 -27.0615 5
    endloop
  endfacet
  facet normal -0.881996 -0.471257 0
    outer loop
      vertex -119.391 -27.0615 7.7
      vertex -118.652 -28.4446 5
      vertex -118.652 -28.4446 7.7
    endloop
  endfacet
  facet normal 0 0 -1
    outer loop
      vertex -87.2048 -24.556 4.7
      vertex -87.2048 -23.444 4.7
      vertex -87.15 -24 4.7
    endloop
  endfacet
  facet normal 0 0 -1
    outer loop
      vertex -87.3669 -25.0906 4.7
      vertex -87.2048 -23.444 4.7
      vertex -87.2048 -24.556 4.7
    endloop
  endfacet
  facet normal 0 0 -1
    outer loop
      vertex -87.3669 -25.0906 4.7
      vertex -87.3669 -22.9094 4.7
      vertex -87.2048 -23.444 4.7
    endloop
  endfacet
  facet normal 0 0 -1
    outer loop
      vertex -87.6303 -25.5834 4.7
      vertex -87.3669 -22.9094 4.7
      vertex -87.3669 -25.0906 4.7
    endloop
  endfacet
  facet normal 0 0 -1
    outer loop
      vertex -87.6303 -25.5834 4.7
      vertex -87.6303 -22.4166 4.7
      vertex -87.3669 -22.9094 4.7
    endloop
  endfacet
  facet normal 0 0 -1
    outer loop
      vertex -87.9847 -26.0153 4.7
      vertex -87.6303 -22.4166 4.7
      vertex -87.6303 -25.5834 4.7
    endloop
  endfacet
  facet normal 0 0 -1
    outer loop
      vertex -87.9847 -26.0153 4.7
      vertex -87.9847 -21.9847 4.7
      vertex -87.6303 -22.4166 4.7
    endloop
  endfacet
  facet normal 0 0 -1
    outer loop
      vertex -88.4166 -26.3697 4.7
      vertex -87.9847 -21.9847 4.7
      vertex -87.9847 -26.0153 4.7
    endloop
  endfacet
  facet normal 0 0 -1
    outer loop
      vertex -88.4166 -26.3697 4.7
      vertex -88.4166 -21.6303 4.7
      vertex -87.9847 -21.9847 4.7
    endloop
  endfacet
  facet normal 0 0 -1
    outer loop
      vertex -88.9093 -26.6331 4.7
      vertex -88.4166 -21.6303 4.7
      vertex -88.4166 -26.3697 4.7
    endloop
  endfacet
  facet normal 0 0 -1
    outer loop
      vertex -88.9093 -26.6331 4.7
      vertex -88.9093 -21.3669 4.7
      vertex -88.4166 -21.6303 4.7
    endloop
  endfacet
  facet normal 0 0 -1
    outer loop
      vertex -89.444 -26.7952 4.7
      vertex -88.9093 -21.3669 4.7
      vertex -88.9093 -26.6331 4.7
    endloop
  endfacet
  facet normal 0 0 -1
    outer loop
      vertex -89.444 -26.7952 4.7
      vertex -89.444 -21.2048 4.7
      vertex -88.9093 -21.3669 4.7
    endloop
  endfacet
  facet normal 0 0 -1
    outer loop
      vertex -90 -26.85 4.7
      vertex -89.444 -21.2048 4.7
      vertex -89.444 -26.7952 4.7
    endloop
  endfacet
  facet normal 0 0 -1
    outer loop
      vertex -90 -26.85 4.7
      vertex -90 -21.15 4.7
      vertex -89.444 -21.2048 4.7
    endloop
  endfacet
  facet normal 0 0 -1
    outer loop
      vertex -90.556 -26.7952 4.7
      vertex -90 -21.15 4.7
      vertex -90 -26.85 4.7
    endloop
  endfacet
  facet normal 0 0 -1
    outer loop
      vertex -90.556 -26.7952 4.7
      vertex -90.556 -21.2048 4.7
      vertex -90 -21.15 4.7
    endloop
  endfacet
  facet normal 0 0 -1
    outer loop
      vertex -91.0906 -26.6331 4.7
      vertex -90.556 -21.2048 4.7
      vertex -90.556 -26.7952 4.7
    endloop
  endfacet
  facet normal 0 0 -1
    outer loop
      vertex -91.0906 -26.6331 4.7
      vertex -91.0906 -21.3669 4.7
      vertex -90.556 -21.2048 4.7
    endloop
  endfacet
  facet normal 0 0 -1
    outer loop
      vertex -91.5834 -26.3697 4.7
      vertex -91.0906 -21.3669 4.7
      vertex -91.0906 -26.6331 4.7
    endloop
  endfacet
  facet normal 0 0 -1
    outer loop
      vertex -91.5834 -26.3697 4.7
      vertex -91.5834 -21.6303 4.7
      vertex -91.0906 -21.3669 4.7
    endloop
  endfacet
  facet normal 0 0 -1
    outer loop
      vertex -92.0153 -26.0153 4.7
      vertex -91.5834 -21.6303 4.7
      vertex -91.5834 -26.3697 4.7
    endloop
  endfacet
  facet normal 0 0 -1
    outer loop
      vertex -92.0153 -26.0153 4.7
      vertex -92.0153 -21.9847 4.7
      vertex -91.5834 -21.6303 4.7
    endloop
  endfacet
  facet normal 0 0 -1
    outer loop
      vertex -92.3697 -25.5834 4.7
      vertex -92.0153 -21.9847 4.7
      vertex -92.0153 -26.0153 4.7
    endloop
  endfacet
  facet normal 0 0 -1
    outer loop
      vertex -92.3697 -25.5834 4.7
      vertex -92.3697 -22.4166 4.7
      vertex -92.0153 -21.9847 4.7
    endloop
  endfacet
  facet normal 0 0 -1
    outer loop
      vertex -92.6331 -25.0906 4.7
      vertex -92.3697 -22.4166 4.7
      vertex -92.3697 -25.5834 4.7
    endloop
  endfacet
  facet normal 0 0 -1
    outer loop
      vertex -92.6331 -25.0906 4.7
      vertex -92.6331 -22.9094 4.7
      vertex -92.3697 -22.4166 4.7
    endloop
  endfacet
  facet normal 0 0 -1
    outer loop
      vertex -92.7952 -24.556 4.7
      vertex -92.6331 -22.9094 4.7
      vertex -92.6331 -25.0906 4.7
    endloop
  endfacet
  facet normal 0 0 -1
    outer loop
      vertex -92.7952 -24.556 4.7
      vertex -92.7952 -23.444 4.7
      vertex -92.6331 -22.9094 4.7
    endloop
  endfacet
  facet normal 0 -0 -1
    outer loop
      vertex -92.7952 -23.444 4.7
      vertex -92.7952 -24.556 4.7
      vertex -92.85 -24 4.7
    endloop
  endfacet
  facet normal 0 0 -1
    outer loop
      vertex -87.2048 23.444 4.7
      vertex -87.2048 24.556 4.7
      vertex -87.15 24 4.7
    endloop
  endfacet
  facet normal 0 0 -1
    outer loop
      vertex -87.3669 22.9094 4.7
      vertex -87.2048 24.556 4.7
      vertex -87.2048 23.444 4.7
    endloop
  endfacet
  facet normal 0 0 -1
    outer loop
      vertex -87.3669 22.9094 4.7
      vertex -87.3669 25.0906 4.7
      vertex -87.2048 24.556 4.7
    endloop
  endfacet
  facet normal 0 0 -1
    outer loop
      vertex -87.6303 22.4166 4.7
      vertex -87.3669 25.0906 4.7
      vertex -87.3669 22.9094 4.7
    endloop
  endfacet
  facet normal 0 0 -1
    outer loop
      vertex -87.6303 22.4166 4.7
      vertex -87.6303 25.5834 4.7
      vertex -87.3669 25.0906 4.7
    endloop
  endfacet
  facet normal 0 0 -1
    outer loop
      vertex -87.9847 21.9847 4.7
      vertex -87.6303 25.5834 4.7
      vertex -87.6303 22.4166 4.7
    endloop
  endfacet
  facet normal 0 0 -1
    outer loop
      vertex -87.9847 21.9847 4.7
      vertex -87.9847 26.0153 4.7
      vertex -87.6303 25.5834 4.7
    endloop
  endfacet
  facet normal 0 0 -1
    outer loop
      vertex -88.4166 21.6303 4.7
      vertex -87.9847 26.0153 4.7
      vertex -87.9847 21.9847 4.7
    endloop
  endfacet
  facet normal 0 0 -1
    outer loop
      vertex -88.4166 21.6303 4.7
      vertex -88.4166 26.3697 4.7
      vertex -87.9847 26.0153 4.7
    endloop
  endfacet
  facet normal 0 0 -1
    outer loop
      vertex -88.9093 21.3669 4.7
      vertex -88.4166 26.3697 4.7
      vertex -88.4166 21.6303 4.7
    endloop
  endfacet
  facet normal 0 0 -1
    outer loop
      vertex -88.9093 21.3669 4.7
      vertex -88.9093 26.6331 4.7
      vertex -88.4166 26.3697 4.7
    endloop
  endfacet
  facet normal 0 0 -1
    outer loop
      vertex -89.444 21.2048 4.7
      vertex -88.9093 26.6331 4.7
      vertex -88.9093 21.3669 4.7
    endloop
  endfacet
  facet normal 0 0 -1
    outer loop
      vertex -89.444 21.2048 4.7
      vertex -89.444 26.7952 4.7
      vertex -88.9093 26.6331 4.7
    endloop
  endfacet
  facet normal 0 0 -1
    outer loop
      vertex -90 21.15 4.7
      vertex -89.444 26.7952 4.7
      vertex -89.444 21.2048 4.7
    endloop
  endfacet
  facet normal 0 0 -1
    outer loop
      vertex -90 21.15 4.7
      vertex -90 26.85 4.7
      vertex -89.444 26.7952 4.7
    endloop
  endfacet
  facet normal 0 0 -1
    outer loop
      vertex -90.556 21.2048 4.7
      vertex -90 26.85 4.7
      vertex -90 21.15 4.7
    endloop
  endfacet
  facet normal 0 0 -1
    outer loop
      vertex -90.556 21.2048 4.7
      vertex -90.556 26.7952 4.7
      vertex -90 26.85 4.7
    endloop
  endfacet
  facet normal 0 0 -1
    outer loop
      vertex -91.0906 21.3669 4.7
      vertex -90.556 26.7952 4.7
      vertex -90.556 21.2048 4.7
    endloop
  endfacet
  facet normal 0 0 -1
    outer loop
      vertex -91.0906 21.3669 4.7
      vertex -91.0906 26.6331 4.7
      vertex -90.556 26.7952 4.7
    endloop
  endfacet
  facet normal 0 0 -1
    outer loop
      vertex -91.5834 21.6303 4.7
      vertex -91.0906 26.6331 4.7
      vertex -91.0906 21.3669 4.7
    endloop
  endfacet
  facet normal 0 0 -1
    outer loop
      vertex -91.5834 21.6303 4.7
      vertex -91.5834 26.3697 4.7
      vertex -91.0906 26.6331 4.7
    endloop
  endfacet
  facet normal 0 0 -1
    outer loop
      vertex -92.0153 21.9847 4.7
      vertex -91.5834 26.3697 4.7
      vertex -91.5834 21.6303 4.7
    endloop
  endfacet
  facet normal 0 0 -1
    outer loop
      vertex -92.0153 21.9847 4.7
      vertex -92.0153 26.0153 4.7
      vertex -91.5834 26.3697 4.7
    endloop
  endfacet
  facet normal 0 0 -1
    outer loop
      vertex -92.3697 22.4166 4.7
      vertex -92.0153 26.0153 4.7
      vertex -92.0153 21.9847 4.7
    endloop
  endfacet
  facet normal 0 0 -1
    outer loop
      vertex -92.3697 22.4166 4.7
      vertex -92.3697 25.5834 4.7
      vertex -92.0153 26.0153 4.7
    endloop
  endfacet
  facet normal 0 0 -1
    outer loop
      vertex -92.6331 22.9094 4.7
      vertex -92.3697 25.5834 4.7
      vertex -92.3697 22.4166 4.7
    endloop
  endfacet
  facet normal 0 0 -1
    outer loop
      vertex -92.6331 22.9094 4.7
      vertex -92.6331 25.0906 4.7
      vertex -92.3697 25.5834 4.7
    endloop
  endfacet
  facet normal 0 0 -1
    outer loop
      vertex -92.7952 23.444 4.7
      vertex -92.6331 25.0906 4.7
      vertex -92.6331 22.9094 4.7
    endloop
  endfacet
  facet normal 0 0 -1
    outer loop
      vertex -92.7952 23.444 4.7
      vertex -92.7952 24.556 4.7
      vertex -92.6331 25.0906 4.7
    endloop
  endfacet
  facet normal 0 -0 -1
    outer loop
      vertex -92.7952 24.556 4.7
      vertex -92.7952 23.444 4.7
      vertex -92.85 24 4.7
    endloop
  endfacet
  facet normal -0.09496 -0.964012 0.24832
    outer loop
      vertex -87.1705 -23.8847 48.7
      vertex -113.561 -31.8463 7.7
      vertex -86 -24 48.7
    endloop
  endfacet
  facet normal -0.0949201 -0.964023 0.248295
    outer loop
      vertex -86 -24 48.7
      vertex -113.561 -31.8463 7.7
      vertex -112 -32 7.7
    endloop
  endfacet
  facet normal -0.0979887 -0.995188 0
    outer loop
      vertex -113.561 -31.8463 5
      vertex -112 -32 7.7
      vertex -113.561 -31.8463 7.7
    endloop
  endfacet
  facet normal -0.0979887 -0.995188 -0
    outer loop
      vertex -112 -32 7.7
      vertex -113.561 -31.8463 5
      vertex -112 -32 5
    endloop
  endfacet
  facet normal -0.817572 -0.0806728 0.570148
    outer loop
      vertex -92 -18 48.7
      vertex -120 -24 7.7
      vertex -119.846 -25.5607 7.7
    endloop
  endfacet
  facet normal -0.995167 -0.0981968 0
    outer loop
      vertex -119.846 -25.5607 5
      vertex -120 -24 7.7
      vertex -120 -24 5
    endloop
  endfacet
  facet normal -0.995167 -0.0981968 0
    outer loop
      vertex -120 -24 7.7
      vertex -119.846 -25.5607 5
      vertex -119.846 -25.5607 7.7
    endloop
  endfacet
  facet normal -0.0949201 0.964023 0.248295
    outer loop
      vertex -112 32 7.7
      vertex -113.561 31.8463 7.7
      vertex -86 24 48.7
    endloop
  endfacet
  facet normal -0.653548 -0.536402 0.533992
    outer loop
      vertex -90.2426 -22.2426 48.7
      vertex -118.652 -28.4446 7.7
      vertex -117.657 -29.6569 7.7
    endloop
  endfacet
  facet normal -0.730421 0.390269 0.560514
    outer loop
      vertex -118.652 28.4446 7.7
      vertex -119.391 27.0615 7.7
      vertex -90.9888 21.3334 48.7
    endloop
  endfacet
  facet normal -0.995167 0.0981968 0
    outer loop
      vertex -120 24 5
      vertex -119.846 25.5607 7.7
      vertex -119.846 25.5607 5
    endloop
  endfacet
  facet normal -0.995167 0.0981968 0
    outer loop
      vertex -119.846 25.5607 7.7
      vertex -120 24 5
      vertex -120 24 7.7
    endloop
  endfacet
  facet normal 0 -0.981491 0.19151
    outer loop
      vertex 0 -32 7.7
      vertex -86 -24 48.7
      vertex -112 -32 7.7
    endloop
  endfacet
  facet normal 0 -0.981491 0.19151
    outer loop
      vertex -86 -24 48.7
      vertex 0 -32 7.7
      vertex 0 -24 48.7
    endloop
  endfacet
  facet normal -0.784751 -0.238019 0.572288
    outer loop
      vertex -91.8847 -19.1705 48.7
      vertex -119.391 -27.0615 7.7
      vertex -91.5433 -20.2961 48.7
    endloop
  endfacet
  facet normal -0.471117 0.882071 0
    outer loop
      vertex -115.061 31.391 5
      vertex -116.445 30.6518 7.7
      vertex -115.061 31.391 7.7
    endloop
  endfacet
  facet normal -0.471117 0.882071 0
    outer loop
      vertex -116.445 30.6518 7.7
      vertex -115.061 31.391 5
      vertex -116.445 30.6518 5
    endloop
  endfacet
  facet normal -0.881996 0.471257 0
    outer loop
      vertex -119.391 27.0615 5
      vertex -118.652 28.4446 7.7
      vertex -118.652 28.4446 5
    endloop
  endfacet
  facet normal -0.881996 0.471257 0
    outer loop
      vertex -118.652 28.4446 7.7
      vertex -119.391 27.0615 5
      vertex -119.391 27.0615 7.7
    endloop
  endfacet
  facet normal -0.290448 0.956891 0
    outer loop
      vertex -113.561 31.8463 5
      vertex -115.061 31.391 7.7
      vertex -113.561 31.8463 7.7
    endloop
  endfacet
  facet normal -0.290448 0.956891 0
    outer loop
      vertex -115.061 31.391 7.7
      vertex -113.561 31.8463 5
      vertex -115.061 31.391 5
    endloop
  endfacet
  facet normal -0.425576 -0.796123 0.430201
    outer loop
      vertex -89.3334 -22.9888 48.7
      vertex -115.061 -31.391 7.7
      vertex -88.2961 -23.5433 48.7
    endloop
  endfacet
  facet normal -0.42532 -0.796324 0.430082
    outer loop
      vertex -89.3334 -22.9888 48.7
      vertex -116.445 -30.6518 7.7
      vertex -115.061 -31.391 7.7
    endloop
  endfacet
  facet normal -0.956987 0.290131 0
    outer loop
      vertex -119.846 25.5607 5
      vertex -119.391 27.0615 7.7
      vertex -119.391 27.0615 5
    endloop
  endfacet
  facet normal -0.956987 0.290131 0
    outer loop
      vertex -119.391 27.0615 7.7
      vertex -119.846 25.5607 5
      vertex -119.846 25.5607 7.7
    endloop
  endfacet
  facet normal -0.784779 -0.237923 0.572288
    outer loop
      vertex -91.8847 -19.1705 48.7
      vertex -119.846 -25.5607 7.7
      vertex -119.391 -27.0615 7.7
    endloop
  endfacet
  facet normal -0.552588 -0.673295 0.491244
    outer loop
      vertex -90.2426 -22.2426 48.7
      vertex -116.445 -30.6518 7.7
      vertex -89.3334 -22.9888 48.7
    endloop
  endfacet
  facet normal -0.552588 0.673295 0.491244
    outer loop
      vertex -89.3334 22.9888 48.7
      vertex -116.445 30.6518 7.7
      vertex -90.2426 22.2426 48.7
    endloop
  endfacet
  facet normal -0.817593 0.0805369 0.570137
    outer loop
      vertex -91.8847 19.1705 48.7
      vertex -119.846 25.5607 7.7
      vertex -92 18 48.7
    endloop
  endfacet
  facet normal -0.784779 0.237923 0.572288
    outer loop
      vertex -119.391 27.0615 7.7
      vertex -119.846 25.5607 7.7
      vertex -91.8847 19.1705 48.7
    endloop
  endfacet
  facet normal -0.956987 -0.290131 0
    outer loop
      vertex -119.391 -27.0615 5
      vertex -119.846 -25.5607 7.7
      vertex -119.846 -25.5607 5
    endloop
  endfacet
  facet normal -0.956987 -0.290131 0
    outer loop
      vertex -119.846 -25.5607 7.7
      vertex -119.391 -27.0615 5
      vertex -119.391 -27.0615 7.7
    endloop
  endfacet
  facet normal -0.0979887 0.995188 0
    outer loop
      vertex -112 32 5
      vertex -113.561 31.8463 7.7
      vertex -112 32 7.7
    endloop
  endfacet
  facet normal -0.0979887 0.995188 0
    outer loop
      vertex -113.561 31.8463 7.7
      vertex -112 32 5
      vertex -113.561 31.8463 5
    endloop
  endfacet
  facet normal -0.272154 -0.896621 0.349289
    outer loop
      vertex -87.1705 -23.8847 48.7
      vertex -115.061 -31.391 7.7
      vertex -113.561 -31.8463 7.7
    endloop
  endfacet
  facet normal -0.784751 0.238019 0.572288
    outer loop
      vertex -91.5433 20.2961 48.7
      vertex -119.391 27.0615 7.7
      vertex -91.8847 19.1705 48.7
    endloop
  endfacet
  facet normal -0.772982 0.634428 0
    outer loop
      vertex -118.652 28.4446 5
      vertex -117.657 29.6569 7.7
      vertex -117.657 29.6569 5
    endloop
  endfacet
  facet normal -0.772982 0.634428 0
    outer loop
      vertex -117.657 29.6569 7.7
      vertex -118.652 28.4446 5
      vertex -118.652 28.4446 7.7
    endloop
  endfacet
  facet normal -0.552641 0.673235 0.491266
    outer loop
      vertex -116.445 30.6518 7.7
      vertex -117.657 29.6569 7.7
      vertex -90.2426 22.2426 48.7
    endloop
  endfacet
  facet normal -0.772982 -0.634428 0
    outer loop
      vertex -117.657 -29.6569 5
      vertex -118.652 -28.4446 7.7
      vertex -118.652 -28.4446 5
    endloop
  endfacet
  facet normal -0.772982 -0.634428 0
    outer loop
      vertex -118.652 -28.4446 7.7
      vertex -117.657 -29.6569 5
      vertex -117.657 -29.6569 7.7
    endloop
  endfacet
  facet normal -0.730421 -0.390269 0.560514
    outer loop
      vertex -90.9888 -21.3334 48.7
      vertex -119.391 -27.0615 7.7
      vertex -118.652 -28.4446 7.7
    endloop
  endfacet
  facet normal -0.653548 0.536402 0.533992
    outer loop
      vertex -117.657 29.6569 7.7
      vertex -118.652 28.4446 7.7
      vertex -90.2426 22.2426 48.7
    endloop
  endfacet
  facet normal -0.271978 -0.896715 0.349186
    outer loop
      vertex -88.2961 -23.5433 48.7
      vertex -115.061 -31.391 7.7
      vertex -87.1705 -23.8847 48.7
    endloop
  endfacet
  facet normal -0.634484 -0.772936 0
    outer loop
      vertex -117.657 -29.6569 5
      vertex -116.445 -30.6518 7.7
      vertex -117.657 -29.6569 7.7
    endloop
  endfacet
  facet normal -0.634484 -0.772936 -0
    outer loop
      vertex -116.445 -30.6518 7.7
      vertex -117.657 -29.6569 5
      vertex -116.445 -30.6518 5
    endloop
  endfacet
  facet normal -0.471117 -0.882071 0
    outer loop
      vertex -116.445 -30.6518 5
      vertex -115.061 -31.391 7.7
      vertex -116.445 -30.6518 7.7
    endloop
  endfacet
  facet normal -0.471117 -0.882071 -0
    outer loop
      vertex -115.061 -31.391 7.7
      vertex -116.445 -30.6518 5
      vertex -115.061 -31.391 5
    endloop
  endfacet
  facet normal -0.730357 0.39042 0.560491
    outer loop
      vertex -90.9888 21.3334 48.7
      vertex -119.391 27.0615 7.7
      vertex -91.5433 20.2961 48.7
    endloop
  endfacet
  facet normal -0.653557 0.536388 0.533996
    outer loop
      vertex -90.2426 22.2426 48.7
      vertex -118.652 28.4446 7.7
      vertex -90.9888 21.3334 48.7
    endloop
  endfacet
  facet normal -0 0 1
    outer loop
      vertex -86 24 48.7
      vertex 0 -24 48.7
      vertex 0 24 48.7
    endloop
  endfacet
  facet normal 0 0 1
    outer loop
      vertex -86 24 48.7
      vertex -86 -24 48.7
      vertex 0 -24 48.7
    endloop
  endfacet
  facet normal 0 0 1
    outer loop
      vertex -92 18 48.7
      vertex -86 24 48.7
      vertex -87.1705 23.8847 48.7
    endloop
  endfacet
  facet normal 0 0 1
    outer loop
      vertex -86 24 48.7
      vertex -92 18 48.7
      vertex -86 -24 48.7
    endloop
  endfacet
  facet normal 0 0 1
    outer loop
      vertex -92 18 48.7
      vertex -87.1705 23.8847 48.7
      vertex -88.2961 23.5433 48.7
    endloop
  endfacet
  facet normal -0 0 1
    outer loop
      vertex -92 -18 48.7
      vertex -86 -24 48.7
      vertex -92 18 48.7
    endloop
  endfacet
  facet normal 0 0 1
    outer loop
      vertex -92 18 48.7
      vertex -88.2961 23.5433 48.7
      vertex -89.3334 22.9888 48.7
    endloop
  endfacet
  facet normal 0 0 1
    outer loop
      vertex -86 -24 48.7
      vertex -92 -18 48.7
      vertex -87.1705 -23.8847 48.7
    endloop
  endfacet
  facet normal 0 0 1
    outer loop
      vertex -92 18 48.7
      vertex -89.3334 22.9888 48.7
      vertex -90.2426 22.2426 48.7
    endloop
  endfacet
  facet normal 0 0 1
    outer loop
      vertex -87.1705 -23.8847 48.7
      vertex -92 -18 48.7
      vertex -88.2961 -23.5433 48.7
    endloop
  endfacet
  facet normal 0 0 1
    outer loop
      vertex -92 18 48.7
      vertex -90.2426 22.2426 48.7
      vertex -90.9888 21.3334 48.7
    endloop
  endfacet
  facet normal 0 0 1
    outer loop
      vertex -88.2961 -23.5433 48.7
      vertex -92 -18 48.7
      vertex -89.3334 -22.9888 48.7
    endloop
  endfacet
  facet normal 0 0 1
    outer loop
      vertex -92 18 48.7
      vertex -90.9888 21.3334 48.7
      vertex -91.5433 20.2961 48.7
    endloop
  endfacet
  facet normal 0 0 1
    outer loop
      vertex -89.3334 -22.9888 48.7
      vertex -92 -18 48.7
      vertex -90.2426 -22.2426 48.7
    endloop
  endfacet
  facet normal 0 0 1
    outer loop
      vertex -92 18 48.7
      vertex -91.5433 20.2961 48.7
      vertex -91.8847 19.1705 48.7
    endloop
  endfacet
  facet normal 0 0 1
    outer loop
      vertex -90.2426 -22.2426 48.7
      vertex -92 -18 48.7
      vertex -90.9888 -21.3334 48.7
    endloop
  endfacet
  facet normal 0 0 1
    outer loop
      vertex -90.9888 -21.3334 48.7
      vertex -92 -18 48.7
      vertex -91.5433 -20.2961 48.7
    endloop
  endfacet
  facet normal 0 0 1
    outer loop
      vertex -91.5433 -20.2961 48.7
      vertex -92 -18 48.7
      vertex -91.8847 -19.1705 48.7
    endloop
  endfacet
  facet normal -0.634484 0.772936 0
    outer loop
      vertex -116.445 30.6518 5
      vertex -117.657 29.6569 7.7
      vertex -116.445 30.6518 7.7
    endloop
  endfacet
  facet normal -0.634484 0.772936 0
    outer loop
      vertex -117.657 29.6569 7.7
      vertex -116.445 30.6518 5
      vertex -117.657 29.6569 5
    endloop
  endfacet
  facet normal -0.730357 -0.39042 0.560491
    outer loop
      vertex -91.5433 -20.2961 48.7
      vertex -119.391 -27.0615 7.7
      vertex -90.9888 -21.3334 48.7
    endloop
  endfacet
endsolid OpenSCAD_Model
