solid OpenSCAD_Model
  facet normal 1 -0 0
    outer loop
      vertex 82 0 5
      vertex 82 0.599999 3
      vertex 82 0.599999 5
    endloop
  endfacet
  facet normal 1 0 0
    outer loop
      vertex 82 0.599999 3
      vertex 82 0 5
      vertex 82 0 3
    endloop
  endfacet
  facet normal -0 0 1
    outer loop
      vertex 64 0.599999 5
      vertex 82 0 5
      vertex 82 0.599999 5
    endloop
  endfacet
  facet normal 0 0 1
    outer loop
      vertex 82 0 5
      vertex 64 0.599999 5
      vertex 64 0 5
    endloop
  endfacet
  facet normal 0 0 -1
    outer loop
      vertex 82 0 3
      vertex 81.9409 0.599999 3
      vertex 82 0.599999 3
    endloop
  endfacet
  facet normal -1 0 0
    outer loop
      vertex 64 0 4
      vertex 64 0.599999 5
      vertex 64 0.599999 4
    endloop
  endfacet
  facet normal -1 -0 0
    outer loop
      vertex 64 0.599999 5
      vertex 64 0 4
      vertex 64 0 5
    endloop
  endfacet
  facet normal 0 1 0
    outer loop
      vertex 82 0.599999 5
      vertex 81.9409 0.599999 4
      vertex 64 0.599999 5
    endloop
  endfacet
  facet normal 0 1 -0
    outer loop
      vertex 82 0.599999 3
      vertex 81.9409 0.599999 4
      vertex 82 0.599999 5
    endloop
  endfacet
  facet normal 0 1 0
    outer loop
      vertex 81.9409 0.599999 4
      vertex 82 0.599999 3
      vertex 81.9409 0.599999 3
    endloop
  endfacet
  facet normal 0 1 0
    outer loop
      vertex 64 0.599999 5
      vertex 81.9409 0.599999 4
      vertex 64 0.599999 4
    endloop
  endfacet
  facet normal 0 0 1
    outer loop
      vertex 73.8672 4.47204 5
      vertex 63.9437 2.75032 5
      vertex 73.93 3.27368 5
    endloop
  endfacet
  facet normal 0 -0 1
    outer loop
      vertex 63.9437 2.75032 5
      vertex 73.8672 4.47204 5
      vertex 63.8809 3.94868 5
    endloop
  endfacet
  facet normal -0.99863 -0.0523331 0
    outer loop
      vertex 63.9437 2.75032 4
      vertex 63.8809 3.94868 5
      vertex 63.8809 3.94868 4
    endloop
  endfacet
  facet normal -0.99863 -0.0523331 0
    outer loop
      vertex 63.8809 3.94868 5
      vertex 63.9437 2.75032 4
      vertex 63.9437 2.75032 5
    endloop
  endfacet
  facet normal -0.052336 0.99863 0
    outer loop
      vertex 73.8672 4.47204 4
      vertex 63.8809 3.94868 5
      vertex 73.8672 4.47204 5
    endloop
  endfacet
  facet normal -0.052336 0.99863 0
    outer loop
      vertex 63.8809 3.94868 5
      vertex 73.8672 4.47204 4
      vertex 63.8809 3.94868 4
    endloop
  endfacet
  facet normal 0.052336 -0.99863 0
    outer loop
      vertex 63.9437 2.75032 4
      vertex 73.93 3.27368 5
      vertex 63.9437 2.75032 5
    endloop
  endfacet
  facet normal 0.052336 -0.99863 0
    outer loop
      vertex 73.93 3.27368 5
      vertex 63.9437 2.75032 4
      vertex 73.93 3.27368 4
    endloop
  endfacet
  facet normal 0.99863 0.0523331 0
    outer loop
      vertex 73.93 3.27368 5
      vertex 73.8672 4.47204 4
      vertex 73.8672 4.47204 5
    endloop
  endfacet
  facet normal 0.99863 0.0523331 0
    outer loop
      vertex 73.8672 4.47204 4
      vertex 73.93 3.27368 5
      vertex 73.93 3.27368 4
    endloop
  endfacet
  facet normal 0 0 1
    outer loop
      vertex 73.5319 8.33182 5
      vertex 63.7121 6.09311 5
      vertex 73.6573 7.13839 5
    endloop
  endfacet
  facet normal 0 -0 1
    outer loop
      vertex 63.7121 6.09311 5
      vertex 73.5319 8.33182 5
      vertex 63.5867 7.28653 5
    endloop
  endfacet
  facet normal -0.994525 -0.104501 0
    outer loop
      vertex 63.7121 6.09311 4
      vertex 63.5867 7.28653 5
      vertex 63.5867 7.28653 4
    endloop
  endfacet
  facet normal -0.994525 -0.104501 0
    outer loop
      vertex 63.5867 7.28653 5
      vertex 63.7121 6.09311 4
      vertex 63.7121 6.09311 5
    endloop
  endfacet
  facet normal -0.104529 0.994522 0
    outer loop
      vertex 73.5319 8.33182 4
      vertex 63.5867 7.28653 5
      vertex 73.5319 8.33182 5
    endloop
  endfacet
  facet normal -0.104529 0.994522 0
    outer loop
      vertex 63.5867 7.28653 5
      vertex 73.5319 8.33182 4
      vertex 63.5867 7.28653 4
    endloop
  endfacet
  facet normal 0.104528 -0.994522 0
    outer loop
      vertex 63.7121 6.09311 4
      vertex 73.6573 7.13839 5
      vertex 63.7121 6.09311 5
    endloop
  endfacet
  facet normal 0.104528 -0.994522 0
    outer loop
      vertex 73.6573 7.13839 5
      vertex 63.7121 6.09311 4
      vertex 73.6573 7.13839 4
    endloop
  endfacet
  facet normal 0.994525 0.1045 0
    outer loop
      vertex 73.6573 7.13839 5
      vertex 73.5319 8.33182 4
      vertex 73.5319 8.33182 5
    endloop
  endfacet
  facet normal 0.994525 0.1045 0
    outer loop
      vertex 73.5319 8.33182 4
      vertex 73.6573 7.13839 5
      vertex 73.6573 7.13839 4
    endloop
  endfacet
  facet normal 0 0 1
    outer loop
      vertex 72.9951 12.1688 5
      vertex 63.3059 9.41919 5
      vertex 73.1828 10.9835 5
    endloop
  endfacet
  facet normal 0 -0 1
    outer loop
      vertex 63.3059 9.41919 5
      vertex 72.9951 12.1688 5
      vertex 63.1182 10.6044 5
    endloop
  endfacet
  facet normal -0.987691 -0.156419 0
    outer loop
      vertex 63.3059 9.41919 4
      vertex 63.1182 10.6044 5
      vertex 63.1182 10.6044 4
    endloop
  endfacet
  facet normal -0.987691 -0.156419 0
    outer loop
      vertex 63.1182 10.6044 5
      vertex 63.3059 9.41919 4
      vertex 63.3059 9.41919 5
    endloop
  endfacet
  facet normal -0.15644 0.987688 0
    outer loop
      vertex 72.9951 12.1688 4
      vertex 63.1182 10.6044 5
      vertex 72.9951 12.1688 5
    endloop
  endfacet
  facet normal -0.15644 0.987688 0
    outer loop
      vertex 63.1182 10.6044 5
      vertex 72.9951 12.1688 4
      vertex 63.1182 10.6044 4
    endloop
  endfacet
  facet normal 0.156431 -0.987689 0
    outer loop
      vertex 63.3059 9.41919 4
      vertex 73.1828 10.9835 5
      vertex 63.3059 9.41919 5
    endloop
  endfacet
  facet normal 0.156431 -0.987689 0
    outer loop
      vertex 73.1828 10.9835 5
      vertex 63.3059 9.41919 4
      vertex 73.1828 10.9835 4
    endloop
  endfacet
  facet normal 0.987693 0.156408 0
    outer loop
      vertex 73.1828 10.9835 5
      vertex 72.9951 12.1688 4
      vertex 72.9951 12.1688 5
    endloop
  endfacet
  facet normal 0.987693 0.156408 0
    outer loop
      vertex 72.9951 12.1688 4
      vertex 73.1828 10.9835 5
      vertex 73.1828 10.9835 4
    endloop
  endfacet
  facet normal 0 0 1
    outer loop
      vertex 72.2582 15.9724 5
      vertex 62.7262 12.7195 5
      vertex 72.5077 14.7986 5
    endloop
  endfacet
  facet normal 0 -0 1
    outer loop
      vertex 62.7262 12.7195 5
      vertex 72.2582 15.9724 5
      vertex 62.4767 13.8932 5
    endloop
  endfacet
  facet normal -0.978144 -0.20793 0
    outer loop
      vertex 62.7262 12.7195 4
      vertex 62.4767 13.8932 5
      vertex 62.4767 13.8932 4
    endloop
  endfacet
  facet normal -0.978144 -0.20793 0
    outer loop
      vertex 62.4767 13.8932 5
      vertex 62.7262 12.7195 4
      vertex 62.7262 12.7195 5
    endloop
  endfacet
  facet normal -0.207919 0.978146 0
    outer loop
      vertex 72.2582 15.9724 4
      vertex 62.4767 13.8932 5
      vertex 72.2582 15.9724 5
    endloop
  endfacet
  facet normal -0.207919 0.978146 0
    outer loop
      vertex 62.4767 13.8932 5
      vertex 72.2582 15.9724 4
      vertex 62.4767 13.8932 4
    endloop
  endfacet
  facet normal 0.20791 -0.978148 0
    outer loop
      vertex 62.7262 12.7195 4
      vertex 72.5077 14.7986 5
      vertex 62.7262 12.7195 5
    endloop
  endfacet
  facet normal 0.20791 -0.978148 0
    outer loop
      vertex 72.5077 14.7986 5
      vertex 62.7262 12.7195 4
      vertex 72.5077 14.7986 4
    endloop
  endfacet
  facet normal 0.978147 0.207913 0
    outer loop
      vertex 72.5077 14.7986 5
      vertex 72.2582 15.9724 4
      vertex 72.2582 15.9724 5
    endloop
  endfacet
  facet normal 0.978147 0.207913 0
    outer loop
      vertex 72.2582 15.9724 4
      vertex 72.5077 14.7986 5
      vertex 72.5077 14.7986 4
    endloop
  endfacet
  facet normal -0 0 -1
    outer loop
      vertex 87.3215 21.8448 5
      vertex 79.3612 20.6436 5
      vertex 86.5451 24.7426 5
    endloop
  endfacet
  facet normal 0 0 -1
    outer loop
      vertex 87.3215 21.8448 5
      vertex 61.9745 15.9849 5
      vertex 79.3612 20.6436 5
    endloop
  endfacet
  facet normal -0 0 -1
    outer loop
      vertex 61.9745 15.9849 5
      vertex 52.3723 12.4802 5
      vertex 61.664 17.144 5
    endloop
  endfacet
  facet normal 0 0 -1
    outer loop
      vertex 52.3723 12.4802 5
      vertex 61.9745 15.9849 5
      vertex 87.3215 21.8448 5
    endloop
  endfacet
  facet normal 0 0 -1
    outer loop
      vertex 79.0506 21.8027 5
      vertex 86.5451 24.7426 5
      vertex 79.3612 20.6436 5
    endloop
  endfacet
  facet normal 0 0 -1
    outer loop
      vertex 61.664 17.144 5
      vertex 86.5451 24.7426 5
      vertex 79.0506 21.8027 5
    endloop
  endfacet
  facet normal -0 0 -1
    outer loop
      vertex 61.664 17.144 5
      vertex 51.501 15.3526 5
      vertex 86.5451 24.7426 5
    endloop
  endfacet
  facet normal 0 0 -1
    outer loop
      vertex 51.501 15.3526 5
      vertex 61.664 17.144 5
      vertex 52.3723 12.4802 5
    endloop
  endfacet
  facet normal -0.965942 -0.258757 0
    outer loop
      vertex 61.9745 15.9849 4
      vertex 61.664 17.144 5
      vertex 61.664 17.144 4
    endloop
  endfacet
  facet normal -0.965942 -0.258757 0
    outer loop
      vertex 61.664 17.144 5
      vertex 61.9745 15.9849 4
      vertex 61.9745 15.9849 5
    endloop
  endfacet
  facet normal -0.258818 0.965926 5.03074e-05
    outer loop
      vertex 79.0506 21.8027 5
      vertex 78.6925 21.7068 4
      vertex 61.664 17.144 5
    endloop
  endfacet
  facet normal -0.258687 0.965961 0
    outer loop
      vertex 79.0506 21.8027 3
      vertex 78.6925 21.7068 4
      vertex 79.0506 21.8027 5
    endloop
  endfacet
  facet normal -0.258687 0.965961 0
    outer loop
      vertex 78.6925 21.7068 4
      vertex 79.0506 21.8027 3
      vertex 78.6925 21.7068 3
    endloop
  endfacet
  facet normal -0.25882 0.965925 0
    outer loop
      vertex 61.664 17.144 5
      vertex 78.6925 21.7068 4
      vertex 61.664 17.144 4
    endloop
  endfacet
  facet normal 0 0 -1
    outer loop
      vertex 79.041 20.5578 3
      vertex 79.0506 21.8027 3
      vertex 79.3612 20.6436 3
    endloop
  endfacet
  facet normal 0 0 -1
    outer loop
      vertex 79.0506 21.8027 3
      vertex 79.041 20.5578 3
      vertex 78.6925 21.7068 3
    endloop
  endfacet
  facet normal 0.258816 -0.965927 0
    outer loop
      vertex 79.041 20.5578 4
      vertex 61.9745 15.9849 5
      vertex 61.9745 15.9849 4
    endloop
  endfacet
  facet normal 0.258816 -0.965927 3.50666e-06
    outer loop
      vertex 61.9745 15.9849 5
      vertex 79.041 20.5578 4
      vertex 79.3612 20.6436 5
    endloop
  endfacet
  facet normal 0.258827 -0.965924 0
    outer loop
      vertex 79.3612 20.6436 3
      vertex 79.041 20.5578 4
      vertex 79.041 20.5578 3
    endloop
  endfacet
  facet normal 0.258827 -0.965924 0
    outer loop
      vertex 79.041 20.5578 4
      vertex 79.3612 20.6436 3
      vertex 79.3612 20.6436 5
    endloop
  endfacet
  facet normal 0.965922 0.258835 0
    outer loop
      vertex 79.3612 20.6436 5
      vertex 79.0506 21.8027 3
      vertex 79.0506 21.8027 5
    endloop
  endfacet
  facet normal 0.965922 0.258835 0
    outer loop
      vertex 79.0506 21.8027 3
      vertex 79.3612 20.6436 5
      vertex 79.3612 20.6436 3
    endloop
  endfacet
  facet normal 0 0 1
    outer loop
      vertex 70.1928 23.4379 5
      vertex 61.053 19.2065 5
      vertex 70.5636 22.2966 5
    endloop
  endfacet
  facet normal 0 -0 1
    outer loop
      vertex 61.053 19.2065 5
      vertex 70.1928 23.4379 5
      vertex 60.6822 20.3477 5
    endloop
  endfacet
  facet normal -0.951056 -0.309018 0
    outer loop
      vertex 61.053 19.2065 4
      vertex 60.6822 20.3477 5
      vertex 60.6822 20.3477 4
    endloop
  endfacet
  facet normal -0.951056 -0.309018 0
    outer loop
      vertex 60.6822 20.3477 5
      vertex 61.053 19.2065 4
      vertex 61.053 19.2065 5
    endloop
  endfacet
  facet normal -0.309019 0.951056 0
    outer loop
      vertex 70.1928 23.4379 4
      vertex 60.6822 20.3477 5
      vertex 70.1928 23.4379 5
    endloop
  endfacet
  facet normal -0.309019 0.951056 0
    outer loop
      vertex 60.6822 20.3477 5
      vertex 70.1928 23.4379 4
      vertex 60.6822 20.3477 4
    endloop
  endfacet
  facet normal 0.30901 -0.951059 0
    outer loop
      vertex 61.053 19.2065 4
      vertex 70.5636 22.2966 5
      vertex 61.053 19.2065 5
    endloop
  endfacet
  facet normal 0.30901 -0.951059 0
    outer loop
      vertex 70.5636 22.2966 5
      vertex 61.053 19.2065 4
      vertex 70.5636 22.2966 4
    endloop
  endfacet
  facet normal 0.951064 0.308994 0
    outer loop
      vertex 70.5636 22.2966 5
      vertex 70.1928 23.4379 4
      vertex 70.1928 23.4379 5
    endloop
  endfacet
  facet normal 0.951064 0.308994 0
    outer loop
      vertex 70.1928 23.4379 4
      vertex 70.5636 22.2966 5
      vertex 70.5636 22.2966 4
    endloop
  endfacet
  facet normal -0.881923 0.471394 0
    outer loop
      vertex -75.7581 31.38 0
      vertex -68.1805 45.5568 4
      vertex -68.1805 45.5568 0
    endloop
  endfacet
  facet normal -0.881923 0.471394 0
    outer loop
      vertex -68.1805 45.5568 4
      vertex -75.7581 31.38 0
      vertex -75.7581 31.38 4
    endloop
  endfacet
  facet normal 0.956939 0.290288 0
    outer loop
      vertex 79.041 20.5578 4
      vertex 80.4244 15.9974 4
      vertex 79.041 20.5578 3
    endloop
  endfacet
  facet normal 0.956938 0.290291 -0
    outer loop
      vertex 78.6925 21.7068 3
      vertex 75.7581 31.38 4
      vertex 78.6925 21.7068 4
    endloop
  endfacet
  facet normal 0.956938 0.290291 0
    outer loop
      vertex 75.7581 31.38 4
      vertex 78.6925 21.7068 3
      vertex 75.7581 31.38 0
    endloop
  endfacet
  facet normal 0.956951 0.29025 6.30749e-05
    outer loop
      vertex 80.4244 15.9974 0
      vertex 78.6925 21.7068 3
      vertex 79.041 20.5578 3
    endloop
  endfacet
  facet normal 0.956939 0.290288 -0
    outer loop
      vertex 80.4244 15.9974 0
      vertex 79.041 20.5578 3
      vertex 80.4244 15.9974 4
    endloop
  endfacet
  facet normal 0.95694 0.290287 -1.3443e-05
    outer loop
      vertex 78.6925 21.7068 3
      vertex 80.4244 15.9974 0
      vertex 75.7581 31.38 0
    endloop
  endfacet
  facet normal 0.995185 0.0980164 -0
    outer loop
      vertex 81.9409 0.599999 3
      vertex 80.4244 15.9974 4
      vertex 81.9409 0.599999 4
    endloop
  endfacet
  facet normal 0.995185 0.0980164 0
    outer loop
      vertex 80.4244 15.9974 4
      vertex 81.9409 0.599999 3
      vertex 80.4244 15.9974 0
    endloop
  endfacet
  facet normal 0.995184 0.0980258 -0
    outer loop
      vertex 82 0 0
      vertex 81.9409 0.599999 3
      vertex 82 0 3
    endloop
  endfacet
  facet normal 0.995185 0.0980167 1.82305e-06
    outer loop
      vertex 81.9409 0.599999 3
      vertex 82 0 0
      vertex 80.4244 15.9974 0
    endloop
  endfacet
  facet normal 0.881923 0.471394 0
    outer loop
      vertex 75.7581 31.38 4
      vertex 68.1805 45.5568 0
      vertex 68.1805 45.5568 4
    endloop
  endfacet
  facet normal 0.881923 0.471394 0
    outer loop
      vertex 68.1805 45.5568 0
      vertex 75.7581 31.38 4
      vertex 75.7581 31.38 0
    endloop
  endfacet
  facet normal 0.634391 0.773012 -0
    outer loop
      vertex 57.9828 57.9828 0
      vertex 45.5568 68.1805 4
      vertex 57.9828 57.9828 4
    endloop
  endfacet
  facet normal 0.634391 0.773012 0
    outer loop
      vertex 45.5568 68.1805 4
      vertex 57.9828 57.9828 0
      vertex 45.5568 68.1805 0
    endloop
  endfacet
  facet normal 0.290287 0.95694 -0
    outer loop
      vertex 31.38 75.7581 0
      vertex 15.9974 80.4244 4
      vertex 31.38 75.7581 4
    endloop
  endfacet
  facet normal 0.290287 0.95694 0
    outer loop
      vertex 15.9974 80.4244 4
      vertex 31.38 75.7581 0
      vertex 15.9974 80.4244 0
    endloop
  endfacet
  facet normal 0.773012 0.634391 0
    outer loop
      vertex 68.1805 45.5568 4
      vertex 57.9828 57.9828 0
      vertex 57.9828 57.9828 4
    endloop
  endfacet
  facet normal 0.773012 0.634391 0
    outer loop
      vertex 57.9828 57.9828 0
      vertex 68.1805 45.5568 4
      vertex 68.1805 45.5568 0
    endloop
  endfacet
  facet normal 0.0980167 0.995185 -0
    outer loop
      vertex 15.9974 80.4244 0
      vertex 0 82 4
      vertex 15.9974 80.4244 4
    endloop
  endfacet
  facet normal 0.0980167 0.995185 0
    outer loop
      vertex 0 82 4
      vertex 15.9974 80.4244 0
      vertex 0 82 0
    endloop
  endfacet
  facet normal -0.290287 0.95694 0
    outer loop
      vertex -15.9974 80.4244 0
      vertex -31.38 75.7581 4
      vertex -15.9974 80.4244 4
    endloop
  endfacet
  facet normal -0.290287 0.95694 0
    outer loop
      vertex -31.38 75.7581 4
      vertex -15.9974 80.4244 0
      vertex -31.38 75.7581 0
    endloop
  endfacet
  facet normal 0 0 1
    outer loop
      vertex 78.6925 21.7068 4
      vertex 70.1928 23.4379 4
      vertex 70.5636 22.2966 4
    endloop
  endfacet
  facet normal 0 0 1
    outer loop
      vertex 68.1805 45.5568 4
      vertex 70.1928 23.4379 4
      vertex 75.7581 31.38 4
    endloop
  endfacet
  facet normal 0 0 1
    outer loop
      vertex 68.1805 45.5568 4
      vertex 60.6822 20.3477 4
      vertex 70.1928 23.4379 4
    endloop
  endfacet
  facet normal 0 0 1
    outer loop
      vertex 44.8994 30.0008 4
      vertex 68.1805 45.5568 4
      vertex 57.9828 57.9828 4
    endloop
  endfacet
  facet normal -0 0 1
    outer loop
      vertex 70.1928 23.4379 4
      vertex 78.6925 21.7068 4
      vertex 75.7581 31.38 4
    endloop
  endfacet
  facet normal 0 0 1
    outer loop
      vertex 70.5636 22.2966 4
      vertex 61.664 17.144 4
      vertex 78.6925 21.7068 4
    endloop
  endfacet
  facet normal 0 -0 1
    outer loop
      vertex 61.664 17.144 4
      vertex 70.5636 22.2966 4
      vertex 61.053 19.2065 4
    endloop
  endfacet
  facet normal 0 0 1
    outer loop
      vertex 81.9409 0.599999 4
      vertex 73.8672 4.47204 4
      vertex 73.93 3.27368 4
    endloop
  endfacet
  facet normal 0 0 1
    outer loop
      vertex 80.4244 15.9974 4
      vertex 73.6573 7.13839 4
      vertex 73.8672 4.47204 4
    endloop
  endfacet
  facet normal 0 0 1
    outer loop
      vertex 80.4244 15.9974 4
      vertex 73.5319 8.33182 4
      vertex 73.6573 7.13839 4
    endloop
  endfacet
  facet normal 0 0 1
    outer loop
      vertex 80.4244 15.9974 4
      vertex 73.1828 10.9835 4
      vertex 73.5319 8.33182 4
    endloop
  endfacet
  facet normal 0 0 1
    outer loop
      vertex 80.4244 15.9974 4
      vertex 72.9951 12.1688 4
      vertex 73.1828 10.9835 4
    endloop
  endfacet
  facet normal 0 0 1
    outer loop
      vertex 80.4244 15.9974 4
      vertex 72.5077 14.7986 4
      vertex 72.9951 12.1688 4
    endloop
  endfacet
  facet normal 0 0 1
    outer loop
      vertex 80.4244 15.9974 4
      vertex 72.2582 15.9724 4
      vertex 72.5077 14.7986 4
    endloop
  endfacet
  facet normal -0 0 1
    outer loop
      vertex 61.9745 15.9849 4
      vertex 72.2582 15.9724 4
      vertex 79.041 20.5578 4
    endloop
  endfacet
  facet normal 0 0 1
    outer loop
      vertex 72.2582 15.9724 4
      vertex 61.9745 15.9849 4
      vertex 62.4767 13.8932 4
    endloop
  endfacet
  facet normal 0 0 1
    outer loop
      vertex 72.2582 15.9724 4
      vertex 80.4244 15.9974 4
      vertex 79.041 20.5578 4
    endloop
  endfacet
  facet normal -0 0 1
    outer loop
      vertex 73.8672 4.47204 4
      vertex 81.9409 0.599999 4
      vertex 80.4244 15.9974 4
    endloop
  endfacet
  facet normal 0 0 1
    outer loop
      vertex 73.93 3.27368 4
      vertex 64 0.599999 4
      vertex 81.9409 0.599999 4
    endloop
  endfacet
  facet normal -0 0 1
    outer loop
      vertex 63.9437 2.75032 4
      vertex 64 0.599999 4
      vertex 73.93 3.27368 4
    endloop
  endfacet
  facet normal 0 0 1
    outer loop
      vertex 54 0 4
      vertex 64 0.599999 4
      vertex 63.9437 2.75032 4
    endloop
  endfacet
  facet normal 0 0 1
    outer loop
      vertex 54 0 4
      vertex 63.9437 2.75032 4
      vertex 63.8809 3.94868 4
    endloop
  endfacet
  facet normal 0 0 1
    outer loop
      vertex 54 0 4
      vertex 63.8809 3.94868 4
      vertex 63.7121 6.09311 4
    endloop
  endfacet
  facet normal 0 0 1
    outer loop
      vertex 52.9624 10.5349 4
      vertex 63.7121 6.09311 4
      vertex 63.5867 7.28653 4
    endloop
  endfacet
  facet normal 0 0 1
    outer loop
      vertex 52.9624 10.5349 4
      vertex 63.5867 7.28653 4
      vertex 63.3059 9.41919 4
    endloop
  endfacet
  facet normal -0 0 1
    outer loop
      vertex 52.9624 10.5349 4
      vertex 63.3059 9.41919 4
      vertex 63.1182 10.6044 4
    endloop
  endfacet
  facet normal 0 0 1
    outer loop
      vertex 52.9624 10.5349 4
      vertex 63.1182 10.6044 4
      vertex 62.7262 12.7195 4
    endloop
  endfacet
  facet normal 0 0 1
    outer loop
      vertex 52.9624 10.5349 4
      vertex 62.7262 12.7195 4
      vertex 62.4767 13.8932 4
    endloop
  endfacet
  facet normal 0 0 1
    outer loop
      vertex 52.9624 10.5349 4
      vertex 62.4767 13.8932 4
      vertex 61.9745 15.9849 4
    endloop
  endfacet
  facet normal 0 0 1
    outer loop
      vertex 52.9624 10.5349 4
      vertex 61.9745 15.9849 4
      vertex 61.664 17.144 4
    endloop
  endfacet
  facet normal 0 0 1
    outer loop
      vertex 52.9624 10.5349 4
      vertex 61.664 17.144 4
      vertex 61.053 19.2065 4
    endloop
  endfacet
  facet normal 0 0 1
    outer loop
      vertex 49.8895 20.6649 4
      vertex 61.053 19.2065 4
      vertex 60.6822 20.3477 4
    endloop
  endfacet
  facet normal 0 0 1
    outer loop
      vertex 63.7121 6.09311 4
      vertex 52.9624 10.5349 4
      vertex 54 0 4
    endloop
  endfacet
  facet normal 0 0 1
    outer loop
      vertex 68.1805 45.5568 4
      vertex 44.8994 30.0008 4
      vertex 60.6822 20.3477 4
    endloop
  endfacet
  facet normal 0 0 1
    outer loop
      vertex 64 0.599999 4
      vertex 54 0 4
      vertex 64 0 4
    endloop
  endfacet
  facet normal 0 0 1
    outer loop
      vertex 61.053 19.2065 4
      vertex 49.8895 20.6649 4
      vertex 52.9624 10.5349 4
    endloop
  endfacet
  facet normal 0 0 1
    outer loop
      vertex 38.1838 38.1838 4
      vertex 57.9828 57.9828 4
      vertex 45.5568 68.1805 4
    endloop
  endfacet
  facet normal 0 0 1
    outer loop
      vertex 60.6822 20.3477 4
      vertex 44.8994 30.0008 4
      vertex 49.8895 20.6649 4
    endloop
  endfacet
  facet normal 0 0 1
    outer loop
      vertex 57.9828 57.9828 4
      vertex 38.1838 38.1838 4
      vertex 44.8994 30.0008 4
    endloop
  endfacet
  facet normal 0 0 1
    outer loop
      vertex 30.0008 44.8994 4
      vertex 45.5568 68.1805 4
      vertex 31.38 75.7581 4
    endloop
  endfacet
  facet normal 0 0 1
    outer loop
      vertex 45.5568 68.1805 4
      vertex 30.0008 44.8994 4
      vertex 38.1838 38.1838 4
    endloop
  endfacet
  facet normal 0 0 1
    outer loop
      vertex 31.38 75.7581 4
      vertex 20.6649 49.8895 4
      vertex 30.0008 44.8994 4
    endloop
  endfacet
  facet normal 0 0 1
    outer loop
      vertex 15.9974 80.4244 4
      vertex 20.6649 49.8895 4
      vertex 31.38 75.7581 4
    endloop
  endfacet
  facet normal 0 0 1
    outer loop
      vertex 15.9974 80.4244 4
      vertex 10.5349 52.9624 4
      vertex 20.6649 49.8895 4
    endloop
  endfacet
  facet normal 0 0 1
    outer loop
      vertex 0 82 4
      vertex 10.5349 52.9624 4
      vertex 15.9974 80.4244 4
    endloop
  endfacet
  facet normal 0 0 1
    outer loop
      vertex 0 82 4
      vertex 0 54 4
      vertex 10.5349 52.9624 4
    endloop
  endfacet
  facet normal 0 0 1
    outer loop
      vertex 0 82 4
      vertex -10.5349 52.9624 4
      vertex 0 54 4
    endloop
  endfacet
  facet normal -0 0 1
    outer loop
      vertex -15.9974 80.4244 4
      vertex -10.5349 52.9624 4
      vertex 0 82 4
    endloop
  endfacet
  facet normal 0 0 1
    outer loop
      vertex -15.9974 80.4244 4
      vertex -20.6649 49.8895 4
      vertex -10.5349 52.9624 4
    endloop
  endfacet
  facet normal -0 0 1
    outer loop
      vertex -31.38 75.7581 4
      vertex -20.6649 49.8895 4
      vertex -15.9974 80.4244 4
    endloop
  endfacet
  facet normal 0 0 1
    outer loop
      vertex -20.6649 49.8895 4
      vertex -31.38 75.7581 4
      vertex -30.0008 44.8994 4
    endloop
  endfacet
  facet normal -0 0 1
    outer loop
      vertex -45.5568 68.1805 4
      vertex -30.0008 44.8994 4
      vertex -31.38 75.7581 4
    endloop
  endfacet
  facet normal 0 0 1
    outer loop
      vertex -30.0008 44.8994 4
      vertex -45.5568 68.1805 4
      vertex -38.1838 38.1838 4
    endloop
  endfacet
  facet normal -0 0 1
    outer loop
      vertex -57.9828 57.9828 4
      vertex -38.1838 38.1838 4
      vertex -45.5568 68.1805 4
    endloop
  endfacet
  facet normal 0 0 1
    outer loop
      vertex -38.1838 38.1838 4
      vertex -57.9828 57.9828 4
      vertex -44.8994 30.0008 4
    endloop
  endfacet
  facet normal -0 0 1
    outer loop
      vertex -68.1805 45.5568 4
      vertex -44.8994 30.0008 4
      vertex -57.9828 57.9828 4
    endloop
  endfacet
  facet normal 0 0 1
    outer loop
      vertex -44.8994 30.0008 4
      vertex -68.1805 45.5568 4
      vertex -49.8895 20.6649 4
    endloop
  endfacet
  facet normal -0 0 1
    outer loop
      vertex -75.7581 31.38 4
      vertex -49.8895 20.6649 4
      vertex -68.1805 45.5568 4
    endloop
  endfacet
  facet normal 0 0 1
    outer loop
      vertex -49.8895 20.6649 4
      vertex -75.7581 31.38 4
      vertex -52.9624 10.5349 4
    endloop
  endfacet
  facet normal -0 0 1
    outer loop
      vertex -80.4244 15.9974 4
      vertex -52.9624 10.5349 4
      vertex -75.7581 31.38 4
    endloop
  endfacet
  facet normal 0 0 1
    outer loop
      vertex -52.9624 10.5349 4
      vertex -80.4244 15.9974 4
      vertex -54 0 4
    endloop
  endfacet
  facet normal 0 0 1
    outer loop
      vertex -54 0 4
      vertex -80.4244 15.9974 4
      vertex -82 0 4
    endloop
  endfacet
  facet normal 0 0 1
    outer loop
      vertex 73.6573 7.13839 4
      vertex 63.8809 3.94868 4
      vertex 73.8672 4.47204 4
    endloop
  endfacet
  facet normal 0 -0 1
    outer loop
      vertex 63.8809 3.94868 4
      vertex 73.6573 7.13839 4
      vertex 63.7121 6.09311 4
    endloop
  endfacet
  facet normal 0 0 1
    outer loop
      vertex 73.1828 10.9835 4
      vertex 63.5867 7.28653 4
      vertex 73.5319 8.33182 4
    endloop
  endfacet
  facet normal 0 -0 1
    outer loop
      vertex 63.5867 7.28653 4
      vertex 73.1828 10.9835 4
      vertex 63.3059 9.41919 4
    endloop
  endfacet
  facet normal 0 0 1
    outer loop
      vertex 72.5077 14.7986 4
      vertex 63.1182 10.6044 4
      vertex 72.9951 12.1688 4
    endloop
  endfacet
  facet normal 0 -0 1
    outer loop
      vertex 63.1182 10.6044 4
      vertex 72.5077 14.7986 4
      vertex 62.7262 12.7195 4
    endloop
  endfacet
  facet normal 0.471394 0.881923 -0
    outer loop
      vertex 45.5568 68.1805 0
      vertex 31.38 75.7581 4
      vertex 45.5568 68.1805 4
    endloop
  endfacet
  facet normal 0.471394 0.881923 0
    outer loop
      vertex 31.38 75.7581 4
      vertex 45.5568 68.1805 0
      vertex 31.38 75.7581 0
    endloop
  endfacet
  facet normal -0.995185 0.0980167 0
    outer loop
      vertex -82 0 0
      vertex -80.4244 15.9974 4
      vertex -80.4244 15.9974 0
    endloop
  endfacet
  facet normal -0.995185 0.0980167 0
    outer loop
      vertex -80.4244 15.9974 4
      vertex -82 0 0
      vertex -82 0 4
    endloop
  endfacet
  facet normal 0 0 -1
    outer loop
      vertex 52.9624 10.5349 0
      vertex 80.4244 15.9974 0
      vertex 82 0 0
    endloop
  endfacet
  facet normal -0 0 -1
    outer loop
      vertex 80.4244 15.9974 0
      vertex 52.9624 10.5349 0
      vertex 75.7581 31.38 0
    endloop
  endfacet
  facet normal -0 0 -1
    outer loop
      vertex 75.7581 31.38 0
      vertex 49.8895 20.6649 0
      vertex 68.1805 45.5568 0
    endloop
  endfacet
  facet normal 0 0 -1
    outer loop
      vertex 52.9624 10.5349 0
      vertex 82 0 0
      vertex 54 0 0
    endloop
  endfacet
  facet normal 0 0 -1
    outer loop
      vertex 75.7581 31.38 0
      vertex 52.9624 10.5349 0
      vertex 49.8895 20.6649 0
    endloop
  endfacet
  facet normal 0 0 -1
    outer loop
      vertex 44.8994 30.0008 0
      vertex 68.1805 45.5568 0
      vertex 49.8895 20.6649 0
    endloop
  endfacet
  facet normal -0 0 -1
    outer loop
      vertex 68.1805 45.5568 0
      vertex 44.8994 30.0008 0
      vertex 57.9828 57.9828 0
    endloop
  endfacet
  facet normal 0 0 -1
    outer loop
      vertex 38.1838 38.1838 0
      vertex 57.9828 57.9828 0
      vertex 44.8994 30.0008 0
    endloop
  endfacet
  facet normal -0 0 -1
    outer loop
      vertex 57.9828 57.9828 0
      vertex 38.1838 38.1838 0
      vertex 45.5568 68.1805 0
    endloop
  endfacet
  facet normal 0 0 -1
    outer loop
      vertex 30.0008 44.8994 0
      vertex 45.5568 68.1805 0
      vertex 38.1838 38.1838 0
    endloop
  endfacet
  facet normal -0 0 -1
    outer loop
      vertex 45.5568 68.1805 0
      vertex 30.0008 44.8994 0
      vertex 31.38 75.7581 0
    endloop
  endfacet
  facet normal 0 0 -1
    outer loop
      vertex 20.6649 49.8895 0
      vertex 31.38 75.7581 0
      vertex 30.0008 44.8994 0
    endloop
  endfacet
  facet normal 0 0 -1
    outer loop
      vertex 20.6649 49.8895 0
      vertex 15.9974 80.4244 0
      vertex 31.38 75.7581 0
    endloop
  endfacet
  facet normal 0 0 -1
    outer loop
      vertex 10.5349 52.9624 0
      vertex 15.9974 80.4244 0
      vertex 20.6649 49.8895 0
    endloop
  endfacet
  facet normal 0 0 -1
    outer loop
      vertex 0 54 0
      vertex 15.9974 80.4244 0
      vertex 10.5349 52.9624 0
    endloop
  endfacet
  facet normal 0 0 -1
    outer loop
      vertex 0 54 0
      vertex 0 82 0
      vertex 15.9974 80.4244 0
    endloop
  endfacet
  facet normal 0 0 -1
    outer loop
      vertex -10.5349 52.9624 0
      vertex 0 82 0
      vertex 0 54 0
    endloop
  endfacet
  facet normal 0 0 -1
    outer loop
      vertex -10.5349 52.9624 0
      vertex -15.9974 80.4244 0
      vertex 0 82 0
    endloop
  endfacet
  facet normal 0 0 -1
    outer loop
      vertex -20.6649 49.8895 0
      vertex -15.9974 80.4244 0
      vertex -10.5349 52.9624 0
    endloop
  endfacet
  facet normal 0 0 -1
    outer loop
      vertex -31.38 75.7581 0
      vertex -20.6649 49.8895 0
      vertex -30.0008 44.8994 0
    endloop
  endfacet
  facet normal 0 0 -1
    outer loop
      vertex -20.6649 49.8895 0
      vertex -31.38 75.7581 0
      vertex -15.9974 80.4244 0
    endloop
  endfacet
  facet normal 0 0 -1
    outer loop
      vertex -45.5568 68.1805 0
      vertex -30.0008 44.8994 0
      vertex -38.1838 38.1838 0
    endloop
  endfacet
  facet normal 0 0 -1
    outer loop
      vertex -57.9828 57.9828 0
      vertex -38.1838 38.1838 0
      vertex -44.8994 30.0008 0
    endloop
  endfacet
  facet normal 0 0 -1
    outer loop
      vertex -30.0008 44.8994 0
      vertex -45.5568 68.1805 0
      vertex -31.38 75.7581 0
    endloop
  endfacet
  facet normal 0 0 -1
    outer loop
      vertex -68.1805 45.5568 0
      vertex -44.8994 30.0008 0
      vertex -49.8895 20.6649 0
    endloop
  endfacet
  facet normal 0 0 -1
    outer loop
      vertex -75.7581 31.38 0
      vertex -49.8895 20.6649 0
      vertex -52.9624 10.5349 0
    endloop
  endfacet
  facet normal 0 0 -1
    outer loop
      vertex -38.1838 38.1838 0
      vertex -57.9828 57.9828 0
      vertex -45.5568 68.1805 0
    endloop
  endfacet
  facet normal 0 0 -1
    outer loop
      vertex -80.4244 15.9974 0
      vertex -52.9624 10.5349 0
      vertex -54 0 0
    endloop
  endfacet
  facet normal 0 0 -1
    outer loop
      vertex -44.8994 30.0008 0
      vertex -68.1805 45.5568 0
      vertex -57.9828 57.9828 0
    endloop
  endfacet
  facet normal 0 0 -1
    outer loop
      vertex -49.8895 20.6649 0
      vertex -75.7581 31.38 0
      vertex -68.1805 45.5568 0
    endloop
  endfacet
  facet normal 0 0 -1
    outer loop
      vertex -52.9624 10.5349 0
      vertex -80.4244 15.9974 0
      vertex -75.7581 31.38 0
    endloop
  endfacet
  facet normal 0 -0 -1
    outer loop
      vertex -80.4244 15.9974 0
      vertex -54 0 0
      vertex -82 0 0
    endloop
  endfacet
  facet normal -0.634391 0.773012 0
    outer loop
      vertex -45.5568 68.1805 0
      vertex -57.9828 57.9828 4
      vertex -45.5568 68.1805 4
    endloop
  endfacet
  facet normal -0.634391 0.773012 0
    outer loop
      vertex -57.9828 57.9828 4
      vertex -45.5568 68.1805 0
      vertex -57.9828 57.9828 0
    endloop
  endfacet
  facet normal -0.471394 0.881923 0
    outer loop
      vertex -31.38 75.7581 0
      vertex -45.5568 68.1805 4
      vertex -31.38 75.7581 4
    endloop
  endfacet
  facet normal -0.471394 0.881923 0
    outer loop
      vertex -45.5568 68.1805 4
      vertex -31.38 75.7581 0
      vertex -45.5568 68.1805 0
    endloop
  endfacet
  facet normal -0.95694 0.290287 0
    outer loop
      vertex -80.4244 15.9974 0
      vertex -75.7581 31.38 4
      vertex -75.7581 31.38 0
    endloop
  endfacet
  facet normal -0.95694 0.290287 0
    outer loop
      vertex -75.7581 31.38 4
      vertex -80.4244 15.9974 0
      vertex -80.4244 15.9974 4
    endloop
  endfacet
  facet normal -0.0980167 0.995185 0
    outer loop
      vertex 0 82 0
      vertex -15.9974 80.4244 4
      vertex 0 82 4
    endloop
  endfacet
  facet normal -0.0980167 0.995185 0
    outer loop
      vertex -15.9974 80.4244 4
      vertex 0 82 0
      vertex -15.9974 80.4244 0
    endloop
  endfacet
  facet normal -0.773012 0.634391 0
    outer loop
      vertex -68.1805 45.5568 0
      vertex -57.9828 57.9828 4
      vertex -57.9828 57.9828 0
    endloop
  endfacet
  facet normal -0.773012 0.634391 0
    outer loop
      vertex -57.9828 57.9828 4
      vertex -68.1805 45.5568 0
      vertex -68.1805 45.5568 4
    endloop
  endfacet
  facet normal 0.965931 -0.258799 0
    outer loop
      vertex 86.5451 -24.7426 8
      vertex 87.3215 -21.8448 7
      vertex 87.3215 -21.8448 8
    endloop
  endfacet
  facet normal 0.965931 -0.258799 0
    outer loop
      vertex 87.3215 -21.8448 7
      vertex 86.5451 -24.7426 8
      vertex 86.5451 -24.7426 7
    endloop
  endfacet
  facet normal 0 0 1
    outer loop
      vertex 46.7527 -10.9744 8
      vertex 86.5451 -24.7426 8
      vertex 87.3215 -21.8448 8
    endloop
  endfacet
  facet normal 0 0 1
    outer loop
      vertex 86.5451 -24.7426 8
      vertex 46.7527 -10.9744 8
      vertex 45.9762 -13.8722 8
    endloop
  endfacet
  facet normal -0.965923 0.25883 0
    outer loop
      vertex 45.9762 -13.8722 7
      vertex 46.7527 -10.9744 8
      vertex 46.7527 -10.9744 7
    endloop
  endfacet
  facet normal -0.965923 0.25883 0
    outer loop
      vertex 46.7527 -10.9744 8
      vertex 45.9762 -13.8722 7
      vertex 45.9762 -13.8722 8
    endloop
  endfacet
  facet normal 0.25882 0.965926 -0
    outer loop
      vertex 87.3215 -21.8448 7
      vertex 46.7527 -10.9744 8
      vertex 87.3215 -21.8448 8
    endloop
  endfacet
  facet normal 0.25882 0.965926 0
    outer loop
      vertex 46.7527 -10.9744 8
      vertex 87.3215 -21.8448 7
      vertex 46.7527 -10.9744 7
    endloop
  endfacet
  facet normal -0.258819 -0.965926 0
    outer loop
      vertex 45.9762 -13.8722 7
      vertex 86.5451 -24.7426 8
      vertex 45.9762 -13.8722 8
    endloop
  endfacet
  facet normal -0.258819 -0.965926 -0
    outer loop
      vertex 86.5451 -24.7426 8
      vertex 45.9762 -13.8722 7
      vertex 86.5451 -24.7426 7
    endloop
  endfacet
  facet normal 0 0 1
    outer loop
      vertex 86.5451 24.7426 8
      vertex 46.7527 10.9744 8
      vertex 87.3215 21.8448 8
    endloop
  endfacet
  facet normal 0 -0 1
    outer loop
      vertex 46.7527 10.9744 8
      vertex 86.5451 24.7426 8
      vertex 45.9762 13.8722 8
    endloop
  endfacet
  facet normal -0.965923 -0.25883 0
    outer loop
      vertex 46.7527 10.9744 7
      vertex 45.9762 13.8722 8
      vertex 45.9762 13.8722 7
    endloop
  endfacet
  facet normal -0.965923 -0.25883 0
    outer loop
      vertex 45.9762 13.8722 8
      vertex 46.7527 10.9744 7
      vertex 46.7527 10.9744 8
    endloop
  endfacet
  facet normal -0.258819 0.965926 3.36581e-05
    outer loop
      vertex 86.5451 24.7426 8
      vertex 51.501 15.3526 7
      vertex 45.9762 13.8722 8
    endloop
  endfacet
  facet normal -0.258818 0.965926 0
    outer loop
      vertex 86.5451 24.7426 5
      vertex 51.501 15.3526 7
      vertex 86.5451 24.7426 8
    endloop
  endfacet
  facet normal -0.258818 0.965926 0
    outer loop
      vertex 51.501 15.3526 7
      vertex 86.5451 24.7426 5
      vertex 51.501 15.3526 5
    endloop
  endfacet
  facet normal -0.258825 0.965924 0
    outer loop
      vertex 45.9762 13.8722 8
      vertex 51.501 15.3526 7
      vertex 45.9762 13.8722 7
    endloop
  endfacet
  facet normal 0.258824 -0.965924 0
    outer loop
      vertex 52.3723 12.4802 7
      vertex 46.7527 10.9744 8
      vertex 46.7527 10.9744 7
    endloop
  endfacet
  facet normal 0.25882 -0.965926 -2.85524e-05
    outer loop
      vertex 46.7527 10.9744 8
      vertex 52.3723 12.4802 7
      vertex 87.3215 21.8448 8
    endloop
  endfacet
  facet normal 0.258819 -0.965926 0
    outer loop
      vertex 87.3215 21.8448 5
      vertex 52.3723 12.4802 7
      vertex 52.3723 12.4802 5
    endloop
  endfacet
  facet normal 0.258819 -0.965926 0
    outer loop
      vertex 52.3723 12.4802 7
      vertex 87.3215 21.8448 5
      vertex 87.3215 21.8448 8
    endloop
  endfacet
  facet normal 0.965931 0.258799 0
    outer loop
      vertex 87.3215 21.8448 8
      vertex 86.5451 24.7426 5
      vertex 86.5451 24.7426 8
    endloop
  endfacet
  facet normal 0.965931 0.258799 0
    outer loop
      vertex 86.5451 24.7426 5
      vertex 87.3215 21.8448 8
      vertex 87.3215 21.8448 5
    endloop
  endfacet
  facet normal 0.471394 -0.881923 0
    outer loop
      vertex -30.0008 44.8994 0
      vertex -20.6649 49.8895 4
      vertex -30.0008 44.8994 4
    endloop
  endfacet
  facet normal 0.471394 -0.881923 0
    outer loop
      vertex -20.6649 49.8895 4
      vertex -30.0008 44.8994 0
      vertex -20.6649 49.8895 0
    endloop
  endfacet
  facet normal -0.956943 -0.290275 0
    outer loop
      vertex 52.3723 12.4802 5
      vertex 51.501 15.3526 7
      vertex 51.501 15.3526 5
    endloop
  endfacet
  facet normal -0.956943 -0.290275 0
    outer loop
      vertex 51.501 15.3526 7
      vertex 52.3723 12.4802 5
      vertex 52.3723 12.4802 7
    endloop
  endfacet
  facet normal -0.95694 -0.290285 0
    outer loop
      vertex 52.9624 10.5349 0
      vertex 49.8895 20.6649 4
      vertex 49.8895 20.6649 0
    endloop
  endfacet
  facet normal -0.95694 -0.290285 0
    outer loop
      vertex 49.8895 20.6649 4
      vertex 52.9624 10.5349 0
      vertex 52.9624 10.5349 4
    endloop
  endfacet
  facet normal -0.995185 -0.0980174 0
    outer loop
      vertex 54 0 0
      vertex 52.9624 10.5349 4
      vertex 52.9624 10.5349 0
    endloop
  endfacet
  facet normal -0.995185 -0.0980174 0
    outer loop
      vertex 52.9624 10.5349 4
      vertex 54 0 0
      vertex 54 0 4
    endloop
  endfacet
  facet normal -0.881923 -0.471394 0
    outer loop
      vertex 49.8895 20.6649 0
      vertex 44.8994 30.0008 4
      vertex 44.8994 30.0008 0
    endloop
  endfacet
  facet normal -0.881923 -0.471394 0
    outer loop
      vertex 44.8994 30.0008 4
      vertex 49.8895 20.6649 0
      vertex 49.8895 20.6649 4
    endloop
  endfacet
  facet normal 0.881923 -0.471394 0
    outer loop
      vertex -49.8895 20.6649 4
      vertex -44.8994 30.0008 0
      vertex -44.8994 30.0008 4
    endloop
  endfacet
  facet normal 0.881923 -0.471394 0
    outer loop
      vertex -44.8994 30.0008 0
      vertex -49.8895 20.6649 4
      vertex -49.8895 20.6649 0
    endloop
  endfacet
  facet normal -0.471394 -0.881923 0
    outer loop
      vertex 20.6649 49.8895 0
      vertex 30.0008 44.8994 4
      vertex 20.6649 49.8895 4
    endloop
  endfacet
  facet normal -0.471394 -0.881923 -0
    outer loop
      vertex 30.0008 44.8994 4
      vertex 20.6649 49.8895 0
      vertex 30.0008 44.8994 0
    endloop
  endfacet
  facet normal -0.0980174 -0.995185 0
    outer loop
      vertex 0 54 0
      vertex 10.5349 52.9624 4
      vertex 0 54 4
    endloop
  endfacet
  facet normal -0.0980174 -0.995185 -0
    outer loop
      vertex 10.5349 52.9624 4
      vertex 0 54 0
      vertex 10.5349 52.9624 0
    endloop
  endfacet
  facet normal -0.634392 -0.773011 0
    outer loop
      vertex 30.0008 44.8994 0
      vertex 38.1838 38.1838 4
      vertex 30.0008 44.8994 4
    endloop
  endfacet
  facet normal -0.634392 -0.773011 -0
    outer loop
      vertex 38.1838 38.1838 4
      vertex 30.0008 44.8994 0
      vertex 38.1838 38.1838 0
    endloop
  endfacet
  facet normal 0 0 -1
    outer loop
      vertex 86.5451 -24.7426 7
      vertex 46.7527 -10.9744 7
      vertex 87.3215 -21.8448 7
    endloop
  endfacet
  facet normal 0 -0 -1
    outer loop
      vertex 46.7527 -10.9744 7
      vertex 86.5451 -24.7426 7
      vertex 45.9762 -13.8722 7
    endloop
  endfacet
  facet normal 0 0 -1
    outer loop
      vertex 46.7527 10.9744 7
      vertex 51.501 15.3526 7
      vertex 52.3723 12.4802 7
    endloop
  endfacet
  facet normal 0 0 -1
    outer loop
      vertex 51.501 15.3526 7
      vertex 46.7527 10.9744 7
      vertex 45.9762 13.8722 7
    endloop
  endfacet
  facet normal -0.773011 -0.634392 0
    outer loop
      vertex 44.8994 30.0008 0
      vertex 38.1838 38.1838 4
      vertex 38.1838 38.1838 0
    endloop
  endfacet
  facet normal -0.773011 -0.634392 0
    outer loop
      vertex 38.1838 38.1838 4
      vertex 44.8994 30.0008 0
      vertex 44.8994 30.0008 4
    endloop
  endfacet
  facet normal 0.995185 -0.0980174 0
    outer loop
      vertex -54 0 4
      vertex -52.9624 10.5349 0
      vertex -52.9624 10.5349 4
    endloop
  endfacet
  facet normal 0.995185 -0.0980174 0
    outer loop
      vertex -52.9624 10.5349 0
      vertex -54 0 4
      vertex -54 0 0
    endloop
  endfacet
  facet normal 0.773011 -0.634392 0
    outer loop
      vertex -44.8994 30.0008 4
      vertex -38.1838 38.1838 0
      vertex -38.1838 38.1838 4
    endloop
  endfacet
  facet normal 0.773011 -0.634392 0
    outer loop
      vertex -38.1838 38.1838 0
      vertex -44.8994 30.0008 4
      vertex -44.8994 30.0008 0
    endloop
  endfacet
  facet normal -0.290285 -0.95694 0
    outer loop
      vertex 10.5349 52.9624 0
      vertex 20.6649 49.8895 4
      vertex 10.5349 52.9624 4
    endloop
  endfacet
  facet normal -0.290285 -0.95694 -0
    outer loop
      vertex 20.6649 49.8895 4
      vertex 10.5349 52.9624 0
      vertex 20.6649 49.8895 0
    endloop
  endfacet
  facet normal 0.634392 -0.773011 0
    outer loop
      vertex -38.1838 38.1838 0
      vertex -30.0008 44.8994 4
      vertex -38.1838 38.1838 4
    endloop
  endfacet
  facet normal 0.634392 -0.773011 0
    outer loop
      vertex -30.0008 44.8994 4
      vertex -38.1838 38.1838 0
      vertex -30.0008 44.8994 0
    endloop
  endfacet
  facet normal 0.0980174 -0.995185 0
    outer loop
      vertex -10.5349 52.9624 0
      vertex 0 54 4
      vertex -10.5349 52.9624 4
    endloop
  endfacet
  facet normal 0.0980174 -0.995185 0
    outer loop
      vertex 0 54 4
      vertex -10.5349 52.9624 0
      vertex 0 54 0
    endloop
  endfacet
  facet normal 0.290285 -0.95694 0
    outer loop
      vertex -20.6649 49.8895 0
      vertex -10.5349 52.9624 4
      vertex -20.6649 49.8895 4
    endloop
  endfacet
  facet normal 0.290285 -0.95694 0
    outer loop
      vertex -10.5349 52.9624 4
      vertex -20.6649 49.8895 0
      vertex -10.5349 52.9624 0
    endloop
  endfacet
  facet normal 0.95694 -0.290285 0
    outer loop
      vertex -52.9624 10.5349 4
      vertex -49.8895 20.6649 0
      vertex -49.8895 20.6649 4
    endloop
  endfacet
  facet normal 0.95694 -0.290285 0
    outer loop
      vertex -49.8895 20.6649 0
      vertex -52.9624 10.5349 4
      vertex -52.9624 10.5349 0
    endloop
  endfacet
  facet normal 0 -1 0
    outer loop
      vertex 54 0 0
      vertex 64 0 4
      vertex 54 0 4
    endloop
  endfacet
  facet normal 0 -1 0
    outer loop
      vertex 82 0 0
      vertex 64 0 4
      vertex 54 0 0
    endloop
  endfacet
  facet normal 0 -1 0
    outer loop
      vertex 64 0 4
      vertex 82 0 0
      vertex 82 0 3
    endloop
  endfacet
  facet normal 0 -1 0
    outer loop
      vertex 64 0 4
      vertex 82 0 5
      vertex 64 0 5
    endloop
  endfacet
  facet normal 0 -1 -0
    outer loop
      vertex 82 0 5
      vertex 64 0 4
      vertex 82 0 3
    endloop
  endfacet
  facet normal 0 -1 0
    outer loop
      vertex -82 0 0
      vertex -54 0 4
      vertex -82 0 4
    endloop
  endfacet
  facet normal 0 -1 -0
    outer loop
      vertex -54 0 4
      vertex -82 0 0
      vertex -54 0 0
    endloop
  endfacet
endsolid OpenSCAD_Model
