solid OpenSCAD_Model
  facet normal 1 -0 0
    outer loop
      vertex 56 46.9 28.5
      vertex 56 48 27.5
      vertex 56 48 28.5
    endloop
  endfacet
  facet normal 1 0 0
    outer loop
      vertex 56 48 27.5
      vertex 56 46.9 28.5
      vertex 56 46.9 27.5
    endloop
  endfacet
  facet normal -0 0 1
    outer loop
      vertex -56 48 28.5
      vertex -1.1 46.9 28.5
      vertex -1.1 48 28.5
    endloop
  endfacet
  facet normal 0 0 1
    outer loop
      vertex -1.1 46.9 28.5
      vertex -56 48 28.5
      vertex -56 46.9 28.5
    endloop
  endfacet
  facet normal 0 0 1
    outer loop
      vertex -1.1 48 28.5
      vertex 0 48 28.5
      vertex 0 84 28.5
    endloop
  endfacet
  facet normal 0 0 1
    outer loop
      vertex 0 48 28.5
      vertex -1.1 48 28.5
      vertex 0 46.9 28.5
    endloop
  endfacet
  facet normal 0 0 1
    outer loop
      vertex -1.1 48 28.5
      vertex 0 84 28.5
      vertex -1.1 84 28.5
    endloop
  endfacet
  facet normal 0 0 1
    outer loop
      vertex -1.1 46.9 28.5
      vertex 0 46.9 28.5
      vertex -1.1 48 28.5
    endloop
  endfacet
  facet normal 0 0 1
    outer loop
      vertex 0 46.9 28.5
      vertex -1.1 46.9 28.5
      vertex 0 3 28.5
    endloop
  endfacet
  facet normal 0 0 1
    outer loop
      vertex 0 3 28.5
      vertex -1.1 46.9 28.5
      vertex -1.1 3 28.5
    endloop
  endfacet
  facet normal -0 0 1
    outer loop
      vertex 0 48 28.5
      vertex 56 46.9 28.5
      vertex 56 48 28.5
    endloop
  endfacet
  facet normal 0 0 1
    outer loop
      vertex 56 46.9 28.5
      vertex 0 48 28.5
      vertex 0 46.9 28.5
    endloop
  endfacet
  facet normal -0 0 1
    outer loop
      vertex -1.1 93 28.5
      vertex 0 88 28.5
      vertex 0 93 28.5
    endloop
  endfacet
  facet normal 0 0 1
    outer loop
      vertex 0 88 28.5
      vertex -1.1 93 28.5
      vertex -1.1 88 28.5
    endloop
  endfacet
  facet normal 0 0 -1
    outer loop
      vertex -56 46.9 27.5
      vertex -1.1 48 27.5
      vertex -1.1 46.9 27.5
    endloop
  endfacet
  facet normal -0 0 -1
    outer loop
      vertex -1.1 48 27.5
      vertex -56 46.9 27.5
      vertex -56 48 27.5
    endloop
  endfacet
  facet normal 0 0 -1
    outer loop
      vertex -1.1 46.9 27.5
      vertex 0 46.9 27.5
      vertex 0 3 27.5
    endloop
  endfacet
  facet normal 0 0 -1
    outer loop
      vertex 0 46.9 27.5
      vertex -1.1 46.9 27.5
      vertex 0 48 27.5
    endloop
  endfacet
  facet normal 0 0 -1
    outer loop
      vertex -1.1 46.9 27.5
      vertex 0 3 27.5
      vertex -1.1 3 27.5
    endloop
  endfacet
  facet normal 0 0 -1
    outer loop
      vertex -1.1 48 27.5
      vertex 0 48 27.5
      vertex -1.1 46.9 27.5
    endloop
  endfacet
  facet normal 0 0 -1
    outer loop
      vertex 0 48 27.5
      vertex -1.1 48 27.5
      vertex 0 84 27.5
    endloop
  endfacet
  facet normal -0 0 -1
    outer loop
      vertex 0 84 27.5
      vertex -1.1 48 27.5
      vertex -1.1 84 27.5
    endloop
  endfacet
  facet normal 0 0 -1
    outer loop
      vertex 0 46.9 27.5
      vertex 56 48 27.5
      vertex 56 46.9 27.5
    endloop
  endfacet
  facet normal -0 0 -1
    outer loop
      vertex 56 48 27.5
      vertex 0 46.9 27.5
      vertex 0 48 27.5
    endloop
  endfacet
  facet normal 0 0 -1
    outer loop
      vertex -1.1 88 27.5
      vertex 0 93 27.5
      vertex 0 88 27.5
    endloop
  endfacet
  facet normal -0 0 -1
    outer loop
      vertex 0 93 27.5
      vertex -1.1 88 27.5
      vertex -1.1 93 27.5
    endloop
  endfacet
  facet normal -1 0 0
    outer loop
      vertex -56 46.9 27.5
      vertex -56 48 28.5
      vertex -56 48 27.5
    endloop
  endfacet
  facet normal -1 -0 0
    outer loop
      vertex -56 48 28.5
      vertex -56 46.9 27.5
      vertex -56 46.9 28.5
    endloop
  endfacet
  facet normal 0 1 -0
    outer loop
      vertex -1.1 48 27.5
      vertex -56 48 28.5
      vertex -1.1 48 28.5
    endloop
  endfacet
  facet normal 0 1 0
    outer loop
      vertex -56 48 28.5
      vertex -1.1 48 27.5
      vertex -56 48 27.5
    endloop
  endfacet
  facet normal 0 1 -0
    outer loop
      vertex 56 48 27.5
      vertex 0 48 28.5
      vertex 56 48 28.5
    endloop
  endfacet
  facet normal 0 1 0
    outer loop
      vertex 0 48 28.5
      vertex 56 48 27.5
      vertex 0 48 27.5
    endloop
  endfacet
  facet normal 0 -1 0
    outer loop
      vertex -56 46.9 27.5
      vertex -1.1 46.9 28.5
      vertex -56 46.9 28.5
    endloop
  endfacet
  facet normal 0 -1 -0
    outer loop
      vertex -1.1 46.9 28.5
      vertex -56 46.9 27.5
      vertex -1.1 46.9 27.5
    endloop
  endfacet
  facet normal 0 -1 0
    outer loop
      vertex 0 46.9 27.5
      vertex 56 46.9 28.5
      vertex 0 46.9 28.5
    endloop
  endfacet
  facet normal 0 -1 -0
    outer loop
      vertex 56 46.9 28.5
      vertex 0 46.9 27.5
      vertex 56 46.9 27.5
    endloop
  endfacet
  facet normal 1 -0 0
    outer loop
      vertex 0 88 28.5
      vertex 0 93 27.5
      vertex 0 93 28.5
    endloop
  endfacet
  facet normal 1 0 0
    outer loop
      vertex 0 93 27.5
      vertex 0 88 28.5
      vertex 0 88 27.5
    endloop
  endfacet
  facet normal 1 -0 0
    outer loop
      vertex 0 48 28.5
      vertex 0 84 27.5
      vertex 0 84 28.5
    endloop
  endfacet
  facet normal 1 0 0
    outer loop
      vertex 0 84 27.5
      vertex 0 48 28.5
      vertex 0 48 27.5
    endloop
  endfacet
  facet normal 1 -0 0
    outer loop
      vertex 0 3 28.5
      vertex 0 46.9 27.5
      vertex 0 46.9 28.5
    endloop
  endfacet
  facet normal 1 0 0
    outer loop
      vertex 0 46.9 27.5
      vertex 0 3 28.5
      vertex 0 3 27.5
    endloop
  endfacet
  facet normal -1 0 0
    outer loop
      vertex -1.1 88 27.5
      vertex -1.1 93 28.5
      vertex -1.1 93 27.5
    endloop
  endfacet
  facet normal -1 -0 0
    outer loop
      vertex -1.1 93 28.5
      vertex -1.1 88 27.5
      vertex -1.1 88 28.5
    endloop
  endfacet
  facet normal -1 0 0
    outer loop
      vertex -1.1 48 27.5
      vertex -1.1 84 28.5
      vertex -1.1 84 27.5
    endloop
  endfacet
  facet normal -1 -0 0
    outer loop
      vertex -1.1 84 28.5
      vertex -1.1 48 27.5
      vertex -1.1 48 28.5
    endloop
  endfacet
  facet normal -1 0 0
    outer loop
      vertex -1.1 3 27.5
      vertex -1.1 46.9 28.5
      vertex -1.1 46.9 27.5
    endloop
  endfacet
  facet normal -1 -0 0
    outer loop
      vertex -1.1 46.9 28.5
      vertex -1.1 3 27.5
      vertex -1.1 3 28.5
    endloop
  endfacet
  facet normal 0 1 -0
    outer loop
      vertex 0 93 27.5
      vertex -1.1 93 28.5
      vertex 0 93 28.5
    endloop
  endfacet
  facet normal 0 1 0
    outer loop
      vertex -1.1 93 28.5
      vertex 0 93 27.5
      vertex -1.1 93 27.5
    endloop
  endfacet
  facet normal 0 -1 0
    outer loop
      vertex -1.1 3 27.5
      vertex 0 3 28.5
      vertex -1.1 3 28.5
    endloop
  endfacet
  facet normal 0 -1 -0
    outer loop
      vertex 0 3 28.5
      vertex -1.1 3 27.5
      vertex 0 3 27.5
    endloop
  endfacet
  facet normal -0.956901 -0.290413 0
    outer loop
      vertex -79.7716 -4.14805 0
      vertex -79.9424 -3.58527 8
      vertex -79.9424 -3.58527 0
    endloop
  endfacet
  facet normal -0.956901 -0.290413 0
    outer loop
      vertex -79.9424 -3.58527 8
      vertex -79.7716 -4.14805 0
      vertex -79.7716 -4.14805 8
    endloop
  endfacet
  facet normal 0 1 -0
    outer loop
      vertex 68 6 0
      vertex -68 6 8
      vertex 68 6 8
    endloop
  endfacet
  facet normal 0 1 0
    outer loop
      vertex -68 6 8
      vertex 68 6 0
      vertex -68 6 0
    endloop
  endfacet
  facet normal 0.773001 -0.634405 0
    outer loop
      vertex 79.1213 -5.12132 8
      vertex 79.4944 -4.66671 0
      vertex 79.4944 -4.66671 8
    endloop
  endfacet
  facet normal 0.773001 -0.634405 0
    outer loop
      vertex 79.4944 -4.66671 0
      vertex 79.1213 -5.12132 8
      vertex 79.1213 -5.12132 0
    endloop
  endfacet
  facet normal 0.956901 -0.290413 0
    outer loop
      vertex 79.7716 -4.14805 8
      vertex 79.9424 -3.58527 0
      vertex 79.9424 -3.58527 8
    endloop
  endfacet
  facet normal 0.956901 -0.290413 0
    outer loop
      vertex 79.9424 -3.58527 0
      vertex 79.7716 -4.14805 8
      vertex 79.7716 -4.14805 0
    endloop
  endfacet
  facet normal 0.634403 -0.773003 0
    outer loop
      vertex 78.6667 -5.49441 0
      vertex 79.1213 -5.12132 8
      vertex 78.6667 -5.49441 8
    endloop
  endfacet
  facet normal 0.634403 -0.773003 0
    outer loop
      vertex 79.1213 -5.12132 8
      vertex 78.6667 -5.49441 0
      vertex 79.1213 -5.12132 0
    endloop
  endfacet
  facet normal 0.471369 -0.881936 0
    outer loop
      vertex 78.148 -5.77164 0
      vertex 78.6667 -5.49441 8
      vertex 78.148 -5.77164 8
    endloop
  endfacet
  facet normal 0.471369 -0.881936 0
    outer loop
      vertex 78.6667 -5.49441 8
      vertex 78.148 -5.77164 0
      vertex 78.6667 -5.49441 0
    endloop
  endfacet
  facet normal 1 -0 0
    outer loop
      vertex 80 -3 8
      vertex 80 99 0
      vertex 80 99 8
    endloop
  endfacet
  facet normal 1 0 0
    outer loop
      vertex 80 99 0
      vertex 80 -3 8
      vertex 80 -3 0
    endloop
  endfacet
  facet normal 0 0 1
    outer loop
      vertex 77 110 8
      vertex 80 107 8
      vertex 79.9424 107.585 8
    endloop
  endfacet
  facet normal 0 0 1
    outer loop
      vertex 80 107 8
      vertex 77 110 8
      vertex 80 101 8
    endloop
  endfacet
  facet normal 0 0 1
    outer loop
      vertex 68 98 8
      vertex 80 101 8
      vertex 77 110 8
    endloop
  endfacet
  facet normal 0 0 1
    outer loop
      vertex 77 110 8
      vertex 79.9424 107.585 8
      vertex 79.7716 108.148 8
    endloop
  endfacet
  facet normal 0 0 1
    outer loop
      vertex 79.8166 100 8
      vertex 80 99 8
      vertex 79.9424 99.5853 8
    endloop
  endfacet
  facet normal 0 0 1
    outer loop
      vertex 80 99 8
      vertex 68 6 8
      vertex 80 -3 8
    endloop
  endfacet
  facet normal 0 0 1
    outer loop
      vertex 80 99 8
      vertex 79.8166 100 8
      vertex 68 98 8
    endloop
  endfacet
  facet normal 0 -0 1
    outer loop
      vertex 79.8166 100 8
      vertex 80 101 8
      vertex 68 98 8
    endloop
  endfacet
  facet normal 0 0 1
    outer loop
      vertex 80 99 8
      vertex 68 98 8
      vertex 68 6 8
    endloop
  endfacet
  facet normal 0 0 1
    outer loop
      vertex 77 110 8
      vertex 79.7716 108.148 8
      vertex 79.4944 108.667 8
    endloop
  endfacet
  facet normal 0 -0 1
    outer loop
      vertex 77 -6 8
      vertex 80 -3 8
      vertex 68 6 8
    endloop
  endfacet
  facet normal 0 0 1
    outer loop
      vertex 77 110 8
      vertex 79.4944 108.667 8
      vertex 79.1213 109.121 8
    endloop
  endfacet
  facet normal 0 0 1
    outer loop
      vertex 80 -3 8
      vertex 77 -6 8
      vertex 79.9424 -3.58527 8
    endloop
  endfacet
  facet normal 0 0 1
    outer loop
      vertex 77 110 8
      vertex 79.1213 109.121 8
      vertex 78.6667 109.494 8
    endloop
  endfacet
  facet normal 0 0 1
    outer loop
      vertex 79.9424 -3.58527 8
      vertex 77 -6 8
      vertex 79.7716 -4.14805 8
    endloop
  endfacet
  facet normal 0 0 1
    outer loop
      vertex 77 110 8
      vertex 78.6667 109.494 8
      vertex 78.148 109.772 8
    endloop
  endfacet
  facet normal 0 0 1
    outer loop
      vertex 79.7716 -4.14805 8
      vertex 77 -6 8
      vertex 79.4944 -4.66671 8
    endloop
  endfacet
  facet normal 0 0 1
    outer loop
      vertex 77 110 8
      vertex 78.148 109.772 8
      vertex 77.5853 109.942 8
    endloop
  endfacet
  facet normal 0 0 1
    outer loop
      vertex 79.4944 -4.66671 8
      vertex 77 -6 8
      vertex 79.1213 -5.12132 8
    endloop
  endfacet
  facet normal 0 0 1
    outer loop
      vertex 80 101 8
      vertex 79.8166 100 8
      vertex 79.9424 100.415 8
    endloop
  endfacet
  facet normal 0 0 1
    outer loop
      vertex 79.1213 -5.12132 8
      vertex 77 -6 8
      vertex 78.6667 -5.49441 8
    endloop
  endfacet
  facet normal 0 0 1
    outer loop
      vertex 78.6667 -5.49441 8
      vertex 77 -6 8
      vertex 78.148 -5.77164 8
    endloop
  endfacet
  facet normal 0 0 1
    outer loop
      vertex 77 110 8
      vertex -68 98 8
      vertex 68 98 8
    endloop
  endfacet
  facet normal -0 0 1
    outer loop
      vertex -80 101 8
      vertex -68 98 8
      vertex -77 110 8
    endloop
  endfacet
  facet normal -0 0 1
    outer loop
      vertex -77 110 8
      vertex -68 98 8
      vertex 77 110 8
    endloop
  endfacet
  facet normal 0 0 1
    outer loop
      vertex -68 98 8
      vertex -80 99 8
      vertex -68 6 8
    endloop
  endfacet
  facet normal 0 0 1
    outer loop
      vertex -80 -3 8
      vertex -68 6 8
      vertex -80 99 8
    endloop
  endfacet
  facet normal 0 0 1
    outer loop
      vertex -68 6 8
      vertex -80 -3 8
      vertex -79.7716 -4.14805 8
    endloop
  endfacet
  facet normal 0 0 1
    outer loop
      vertex -79.7716 -4.14805 8
      vertex -80 -3 8
      vertex -79.9424 -3.58527 8
    endloop
  endfacet
  facet normal 0 0 1
    outer loop
      vertex 78.148 -5.77164 8
      vertex 77 -6 8
      vertex 77.5853 -5.94236 8
    endloop
  endfacet
  facet normal -0 0 1
    outer loop
      vertex -68 6 8
      vertex 77 -6 8
      vertex 68 6 8
    endloop
  endfacet
  facet normal 0 0 1
    outer loop
      vertex -68 6 8
      vertex -77 -6 8
      vertex 77 -6 8
    endloop
  endfacet
  facet normal 0 0 1
    outer loop
      vertex -68 98 8
      vertex -79.8166 100 8
      vertex -80 99 8
    endloop
  endfacet
  facet normal 0 0 1
    outer loop
      vertex -80 107 8
      vertex -77 110 8
      vertex -77.5853 109.942 8
    endloop
  endfacet
  facet normal 0 0 1
    outer loop
      vertex -80 99 8
      vertex -79.8166 100 8
      vertex -79.9424 99.5853 8
    endloop
  endfacet
  facet normal 0 0 1
    outer loop
      vertex -80 107 8
      vertex -77.5853 109.942 8
      vertex -78.148 109.772 8
    endloop
  endfacet
  facet normal 0 0 1
    outer loop
      vertex -68 6 8
      vertex -79.7716 -4.14805 8
      vertex -77 -6 8
    endloop
  endfacet
  facet normal 0 0 1
    outer loop
      vertex -80 107 8
      vertex -78.148 109.772 8
      vertex -78.6667 109.494 8
    endloop
  endfacet
  facet normal 0 0 1
    outer loop
      vertex -77 -6 8
      vertex -79.7716 -4.14805 8
      vertex -77.5853 -5.94236 8
    endloop
  endfacet
  facet normal 0 0 1
    outer loop
      vertex -80 107 8
      vertex -78.6667 109.494 8
      vertex -79.1213 109.121 8
    endloop
  endfacet
  facet normal 0 0 1
    outer loop
      vertex -77.5853 -5.94236 8
      vertex -79.7716 -4.14805 8
      vertex -78.148 -5.77164 8
    endloop
  endfacet
  facet normal 0 0 1
    outer loop
      vertex -80 107 8
      vertex -79.1213 109.121 8
      vertex -79.4944 108.667 8
    endloop
  endfacet
  facet normal 0 0 1
    outer loop
      vertex -78.148 -5.77164 8
      vertex -79.7716 -4.14805 8
      vertex -78.6667 -5.49441 8
    endloop
  endfacet
  facet normal 0 0 1
    outer loop
      vertex -80 107 8
      vertex -79.4944 108.667 8
      vertex -79.7716 108.148 8
    endloop
  endfacet
  facet normal 0 0 1
    outer loop
      vertex -78.6667 -5.49441 8
      vertex -79.7716 -4.14805 8
      vertex -79.1213 -5.12132 8
    endloop
  endfacet
  facet normal 0 0 1
    outer loop
      vertex -79.1213 -5.12132 8
      vertex -79.7716 -4.14805 8
      vertex -79.4944 -4.66671 8
    endloop
  endfacet
  facet normal 0 0 1
    outer loop
      vertex -80 107 8
      vertex -79.7716 108.148 8
      vertex -79.9424 107.585 8
    endloop
  endfacet
  facet normal 0 0 1
    outer loop
      vertex -77 110 8
      vertex -80 107 8
      vertex -80 101 8
    endloop
  endfacet
  facet normal 0 0 1
    outer loop
      vertex -68 98 8
      vertex -80 101 8
      vertex -79.8166 100 8
    endloop
  endfacet
  facet normal 0 0 1
    outer loop
      vertex -79.8166 100 8
      vertex -80 101 8
      vertex -79.9424 100.415 8
    endloop
  endfacet
  facet normal 0.995192 -0.0979429 0
    outer loop
      vertex 79.9424 -3.58527 8
      vertex 80 -3 0
      vertex 80 -3 8
    endloop
  endfacet
  facet normal 0.995192 -0.0979429 0
    outer loop
      vertex 80 -3 0
      vertex 79.9424 -3.58527 8
      vertex 79.9424 -3.58527 0
    endloop
  endfacet
  facet normal 0.0980053 -0.995186 0
    outer loop
      vertex 77 -6 0
      vertex 77.5853 -5.94236 8
      vertex 77 -6 8
    endloop
  endfacet
  facet normal 0.0980053 -0.995186 0
    outer loop
      vertex 77.5853 -5.94236 8
      vertex 77 -6 0
      vertex 77.5853 -5.94236 0
    endloop
  endfacet
  facet normal 0 -1 0
    outer loop
      vertex -77 -6 0
      vertex 77 -6 8
      vertex -77 -6 8
    endloop
  endfacet
  facet normal 0 -1 -0
    outer loop
      vertex 77 -6 8
      vertex -77 -6 0
      vertex 77 -6 0
    endloop
  endfacet
  facet normal 0.881942 -0.471358 0
    outer loop
      vertex 79.4944 -4.66671 8
      vertex 79.7716 -4.14805 0
      vertex 79.7716 -4.14805 8
    endloop
  endfacet
  facet normal 0.881942 -0.471358 0
    outer loop
      vertex 79.7716 -4.14805 0
      vertex 79.4944 -4.66671 8
      vertex 79.4944 -4.66671 0
    endloop
  endfacet
  facet normal 0 0 -1
    outer loop
      vertex 77 -6 0
      vertex 80 -3 0
      vertex 79.9424 -3.58527 0
    endloop
  endfacet
  facet normal 0 0 -1
    outer loop
      vertex 80 -3 0
      vertex 68 6 0
      vertex 80 99 0
    endloop
  endfacet
  facet normal 0 0 -1
    outer loop
      vertex 68 98 0
      vertex 80 99 0
      vertex 68 6 0
    endloop
  endfacet
  facet normal 0 0 -1
    outer loop
      vertex 77 -6 0
      vertex 79.9424 -3.58527 0
      vertex 79.7716 -4.14805 0
    endloop
  endfacet
  facet normal 0 0 -1
    outer loop
      vertex 79.8166 100 0
      vertex 80 101 0
      vertex 79.9424 100.415 0
    endloop
  endfacet
  facet normal 0 0 -1
    outer loop
      vertex 80 101 0
      vertex 77 110 0
      vertex 80 107 0
    endloop
  endfacet
  facet normal 0 0 -1
    outer loop
      vertex 80 101 0
      vertex 79.8166 100 0
      vertex 68 98 0
    endloop
  endfacet
  facet normal 0 0 -1
    outer loop
      vertex 80 107 0
      vertex 77 110 0
      vertex 79.9424 107.585 0
    endloop
  endfacet
  facet normal 0 -0 -1
    outer loop
      vertex 79.8166 100 0
      vertex 80 99 0
      vertex 68 98 0
    endloop
  endfacet
  facet normal 0 0 -1
    outer loop
      vertex 77 -6 0
      vertex 79.7716 -4.14805 0
      vertex 79.4944 -4.66671 0
    endloop
  endfacet
  facet normal 0 0 -1
    outer loop
      vertex 80 99 0
      vertex 79.8166 100 0
      vertex 79.9424 99.5853 0
    endloop
  endfacet
  facet normal 0 0 -1
    outer loop
      vertex 77 -6 0
      vertex 79.4944 -4.66671 0
      vertex 79.1213 -5.12132 0
    endloop
  endfacet
  facet normal -0 0 -1
    outer loop
      vertex 80 101 0
      vertex 68 98 0
      vertex 77 110 0
    endloop
  endfacet
  facet normal 0 0 -1
    outer loop
      vertex 77 -6 0
      vertex 79.1213 -5.12132 0
      vertex 78.6667 -5.49441 0
    endloop
  endfacet
  facet normal 0 0 -1
    outer loop
      vertex 79.9424 107.585 0
      vertex 77 110 0
      vertex 79.7716 108.148 0
    endloop
  endfacet
  facet normal 0 0 -1
    outer loop
      vertex 77 -6 0
      vertex 78.6667 -5.49441 0
      vertex 78.148 -5.77164 0
    endloop
  endfacet
  facet normal 0 0 -1
    outer loop
      vertex 79.7716 108.148 0
      vertex 77 110 0
      vertex 79.4944 108.667 0
    endloop
  endfacet
  facet normal 0 0 -1
    outer loop
      vertex 77 -6 0
      vertex 78.148 -5.77164 0
      vertex 77.5853 -5.94236 0
    endloop
  endfacet
  facet normal 0 0 -1
    outer loop
      vertex 79.4944 108.667 0
      vertex 77 110 0
      vertex 79.1213 109.121 0
    endloop
  endfacet
  facet normal -0 0 -1
    outer loop
      vertex 80 -3 0
      vertex 77 -6 0
      vertex 68 6 0
    endloop
  endfacet
  facet normal 0 0 -1
    outer loop
      vertex 79.1213 109.121 0
      vertex 77 110 0
      vertex 78.6667 109.494 0
    endloop
  endfacet
  facet normal 0 0 -1
    outer loop
      vertex 78.6667 109.494 0
      vertex 77 110 0
      vertex 78.148 109.772 0
    endloop
  endfacet
  facet normal 0 0 -1
    outer loop
      vertex 77 -6 0
      vertex -68 6 0
      vertex 68 6 0
    endloop
  endfacet
  facet normal 0 0 -1
    outer loop
      vertex -80 -3 0
      vertex -68 6 0
      vertex -77 -6 0
    endloop
  endfacet
  facet normal 0 0 -1
    outer loop
      vertex -77 -6 0
      vertex -68 6 0
      vertex 77 -6 0
    endloop
  endfacet
  facet normal 0 0 -1
    outer loop
      vertex -68 98 0
      vertex -80 101 0
      vertex -77 110 0
    endloop
  endfacet
  facet normal 0 0 -1
    outer loop
      vertex -80 107 0
      vertex -77 110 0
      vertex -80 101 0
    endloop
  endfacet
  facet normal 0 0 -1
    outer loop
      vertex -77 110 0
      vertex -80 107 0
      vertex -79.7716 108.148 0
    endloop
  endfacet
  facet normal 0 0 -1
    outer loop
      vertex -79.7716 108.148 0
      vertex -80 107 0
      vertex -79.9424 107.585 0
    endloop
  endfacet
  facet normal 0 0 -1
    outer loop
      vertex 78.148 109.772 0
      vertex 77 110 0
      vertex 77.5853 109.942 0
    endloop
  endfacet
  facet normal 0 0 -1
    outer loop
      vertex -68 98 0
      vertex 77 110 0
      vertex 68 98 0
    endloop
  endfacet
  facet normal 0 0 -1
    outer loop
      vertex -68 98 0
      vertex -77 110 0
      vertex 77 110 0
    endloop
  endfacet
  facet normal 0 0 -1
    outer loop
      vertex -80 99 0
      vertex -68 6 0
      vertex -80 -3 0
    endloop
  endfacet
  facet normal 0 0 -1
    outer loop
      vertex -80 -3 0
      vertex -77 -6 0
      vertex -77.5853 -5.94236 0
    endloop
  endfacet
  facet normal 0 -0 -1
    outer loop
      vertex -79.8166 100 0
      vertex -68 98 0
      vertex -80 99 0
    endloop
  endfacet
  facet normal 0 0 -1
    outer loop
      vertex -80 -3 0
      vertex -77.5853 -5.94236 0
      vertex -78.148 -5.77164 0
    endloop
  endfacet
  facet normal 0 0 -1
    outer loop
      vertex -80 101 0
      vertex -79.8166 100 0
      vertex -79.9424 100.415 0
    endloop
  endfacet
  facet normal 0 0 -1
    outer loop
      vertex -80 -3 0
      vertex -78.148 -5.77164 0
      vertex -78.6667 -5.49441 0
    endloop
  endfacet
  facet normal 0 0 -1
    outer loop
      vertex -77 110 0
      vertex -79.7716 108.148 0
      vertex -77.5853 109.942 0
    endloop
  endfacet
  facet normal 0 0 -1
    outer loop
      vertex -80 -3 0
      vertex -78.6667 -5.49441 0
      vertex -79.1213 -5.12132 0
    endloop
  endfacet
  facet normal 0 0 -1
    outer loop
      vertex -77.5853 109.942 0
      vertex -79.7716 108.148 0
      vertex -78.148 109.772 0
    endloop
  endfacet
  facet normal 0 0 -1
    outer loop
      vertex -80 -3 0
      vertex -79.1213 -5.12132 0
      vertex -79.4944 -4.66671 0
    endloop
  endfacet
  facet normal 0 0 -1
    outer loop
      vertex -78.148 109.772 0
      vertex -79.7716 108.148 0
      vertex -78.6667 109.494 0
    endloop
  endfacet
  facet normal 0 0 -1
    outer loop
      vertex -80 -3 0
      vertex -79.4944 -4.66671 0
      vertex -79.7716 -4.14805 0
    endloop
  endfacet
  facet normal 0 0 -1
    outer loop
      vertex -78.6667 109.494 0
      vertex -79.7716 108.148 0
      vertex -79.1213 109.121 0
    endloop
  endfacet
  facet normal 0 0 -1
    outer loop
      vertex -79.1213 109.121 0
      vertex -79.7716 108.148 0
      vertex -79.4944 108.667 0
    endloop
  endfacet
  facet normal 0 0 -1
    outer loop
      vertex -80 -3 0
      vertex -79.7716 -4.14805 0
      vertex -79.9424 -3.58527 0
    endloop
  endfacet
  facet normal 0 0 -1
    outer loop
      vertex -68 6 0
      vertex -80 99 0
      vertex -68 98 0
    endloop
  endfacet
  facet normal 0 0 -1
    outer loop
      vertex -79.8166 100 0
      vertex -80 101 0
      vertex -68 98 0
    endloop
  endfacet
  facet normal 0 0 -1
    outer loop
      vertex -79.8166 100 0
      vertex -80 99 0
      vertex -79.9424 99.5853 0
    endloop
  endfacet
  facet normal -0.634403 -0.773003 0
    outer loop
      vertex -79.1213 -5.12132 0
      vertex -78.6667 -5.49441 8
      vertex -79.1213 -5.12132 8
    endloop
  endfacet
  facet normal -0.634403 -0.773003 -0
    outer loop
      vertex -78.6667 -5.49441 8
      vertex -79.1213 -5.12132 0
      vertex -78.6667 -5.49441 0
    endloop
  endfacet
  facet normal -0.290326 -0.956928 0
    outer loop
      vertex -78.148 -5.77164 0
      vertex -77.5853 -5.94236 8
      vertex -78.148 -5.77164 8
    endloop
  endfacet
  facet normal -0.290326 -0.956928 -0
    outer loop
      vertex -77.5853 -5.94236 8
      vertex -78.148 -5.77164 0
      vertex -77.5853 -5.94236 0
    endloop
  endfacet
  facet normal -0.881942 -0.471358 0
    outer loop
      vertex -79.4944 -4.66671 0
      vertex -79.7716 -4.14805 8
      vertex -79.7716 -4.14805 0
    endloop
  endfacet
  facet normal -0.881942 -0.471358 0
    outer loop
      vertex -79.7716 -4.14805 8
      vertex -79.4944 -4.66671 0
      vertex -79.4944 -4.66671 8
    endloop
  endfacet
  facet normal -0.0980053 -0.995186 0
    outer loop
      vertex -77.5853 -5.94236 0
      vertex -77 -6 8
      vertex -77.5853 -5.94236 8
    endloop
  endfacet
  facet normal -0.0980053 -0.995186 -0
    outer loop
      vertex -77 -6 8
      vertex -77.5853 -5.94236 0
      vertex -77 -6 0
    endloop
  endfacet
  facet normal -0.773001 -0.634405 0
    outer loop
      vertex -79.1213 -5.12132 0
      vertex -79.4944 -4.66671 8
      vertex -79.4944 -4.66671 0
    endloop
  endfacet
  facet normal -0.773001 -0.634405 0
    outer loop
      vertex -79.4944 -4.66671 8
      vertex -79.1213 -5.12132 0
      vertex -79.1213 -5.12132 8
    endloop
  endfacet
  facet normal -1 0 0
    outer loop
      vertex -80 -3 0
      vertex -80 99 8
      vertex -80 99 0
    endloop
  endfacet
  facet normal -1 -0 0
    outer loop
      vertex -80 99 8
      vertex -80 -3 0
      vertex -80 -3 8
    endloop
  endfacet
  facet normal -0.995192 -0.0979429 0
    outer loop
      vertex -79.9424 -3.58527 0
      vertex -80 -3 8
      vertex -80 -3 0
    endloop
  endfacet
  facet normal -0.995192 -0.0979429 0
    outer loop
      vertex -80 -3 8
      vertex -79.9424 -3.58527 0
      vertex -79.9424 -3.58527 8
    endloop
  endfacet
  facet normal -0.471369 -0.881936 0
    outer loop
      vertex -78.6667 -5.49441 0
      vertex -78.148 -5.77164 8
      vertex -78.6667 -5.49441 8
    endloop
  endfacet
  facet normal -0.471369 -0.881936 -0
    outer loop
      vertex -78.148 -5.77164 8
      vertex -78.6667 -5.49441 0
      vertex -78.148 -5.77164 0
    endloop
  endfacet
  facet normal 0.290326 -0.956928 0
    outer loop
      vertex 77.5853 -5.94236 0
      vertex 78.148 -5.77164 8
      vertex 77.5853 -5.94236 8
    endloop
  endfacet
  facet normal 0.290326 -0.956928 0
    outer loop
      vertex 78.148 -5.77164 8
      vertex 77.5853 -5.94236 0
      vertex 78.148 -5.77164 0
    endloop
  endfacet
  facet normal -0.956939 0.290289 0
    outer loop
      vertex -79.9424 99.5853 0
      vertex -79.8166 100 8
      vertex -79.8166 100 0
    endloop
  endfacet
  facet normal -0.956939 0.290289 0
    outer loop
      vertex -79.8166 100 8
      vertex -79.9424 99.5853 0
      vertex -79.9424 99.5853 8
    endloop
  endfacet
  facet normal -0.995193 0.097938 0
    outer loop
      vertex -80 99 0
      vertex -79.9424 99.5853 8
      vertex -79.9424 99.5853 0
    endloop
  endfacet
  facet normal -0.995193 0.097938 0
    outer loop
      vertex -79.9424 99.5853 8
      vertex -80 99 0
      vertex -80 99 8
    endloop
  endfacet
  facet normal 1 -0 0
    outer loop
      vertex -68 6 8
      vertex -68 98 0
      vertex -68 98 8
    endloop
  endfacet
  facet normal 1 0 0
    outer loop
      vertex -68 98 0
      vertex -68 6 8
      vertex -68 6 0
    endloop
  endfacet
  facet normal 0.956939 0.290289 0
    outer loop
      vertex 79.9424 99.5853 8
      vertex 79.8166 100 0
      vertex 79.8166 100 8
    endloop
  endfacet
  facet normal 0.956939 0.290289 0
    outer loop
      vertex 79.8166 100 0
      vertex 79.9424 99.5853 8
      vertex 79.9424 99.5853 0
    endloop
  endfacet
  facet normal 0.995193 0.097938 0
    outer loop
      vertex 80 99 8
      vertex 79.9424 99.5853 0
      vertex 79.9424 99.5853 8
    endloop
  endfacet
  facet normal 0.995193 0.097938 0
    outer loop
      vertex 79.9424 99.5853 0
      vertex 80 99 8
      vertex 80 99 0
    endloop
  endfacet
  facet normal -1 0 0
    outer loop
      vertex 68 6 0
      vertex 68 98 8
      vertex 68 98 0
    endloop
  endfacet
  facet normal -1 -0 0
    outer loop
      vertex 68 98 8
      vertex 68 6 0
      vertex 68 6 8
    endloop
  endfacet
  facet normal -0.956997 -0.290097 0
    outer loop
      vertex -79.8166 100 0
      vertex -79.9424 100.415 8
      vertex -79.9424 100.415 0
    endloop
  endfacet
  facet normal -0.956997 -0.290097 0
    outer loop
      vertex -79.9424 100.415 8
      vertex -79.8166 100 0
      vertex -79.8166 100 8
    endloop
  endfacet
  facet normal 0.634311 0.773078 -0
    outer loop
      vertex 79.1213 109.121 0
      vertex 78.6667 109.494 8
      vertex 79.1213 109.121 8
    endloop
  endfacet
  facet normal 0.634311 0.773078 0
    outer loop
      vertex 78.6667 109.494 8
      vertex 79.1213 109.121 0
      vertex 78.6667 109.494 0
    endloop
  endfacet
  facet normal 0 1 -0
    outer loop
      vertex 77 110 0
      vertex -77 110 8
      vertex 77 110 8
    endloop
  endfacet
  facet normal 0 1 0
    outer loop
      vertex -77 110 8
      vertex 77 110 0
      vertex -77 110 0
    endloop
  endfacet
  facet normal 0.956997 -0.290097 0
    outer loop
      vertex 79.8166 100 8
      vertex 79.9424 100.415 0
      vertex 79.9424 100.415 8
    endloop
  endfacet
  facet normal 0.956997 -0.290097 0
    outer loop
      vertex 79.9424 100.415 0
      vertex 79.8166 100 8
      vertex 79.8166 100 0
    endloop
  endfacet
  facet normal 0.882071 0.471117 0
    outer loop
      vertex 79.7716 108.148 8
      vertex 79.4944 108.667 0
      vertex 79.4944 108.667 8
    endloop
  endfacet
  facet normal 0.882071 0.471117 0
    outer loop
      vertex 79.4944 108.667 0
      vertex 79.7716 108.148 8
      vertex 79.7716 108.148 0
    endloop
  endfacet
  facet normal -0.634311 0.773078 0
    outer loop
      vertex -78.6667 109.494 0
      vertex -79.1213 109.121 8
      vertex -78.6667 109.494 8
    endloop
  endfacet
  facet normal -0.634311 0.773078 0
    outer loop
      vertex -79.1213 109.121 8
      vertex -78.6667 109.494 0
      vertex -79.1213 109.121 0
    endloop
  endfacet
  facet normal 0.995188 0.0979877 0
    outer loop
      vertex 80 107 8
      vertex 79.9424 107.585 0
      vertex 79.9424 107.585 8
    endloop
  endfacet
  facet normal 0.995188 0.0979877 0
    outer loop
      vertex 79.9424 107.585 0
      vertex 80 107 8
      vertex 80 107 0
    endloop
  endfacet
  facet normal 1 -0 0
    outer loop
      vertex 80 101 8
      vertex 80 107 0
      vertex 80 107 8
    endloop
  endfacet
  facet normal 1 0 0
    outer loop
      vertex 80 107 0
      vertex 80 101 8
      vertex 80 101 0
    endloop
  endfacet
  facet normal -0.289205 0.957267 0
    outer loop
      vertex -77.5853 109.942 0
      vertex -78.148 109.772 8
      vertex -77.5853 109.942 8
    endloop
  endfacet
  facet normal -0.289205 0.957267 0
    outer loop
      vertex -78.148 109.772 8
      vertex -77.5853 109.942 0
      vertex -78.148 109.772 0
    endloop
  endfacet
  facet normal 0.0986115 0.995126 -0
    outer loop
      vertex 77.5853 109.942 0
      vertex 77 110 8
      vertex 77.5853 109.942 8
    endloop
  endfacet
  facet normal 0.0986115 0.995126 0
    outer loop
      vertex 77 110 8
      vertex 77.5853 109.942 0
      vertex 77 110 0
    endloop
  endfacet
  facet normal 0.995188 -0.0979877 0
    outer loop
      vertex 79.9424 100.415 8
      vertex 80 101 0
      vertex 80 101 8
    endloop
  endfacet
  facet normal 0.995188 -0.0979877 0
    outer loop
      vertex 80 101 0
      vertex 79.9424 100.415 8
      vertex 79.9424 100.415 0
    endloop
  endfacet
  facet normal 0.956933 0.290309 0
    outer loop
      vertex 79.9424 107.585 8
      vertex 79.7716 108.148 0
      vertex 79.7716 108.148 8
    endloop
  endfacet
  facet normal 0.956933 0.290309 0
    outer loop
      vertex 79.7716 108.148 0
      vertex 79.9424 107.585 8
      vertex 79.9424 107.585 0
    endloop
  endfacet
  facet normal 0.772583 0.634914 0
    outer loop
      vertex 79.4944 108.667 8
      vertex 79.1213 109.121 0
      vertex 79.1213 109.121 8
    endloop
  endfacet
  facet normal 0.772583 0.634914 0
    outer loop
      vertex 79.1213 109.121 0
      vertex 79.4944 108.667 8
      vertex 79.4944 108.667 0
    endloop
  endfacet
  facet normal 0 -1 0
    outer loop
      vertex -68 98 0
      vertex 68 98 8
      vertex -68 98 8
    endloop
  endfacet
  facet normal 0 -1 -0
    outer loop
      vertex 68 98 8
      vertex -68 98 0
      vertex 68 98 0
    endloop
  endfacet
  facet normal 0.472386 0.881392 -0
    outer loop
      vertex 78.6667 109.494 0
      vertex 78.148 109.772 8
      vertex 78.6667 109.494 8
    endloop
  endfacet
  facet normal 0.472386 0.881392 0
    outer loop
      vertex 78.148 109.772 8
      vertex 78.6667 109.494 0
      vertex 78.148 109.772 0
    endloop
  endfacet
  facet normal 0.289205 0.957267 -0
    outer loop
      vertex 78.148 109.772 0
      vertex 77.5853 109.942 8
      vertex 78.148 109.772 8
    endloop
  endfacet
  facet normal 0.289205 0.957267 0
    outer loop
      vertex 77.5853 109.942 8
      vertex 78.148 109.772 0
      vertex 77.5853 109.942 0
    endloop
  endfacet
  facet normal -0.995188 0.0979877 0
    outer loop
      vertex -80 107 0
      vertex -79.9424 107.585 8
      vertex -79.9424 107.585 0
    endloop
  endfacet
  facet normal -0.995188 0.0979877 0
    outer loop
      vertex -79.9424 107.585 8
      vertex -80 107 0
      vertex -80 107 8
    endloop
  endfacet
  facet normal -0.0986115 0.995126 0
    outer loop
      vertex -77 110 0
      vertex -77.5853 109.942 8
      vertex -77 110 8
    endloop
  endfacet
  facet normal -0.0986115 0.995126 0
    outer loop
      vertex -77.5853 109.942 8
      vertex -77 110 0
      vertex -77.5853 109.942 0
    endloop
  endfacet
  facet normal -1 0 0
    outer loop
      vertex -80 101 0
      vertex -80 107 8
      vertex -80 107 0
    endloop
  endfacet
  facet normal -1 -0 0
    outer loop
      vertex -80 107 8
      vertex -80 101 0
      vertex -80 101 8
    endloop
  endfacet
  facet normal -0.995188 -0.0979877 0
    outer loop
      vertex -79.9424 100.415 0
      vertex -80 101 8
      vertex -80 101 0
    endloop
  endfacet
  facet normal -0.995188 -0.0979877 0
    outer loop
      vertex -80 101 8
      vertex -79.9424 100.415 0
      vertex -79.9424 100.415 8
    endloop
  endfacet
  facet normal -0.472386 0.881392 0
    outer loop
      vertex -78.148 109.772 0
      vertex -78.6667 109.494 8
      vertex -78.148 109.772 8
    endloop
  endfacet
  facet normal -0.472386 0.881392 0
    outer loop
      vertex -78.6667 109.494 8
      vertex -78.148 109.772 0
      vertex -78.6667 109.494 0
    endloop
  endfacet
  facet normal -0.772583 0.634914 0
    outer loop
      vertex -79.4944 108.667 0
      vertex -79.1213 109.121 8
      vertex -79.1213 109.121 0
    endloop
  endfacet
  facet normal -0.772583 0.634914 0
    outer loop
      vertex -79.1213 109.121 8
      vertex -79.4944 108.667 0
      vertex -79.4944 108.667 8
    endloop
  endfacet
  facet normal -0.956933 0.290309 0
    outer loop
      vertex -79.9424 107.585 0
      vertex -79.7716 108.148 8
      vertex -79.7716 108.148 0
    endloop
  endfacet
  facet normal -0.956933 0.290309 0
    outer loop
      vertex -79.7716 108.148 8
      vertex -79.9424 107.585 0
      vertex -79.9424 107.585 8
    endloop
  endfacet
  facet normal -0.882071 0.471117 0
    outer loop
      vertex -79.7716 108.148 0
      vertex -79.4944 108.667 8
      vertex -79.4944 108.667 0
    endloop
  endfacet
  facet normal -0.882071 0.471117 0
    outer loop
      vertex -79.4944 108.667 8
      vertex -79.7716 108.148 0
      vertex -79.7716 108.148 8
    endloop
  endfacet
  facet normal -1 0 0
    outer loop
      vertex -41 47.5 8
      vertex -41 48.5 26
      vertex -41 48.5 8
    endloop
  endfacet
  facet normal -1 -0 0
    outer loop
      vertex -41 48.5 26
      vertex -41 47.5 8
      vertex -41 47.5 26
    endloop
  endfacet
  facet normal 0.0979545 0.995191 -0
    outer loop
      vertex 39.7926 49.9712 8
      vertex 39.5 50 26
      vertex 39.7926 49.9712 26
    endloop
  endfacet
  facet normal 0.0979545 0.995191 0
    outer loop
      vertex 39.5 50 26
      vertex 39.7926 49.9712 8
      vertex 39.5 50 8
    endloop
  endfacet
  facet normal 0.956904 -0.290404 0
    outer loop
      vertex 40.8858 46.926 26
      vertex 40.9712 47.2074 8
      vertex 40.9712 47.2074 26
    endloop
  endfacet
  facet normal 0.956904 -0.290404 0
    outer loop
      vertex 40.9712 47.2074 8
      vertex 40.8858 46.926 26
      vertex 40.8858 46.926 8
    endloop
  endfacet
  facet normal 0.290404 0.956904 -0
    outer loop
      vertex 40.074 49.8858 8
      vertex 39.7926 49.9712 26
      vertex 40.074 49.8858 26
    endloop
  endfacet
  facet normal 0.290404 0.956904 0
    outer loop
      vertex 39.7926 49.9712 26
      vertex 40.074 49.8858 8
      vertex 39.7926 49.9712 8
    endloop
  endfacet
  facet normal 0.471259 -0.881995 0
    outer loop
      vertex 40.074 46.1142 8
      vertex 40.3334 46.2528 26
      vertex 40.074 46.1142 26
    endloop
  endfacet
  facet normal 0.471259 -0.881995 0
    outer loop
      vertex 40.3334 46.2528 26
      vertex 40.074 46.1142 8
      vertex 40.3334 46.2528 8
    endloop
  endfacet
  facet normal 0 -1 0
    outer loop
      vertex -39.5 46 8
      vertex 39.5 46 26
      vertex -39.5 46 26
    endloop
  endfacet
  facet normal 0 -1 -0
    outer loop
      vertex 39.5 46 26
      vertex -39.5 46 8
      vertex 39.5 46 8
    endloop
  endfacet
  facet normal 0 1 -0
    outer loop
      vertex 39.5 50 8
      vertex -39.5 50 26
      vertex 39.5 50 26
    endloop
  endfacet
  facet normal 0 1 0
    outer loop
      vertex -39.5 50 26
      vertex 39.5 50 8
      vertex -39.5 50 8
    endloop
  endfacet
  facet normal 1 -0 0
    outer loop
      vertex 41 47.5 26
      vertex 41 48.5 8
      vertex 41 48.5 26
    endloop
  endfacet
  facet normal 1 0 0
    outer loop
      vertex 41 48.5 8
      vertex 41 47.5 26
      vertex 41 47.5 8
    endloop
  endfacet
  facet normal 0.290404 -0.956904 0
    outer loop
      vertex 39.7926 46.0288 8
      vertex 40.074 46.1142 26
      vertex 39.7926 46.0288 26
    endloop
  endfacet
  facet normal 0.290404 -0.956904 0
    outer loop
      vertex 40.074 46.1142 26
      vertex 39.7926 46.0288 8
      vertex 40.074 46.1142 8
    endloop
  endfacet
  facet normal 0.881995 0.471259 0
    outer loop
      vertex 40.8858 49.074 26
      vertex 40.7472 49.3334 8
      vertex 40.7472 49.3334 26
    endloop
  endfacet
  facet normal 0.881995 0.471259 0
    outer loop
      vertex 40.7472 49.3334 8
      vertex 40.8858 49.074 26
      vertex 40.8858 49.074 8
    endloop
  endfacet
  facet normal -0.995191 -0.0979545 0
    outer loop
      vertex -40.9712 47.2074 8
      vertex -41 47.5 26
      vertex -41 47.5 8
    endloop
  endfacet
  facet normal -0.995191 -0.0979545 0
    outer loop
      vertex -41 47.5 26
      vertex -40.9712 47.2074 8
      vertex -40.9712 47.2074 26
    endloop
  endfacet
  facet normal -0.881995 0.471259 0
    outer loop
      vertex -40.8858 49.074 8
      vertex -40.7472 49.3334 26
      vertex -40.7472 49.3334 8
    endloop
  endfacet
  facet normal -0.881995 0.471259 0
    outer loop
      vertex -40.7472 49.3334 26
      vertex -40.8858 49.074 8
      vertex -40.8858 49.074 26
    endloop
  endfacet
  facet normal -0.773078 0.634311 0
    outer loop
      vertex -40.7472 49.3334 8
      vertex -40.5607 49.5607 26
      vertex -40.5607 49.5607 8
    endloop
  endfacet
  facet normal -0.773078 0.634311 0
    outer loop
      vertex -40.5607 49.5607 26
      vertex -40.7472 49.3334 8
      vertex -40.7472 49.3334 26
    endloop
  endfacet
  facet normal 0.881995 -0.471259 0
    outer loop
      vertex 40.7472 46.6666 26
      vertex 40.8858 46.926 8
      vertex 40.8858 46.926 26
    endloop
  endfacet
  facet normal 0.881995 -0.471259 0
    outer loop
      vertex 40.8858 46.926 8
      vertex 40.7472 46.6666 26
      vertex 40.7472 46.6666 8
    endloop
  endfacet
  facet normal 0.995191 0.0979545 0
    outer loop
      vertex 41 48.5 26
      vertex 40.9712 48.7926 8
      vertex 40.9712 48.7926 26
    endloop
  endfacet
  facet normal 0.995191 0.0979545 0
    outer loop
      vertex 40.9712 48.7926 8
      vertex 41 48.5 26
      vertex 41 48.5 8
    endloop
  endfacet
  facet normal -0.995191 0.0979545 0
    outer loop
      vertex -41 48.5 8
      vertex -40.9712 48.7926 26
      vertex -40.9712 48.7926 8
    endloop
  endfacet
  facet normal -0.995191 0.0979545 0
    outer loop
      vertex -40.9712 48.7926 26
      vertex -41 48.5 8
      vertex -41 48.5 26
    endloop
  endfacet
  facet normal -0.471259 0.881995 0
    outer loop
      vertex -40.074 49.8858 8
      vertex -40.3334 49.7472 26
      vertex -40.074 49.8858 26
    endloop
  endfacet
  facet normal -0.471259 0.881995 0
    outer loop
      vertex -40.3334 49.7472 26
      vertex -40.074 49.8858 8
      vertex -40.3334 49.7472 8
    endloop
  endfacet
  facet normal 0.471259 0.881995 -0
    outer loop
      vertex 40.3334 49.7472 8
      vertex 40.074 49.8858 26
      vertex 40.3334 49.7472 26
    endloop
  endfacet
  facet normal 0.471259 0.881995 0
    outer loop
      vertex 40.074 49.8858 26
      vertex 40.3334 49.7472 8
      vertex 40.074 49.8858 8
    endloop
  endfacet
  facet normal -0.290404 0.956904 0
    outer loop
      vertex -39.7926 49.9712 8
      vertex -40.074 49.8858 26
      vertex -39.7926 49.9712 26
    endloop
  endfacet
  facet normal -0.290404 0.956904 0
    outer loop
      vertex -40.074 49.8858 26
      vertex -39.7926 49.9712 8
      vertex -40.074 49.8858 8
    endloop
  endfacet
  facet normal 0.773078 0.634311 0
    outer loop
      vertex 40.7472 49.3334 26
      vertex 40.5607 49.5607 8
      vertex 40.5607 49.5607 26
    endloop
  endfacet
  facet normal 0.773078 0.634311 0
    outer loop
      vertex 40.5607 49.5607 8
      vertex 40.7472 49.3334 26
      vertex 40.7472 49.3334 8
    endloop
  endfacet
  facet normal 0.956904 0.290404 0
    outer loop
      vertex 40.9712 48.7926 26
      vertex 40.8858 49.074 8
      vertex 40.8858 49.074 26
    endloop
  endfacet
  facet normal 0.956904 0.290404 0
    outer loop
      vertex 40.8858 49.074 8
      vertex 40.9712 48.7926 26
      vertex 40.9712 48.7926 8
    endloop
  endfacet
  facet normal -0.471259 -0.881995 0
    outer loop
      vertex -40.3334 46.2528 8
      vertex -40.074 46.1142 26
      vertex -40.3334 46.2528 26
    endloop
  endfacet
  facet normal -0.471259 -0.881995 -0
    outer loop
      vertex -40.074 46.1142 26
      vertex -40.3334 46.2528 8
      vertex -40.074 46.1142 8
    endloop
  endfacet
  facet normal 0.634311 0.773078 -0
    outer loop
      vertex 40.5607 49.5607 8
      vertex 40.3334 49.7472 26
      vertex 40.5607 49.5607 26
    endloop
  endfacet
  facet normal 0.634311 0.773078 0
    outer loop
      vertex 40.3334 49.7472 26
      vertex 40.5607 49.5607 8
      vertex 40.3334 49.7472 8
    endloop
  endfacet
  facet normal 0.773078 -0.634311 0
    outer loop
      vertex 40.5607 46.4393 26
      vertex 40.7472 46.6666 8
      vertex 40.7472 46.6666 26
    endloop
  endfacet
  facet normal 0.773078 -0.634311 0
    outer loop
      vertex 40.7472 46.6666 8
      vertex 40.5607 46.4393 26
      vertex 40.5607 46.4393 8
    endloop
  endfacet
  facet normal 0.995191 -0.0979545 0
    outer loop
      vertex 40.9712 47.2074 26
      vertex 41 47.5 8
      vertex 41 47.5 26
    endloop
  endfacet
  facet normal 0.995191 -0.0979545 0
    outer loop
      vertex 41 47.5 8
      vertex 40.9712 47.2074 26
      vertex 40.9712 47.2074 8
    endloop
  endfacet
  facet normal -0.0979545 -0.995191 0
    outer loop
      vertex -39.7926 46.0288 8
      vertex -39.5 46 26
      vertex -39.7926 46.0288 26
    endloop
  endfacet
  facet normal -0.0979545 -0.995191 -0
    outer loop
      vertex -39.5 46 26
      vertex -39.7926 46.0288 8
      vertex -39.5 46 8
    endloop
  endfacet
  facet normal 0.0979545 -0.995191 0
    outer loop
      vertex 39.5 46 8
      vertex 39.7926 46.0288 26
      vertex 39.5 46 26
    endloop
  endfacet
  facet normal 0.0979545 -0.995191 0
    outer loop
      vertex 39.7926 46.0288 26
      vertex 39.5 46 8
      vertex 39.7926 46.0288 8
    endloop
  endfacet
  facet normal -0.956904 0.290404 0
    outer loop
      vertex -40.9712 48.7926 8
      vertex -40.8858 49.074 26
      vertex -40.8858 49.074 8
    endloop
  endfacet
  facet normal -0.956904 0.290404 0
    outer loop
      vertex -40.8858 49.074 26
      vertex -40.9712 48.7926 8
      vertex -40.9712 48.7926 26
    endloop
  endfacet
  facet normal -0.881995 -0.471259 0
    outer loop
      vertex -40.7472 46.6666 8
      vertex -40.8858 46.926 26
      vertex -40.8858 46.926 8
    endloop
  endfacet
  facet normal -0.881995 -0.471259 0
    outer loop
      vertex -40.8858 46.926 26
      vertex -40.7472 46.6666 8
      vertex -40.7472 46.6666 26
    endloop
  endfacet
  facet normal -0.956904 -0.290404 0
    outer loop
      vertex -40.8858 46.926 8
      vertex -40.9712 47.2074 26
      vertex -40.9712 47.2074 8
    endloop
  endfacet
  facet normal -0.956904 -0.290404 0
    outer loop
      vertex -40.9712 47.2074 26
      vertex -40.8858 46.926 8
      vertex -40.8858 46.926 26
    endloop
  endfacet
  facet normal -0.773078 -0.634311 0
    outer loop
      vertex -40.5607 46.4393 8
      vertex -40.7472 46.6666 26
      vertex -40.7472 46.6666 8
    endloop
  endfacet
  facet normal -0.773078 -0.634311 0
    outer loop
      vertex -40.7472 46.6666 26
      vertex -40.5607 46.4393 8
      vertex -40.5607 46.4393 26
    endloop
  endfacet
  facet normal 0 0 -1
    outer loop
      vertex 39.5 46 8
      vertex 41 47.5 8
      vertex 40.9712 47.2074 8
    endloop
  endfacet
  facet normal -0 0 -1
    outer loop
      vertex 41 47.5 8
      vertex 39.5 46 8
      vertex 41 48.5 8
    endloop
  endfacet
  facet normal 0 0 -1
    outer loop
      vertex 39.5 46 8
      vertex 40.9712 47.2074 8
      vertex 40.8858 46.926 8
    endloop
  endfacet
  facet normal 0 0 -1
    outer loop
      vertex 39.5 50 8
      vertex 41 48.5 8
      vertex 39.5 46 8
    endloop
  endfacet
  facet normal 0 0 -1
    outer loop
      vertex 39.5 46 8
      vertex 40.8858 46.926 8
      vertex 40.7472 46.6666 8
    endloop
  endfacet
  facet normal 0 0 -1
    outer loop
      vertex 41 48.5 8
      vertex 39.5 50 8
      vertex 40.9712 48.7926 8
    endloop
  endfacet
  facet normal 0 0 -1
    outer loop
      vertex 39.5 46 8
      vertex 40.7472 46.6666 8
      vertex 40.5607 46.4393 8
    endloop
  endfacet
  facet normal 0 0 -1
    outer loop
      vertex 40.9712 48.7926 8
      vertex 39.5 50 8
      vertex 40.8858 49.074 8
    endloop
  endfacet
  facet normal 0 0 -1
    outer loop
      vertex 39.5 46 8
      vertex 40.5607 46.4393 8
      vertex 40.3334 46.2528 8
    endloop
  endfacet
  facet normal 0 0 -1
    outer loop
      vertex 40.8858 49.074 8
      vertex 39.5 50 8
      vertex 40.7472 49.3334 8
    endloop
  endfacet
  facet normal 0 0 -1
    outer loop
      vertex 39.5 46 8
      vertex 40.3334 46.2528 8
      vertex 40.074 46.1142 8
    endloop
  endfacet
  facet normal 0 0 -1
    outer loop
      vertex 40.7472 49.3334 8
      vertex 39.5 50 8
      vertex 40.5607 49.5607 8
    endloop
  endfacet
  facet normal 0 0 -1
    outer loop
      vertex 39.5 46 8
      vertex 40.074 46.1142 8
      vertex 39.7926 46.0288 8
    endloop
  endfacet
  facet normal 0 0 -1
    outer loop
      vertex 40.5607 49.5607 8
      vertex 39.5 50 8
      vertex 40.3334 49.7472 8
    endloop
  endfacet
  facet normal 0 0 -1
    outer loop
      vertex 40.3334 49.7472 8
      vertex 39.5 50 8
      vertex 40.074 49.8858 8
    endloop
  endfacet
  facet normal 0 0 -1
    outer loop
      vertex 40.074 49.8858 8
      vertex 39.5 50 8
      vertex 39.7926 49.9712 8
    endloop
  endfacet
  facet normal 0 0 -1
    outer loop
      vertex -39.5 46 8
      vertex 39.5 50 8
      vertex 39.5 46 8
    endloop
  endfacet
  facet normal 0 0 -1
    outer loop
      vertex -39.5 46 8
      vertex -39.5 50 8
      vertex 39.5 50 8
    endloop
  endfacet
  facet normal 0 0 -1
    outer loop
      vertex -41 47.5 8
      vertex -39.5 46 8
      vertex -39.7926 46.0288 8
    endloop
  endfacet
  facet normal 0 0 -1
    outer loop
      vertex -39.5 46 8
      vertex -41 47.5 8
      vertex -39.5 50 8
    endloop
  endfacet
  facet normal 0 0 -1
    outer loop
      vertex -41 47.5 8
      vertex -39.7926 46.0288 8
      vertex -40.074 46.1142 8
    endloop
  endfacet
  facet normal 0 0 -1
    outer loop
      vertex -41 48.5 8
      vertex -39.5 50 8
      vertex -41 47.5 8
    endloop
  endfacet
  facet normal 0 0 -1
    outer loop
      vertex -41 47.5 8
      vertex -40.074 46.1142 8
      vertex -40.3334 46.2528 8
    endloop
  endfacet
  facet normal 0 0 -1
    outer loop
      vertex -39.5 50 8
      vertex -41 48.5 8
      vertex -39.7926 49.9712 8
    endloop
  endfacet
  facet normal 0 0 -1
    outer loop
      vertex -41 47.5 8
      vertex -40.3334 46.2528 8
      vertex -40.5607 46.4393 8
    endloop
  endfacet
  facet normal 0 0 -1
    outer loop
      vertex -39.7926 49.9712 8
      vertex -41 48.5 8
      vertex -40.074 49.8858 8
    endloop
  endfacet
  facet normal 0 0 -1
    outer loop
      vertex -41 47.5 8
      vertex -40.5607 46.4393 8
      vertex -40.7472 46.6666 8
    endloop
  endfacet
  facet normal 0 0 -1
    outer loop
      vertex -40.074 49.8858 8
      vertex -41 48.5 8
      vertex -40.3334 49.7472 8
    endloop
  endfacet
  facet normal 0 0 -1
    outer loop
      vertex -41 47.5 8
      vertex -40.7472 46.6666 8
      vertex -40.8858 46.926 8
    endloop
  endfacet
  facet normal 0 0 -1
    outer loop
      vertex -40.3334 49.7472 8
      vertex -41 48.5 8
      vertex -40.5607 49.5607 8
    endloop
  endfacet
  facet normal 0 0 -1
    outer loop
      vertex -41 47.5 8
      vertex -40.8858 46.926 8
      vertex -40.9712 47.2074 8
    endloop
  endfacet
  facet normal 0 0 -1
    outer loop
      vertex -40.5607 49.5607 8
      vertex -41 48.5 8
      vertex -40.7472 49.3334 8
    endloop
  endfacet
  facet normal 0 0 -1
    outer loop
      vertex -40.7472 49.3334 8
      vertex -41 48.5 8
      vertex -40.8858 49.074 8
    endloop
  endfacet
  facet normal 0 0 -1
    outer loop
      vertex -40.8858 49.074 8
      vertex -41 48.5 8
      vertex -40.9712 48.7926 8
    endloop
  endfacet
  facet normal 0.634311 -0.773078 0
    outer loop
      vertex 40.3334 46.2528 8
      vertex 40.5607 46.4393 26
      vertex 40.3334 46.2528 26
    endloop
  endfacet
  facet normal 0.634311 -0.773078 0
    outer loop
      vertex 40.5607 46.4393 26
      vertex 40.3334 46.2528 8
      vertex 40.5607 46.4393 8
    endloop
  endfacet
  facet normal -0.634311 -0.773078 0
    outer loop
      vertex -40.5607 46.4393 8
      vertex -40.3334 46.2528 26
      vertex -40.5607 46.4393 26
    endloop
  endfacet
  facet normal -0.634311 -0.773078 -0
    outer loop
      vertex -40.3334 46.2528 26
      vertex -40.5607 46.4393 8
      vertex -40.3334 46.2528 8
    endloop
  endfacet
  facet normal -0.290404 -0.956904 0
    outer loop
      vertex -40.074 46.1142 8
      vertex -39.7926 46.0288 26
      vertex -40.074 46.1142 26
    endloop
  endfacet
  facet normal -0.290404 -0.956904 -0
    outer loop
      vertex -39.7926 46.0288 26
      vertex -40.074 46.1142 8
      vertex -39.7926 46.0288 8
    endloop
  endfacet
  facet normal -0.634311 0.773078 0
    outer loop
      vertex -40.3334 49.7472 8
      vertex -40.5607 49.5607 26
      vertex -40.3334 49.7472 26
    endloop
  endfacet
  facet normal -0.634311 0.773078 0
    outer loop
      vertex -40.5607 49.5607 26
      vertex -40.3334 49.7472 8
      vertex -40.5607 49.5607 8
    endloop
  endfacet
  facet normal -0.0979545 0.995191 0
    outer loop
      vertex -39.5 50 8
      vertex -39.7926 49.9712 26
      vertex -39.5 50 26
    endloop
  endfacet
  facet normal -0.0979545 0.995191 0
    outer loop
      vertex -39.7926 49.9712 26
      vertex -39.5 50 8
      vertex -39.7926 49.9712 8
    endloop
  endfacet
  facet normal 0 0 1
    outer loop
      vertex 39.5 50 26
      vertex 41 48.5 26
      vertex 40.9712 48.7926 26
    endloop
  endfacet
  facet normal 0 0 1
    outer loop
      vertex 41 48.5 26
      vertex 39.5 50 26
      vertex 41 47.5 26
    endloop
  endfacet
  facet normal 0 0 1
    outer loop
      vertex 39.5 50 26
      vertex 40.9712 48.7926 26
      vertex 40.8858 49.074 26
    endloop
  endfacet
  facet normal 0 0 1
    outer loop
      vertex 39.5 46 26
      vertex 41 47.5 26
      vertex 39.5 50 26
    endloop
  endfacet
  facet normal 0 0 1
    outer loop
      vertex 39.5 50 26
      vertex 40.8858 49.074 26
      vertex 40.7472 49.3334 26
    endloop
  endfacet
  facet normal 0 0 1
    outer loop
      vertex 41 47.5 26
      vertex 39.5 46 26
      vertex 40.9712 47.2074 26
    endloop
  endfacet
  facet normal 0 0 1
    outer loop
      vertex 39.5 50 26
      vertex 40.7472 49.3334 26
      vertex 40.5607 49.5607 26
    endloop
  endfacet
  facet normal 0 0 1
    outer loop
      vertex 40.9712 47.2074 26
      vertex 39.5 46 26
      vertex 40.8858 46.926 26
    endloop
  endfacet
  facet normal 0 0 1
    outer loop
      vertex 39.5 50 26
      vertex 40.5607 49.5607 26
      vertex 40.3334 49.7472 26
    endloop
  endfacet
  facet normal 0 0 1
    outer loop
      vertex 40.8858 46.926 26
      vertex 39.5 46 26
      vertex 40.7472 46.6666 26
    endloop
  endfacet
  facet normal 0 0 1
    outer loop
      vertex 39.5 50 26
      vertex 40.3334 49.7472 26
      vertex 40.074 49.8858 26
    endloop
  endfacet
  facet normal 0 0 1
    outer loop
      vertex 40.7472 46.6666 26
      vertex 39.5 46 26
      vertex 40.5607 46.4393 26
    endloop
  endfacet
  facet normal 0 0 1
    outer loop
      vertex 39.5 50 26
      vertex 40.074 49.8858 26
      vertex 39.7926 49.9712 26
    endloop
  endfacet
  facet normal 0 0 1
    outer loop
      vertex 40.5607 46.4393 26
      vertex 39.5 46 26
      vertex 40.3334 46.2528 26
    endloop
  endfacet
  facet normal 0 0 1
    outer loop
      vertex 40.3334 46.2528 26
      vertex 39.5 46 26
      vertex 40.074 46.1142 26
    endloop
  endfacet
  facet normal 0 0 1
    outer loop
      vertex 40.074 46.1142 26
      vertex 39.5 46 26
      vertex 39.7926 46.0288 26
    endloop
  endfacet
  facet normal -0 0 1
    outer loop
      vertex -39.5 50 26
      vertex 39.5 46 26
      vertex 39.5 50 26
    endloop
  endfacet
  facet normal 0 0 1
    outer loop
      vertex -39.5 50 26
      vertex -39.5 46 26
      vertex 39.5 46 26
    endloop
  endfacet
  facet normal 0 0 1
    outer loop
      vertex -41 48.5 26
      vertex -39.5 50 26
      vertex -39.7926 49.9712 26
    endloop
  endfacet
  facet normal 0 0 1
    outer loop
      vertex -39.5 50 26
      vertex -41 48.5 26
      vertex -39.5 46 26
    endloop
  endfacet
  facet normal 0 0 1
    outer loop
      vertex -41 48.5 26
      vertex -39.7926 49.9712 26
      vertex -40.074 49.8858 26
    endloop
  endfacet
  facet normal -0 0 1
    outer loop
      vertex -41 47.5 26
      vertex -39.5 46 26
      vertex -41 48.5 26
    endloop
  endfacet
  facet normal 0 0 1
    outer loop
      vertex -41 48.5 26
      vertex -40.074 49.8858 26
      vertex -40.3334 49.7472 26
    endloop
  endfacet
  facet normal 0 0 1
    outer loop
      vertex -39.5 46 26
      vertex -41 47.5 26
      vertex -39.7926 46.0288 26
    endloop
  endfacet
  facet normal 0 0 1
    outer loop
      vertex -41 48.5 26
      vertex -40.3334 49.7472 26
      vertex -40.5607 49.5607 26
    endloop
  endfacet
  facet normal 0 0 1
    outer loop
      vertex -39.7926 46.0288 26
      vertex -41 47.5 26
      vertex -40.074 46.1142 26
    endloop
  endfacet
  facet normal 0 0 1
    outer loop
      vertex -41 48.5 26
      vertex -40.5607 49.5607 26
      vertex -40.7472 49.3334 26
    endloop
  endfacet
  facet normal 0 0 1
    outer loop
      vertex -40.074 46.1142 26
      vertex -41 47.5 26
      vertex -40.3334 46.2528 26
    endloop
  endfacet
  facet normal 0 0 1
    outer loop
      vertex -41 48.5 26
      vertex -40.7472 49.3334 26
      vertex -40.8858 49.074 26
    endloop
  endfacet
  facet normal 0 0 1
    outer loop
      vertex -40.3334 46.2528 26
      vertex -41 47.5 26
      vertex -40.5607 46.4393 26
    endloop
  endfacet
  facet normal 0 0 1
    outer loop
      vertex -41 48.5 26
      vertex -40.8858 49.074 26
      vertex -40.9712 48.7926 26
    endloop
  endfacet
  facet normal 0 0 1
    outer loop
      vertex -40.5607 46.4393 26
      vertex -41 47.5 26
      vertex -40.7472 46.6666 26
    endloop
  endfacet
  facet normal 0 0 1
    outer loop
      vertex -40.7472 46.6666 26
      vertex -41 47.5 26
      vertex -40.8858 46.926 26
    endloop
  endfacet
  facet normal 0 0 1
    outer loop
      vertex -40.8858 46.926 26
      vertex -41 47.5 26
      vertex -40.9712 47.2074 26
    endloop
  endfacet
  facet normal -1 0 0
    outer loop
      vertex -46 85.5 8
      vertex -46 86.5 36
      vertex -46 86.5 8
    endloop
  endfacet
  facet normal -1 -0 0
    outer loop
      vertex -46 86.5 36
      vertex -46 85.5 8
      vertex -46 85.5 36
    endloop
  endfacet
  facet normal 0.0979545 0.995191 -0
    outer loop
      vertex 44.7926 87.9712 8
      vertex 44.5 88 36
      vertex 44.7926 87.9712 36
    endloop
  endfacet
  facet normal 0.0979545 0.995191 0
    outer loop
      vertex 44.5 88 36
      vertex 44.7926 87.9712 8
      vertex 44.5 88 8
    endloop
  endfacet
  facet normal 0.956904 -0.290404 0
    outer loop
      vertex 45.8858 84.926 36
      vertex 45.9712 85.2074 8
      vertex 45.9712 85.2074 36
    endloop
  endfacet
  facet normal 0.956904 -0.290404 0
    outer loop
      vertex 45.9712 85.2074 8
      vertex 45.8858 84.926 36
      vertex 45.8858 84.926 8
    endloop
  endfacet
  facet normal 0.290404 0.956904 -0
    outer loop
      vertex 45.074 87.8858 8
      vertex 44.7926 87.9712 36
      vertex 45.074 87.8858 36
    endloop
  endfacet
  facet normal 0.290404 0.956904 0
    outer loop
      vertex 44.7926 87.9712 36
      vertex 45.074 87.8858 8
      vertex 44.7926 87.9712 8
    endloop
  endfacet
  facet normal 0.471259 -0.881995 0
    outer loop
      vertex 45.074 84.1142 8
      vertex 45.3334 84.2528 36
      vertex 45.074 84.1142 36
    endloop
  endfacet
  facet normal 0.471259 -0.881995 0
    outer loop
      vertex 45.3334 84.2528 36
      vertex 45.074 84.1142 8
      vertex 45.3334 84.2528 8
    endloop
  endfacet
  facet normal 0 -1 0
    outer loop
      vertex -44.5 84 36
      vertex -1.1 84 28.5
      vertex 44.5 84 36
    endloop
  endfacet
  facet normal 0 -1 0
    outer loop
      vertex -44.5 84 36
      vertex -1.1 84 27.5
      vertex -1.1 84 28.5
    endloop
  endfacet
  facet normal 0 -1 -0
    outer loop
      vertex -1.1 84 27.5
      vertex -44.5 84 8
      vertex 0 84 27.5
    endloop
  endfacet
  facet normal 0 -1 0
    outer loop
      vertex -44.5 84 8
      vertex -1.1 84 27.5
      vertex -44.5 84 36
    endloop
  endfacet
  facet normal 0 -1 0
    outer loop
      vertex 0 84 28.5
      vertex 44.5 84 36
      vertex -1.1 84 28.5
    endloop
  endfacet
  facet normal 0 -1 0
    outer loop
      vertex 0 84 27.5
      vertex 44.5 84 36
      vertex 0 84 28.5
    endloop
  endfacet
  facet normal 0 -1 0
    outer loop
      vertex 44.5 84 8
      vertex 0 84 27.5
      vertex -44.5 84 8
    endloop
  endfacet
  facet normal 0 -1 0
    outer loop
      vertex 0 84 27.5
      vertex 44.5 84 8
      vertex 44.5 84 36
    endloop
  endfacet
  facet normal 0 1 0
    outer loop
      vertex 44.5 88 36
      vertex 0 88 28.5
      vertex -44.5 88 36
    endloop
  endfacet
  facet normal 0 1 0
    outer loop
      vertex 44.5 88 36
      vertex 0 88 27.5
      vertex 0 88 28.5
    endloop
  endfacet
  facet normal 0 1 0
    outer loop
      vertex 0 88 27.5
      vertex 44.5 88 8
      vertex -1.1 88 27.5
    endloop
  endfacet
  facet normal 0 1 -0
    outer loop
      vertex 44.5 88 8
      vertex 0 88 27.5
      vertex 44.5 88 36
    endloop
  endfacet
  facet normal 0 1 -0
    outer loop
      vertex -1.1 88 28.5
      vertex -44.5 88 36
      vertex 0 88 28.5
    endloop
  endfacet
  facet normal 0 1 -0
    outer loop
      vertex -1.1 88 27.5
      vertex -44.5 88 36
      vertex -1.1 88 28.5
    endloop
  endfacet
  facet normal 0 1 0
    outer loop
      vertex -44.5 88 8
      vertex -1.1 88 27.5
      vertex 44.5 88 8
    endloop
  endfacet
  facet normal 0 1 0
    outer loop
      vertex -1.1 88 27.5
      vertex -44.5 88 8
      vertex -44.5 88 36
    endloop
  endfacet
  facet normal 1 -0 0
    outer loop
      vertex 46 85.5 36
      vertex 46 86.5 8
      vertex 46 86.5 36
    endloop
  endfacet
  facet normal 1 0 0
    outer loop
      vertex 46 86.5 8
      vertex 46 85.5 36
      vertex 46 85.5 8
    endloop
  endfacet
  facet normal 0.290404 -0.956904 0
    outer loop
      vertex 44.7926 84.0288 8
      vertex 45.074 84.1142 36
      vertex 44.7926 84.0288 36
    endloop
  endfacet
  facet normal 0.290404 -0.956904 0
    outer loop
      vertex 45.074 84.1142 36
      vertex 44.7926 84.0288 8
      vertex 45.074 84.1142 8
    endloop
  endfacet
  facet normal 0.881995 0.471259 0
    outer loop
      vertex 45.8858 87.074 36
      vertex 45.7472 87.3334 8
      vertex 45.7472 87.3334 36
    endloop
  endfacet
  facet normal 0.881995 0.471259 0
    outer loop
      vertex 45.7472 87.3334 8
      vertex 45.8858 87.074 36
      vertex 45.8858 87.074 8
    endloop
  endfacet
  facet normal -0.995191 -0.0979545 0
    outer loop
      vertex -45.9712 85.2074 8
      vertex -46 85.5 36
      vertex -46 85.5 8
    endloop
  endfacet
  facet normal -0.995191 -0.0979545 0
    outer loop
      vertex -46 85.5 36
      vertex -45.9712 85.2074 8
      vertex -45.9712 85.2074 36
    endloop
  endfacet
  facet normal -0.881995 0.471259 0
    outer loop
      vertex -45.8858 87.074 8
      vertex -45.7472 87.3334 36
      vertex -45.7472 87.3334 8
    endloop
  endfacet
  facet normal -0.881995 0.471259 0
    outer loop
      vertex -45.7472 87.3334 36
      vertex -45.8858 87.074 8
      vertex -45.8858 87.074 36
    endloop
  endfacet
  facet normal 0.634311 0.773078 -0
    outer loop
      vertex 45.5607 87.5607 8
      vertex 45.3334 87.7472 36
      vertex 45.5607 87.5607 36
    endloop
  endfacet
  facet normal 0.634311 0.773078 0
    outer loop
      vertex 45.3334 87.7472 36
      vertex 45.5607 87.5607 8
      vertex 45.3334 87.7472 8
    endloop
  endfacet
  facet normal -0.773078 0.634311 0
    outer loop
      vertex -45.7472 87.3334 8
      vertex -45.5607 87.5607 36
      vertex -45.5607 87.5607 8
    endloop
  endfacet
  facet normal -0.773078 0.634311 0
    outer loop
      vertex -45.5607 87.5607 36
      vertex -45.7472 87.3334 8
      vertex -45.7472 87.3334 36
    endloop
  endfacet
  facet normal 0.881995 -0.471259 0
    outer loop
      vertex 45.7472 84.6666 36
      vertex 45.8858 84.926 8
      vertex 45.8858 84.926 36
    endloop
  endfacet
  facet normal 0.881995 -0.471259 0
    outer loop
      vertex 45.8858 84.926 8
      vertex 45.7472 84.6666 36
      vertex 45.7472 84.6666 8
    endloop
  endfacet
  facet normal 0.995191 0.0979545 0
    outer loop
      vertex 46 86.5 36
      vertex 45.9712 86.7926 8
      vertex 45.9712 86.7926 36
    endloop
  endfacet
  facet normal 0.995191 0.0979545 0
    outer loop
      vertex 45.9712 86.7926 8
      vertex 46 86.5 36
      vertex 46 86.5 8
    endloop
  endfacet
  facet normal -0.995191 0.0979545 0
    outer loop
      vertex -46 86.5 8
      vertex -45.9712 86.7926 36
      vertex -45.9712 86.7926 8
    endloop
  endfacet
  facet normal -0.995191 0.0979545 0
    outer loop
      vertex -45.9712 86.7926 36
      vertex -46 86.5 8
      vertex -46 86.5 36
    endloop
  endfacet
  facet normal -0.471259 0.881995 0
    outer loop
      vertex -45.074 87.8858 8
      vertex -45.3334 87.7472 36
      vertex -45.074 87.8858 36
    endloop
  endfacet
  facet normal -0.471259 0.881995 0
    outer loop
      vertex -45.3334 87.7472 36
      vertex -45.074 87.8858 8
      vertex -45.3334 87.7472 8
    endloop
  endfacet
  facet normal 0.995191 -0.0979545 0
    outer loop
      vertex 45.9712 85.2074 36
      vertex 46 85.5 8
      vertex 46 85.5 36
    endloop
  endfacet
  facet normal 0.995191 -0.0979545 0
    outer loop
      vertex 46 85.5 8
      vertex 45.9712 85.2074 36
      vertex 45.9712 85.2074 8
    endloop
  endfacet
  facet normal 0.471259 0.881995 -0
    outer loop
      vertex 45.3334 87.7472 8
      vertex 45.074 87.8858 36
      vertex 45.3334 87.7472 36
    endloop
  endfacet
  facet normal 0.471259 0.881995 0
    outer loop
      vertex 45.074 87.8858 36
      vertex 45.3334 87.7472 8
      vertex 45.074 87.8858 8
    endloop
  endfacet
  facet normal -0.290404 0.956904 0
    outer loop
      vertex -44.7926 87.9712 8
      vertex -45.074 87.8858 36
      vertex -44.7926 87.9712 36
    endloop
  endfacet
  facet normal -0.290404 0.956904 0
    outer loop
      vertex -45.074 87.8858 36
      vertex -44.7926 87.9712 8
      vertex -45.074 87.8858 8
    endloop
  endfacet
  facet normal 0.773078 0.634311 0
    outer loop
      vertex 45.7472 87.3334 36
      vertex 45.5607 87.5607 8
      vertex 45.5607 87.5607 36
    endloop
  endfacet
  facet normal 0.773078 0.634311 0
    outer loop
      vertex 45.5607 87.5607 8
      vertex 45.7472 87.3334 36
      vertex 45.7472 87.3334 8
    endloop
  endfacet
  facet normal 0.956904 0.290404 0
    outer loop
      vertex 45.9712 86.7926 36
      vertex 45.8858 87.074 8
      vertex 45.8858 87.074 36
    endloop
  endfacet
  facet normal 0.956904 0.290404 0
    outer loop
      vertex 45.8858 87.074 8
      vertex 45.9712 86.7926 36
      vertex 45.9712 86.7926 8
    endloop
  endfacet
  facet normal -0.471259 -0.881995 0
    outer loop
      vertex -45.3334 84.2528 8
      vertex -45.074 84.1142 36
      vertex -45.3334 84.2528 36
    endloop
  endfacet
  facet normal -0.471259 -0.881995 -0
    outer loop
      vertex -45.074 84.1142 36
      vertex -45.3334 84.2528 8
      vertex -45.074 84.1142 8
    endloop
  endfacet
  facet normal 0.773078 -0.634311 0
    outer loop
      vertex 45.5607 84.4393 36
      vertex 45.7472 84.6666 8
      vertex 45.7472 84.6666 36
    endloop
  endfacet
  facet normal 0.773078 -0.634311 0
    outer loop
      vertex 45.7472 84.6666 8
      vertex 45.5607 84.4393 36
      vertex 45.5607 84.4393 8
    endloop
  endfacet
  facet normal -0.0979545 -0.995191 0
    outer loop
      vertex -44.7926 84.0288 8
      vertex -44.5 84 36
      vertex -44.7926 84.0288 36
    endloop
  endfacet
  facet normal -0.0979545 -0.995191 -0
    outer loop
      vertex -44.5 84 36
      vertex -44.7926 84.0288 8
      vertex -44.5 84 8
    endloop
  endfacet
  facet normal 0.0979545 -0.995191 0
    outer loop
      vertex 44.5 84 8
      vertex 44.7926 84.0288 36
      vertex 44.5 84 36
    endloop
  endfacet
  facet normal 0.0979545 -0.995191 0
    outer loop
      vertex 44.7926 84.0288 36
      vertex 44.5 84 8
      vertex 44.7926 84.0288 8
    endloop
  endfacet
  facet normal -0.956904 0.290404 0
    outer loop
      vertex -45.9712 86.7926 8
      vertex -45.8858 87.074 36
      vertex -45.8858 87.074 8
    endloop
  endfacet
  facet normal -0.956904 0.290404 0
    outer loop
      vertex -45.8858 87.074 36
      vertex -45.9712 86.7926 8
      vertex -45.9712 86.7926 36
    endloop
  endfacet
  facet normal -0.881995 -0.471259 0
    outer loop
      vertex -45.7472 84.6666 8
      vertex -45.8858 84.926 36
      vertex -45.8858 84.926 8
    endloop
  endfacet
  facet normal -0.881995 -0.471259 0
    outer loop
      vertex -45.8858 84.926 36
      vertex -45.7472 84.6666 8
      vertex -45.7472 84.6666 36
    endloop
  endfacet
  facet normal -0.956904 -0.290404 0
    outer loop
      vertex -45.8858 84.926 8
      vertex -45.9712 85.2074 36
      vertex -45.9712 85.2074 8
    endloop
  endfacet
  facet normal -0.956904 -0.290404 0
    outer loop
      vertex -45.9712 85.2074 36
      vertex -45.8858 84.926 8
      vertex -45.8858 84.926 36
    endloop
  endfacet
  facet normal -0.773078 -0.634311 0
    outer loop
      vertex -45.5607 84.4393 8
      vertex -45.7472 84.6666 36
      vertex -45.7472 84.6666 8
    endloop
  endfacet
  facet normal -0.773078 -0.634311 0
    outer loop
      vertex -45.7472 84.6666 36
      vertex -45.5607 84.4393 8
      vertex -45.5607 84.4393 36
    endloop
  endfacet
  facet normal 0 0 -1
    outer loop
      vertex 44.5 84 8
      vertex 46 85.5 8
      vertex 45.9712 85.2074 8
    endloop
  endfacet
  facet normal -0 0 -1
    outer loop
      vertex 46 85.5 8
      vertex 44.5 84 8
      vertex 46 86.5 8
    endloop
  endfacet
  facet normal 0 0 -1
    outer loop
      vertex 44.5 84 8
      vertex 45.9712 85.2074 8
      vertex 45.8858 84.926 8
    endloop
  endfacet
  facet normal 0 0 -1
    outer loop
      vertex 44.5 88 8
      vertex 46 86.5 8
      vertex 44.5 84 8
    endloop
  endfacet
  facet normal 0 0 -1
    outer loop
      vertex 44.5 84 8
      vertex 45.8858 84.926 8
      vertex 45.7472 84.6666 8
    endloop
  endfacet
  facet normal 0 0 -1
    outer loop
      vertex 46 86.5 8
      vertex 44.5 88 8
      vertex 45.9712 86.7926 8
    endloop
  endfacet
  facet normal 0 0 -1
    outer loop
      vertex 44.5 84 8
      vertex 45.7472 84.6666 8
      vertex 45.5607 84.4393 8
    endloop
  endfacet
  facet normal 0 0 -1
    outer loop
      vertex 45.9712 86.7926 8
      vertex 44.5 88 8
      vertex 45.8858 87.074 8
    endloop
  endfacet
  facet normal 0 0 -1
    outer loop
      vertex 44.5 84 8
      vertex 45.5607 84.4393 8
      vertex 45.3334 84.2528 8
    endloop
  endfacet
  facet normal 0 0 -1
    outer loop
      vertex 45.8858 87.074 8
      vertex 44.5 88 8
      vertex 45.7472 87.3334 8
    endloop
  endfacet
  facet normal 0 0 -1
    outer loop
      vertex 44.5 84 8
      vertex 45.3334 84.2528 8
      vertex 45.074 84.1142 8
    endloop
  endfacet
  facet normal 0 0 -1
    outer loop
      vertex 45.7472 87.3334 8
      vertex 44.5 88 8
      vertex 45.5607 87.5607 8
    endloop
  endfacet
  facet normal 0 0 -1
    outer loop
      vertex 44.5 84 8
      vertex 45.074 84.1142 8
      vertex 44.7926 84.0288 8
    endloop
  endfacet
  facet normal 0 0 -1
    outer loop
      vertex 45.5607 87.5607 8
      vertex 44.5 88 8
      vertex 45.3334 87.7472 8
    endloop
  endfacet
  facet normal 0 0 -1
    outer loop
      vertex 45.3334 87.7472 8
      vertex 44.5 88 8
      vertex 45.074 87.8858 8
    endloop
  endfacet
  facet normal 0 0 -1
    outer loop
      vertex 45.074 87.8858 8
      vertex 44.5 88 8
      vertex 44.7926 87.9712 8
    endloop
  endfacet
  facet normal 0 0 -1
    outer loop
      vertex -44.5 84 8
      vertex 44.5 88 8
      vertex 44.5 84 8
    endloop
  endfacet
  facet normal 0 0 -1
    outer loop
      vertex -44.5 84 8
      vertex -44.5 88 8
      vertex 44.5 88 8
    endloop
  endfacet
  facet normal 0 0 -1
    outer loop
      vertex -46 85.5 8
      vertex -44.5 84 8
      vertex -44.7926 84.0288 8
    endloop
  endfacet
  facet normal 0 0 -1
    outer loop
      vertex -44.5 84 8
      vertex -46 85.5 8
      vertex -44.5 88 8
    endloop
  endfacet
  facet normal 0 0 -1
    outer loop
      vertex -46 85.5 8
      vertex -44.7926 84.0288 8
      vertex -45.074 84.1142 8
    endloop
  endfacet
  facet normal 0 0 -1
    outer loop
      vertex -46 86.5 8
      vertex -44.5 88 8
      vertex -46 85.5 8
    endloop
  endfacet
  facet normal 0 0 -1
    outer loop
      vertex -46 85.5 8
      vertex -45.074 84.1142 8
      vertex -45.3334 84.2528 8
    endloop
  endfacet
  facet normal 0 0 -1
    outer loop
      vertex -44.5 88 8
      vertex -46 86.5 8
      vertex -44.7926 87.9712 8
    endloop
  endfacet
  facet normal 0 0 -1
    outer loop
      vertex -46 85.5 8
      vertex -45.3334 84.2528 8
      vertex -45.5607 84.4393 8
    endloop
  endfacet
  facet normal 0 0 -1
    outer loop
      vertex -44.7926 87.9712 8
      vertex -46 86.5 8
      vertex -45.074 87.8858 8
    endloop
  endfacet
  facet normal 0 0 -1
    outer loop
      vertex -46 85.5 8
      vertex -45.5607 84.4393 8
      vertex -45.7472 84.6666 8
    endloop
  endfacet
  facet normal 0 0 -1
    outer loop
      vertex -45.074 87.8858 8
      vertex -46 86.5 8
      vertex -45.3334 87.7472 8
    endloop
  endfacet
  facet normal 0 0 -1
    outer loop
      vertex -46 85.5 8
      vertex -45.7472 84.6666 8
      vertex -45.8858 84.926 8
    endloop
  endfacet
  facet normal 0 0 -1
    outer loop
      vertex -45.3334 87.7472 8
      vertex -46 86.5 8
      vertex -45.5607 87.5607 8
    endloop
  endfacet
  facet normal 0 0 -1
    outer loop
      vertex -46 85.5 8
      vertex -45.8858 84.926 8
      vertex -45.9712 85.2074 8
    endloop
  endfacet
  facet normal 0 0 -1
    outer loop
      vertex -45.5607 87.5607 8
      vertex -46 86.5 8
      vertex -45.7472 87.3334 8
    endloop
  endfacet
  facet normal 0 0 -1
    outer loop
      vertex -45.7472 87.3334 8
      vertex -46 86.5 8
      vertex -45.8858 87.074 8
    endloop
  endfacet
  facet normal 0 0 -1
    outer loop
      vertex -45.8858 87.074 8
      vertex -46 86.5 8
      vertex -45.9712 86.7926 8
    endloop
  endfacet
  facet normal 0.634311 -0.773078 0
    outer loop
      vertex 45.3334 84.2528 8
      vertex 45.5607 84.4393 36
      vertex 45.3334 84.2528 36
    endloop
  endfacet
  facet normal 0.634311 -0.773078 0
    outer loop
      vertex 45.5607 84.4393 36
      vertex 45.3334 84.2528 8
      vertex 45.5607 84.4393 8
    endloop
  endfacet
  facet normal -0.634311 0.773078 0
    outer loop
      vertex -45.3334 87.7472 8
      vertex -45.5607 87.5607 36
      vertex -45.3334 87.7472 36
    endloop
  endfacet
  facet normal -0.634311 0.773078 0
    outer loop
      vertex -45.5607 87.5607 36
      vertex -45.3334 87.7472 8
      vertex -45.5607 87.5607 8
    endloop
  endfacet
  facet normal -0.634311 -0.773078 0
    outer loop
      vertex -45.5607 84.4393 8
      vertex -45.3334 84.2528 36
      vertex -45.5607 84.4393 36
    endloop
  endfacet
  facet normal -0.634311 -0.773078 -0
    outer loop
      vertex -45.3334 84.2528 36
      vertex -45.5607 84.4393 8
      vertex -45.3334 84.2528 8
    endloop
  endfacet
  facet normal -0.290404 -0.956904 0
    outer loop
      vertex -45.074 84.1142 8
      vertex -44.7926 84.0288 36
      vertex -45.074 84.1142 36
    endloop
  endfacet
  facet normal -0.290404 -0.956904 -0
    outer loop
      vertex -44.7926 84.0288 36
      vertex -45.074 84.1142 8
      vertex -44.7926 84.0288 8
    endloop
  endfacet
  facet normal -0.0979545 0.995191 0
    outer loop
      vertex -44.5 88 8
      vertex -44.7926 87.9712 36
      vertex -44.5 88 36
    endloop
  endfacet
  facet normal -0.0979545 0.995191 0
    outer loop
      vertex -44.7926 87.9712 36
      vertex -44.5 88 8
      vertex -44.7926 87.9712 8
    endloop
  endfacet
  facet normal 0 0 1
    outer loop
      vertex 44.5 88 36
      vertex 46 86.5 36
      vertex 45.9712 86.7926 36
    endloop
  endfacet
  facet normal 0 0 1
    outer loop
      vertex 46 86.5 36
      vertex 44.5 88 36
      vertex 46 85.5 36
    endloop
  endfacet
  facet normal 0 0 1
    outer loop
      vertex 44.5 88 36
      vertex 45.9712 86.7926 36
      vertex 45.8858 87.074 36
    endloop
  endfacet
  facet normal 0 0 1
    outer loop
      vertex 44.5 84 36
      vertex 46 85.5 36
      vertex 44.5 88 36
    endloop
  endfacet
  facet normal 0 0 1
    outer loop
      vertex 44.5 88 36
      vertex 45.8858 87.074 36
      vertex 45.7472 87.3334 36
    endloop
  endfacet
  facet normal 0 0 1
    outer loop
      vertex 46 85.5 36
      vertex 44.5 84 36
      vertex 45.9712 85.2074 36
    endloop
  endfacet
  facet normal 0 0 1
    outer loop
      vertex 44.5 88 36
      vertex 45.7472 87.3334 36
      vertex 45.5607 87.5607 36
    endloop
  endfacet
  facet normal 0 0 1
    outer loop
      vertex 45.9712 85.2074 36
      vertex 44.5 84 36
      vertex 45.8858 84.926 36
    endloop
  endfacet
  facet normal 0 0 1
    outer loop
      vertex 44.5 88 36
      vertex 45.5607 87.5607 36
      vertex 45.3334 87.7472 36
    endloop
  endfacet
  facet normal 0 0 1
    outer loop
      vertex 45.8858 84.926 36
      vertex 44.5 84 36
      vertex 45.7472 84.6666 36
    endloop
  endfacet
  facet normal 0 0 1
    outer loop
      vertex 44.5 88 36
      vertex 45.3334 87.7472 36
      vertex 45.074 87.8858 36
    endloop
  endfacet
  facet normal 0 0 1
    outer loop
      vertex 45.7472 84.6666 36
      vertex 44.5 84 36
      vertex 45.5607 84.4393 36
    endloop
  endfacet
  facet normal 0 0 1
    outer loop
      vertex 44.5 88 36
      vertex 45.074 87.8858 36
      vertex 44.7926 87.9712 36
    endloop
  endfacet
  facet normal 0 0 1
    outer loop
      vertex 45.5607 84.4393 36
      vertex 44.5 84 36
      vertex 45.3334 84.2528 36
    endloop
  endfacet
  facet normal 0 0 1
    outer loop
      vertex 45.3334 84.2528 36
      vertex 44.5 84 36
      vertex 45.074 84.1142 36
    endloop
  endfacet
  facet normal 0 0 1
    outer loop
      vertex 45.074 84.1142 36
      vertex 44.5 84 36
      vertex 44.7926 84.0288 36
    endloop
  endfacet
  facet normal -0 0 1
    outer loop
      vertex -44.5 88 36
      vertex 44.5 84 36
      vertex 44.5 88 36
    endloop
  endfacet
  facet normal 0 0 1
    outer loop
      vertex -44.5 88 36
      vertex -44.5 84 36
      vertex 44.5 84 36
    endloop
  endfacet
  facet normal 0 0 1
    outer loop
      vertex -46 86.5 36
      vertex -44.5 88 36
      vertex -44.7926 87.9712 36
    endloop
  endfacet
  facet normal 0 0 1
    outer loop
      vertex -44.5 88 36
      vertex -46 86.5 36
      vertex -44.5 84 36
    endloop
  endfacet
  facet normal 0 0 1
    outer loop
      vertex -46 86.5 36
      vertex -44.7926 87.9712 36
      vertex -45.074 87.8858 36
    endloop
  endfacet
  facet normal -0 0 1
    outer loop
      vertex -46 85.5 36
      vertex -44.5 84 36
      vertex -46 86.5 36
    endloop
  endfacet
  facet normal 0 0 1
    outer loop
      vertex -46 86.5 36
      vertex -45.074 87.8858 36
      vertex -45.3334 87.7472 36
    endloop
  endfacet
  facet normal 0 0 1
    outer loop
      vertex -44.5 84 36
      vertex -46 85.5 36
      vertex -44.7926 84.0288 36
    endloop
  endfacet
  facet normal 0 0 1
    outer loop
      vertex -46 86.5 36
      vertex -45.3334 87.7472 36
      vertex -45.5607 87.5607 36
    endloop
  endfacet
  facet normal 0 0 1
    outer loop
      vertex -44.7926 84.0288 36
      vertex -46 85.5 36
      vertex -45.074 84.1142 36
    endloop
  endfacet
  facet normal 0 0 1
    outer loop
      vertex -46 86.5 36
      vertex -45.5607 87.5607 36
      vertex -45.7472 87.3334 36
    endloop
  endfacet
  facet normal 0 0 1
    outer loop
      vertex -45.074 84.1142 36
      vertex -46 85.5 36
      vertex -45.3334 84.2528 36
    endloop
  endfacet
  facet normal 0 0 1
    outer loop
      vertex -46 86.5 36
      vertex -45.7472 87.3334 36
      vertex -45.8858 87.074 36
    endloop
  endfacet
  facet normal 0 0 1
    outer loop
      vertex -45.3334 84.2528 36
      vertex -46 85.5 36
      vertex -45.5607 84.4393 36
    endloop
  endfacet
  facet normal 0 0 1
    outer loop
      vertex -46 86.5 36
      vertex -45.8858 87.074 36
      vertex -45.9712 86.7926 36
    endloop
  endfacet
  facet normal 0 0 1
    outer loop
      vertex -45.5607 84.4393 36
      vertex -46 85.5 36
      vertex -45.7472 84.6666 36
    endloop
  endfacet
  facet normal 0 0 1
    outer loop
      vertex -45.7472 84.6666 36
      vertex -46 85.5 36
      vertex -45.8858 84.926 36
    endloop
  endfacet
  facet normal 0 0 1
    outer loop
      vertex -45.8858 84.926 36
      vertex -46 85.5 36
      vertex -45.9712 85.2074 36
    endloop
  endfacet
endsolid OpenSCAD_Model
