solid OpenSCAD_Model
  facet normal 0 0 1
    outer loop
      vertex 98.9222 21.4916 5
      vertex 120 26 5
      vertex 99.0608 21.751 5
    endloop
  endfacet
  facet normal 0 0 1
    outer loop
      vertex 120 -26 5
      vertex 99.1462 -22.0324 5
      vertex 99.175 -22.325 5
    endloop
  endfacet
  facet normal 0 0 1
    outer loop
      vertex 98.7357 21.2643 5
      vertex 120 26 5
      vertex 98.9222 21.4916 5
    endloop
  endfacet
  facet normal 0 0 1
    outer loop
      vertex 120 -26 5
      vertex 99.0608 -21.751 5
      vertex 99.1462 -22.0324 5
    endloop
  endfacet
  facet normal 0 0 1
    outer loop
      vertex 98.5084 21.0778 5
      vertex 120 26 5
      vertex 98.7357 21.2643 5
    endloop
  endfacet
  facet normal 0 0 1
    outer loop
      vertex 120 -26 5
      vertex 98.9222 -21.4916 5
      vertex 99.0608 -21.751 5
    endloop
  endfacet
  facet normal 0 0 1
    outer loop
      vertex 120 26 5
      vertex 98.5084 21.0778 5
      vertex 120 -26 5
    endloop
  endfacet
  facet normal 0 0 1
    outer loop
      vertex 120 -26 5
      vertex 98.7357 -21.2643 5
      vertex 98.9222 -21.4916 5
    endloop
  endfacet
  facet normal -0 0 1
    outer loop
      vertex 98.5084 -21.0778 5
      vertex 120 -26 5
      vertex 98.5084 21.0778 5
    endloop
  endfacet
  facet normal 0 0 1
    outer loop
      vertex 120 -26 5
      vertex 98.5084 -21.0778 5
      vertex 98.7357 -21.2643 5
    endloop
  endfacet
  facet normal -0 0 1
    outer loop
      vertex 98.249 20.9392 5
      vertex 98.5084 -21.0778 5
      vertex 98.5084 21.0778 5
    endloop
  endfacet
  facet normal 0 0 1
    outer loop
      vertex 98.249 20.9392 5
      vertex 98.249 -20.9392 5
      vertex 98.5084 -21.0778 5
    endloop
  endfacet
  facet normal -0 0 1
    outer loop
      vertex 97.9676 20.8538 5
      vertex 98.249 -20.9392 5
      vertex 98.249 20.9392 5
    endloop
  endfacet
  facet normal 0 0 1
    outer loop
      vertex 97.9676 20.8538 5
      vertex 97.9676 -20.8538 5
      vertex 98.249 -20.9392 5
    endloop
  endfacet
  facet normal 0 0 1
    outer loop
      vertex 91.99 19.1958 5
      vertex 97.9676 20.8538 5
      vertex 97.675 20.825 5
    endloop
  endfacet
  facet normal 0 0 1
    outer loop
      vertex 97.9676 20.8538 5
      vertex 91.99 19.1958 5
      vertex 97.9676 -20.8538 5
    endloop
  endfacet
  facet normal 0 0 1
    outer loop
      vertex 93.677 20.323 5
      vertex 97.675 20.825 5
      vertex 94.0889 20.825 5
    endloop
  endfacet
  facet normal 0 0 1
    outer loop
      vertex 92.889 19.6764 5
      vertex 97.675 20.825 5
      vertex 93.677 20.323 5
    endloop
  endfacet
  facet normal 0 0 1
    outer loop
      vertex 91.99 19.1958 5
      vertex 97.675 20.825 5
      vertex 92.889 19.6764 5
    endloop
  endfacet
  facet normal 0 0 1
    outer loop
      vertex 97.675 -20.825 5
      vertex 93.677 -20.323 5
      vertex 94.0889 -20.825 5
    endloop
  endfacet
  facet normal -0 0 1
    outer loop
      vertex 91.99 -19.1958 5
      vertex 97.9676 -20.8538 5
      vertex 91.99 19.1958 5
    endloop
  endfacet
  facet normal 0 0 1
    outer loop
      vertex 97.675 -20.825 5
      vertex 92.889 -19.6764 5
      vertex 93.677 -20.323 5
    endloop
  endfacet
  facet normal 0 0 1
    outer loop
      vertex 97.9676 -20.8538 5
      vertex 91.99 -19.1958 5
      vertex 97.675 -20.825 5
    endloop
  endfacet
  facet normal 0 0 1
    outer loop
      vertex 97.675 -20.825 5
      vertex 91.99 -19.1958 5
      vertex 92.889 -19.6764 5
    endloop
  endfacet
  facet normal -0 0 1
    outer loop
      vertex 91.0145 18.8999 5
      vertex 91.99 -19.1958 5
      vertex 91.99 19.1958 5
    endloop
  endfacet
  facet normal 0 0 1
    outer loop
      vertex 91.0145 18.8999 5
      vertex 91.0145 -18.8999 5
      vertex 91.99 -19.1958 5
    endloop
  endfacet
  facet normal -0 0 1
    outer loop
      vertex 90 18.8 5
      vertex 91.0145 -18.8999 5
      vertex 91.0145 18.8999 5
    endloop
  endfacet
  facet normal 0 0 1
    outer loop
      vertex 90 18.8 5
      vertex 90 -18.8 5
      vertex 91.0145 -18.8999 5
    endloop
  endfacet
  facet normal 0 0 1
    outer loop
      vertex 88.9855 18.8999 5
      vertex 90 -18.8 5
      vertex 90 18.8 5
    endloop
  endfacet
  facet normal 0 0 1
    outer loop
      vertex 88.9855 18.8999 5
      vertex 88.9855 -18.8999 5
      vertex 90 -18.8 5
    endloop
  endfacet
  facet normal 0 0 1
    outer loop
      vertex 88.01 19.1958 5
      vertex 88.9855 -18.8999 5
      vertex 88.9855 18.8999 5
    endloop
  endfacet
  facet normal 0 0 1
    outer loop
      vertex 88.01 19.1958 5
      vertex 88.01 -19.1958 5
      vertex 88.9855 -18.8999 5
    endloop
  endfacet
  facet normal 0 0 1
    outer loop
      vertex 82.325 20.825 5
      vertex 88.01 19.1958 5
      vertex 87.111 19.6764 5
    endloop
  endfacet
  facet normal 0 0 1
    outer loop
      vertex 88.01 19.1958 5
      vertex 82.0324 20.8538 5
      vertex 88.01 -19.1958 5
    endloop
  endfacet
  facet normal 0 0 1
    outer loop
      vertex 82.325 20.825 5
      vertex 87.111 19.6764 5
      vertex 86.323 20.323 5
    endloop
  endfacet
  facet normal 0 0 1
    outer loop
      vertex 88.01 19.1958 5
      vertex 82.325 20.825 5
      vertex 82.0324 20.8538 5
    endloop
  endfacet
  facet normal -0 0 1
    outer loop
      vertex 82.325 20.825 5
      vertex 86.323 20.323 5
      vertex 85.9111 20.825 5
    endloop
  endfacet
  facet normal 0 0 1
    outer loop
      vertex 82.0324 -20.8538 5
      vertex 88.01 -19.1958 5
      vertex 82.0324 20.8538 5
    endloop
  endfacet
  facet normal 0 0 1
    outer loop
      vertex 87.111 -19.6764 5
      vertex 82.325 -20.825 5
      vertex 86.323 -20.323 5
    endloop
  endfacet
  facet normal 0 0 1
    outer loop
      vertex 86.323 -20.323 5
      vertex 82.325 -20.825 5
      vertex 85.9111 -20.825 5
    endloop
  endfacet
  facet normal 0 -0 1
    outer loop
      vertex 82.325 -20.825 5
      vertex 88.01 -19.1958 5
      vertex 82.0324 -20.8538 5
    endloop
  endfacet
  facet normal 0 0 1
    outer loop
      vertex 88.01 -19.1958 5
      vertex 82.325 -20.825 5
      vertex 87.111 -19.6764 5
    endloop
  endfacet
  facet normal 0 0 1
    outer loop
      vertex 81.751 20.9392 5
      vertex 82.0324 -20.8538 5
      vertex 82.0324 20.8538 5
    endloop
  endfacet
  facet normal 0 0 1
    outer loop
      vertex 81.751 20.9392 5
      vertex 81.751 -20.9392 5
      vertex 82.0324 -20.8538 5
    endloop
  endfacet
  facet normal 0 0 1
    outer loop
      vertex 81.4916 21.0778 5
      vertex 81.751 -20.9392 5
      vertex 81.751 20.9392 5
    endloop
  endfacet
  facet normal 0 0 1
    outer loop
      vertex 81.4916 21.0778 5
      vertex 81.4916 -21.0778 5
      vertex 81.751 -20.9392 5
    endloop
  endfacet
  facet normal 0 0 1
    outer loop
      vertex 81.2643 21.2643 5
      vertex 81.4916 -21.0778 5
      vertex 81.4916 21.0778 5
    endloop
  endfacet
  facet normal 0 0 1
    outer loop
      vertex 81.2643 21.2643 5
      vertex 81.2643 -21.2643 5
      vertex 81.4916 -21.0778 5
    endloop
  endfacet
  facet normal 0 0 1
    outer loop
      vertex 81.0778 21.4916 5
      vertex 81.2643 -21.2643 5
      vertex 81.2643 21.2643 5
    endloop
  endfacet
  facet normal 0 0 1
    outer loop
      vertex 81.0778 21.4916 5
      vertex 81.0778 -21.4916 5
      vertex 81.2643 -21.2643 5
    endloop
  endfacet
  facet normal 0 0 1
    outer loop
      vertex 80.9392 21.751 5
      vertex 81.0778 -21.4916 5
      vertex 81.0778 21.4916 5
    endloop
  endfacet
  facet normal 0 0 1
    outer loop
      vertex 80.9392 21.751 5
      vertex 80.9392 -21.751 5
      vertex 81.0778 -21.4916 5
    endloop
  endfacet
  facet normal 0 0 1
    outer loop
      vertex 0 32 5
      vertex 80.9392 21.751 5
      vertex 80.8538 22.0324 5
    endloop
  endfacet
  facet normal 0 0 1
    outer loop
      vertex 80.9392 21.751 5
      vertex 0 32 5
      vertex 80.9392 -21.751 5
    endloop
  endfacet
  facet normal 0 0 1
    outer loop
      vertex 0 32 5
      vertex 80.8538 22.0324 5
      vertex 80.825 22.325 5
    endloop
  endfacet
  facet normal 0 0 1
    outer loop
      vertex 0 -32 5
      vertex 80.9392 -21.751 5
      vertex 0 32 5
    endloop
  endfacet
  facet normal 0 0 1
    outer loop
      vertex 114 32 5
      vertex 120 26 5
      vertex 119.885 27.1705 5
    endloop
  endfacet
  facet normal 0 0 1
    outer loop
      vertex 99.1462 22.0324 5
      vertex 120 26 5
      vertex 99.175 22.325 5
    endloop
  endfacet
  facet normal 0 0 1
    outer loop
      vertex 114 32 5
      vertex 119.885 27.1705 5
      vertex 119.543 28.2961 5
    endloop
  endfacet
  facet normal 0 0 1
    outer loop
      vertex 99.0608 21.751 5
      vertex 120 26 5
      vertex 99.1462 22.0324 5
    endloop
  endfacet
  facet normal 0 0 1
    outer loop
      vertex 114 32 5
      vertex 119.543 28.2961 5
      vertex 118.989 29.3334 5
    endloop
  endfacet
  facet normal 0 -0 1
    outer loop
      vertex 114 -32 5
      vertex 120 -26 5
      vertex 99.175 -22.325 5
    endloop
  endfacet
  facet normal 0 0 1
    outer loop
      vertex 114 32 5
      vertex 118.989 29.3334 5
      vertex 118.243 30.2426 5
    endloop
  endfacet
  facet normal 0 0 1
    outer loop
      vertex 120 -26 5
      vertex 114 -32 5
      vertex 119.885 -27.1705 5
    endloop
  endfacet
  facet normal 0 0 1
    outer loop
      vertex 114 32 5
      vertex 118.243 30.2426 5
      vertex 117.333 30.9888 5
    endloop
  endfacet
  facet normal 0 0 1
    outer loop
      vertex 119.885 -27.1705 5
      vertex 114 -32 5
      vertex 119.543 -28.2961 5
    endloop
  endfacet
  facet normal 0 0 1
    outer loop
      vertex 114 32 5
      vertex 117.333 30.9888 5
      vertex 116.296 31.5433 5
    endloop
  endfacet
  facet normal 0 0 1
    outer loop
      vertex 119.543 -28.2961 5
      vertex 114 -32 5
      vertex 118.989 -29.3334 5
    endloop
  endfacet
  facet normal 0 0 1
    outer loop
      vertex 114 32 5
      vertex 116.296 31.5433 5
      vertex 115.171 31.8847 5
    endloop
  endfacet
  facet normal 0 0 1
    outer loop
      vertex 118.989 -29.3334 5
      vertex 114 -32 5
      vertex 118.243 -30.2426 5
    endloop
  endfacet
  facet normal 0 0 1
    outer loop
      vertex 120 26 5
      vertex 114 32 5
      vertex 99.175 22.325 5
    endloop
  endfacet
  facet normal 0 0 1
    outer loop
      vertex 118.243 -30.2426 5
      vertex 114 -32 5
      vertex 117.333 -30.9888 5
    endloop
  endfacet
  facet normal 0 0 1
    outer loop
      vertex 99.175 22.325 5
      vertex 114 32 5
      vertex 99.175 25.675 5
    endloop
  endfacet
  facet normal 0 0 1
    outer loop
      vertex 114 32 5
      vertex 99.1462 25.9676 5
      vertex 99.175 25.675 5
    endloop
  endfacet
  facet normal 0 0 1
    outer loop
      vertex 114 32 5
      vertex 99.0608 26.249 5
      vertex 99.1462 25.9676 5
    endloop
  endfacet
  facet normal 0 0 1
    outer loop
      vertex 114 32 5
      vertex 98.9222 26.5084 5
      vertex 99.0608 26.249 5
    endloop
  endfacet
  facet normal 0 0 1
    outer loop
      vertex 114 32 5
      vertex 98.7357 26.7357 5
      vertex 98.9222 26.5084 5
    endloop
  endfacet
  facet normal 0 0 1
    outer loop
      vertex 114 32 5
      vertex 98.5084 26.9222 5
      vertex 98.7357 26.7357 5
    endloop
  endfacet
  facet normal 0 0 1
    outer loop
      vertex 114 32 5
      vertex 98.249 27.0608 5
      vertex 98.5084 26.9222 5
    endloop
  endfacet
  facet normal 0 0 1
    outer loop
      vertex 114 32 5
      vertex 97.9676 27.1462 5
      vertex 98.249 27.0608 5
    endloop
  endfacet
  facet normal -0 0 1
    outer loop
      vertex 91.99 28.8042 5
      vertex 97.9676 27.1462 5
      vertex 114 32 5
    endloop
  endfacet
  facet normal 0 0 1
    outer loop
      vertex 97.9676 27.1462 5
      vertex 91.99 28.8042 5
      vertex 97.675 27.175 5
    endloop
  endfacet
  facet normal 0 0 1
    outer loop
      vertex 97.675 27.175 5
      vertex 93.677 27.677 5
      vertex 94.0889 27.175 5
    endloop
  endfacet
  facet normal 0 0 1
    outer loop
      vertex 97.675 27.175 5
      vertex 92.889 28.3236 5
      vertex 93.677 27.677 5
    endloop
  endfacet
  facet normal 0 0 1
    outer loop
      vertex 97.675 27.175 5
      vertex 91.99 28.8042 5
      vertex 92.889 28.3236 5
    endloop
  endfacet
  facet normal 0 0 1
    outer loop
      vertex 114 32 5
      vertex 91.0145 29.1001 5
      vertex 91.99 28.8042 5
    endloop
  endfacet
  facet normal 0 0 1
    outer loop
      vertex 114 32 5
      vertex 90 29.2 5
      vertex 91.0145 29.1001 5
    endloop
  endfacet
  facet normal -0 0 1
    outer loop
      vertex 0 32 5
      vertex 90 29.2 5
      vertex 114 32 5
    endloop
  endfacet
  facet normal 0 0 1
    outer loop
      vertex 86.323 27.677 5
      vertex 82.325 27.175 5
      vertex 85.9111 27.175 5
    endloop
  endfacet
  facet normal 0 0 1
    outer loop
      vertex 87.111 28.3236 5
      vertex 82.325 27.175 5
      vertex 86.323 27.677 5
    endloop
  endfacet
  facet normal 0 0 1
    outer loop
      vertex 88.01 28.8042 5
      vertex 82.325 27.175 5
      vertex 87.111 28.3236 5
    endloop
  endfacet
  facet normal 0 0 1
    outer loop
      vertex 82.0324 27.1462 5
      vertex 88.01 28.8042 5
      vertex 88.9855 29.1001 5
    endloop
  endfacet
  facet normal 0 0 1
    outer loop
      vertex 88.01 28.8042 5
      vertex 82.0324 27.1462 5
      vertex 82.325 27.175 5
    endloop
  endfacet
  facet normal 0 0 1
    outer loop
      vertex 0 32 5
      vertex 80.825 22.325 5
      vertex 80.825 25.675 5
    endloop
  endfacet
  facet normal 0 0 1
    outer loop
      vertex 80.9392 -21.751 5
      vertex 0 -32 5
      vertex 80.8538 -22.0324 5
    endloop
  endfacet
  facet normal 0 0 1
    outer loop
      vertex 80.8538 -22.0324 5
      vertex 0 -32 5
      vertex 80.825 -22.325 5
    endloop
  endfacet
  facet normal 0 0 1
    outer loop
      vertex 80.8538 25.9676 5
      vertex 0 32 5
      vertex 80.825 25.675 5
    endloop
  endfacet
  facet normal 0 0 1
    outer loop
      vertex 80.9392 26.249 5
      vertex 0 32 5
      vertex 80.8538 25.9676 5
    endloop
  endfacet
  facet normal 0 0 1
    outer loop
      vertex 81.0778 26.5084 5
      vertex 0 32 5
      vertex 80.9392 26.249 5
    endloop
  endfacet
  facet normal 0 0 1
    outer loop
      vertex 81.2643 26.7357 5
      vertex 0 32 5
      vertex 81.0778 26.5084 5
    endloop
  endfacet
  facet normal 0 0 1
    outer loop
      vertex 81.4916 26.9222 5
      vertex 0 32 5
      vertex 81.2643 26.7357 5
    endloop
  endfacet
  facet normal 0 0 1
    outer loop
      vertex 81.751 27.0608 5
      vertex 0 32 5
      vertex 81.4916 26.9222 5
    endloop
  endfacet
  facet normal 0 0 1
    outer loop
      vertex 82.0324 27.1462 5
      vertex 0 32 5
      vertex 81.751 27.0608 5
    endloop
  endfacet
  facet normal 0 0 1
    outer loop
      vertex 88.9855 29.1001 5
      vertex 0 32 5
      vertex 82.0324 27.1462 5
    endloop
  endfacet
  facet normal 0 0 1
    outer loop
      vertex 90 29.2 5
      vertex 0 32 5
      vertex 88.9855 29.1001 5
    endloop
  endfacet
  facet normal 0 0 1
    outer loop
      vertex 117.333 -30.9888 5
      vertex 114 -32 5
      vertex 116.296 -31.5433 5
    endloop
  endfacet
  facet normal 0 0 1
    outer loop
      vertex 116.296 -31.5433 5
      vertex 114 -32 5
      vertex 115.171 -31.8847 5
    endloop
  endfacet
  facet normal -0 0 1
    outer loop
      vertex 99.175 -25.675 5
      vertex 114 -32 5
      vertex 99.175 -22.325 5
    endloop
  endfacet
  facet normal -0 0 1
    outer loop
      vertex 99.1462 -25.9676 5
      vertex 114 -32 5
      vertex 99.175 -25.675 5
    endloop
  endfacet
  facet normal -0 0 1
    outer loop
      vertex 99.0608 -26.249 5
      vertex 114 -32 5
      vertex 99.1462 -25.9676 5
    endloop
  endfacet
  facet normal -0 0 1
    outer loop
      vertex 98.9222 -26.5084 5
      vertex 114 -32 5
      vertex 99.0608 -26.249 5
    endloop
  endfacet
  facet normal -0 0 1
    outer loop
      vertex 98.7357 -26.7357 5
      vertex 114 -32 5
      vertex 98.9222 -26.5084 5
    endloop
  endfacet
  facet normal -0 0 1
    outer loop
      vertex 98.5084 -26.9222 5
      vertex 114 -32 5
      vertex 98.7357 -26.7357 5
    endloop
  endfacet
  facet normal -0 0 1
    outer loop
      vertex 98.249 -27.0608 5
      vertex 114 -32 5
      vertex 98.5084 -26.9222 5
    endloop
  endfacet
  facet normal -0 0 1
    outer loop
      vertex 97.9676 -27.1462 5
      vertex 114 -32 5
      vertex 98.249 -27.0608 5
    endloop
  endfacet
  facet normal 0 0 1
    outer loop
      vertex 91.99 -28.8042 5
      vertex 97.9676 -27.1462 5
      vertex 97.675 -27.175 5
    endloop
  endfacet
  facet normal 0 0 1
    outer loop
      vertex 93.677 -27.677 5
      vertex 97.675 -27.175 5
      vertex 94.0889 -27.175 5
    endloop
  endfacet
  facet normal 0 0 1
    outer loop
      vertex 92.889 -28.3236 5
      vertex 97.675 -27.175 5
      vertex 93.677 -27.677 5
    endloop
  endfacet
  facet normal 0 0 1
    outer loop
      vertex 91.99 -28.8042 5
      vertex 97.675 -27.175 5
      vertex 92.889 -28.3236 5
    endloop
  endfacet
  facet normal 0 0 1
    outer loop
      vertex 97.9676 -27.1462 5
      vertex 91.99 -28.8042 5
      vertex 114 -32 5
    endloop
  endfacet
  facet normal -0 0 1
    outer loop
      vertex 91.0145 -29.1001 5
      vertex 114 -32 5
      vertex 91.99 -28.8042 5
    endloop
  endfacet
  facet normal -0 0 1
    outer loop
      vertex 90 -29.2 5
      vertex 114 -32 5
      vertex 91.0145 -29.1001 5
    endloop
  endfacet
  facet normal 0 0 1
    outer loop
      vertex 0 -32 5
      vertex 90 -29.2 5
      vertex 88.9855 -29.1001 5
    endloop
  endfacet
  facet normal -0 0 1
    outer loop
      vertex 82.325 -27.175 5
      vertex 86.323 -27.677 5
      vertex 85.9111 -27.175 5
    endloop
  endfacet
  facet normal 0 0 1
    outer loop
      vertex 82.325 -27.175 5
      vertex 87.111 -28.3236 5
      vertex 86.323 -27.677 5
    endloop
  endfacet
  facet normal 0 0 1
    outer loop
      vertex 82.325 -27.175 5
      vertex 88.01 -28.8042 5
      vertex 87.111 -28.3236 5
    endloop
  endfacet
  facet normal 0 0 1
    outer loop
      vertex 82.0324 -27.1462 5
      vertex 88.01 -28.8042 5
      vertex 82.325 -27.175 5
    endloop
  endfacet
  facet normal 0 0 1
    outer loop
      vertex 88.01 -28.8042 5
      vertex 82.0324 -27.1462 5
      vertex 88.9855 -29.1001 5
    endloop
  endfacet
  facet normal 0 0 1
    outer loop
      vertex 80.825 -22.325 5
      vertex 0 -32 5
      vertex 80.825 -25.675 5
    endloop
  endfacet
  facet normal 0 0 1
    outer loop
      vertex 80.825 -25.675 5
      vertex 0 -32 5
      vertex 80.8538 -25.9676 5
    endloop
  endfacet
  facet normal 0 0 1
    outer loop
      vertex 80.8538 -25.9676 5
      vertex 0 -32 5
      vertex 80.9392 -26.249 5
    endloop
  endfacet
  facet normal 0 0 1
    outer loop
      vertex 80.9392 -26.249 5
      vertex 0 -32 5
      vertex 81.0778 -26.5084 5
    endloop
  endfacet
  facet normal 0 0 1
    outer loop
      vertex 81.0778 -26.5084 5
      vertex 0 -32 5
      vertex 81.2643 -26.7357 5
    endloop
  endfacet
  facet normal 0 0 1
    outer loop
      vertex 90 -29.2 5
      vertex 0 -32 5
      vertex 114 -32 5
    endloop
  endfacet
  facet normal 0 0 1
    outer loop
      vertex 82.0324 -27.1462 5
      vertex 0 -32 5
      vertex 88.9855 -29.1001 5
    endloop
  endfacet
  facet normal 0 0 1
    outer loop
      vertex 81.751 -27.0608 5
      vertex 0 -32 5
      vertex 82.0324 -27.1462 5
    endloop
  endfacet
  facet normal 0 0 1
    outer loop
      vertex 81.4916 -26.9222 5
      vertex 0 -32 5
      vertex 81.751 -27.0608 5
    endloop
  endfacet
  facet normal 0 0 1
    outer loop
      vertex 81.2643 -26.7357 5
      vertex 0 -32 5
      vertex 81.4916 -26.9222 5
    endloop
  endfacet
  facet normal -0.773071 0.634319 0
    outer loop
      vertex 85.9111 -20.825 5
      vertex 86.323 -20.323 8
      vertex 86.323 -20.323 5
    endloop
  endfacet
  facet normal -0.773071 0.634319 0
    outer loop
      vertex 86.323 -20.323 8
      vertex 85.9111 -20.825 5
      vertex 85.9111 -20.825 8
    endloop
  endfacet
  facet normal -0.0979982 -0.995187 0
    outer loop
      vertex 88.9855 -29.1001 5
      vertex 90 -29.2 8
      vertex 88.9855 -29.1001 8
    endloop
  endfacet
  facet normal -0.0979982 -0.995187 -0
    outer loop
      vertex 90 -29.2 8
      vertex 88.9855 -29.1001 5
      vertex 90 -29.2 5
    endloop
  endfacet
  facet normal -0.634338 -0.773056 0
    outer loop
      vertex 86.323 -27.677 5
      vertex 87.111 -28.3236 8
      vertex 86.323 -27.677 8
    endloop
  endfacet
  facet normal -0.634338 -0.773056 -0
    outer loop
      vertex 87.111 -28.3236 8
      vertex 86.323 -27.677 5
      vertex 87.111 -28.3236 5
    endloop
  endfacet
  facet normal 0.773071 -0.634319 0
    outer loop
      vertex 93.677 -27.677 8
      vertex 94.0889 -27.175 5
      vertex 94.0889 -27.175 8
    endloop
  endfacet
  facet normal 0.773071 -0.634319 0
    outer loop
      vertex 94.0889 -27.175 5
      vertex 93.677 -27.677 8
      vertex 93.677 -27.677 5
    endloop
  endfacet
  facet normal 0.290271 0.956944 -0
    outer loop
      vertex 91.99 -19.1958 5
      vertex 91.0145 -18.8999 8
      vertex 91.99 -19.1958 8
    endloop
  endfacet
  facet normal 0.290271 0.956944 0
    outer loop
      vertex 91.0145 -18.8999 8
      vertex 91.99 -19.1958 5
      vertex 91.0145 -18.8999 5
    endloop
  endfacet
  facet normal 0.634338 -0.773056 0
    outer loop
      vertex 92.889 -28.3236 5
      vertex 93.677 -27.677 8
      vertex 92.889 -28.3236 8
    endloop
  endfacet
  facet normal 0.634338 -0.773056 0
    outer loop
      vertex 93.677 -27.677 8
      vertex 92.889 -28.3236 5
      vertex 93.677 -27.677 5
    endloop
  endfacet
  facet normal -0.290271 0.956944 0
    outer loop
      vertex 88.9855 -18.8999 5
      vertex 88.01 -19.1958 8
      vertex 88.9855 -18.8999 8
    endloop
  endfacet
  facet normal -0.290271 0.956944 0
    outer loop
      vertex 88.01 -19.1958 8
      vertex 88.9855 -18.8999 5
      vertex 88.01 -19.1958 5
    endloop
  endfacet
  facet normal 0.0979982 0.995187 -0
    outer loop
      vertex 91.0145 -18.8999 5
      vertex 90 -18.8 8
      vertex 91.0145 -18.8999 8
    endloop
  endfacet
  facet normal 0.0979982 0.995187 0
    outer loop
      vertex 90 -18.8 8
      vertex 91.0145 -18.8999 5
      vertex 90 -18.8 5
    endloop
  endfacet
  facet normal 0.773071 0.634319 0
    outer loop
      vertex 94.0889 -20.825 8
      vertex 93.677 -20.323 5
      vertex 93.677 -20.323 8
    endloop
  endfacet
  facet normal 0.773071 0.634319 0
    outer loop
      vertex 93.677 -20.323 5
      vertex 94.0889 -20.825 8
      vertex 94.0889 -20.825 5
    endloop
  endfacet
  facet normal 0 0 1
    outer loop
      vertex 92.889 -19.6764 8
      vertex 94.0889 -20.825 8
      vertex 93.677 -20.323 8
    endloop
  endfacet
  facet normal 0 0 1
    outer loop
      vertex 91.99 -19.1958 8
      vertex 94.0889 -20.825 8
      vertex 92.889 -19.6764 8
    endloop
  endfacet
  facet normal 0 0 1
    outer loop
      vertex 91.0145 -18.8999 8
      vertex 94.0889 -20.825 8
      vertex 91.99 -19.1958 8
    endloop
  endfacet
  facet normal 0 0 1
    outer loop
      vertex 90 -18.8 8
      vertex 94.0889 -20.825 8
      vertex 91.0145 -18.8999 8
    endloop
  endfacet
  facet normal -0 0 1
    outer loop
      vertex 88.9855 -18.8999 8
      vertex 94.0889 -20.825 8
      vertex 90 -18.8 8
    endloop
  endfacet
  facet normal -0 0 1
    outer loop
      vertex 88.01 -19.1958 8
      vertex 94.0889 -20.825 8
      vertex 88.9855 -18.8999 8
    endloop
  endfacet
  facet normal 0 0 1
    outer loop
      vertex 85.9111 -20.825 8
      vertex 88.01 -19.1958 8
      vertex 87.111 -19.6764 8
    endloop
  endfacet
  facet normal 0 0 1
    outer loop
      vertex 85.9111 -20.825 8
      vertex 87.111 -19.6764 8
      vertex 86.323 -20.323 8
    endloop
  endfacet
  facet normal 0 0 1
    outer loop
      vertex 88.01 -19.1958 8
      vertex 85.9111 -20.825 8
      vertex 94.0889 -20.825 8
    endloop
  endfacet
  facet normal 0 0 1
    outer loop
      vertex 94.0889 -27.175 8
      vertex 92.889 -28.3236 8
      vertex 93.677 -27.677 8
    endloop
  endfacet
  facet normal 0 0 1
    outer loop
      vertex 94.0889 -27.175 8
      vertex 91.99 -28.8042 8
      vertex 92.889 -28.3236 8
    endloop
  endfacet
  facet normal 0 0 1
    outer loop
      vertex 94.0889 -27.175 8
      vertex 91.0145 -29.1001 8
      vertex 91.99 -28.8042 8
    endloop
  endfacet
  facet normal 0 0 1
    outer loop
      vertex 94.0889 -27.175 8
      vertex 90 -29.2 8
      vertex 91.0145 -29.1001 8
    endloop
  endfacet
  facet normal 0 0 1
    outer loop
      vertex 94.0889 -27.175 8
      vertex 88.9855 -29.1001 8
      vertex 90 -29.2 8
    endloop
  endfacet
  facet normal 0 0 1
    outer loop
      vertex 94.0889 -27.175 8
      vertex 88.01 -28.8042 8
      vertex 88.9855 -29.1001 8
    endloop
  endfacet
  facet normal -0 0 1
    outer loop
      vertex 85.9111 -27.175 8
      vertex 88.01 -28.8042 8
      vertex 94.0889 -27.175 8
    endloop
  endfacet
  facet normal 0 0 1
    outer loop
      vertex 88.01 -28.8042 8
      vertex 85.9111 -27.175 8
      vertex 87.111 -28.3236 8
    endloop
  endfacet
  facet normal 0 0 1
    outer loop
      vertex 87.111 -28.3236 8
      vertex 85.9111 -27.175 8
      vertex 86.323 -27.677 8
    endloop
  endfacet
  facet normal -0.471454 0.881891 0
    outer loop
      vertex 88.01 -19.1958 5
      vertex 87.111 -19.6764 8
      vertex 88.01 -19.1958 8
    endloop
  endfacet
  facet normal -0.471454 0.881891 0
    outer loop
      vertex 87.111 -19.6764 8
      vertex 88.01 -19.1958 5
      vertex 87.111 -19.6764 5
    endloop
  endfacet
  facet normal -0.290271 -0.956944 0
    outer loop
      vertex 88.01 -28.8042 5
      vertex 88.9855 -29.1001 8
      vertex 88.01 -28.8042 8
    endloop
  endfacet
  facet normal -0.290271 -0.956944 -0
    outer loop
      vertex 88.9855 -29.1001 8
      vertex 88.01 -28.8042 5
      vertex 88.9855 -29.1001 5
    endloop
  endfacet
  facet normal 0.290271 -0.956944 0
    outer loop
      vertex 91.0145 -29.1001 5
      vertex 91.99 -28.8042 8
      vertex 91.0145 -29.1001 8
    endloop
  endfacet
  facet normal 0.290271 -0.956944 0
    outer loop
      vertex 91.99 -28.8042 8
      vertex 91.0145 -29.1001 5
      vertex 91.99 -28.8042 5
    endloop
  endfacet
  facet normal 0.634338 0.773056 -0
    outer loop
      vertex 93.677 -20.323 5
      vertex 92.889 -19.6764 8
      vertex 93.677 -20.323 8
    endloop
  endfacet
  facet normal 0.634338 0.773056 0
    outer loop
      vertex 92.889 -19.6764 8
      vertex 93.677 -20.323 5
      vertex 92.889 -19.6764 5
    endloop
  endfacet
  facet normal 0.471454 0.881891 -0
    outer loop
      vertex 92.889 -19.6764 5
      vertex 91.99 -19.1958 8
      vertex 92.889 -19.6764 8
    endloop
  endfacet
  facet normal 0.471454 0.881891 0
    outer loop
      vertex 91.99 -19.1958 8
      vertex 92.889 -19.6764 5
      vertex 91.99 -19.1958 5
    endloop
  endfacet
  facet normal 0.0979982 -0.995187 0
    outer loop
      vertex 90 -29.2 5
      vertex 91.0145 -29.1001 8
      vertex 90 -29.2 8
    endloop
  endfacet
  facet normal 0.0979982 -0.995187 0
    outer loop
      vertex 91.0145 -29.1001 8
      vertex 90 -29.2 5
      vertex 91.0145 -29.1001 5
    endloop
  endfacet
  facet normal -0.634338 0.773056 0
    outer loop
      vertex 87.111 -19.6764 5
      vertex 86.323 -20.323 8
      vertex 87.111 -19.6764 8
    endloop
  endfacet
  facet normal -0.634338 0.773056 0
    outer loop
      vertex 86.323 -20.323 8
      vertex 87.111 -19.6764 5
      vertex 86.323 -20.323 5
    endloop
  endfacet
  facet normal 0.471454 -0.881891 0
    outer loop
      vertex 91.99 -28.8042 5
      vertex 92.889 -28.3236 8
      vertex 91.99 -28.8042 8
    endloop
  endfacet
  facet normal 0.471454 -0.881891 0
    outer loop
      vertex 92.889 -28.3236 8
      vertex 91.99 -28.8042 5
      vertex 92.889 -28.3236 5
    endloop
  endfacet
  facet normal -0.773071 -0.634319 0
    outer loop
      vertex 86.323 -27.677 5
      vertex 85.9111 -27.175 8
      vertex 85.9111 -27.175 5
    endloop
  endfacet
  facet normal -0.773071 -0.634319 0
    outer loop
      vertex 85.9111 -27.175 8
      vertex 86.323 -27.677 5
      vertex 86.323 -27.677 8
    endloop
  endfacet
  facet normal -0.471454 -0.881891 0
    outer loop
      vertex 87.111 -28.3236 5
      vertex 88.01 -28.8042 8
      vertex 87.111 -28.3236 8
    endloop
  endfacet
  facet normal -0.471454 -0.881891 -0
    outer loop
      vertex 88.01 -28.8042 8
      vertex 87.111 -28.3236 5
      vertex 88.01 -28.8042 5
    endloop
  endfacet
  facet normal -0.0979982 0.995187 0
    outer loop
      vertex 90 -18.8 5
      vertex 88.9855 -18.8999 8
      vertex 90 -18.8 8
    endloop
  endfacet
  facet normal -0.0979982 0.995187 0
    outer loop
      vertex 88.9855 -18.8999 8
      vertex 90 -18.8 5
      vertex 88.9855 -18.8999 5
    endloop
  endfacet
  facet normal 0.290271 -0.956944 0
    outer loop
      vertex 91.0145 18.8999 5
      vertex 91.99 19.1958 8
      vertex 91.0145 18.8999 8
    endloop
  endfacet
  facet normal 0.290271 -0.956944 0
    outer loop
      vertex 91.99 19.1958 8
      vertex 91.0145 18.8999 5
      vertex 91.99 19.1958 5
    endloop
  endfacet
  facet normal -0.471454 -0.881891 0
    outer loop
      vertex 87.111 19.6764 5
      vertex 88.01 19.1958 8
      vertex 87.111 19.6764 8
    endloop
  endfacet
  facet normal -0.471454 -0.881891 -0
    outer loop
      vertex 88.01 19.1958 8
      vertex 87.111 19.6764 5
      vertex 88.01 19.1958 5
    endloop
  endfacet
  facet normal 0.634338 0.773056 -0
    outer loop
      vertex 93.677 27.677 5
      vertex 92.889 28.3236 8
      vertex 93.677 27.677 8
    endloop
  endfacet
  facet normal 0.634338 0.773056 0
    outer loop
      vertex 92.889 28.3236 8
      vertex 93.677 27.677 5
      vertex 92.889 28.3236 5
    endloop
  endfacet
  facet normal -0.0979982 0.995187 0
    outer loop
      vertex 90 29.2 5
      vertex 88.9855 29.1001 8
      vertex 90 29.2 8
    endloop
  endfacet
  facet normal -0.0979982 0.995187 0
    outer loop
      vertex 88.9855 29.1001 8
      vertex 90 29.2 5
      vertex 88.9855 29.1001 5
    endloop
  endfacet
  facet normal 0.0979982 -0.995187 0
    outer loop
      vertex 90 18.8 5
      vertex 91.0145 18.8999 8
      vertex 90 18.8 8
    endloop
  endfacet
  facet normal 0.0979982 -0.995187 0
    outer loop
      vertex 91.0145 18.8999 8
      vertex 90 18.8 5
      vertex 91.0145 18.8999 5
    endloop
  endfacet
  facet normal 0.773071 -0.634319 0
    outer loop
      vertex 93.677 20.323 8
      vertex 94.0889 20.825 5
      vertex 94.0889 20.825 8
    endloop
  endfacet
  facet normal 0.773071 -0.634319 0
    outer loop
      vertex 94.0889 20.825 5
      vertex 93.677 20.323 8
      vertex 93.677 20.323 5
    endloop
  endfacet
  facet normal 0.471454 -0.881891 0
    outer loop
      vertex 91.99 19.1958 5
      vertex 92.889 19.6764 8
      vertex 91.99 19.1958 8
    endloop
  endfacet
  facet normal 0.471454 -0.881891 0
    outer loop
      vertex 92.889 19.6764 8
      vertex 91.99 19.1958 5
      vertex 92.889 19.6764 5
    endloop
  endfacet
  facet normal -0.773071 0.634319 0
    outer loop
      vertex 85.9111 27.175 5
      vertex 86.323 27.677 8
      vertex 86.323 27.677 5
    endloop
  endfacet
  facet normal -0.773071 0.634319 0
    outer loop
      vertex 86.323 27.677 8
      vertex 85.9111 27.175 5
      vertex 85.9111 27.175 8
    endloop
  endfacet
  facet normal 0.773071 0.634319 0
    outer loop
      vertex 94.0889 27.175 8
      vertex 93.677 27.677 5
      vertex 93.677 27.677 8
    endloop
  endfacet
  facet normal 0.773071 0.634319 0
    outer loop
      vertex 93.677 27.677 5
      vertex 94.0889 27.175 8
      vertex 94.0889 27.175 5
    endloop
  endfacet
  facet normal -0.471454 0.881891 0
    outer loop
      vertex 88.01 28.8042 5
      vertex 87.111 28.3236 8
      vertex 88.01 28.8042 8
    endloop
  endfacet
  facet normal -0.471454 0.881891 0
    outer loop
      vertex 87.111 28.3236 8
      vertex 88.01 28.8042 5
      vertex 87.111 28.3236 5
    endloop
  endfacet
  facet normal -0.290271 0.956944 0
    outer loop
      vertex 88.9855 29.1001 5
      vertex 88.01 28.8042 8
      vertex 88.9855 29.1001 8
    endloop
  endfacet
  facet normal -0.290271 0.956944 0
    outer loop
      vertex 88.01 28.8042 8
      vertex 88.9855 29.1001 5
      vertex 88.01 28.8042 5
    endloop
  endfacet
  facet normal -0.290271 -0.956944 0
    outer loop
      vertex 88.01 19.1958 5
      vertex 88.9855 18.8999 8
      vertex 88.01 19.1958 8
    endloop
  endfacet
  facet normal -0.290271 -0.956944 -0
    outer loop
      vertex 88.9855 18.8999 8
      vertex 88.01 19.1958 5
      vertex 88.9855 18.8999 5
    endloop
  endfacet
  facet normal 0 0 1
    outer loop
      vertex 94.0889 20.825 8
      vertex 92.889 19.6764 8
      vertex 93.677 20.323 8
    endloop
  endfacet
  facet normal 0 0 1
    outer loop
      vertex 94.0889 20.825 8
      vertex 91.99 19.1958 8
      vertex 92.889 19.6764 8
    endloop
  endfacet
  facet normal 0 0 1
    outer loop
      vertex 94.0889 20.825 8
      vertex 91.0145 18.8999 8
      vertex 91.99 19.1958 8
    endloop
  endfacet
  facet normal 0 0 1
    outer loop
      vertex 94.0889 20.825 8
      vertex 90 18.8 8
      vertex 91.0145 18.8999 8
    endloop
  endfacet
  facet normal 0 0 1
    outer loop
      vertex 94.0889 20.825 8
      vertex 88.9855 18.8999 8
      vertex 90 18.8 8
    endloop
  endfacet
  facet normal 0 0 1
    outer loop
      vertex 94.0889 20.825 8
      vertex 88.01 19.1958 8
      vertex 88.9855 18.8999 8
    endloop
  endfacet
  facet normal -0 0 1
    outer loop
      vertex 85.9111 20.825 8
      vertex 88.01 19.1958 8
      vertex 94.0889 20.825 8
    endloop
  endfacet
  facet normal 0 0 1
    outer loop
      vertex 88.01 19.1958 8
      vertex 85.9111 20.825 8
      vertex 87.111 19.6764 8
    endloop
  endfacet
  facet normal 0 0 1
    outer loop
      vertex 87.111 19.6764 8
      vertex 85.9111 20.825 8
      vertex 86.323 20.323 8
    endloop
  endfacet
  facet normal 0 0 1
    outer loop
      vertex 92.889 28.3236 8
      vertex 94.0889 27.175 8
      vertex 93.677 27.677 8
    endloop
  endfacet
  facet normal 0 0 1
    outer loop
      vertex 91.99 28.8042 8
      vertex 94.0889 27.175 8
      vertex 92.889 28.3236 8
    endloop
  endfacet
  facet normal 0 0 1
    outer loop
      vertex 91.0145 29.1001 8
      vertex 94.0889 27.175 8
      vertex 91.99 28.8042 8
    endloop
  endfacet
  facet normal 0 0 1
    outer loop
      vertex 90 29.2 8
      vertex 94.0889 27.175 8
      vertex 91.0145 29.1001 8
    endloop
  endfacet
  facet normal -0 0 1
    outer loop
      vertex 88.9855 29.1001 8
      vertex 94.0889 27.175 8
      vertex 90 29.2 8
    endloop
  endfacet
  facet normal -0 0 1
    outer loop
      vertex 88.01 28.8042 8
      vertex 94.0889 27.175 8
      vertex 88.9855 29.1001 8
    endloop
  endfacet
  facet normal 0 0 1
    outer loop
      vertex 85.9111 27.175 8
      vertex 88.01 28.8042 8
      vertex 87.111 28.3236 8
    endloop
  endfacet
  facet normal 0 0 1
    outer loop
      vertex 85.9111 27.175 8
      vertex 87.111 28.3236 8
      vertex 86.323 27.677 8
    endloop
  endfacet
  facet normal 0 0 1
    outer loop
      vertex 88.01 28.8042 8
      vertex 85.9111 27.175 8
      vertex 94.0889 27.175 8
    endloop
  endfacet
  facet normal -0.634338 0.773056 0
    outer loop
      vertex 87.111 28.3236 5
      vertex 86.323 27.677 8
      vertex 87.111 28.3236 8
    endloop
  endfacet
  facet normal -0.634338 0.773056 0
    outer loop
      vertex 86.323 27.677 8
      vertex 87.111 28.3236 5
      vertex 86.323 27.677 5
    endloop
  endfacet
  facet normal 0.290271 0.956944 -0
    outer loop
      vertex 91.99 28.8042 5
      vertex 91.0145 29.1001 8
      vertex 91.99 28.8042 8
    endloop
  endfacet
  facet normal 0.290271 0.956944 0
    outer loop
      vertex 91.0145 29.1001 8
      vertex 91.99 28.8042 5
      vertex 91.0145 29.1001 5
    endloop
  endfacet
  facet normal 0.634338 -0.773056 0
    outer loop
      vertex 92.889 19.6764 5
      vertex 93.677 20.323 8
      vertex 92.889 19.6764 8
    endloop
  endfacet
  facet normal 0.634338 -0.773056 0
    outer loop
      vertex 93.677 20.323 8
      vertex 92.889 19.6764 5
      vertex 93.677 20.323 5
    endloop
  endfacet
  facet normal 0.0979982 0.995187 -0
    outer loop
      vertex 91.0145 29.1001 5
      vertex 90 29.2 8
      vertex 91.0145 29.1001 8
    endloop
  endfacet
  facet normal 0.0979982 0.995187 0
    outer loop
      vertex 90 29.2 8
      vertex 91.0145 29.1001 5
      vertex 90 29.2 5
    endloop
  endfacet
  facet normal 0.471454 0.881891 -0
    outer loop
      vertex 92.889 28.3236 5
      vertex 91.99 28.8042 8
      vertex 92.889 28.3236 8
    endloop
  endfacet
  facet normal 0.471454 0.881891 0
    outer loop
      vertex 91.99 28.8042 8
      vertex 92.889 28.3236 5
      vertex 91.99 28.8042 5
    endloop
  endfacet
  facet normal -0.773071 -0.634319 0
    outer loop
      vertex 86.323 20.323 5
      vertex 85.9111 20.825 8
      vertex 85.9111 20.825 5
    endloop
  endfacet
  facet normal -0.773071 -0.634319 0
    outer loop
      vertex 85.9111 20.825 8
      vertex 86.323 20.323 5
      vertex 86.323 20.323 8
    endloop
  endfacet
  facet normal -0.0979982 -0.995187 0
    outer loop
      vertex 88.9855 18.8999 5
      vertex 90 18.8 8
      vertex 88.9855 18.8999 8
    endloop
  endfacet
  facet normal -0.0979982 -0.995187 -0
    outer loop
      vertex 90 18.8 8
      vertex 88.9855 18.8999 5
      vertex 90 18.8 5
    endloop
  endfacet
  facet normal -0.634338 -0.773056 0
    outer loop
      vertex 86.323 20.323 5
      vertex 87.111 19.6764 8
      vertex 86.323 20.323 8
    endloop
  endfacet
  facet normal -0.634338 -0.773056 -0
    outer loop
      vertex 87.111 19.6764 8
      vertex 86.323 20.323 5
      vertex 87.111 19.6764 5
    endloop
  endfacet
  facet normal 1 -0 0
    outer loop
      vertex 115 -1.1 6.1
      vertex 115 0 5.1
      vertex 115 0 6.1
    endloop
  endfacet
  facet normal 1 0 0
    outer loop
      vertex 115 0 5.1
      vertex 115 -1.1 6.1
      vertex 115 -1.1 5.1
    endloop
  endfacet
  facet normal -0 0 1
    outer loop
      vertex 9 0 6.1
      vertex 115 -1.1 6.1
      vertex 115 0 6.1
    endloop
  endfacet
  facet normal 0 0 1
    outer loop
      vertex 115 -1.1 6.1
      vertex 9 0 6.1
      vertex 9 -1.1 6.1
    endloop
  endfacet
  facet normal 0 0 -1
    outer loop
      vertex 0 -1.1 5.1
      vertex 115 0 5.1
      vertex 115 -1.1 5.1
    endloop
  endfacet
  facet normal -0 0 -1
    outer loop
      vertex 115 0 5.1
      vertex 0 -1.1 5.1
      vertex 0 0 5.1
    endloop
  endfacet
  facet normal 0 1 0
    outer loop
      vertex 115 0 6.1
      vertex 115 0 5.1
      vertex 9 0 6.1
    endloop
  endfacet
  facet normal 0 1 -0
    outer loop
      vertex 9 0 6.1
      vertex 0 0 6.6
      vertex 9 0 6.6
    endloop
  endfacet
  facet normal 0 1 0
    outer loop
      vertex 9 0 6.1
      vertex 0 0 5.1
      vertex 0 0 6.6
    endloop
  endfacet
  facet normal 0 1 0
    outer loop
      vertex 0 0 5.1
      vertex 9 0 6.1
      vertex 115 0 5.1
    endloop
  endfacet
  facet normal 0 -1 0
    outer loop
      vertex 0 -1.1 5.8
      vertex 0 -1.1 5.1
      vertex 9 -1.1 5.8
    endloop
  endfacet
  facet normal 0 -1 0
    outer loop
      vertex 9 -1.1 5.8
      vertex 115 -1.1 6.1
      vertex 9 -1.1 6.1
    endloop
  endfacet
  facet normal 0 -1 0
    outer loop
      vertex 115 -1.1 5.1
      vertex 9 -1.1 5.8
      vertex 0 -1.1 5.1
    endloop
  endfacet
  facet normal 0 -1 0
    outer loop
      vertex 9 -1.1 5.8
      vertex 115 -1.1 5.1
      vertex 115 -1.1 6.1
    endloop
  endfacet
  facet normal 1 0 0
    outer loop
      vertex 0 9 6.6
      vertex 0 0 6.6
      vertex 0 9 6.1
    endloop
  endfacet
  facet normal 1 -0 0
    outer loop
      vertex 0 9 6.1
      vertex 0 28 5.1
      vertex 0 28 6.1
    endloop
  endfacet
  facet normal 1 0 0
    outer loop
      vertex 0 9 6.1
      vertex 0 0 5.1
      vertex 0 28 5.1
    endloop
  endfacet
  facet normal 1 0 0
    outer loop
      vertex 0 0 5.1
      vertex 0 9 6.1
      vertex 0 0 6.6
    endloop
  endfacet
  facet normal -1 0 0
    outer loop
      vertex 0 28 5.1
      vertex 0 9 6.1
      vertex 0 28 6.1
    endloop
  endfacet
  facet normal -1 0 0
    outer loop
      vertex 0 0 5.1
      vertex 0 9 6.1
      vertex 0 28 5.1
    endloop
  endfacet
  facet normal -1 0 0
    outer loop
      vertex 0 0 6.6
      vertex 0 9 6.1
      vertex 0 0 5.1
    endloop
  endfacet
  facet normal -1 0 0
    outer loop
      vertex 0 9 6.1
      vertex 0 0 6.6
      vertex 0 9 6.6
    endloop
  endfacet
  facet normal 1 0 0
    outer loop
      vertex 0 -9 6.1
      vertex 0 -1.2 6.6
      vertex 0 -9 6.6
    endloop
  endfacet
  facet normal 1 -0 0
    outer loop
      vertex 0 -1.2 5.8
      vertex 0 -1.1 5.1
      vertex 0 -1.1 5.8
    endloop
  endfacet
  facet normal 1 0 0
    outer loop
      vertex 0 -1.2 6.6
      vertex 0 -9 6.1
      vertex 0 -1.2 5.8
    endloop
  endfacet
  facet normal 1 0 0
    outer loop
      vertex 0 -1.2 5.8
      vertex 0 -9 6.1
      vertex 0 -1.1 5.1
    endloop
  endfacet
  facet normal 1 0 0
    outer loop
      vertex 0 -28 5.1
      vertex 0 -9 6.1
      vertex 0 -28 6.1
    endloop
  endfacet
  facet normal 1 0 0
    outer loop
      vertex 0 -9 6.1
      vertex 0 -28 5.1
      vertex 0 -1.1 5.1
    endloop
  endfacet
  facet normal -1 0 0
    outer loop
      vertex 0 -1.1 5.1
      vertex 0 -1.2 5.8
      vertex 0 -1.1 5.8
    endloop
  endfacet
  facet normal -1 0 0
    outer loop
      vertex 0 -1.2 5.8
      vertex 0 -9 6.1
      vertex 0 -1.2 6.6
    endloop
  endfacet
  facet normal -1 0 0
    outer loop
      vertex 0 -1.1 5.1
      vertex 0 -9 6.1
      vertex 0 -1.2 5.8
    endloop
  endfacet
  facet normal -1 0 0
    outer loop
      vertex 0 -28 5.1
      vertex 0 -9 6.1
      vertex 0 -1.1 5.1
    endloop
  endfacet
  facet normal -1 -0 0
    outer loop
      vertex 0 -9 6.1
      vertex 0 -28 5.1
      vertex 0 -28 6.1
    endloop
  endfacet
  facet normal -1 -0 0
    outer loop
      vertex 0 -1.2 6.6
      vertex 0 -9 6.1
      vertex 0 -9 6.6
    endloop
  endfacet
  facet normal -1 0 0
    outer loop
      vertex 0 -1.1 5.8
      vertex 0 0 5.1
      vertex 0 -1.1 5.1
    endloop
  endfacet
  facet normal -1 0 0
    outer loop
      vertex 0 0 5.1
      vertex 0 -1.1 5.8
      vertex 0 0 6.6
    endloop
  endfacet
  facet normal -1 0 0
    outer loop
      vertex 0 -1.2 6.6
      vertex 0 -1.1 5.8
      vertex 0 -1.2 5.8
    endloop
  endfacet
  facet normal -1 0 0
    outer loop
      vertex 0 -1.1 5.8
      vertex 0 -1.2 6.6
      vertex 0 0 6.6
    endloop
  endfacet
  facet normal -1 0 0
    outer loop
      vertex 0 -32 0
      vertex 0 32 5
      vertex 0 32 0
    endloop
  endfacet
  facet normal -1 -0 0
    outer loop
      vertex 0 32 5
      vertex 0 -32 0
      vertex 0 -32 5
    endloop
  endfacet
  facet normal 1 0 0
    outer loop
      vertex 9 0 6.6
      vertex 9 -1.1 6.1
      vertex 9 0 6.1
    endloop
  endfacet
  facet normal 1 -0 0
    outer loop
      vertex 9 -1.2 6.6
      vertex 9 -1.1 6.1
      vertex 9 0 6.6
    endloop
  endfacet
  facet normal 1 0 0
    outer loop
      vertex 9 -1.2 5.8
      vertex 9 -1.1 6.1
      vertex 9 -1.2 6.6
    endloop
  endfacet
  facet normal 1 0 0
    outer loop
      vertex 9 -1.1 6.1
      vertex 9 -1.2 5.8
      vertex 9 -1.1 5.8
    endloop
  endfacet
  facet normal -0 0 1
    outer loop
      vertex 0 0 6.6
      vertex 9 -1.2 6.6
      vertex 9 0 6.6
    endloop
  endfacet
  facet normal 0 0 1
    outer loop
      vertex 9 -1.2 6.6
      vertex 0 0 6.6
      vertex 0 -1.2 6.6
    endloop
  endfacet
  facet normal 0 0 -1
    outer loop
      vertex 0 -1.2 5.8
      vertex 9 -1.1 5.8
      vertex 9 -1.2 5.8
    endloop
  endfacet
  facet normal -0 0 -1
    outer loop
      vertex 9 -1.1 5.8
      vertex 0 -1.2 5.8
      vertex 0 -1.1 5.8
    endloop
  endfacet
  facet normal 0 -1 0
    outer loop
      vertex 0 -1.2 5.8
      vertex 9 -1.2 6.6
      vertex 0 -1.2 6.6
    endloop
  endfacet
  facet normal 0 -1 -0
    outer loop
      vertex 9 -1.2 6.6
      vertex 0 -1.2 5.8
      vertex 9 -1.2 5.8
    endloop
  endfacet
  facet normal 1 -0 0
    outer loop
      vertex 120 -26 5
      vertex 120 26 0
      vertex 120 26 5
    endloop
  endfacet
  facet normal 1 0 0
    outer loop
      vertex 120 26 0
      vertex 120 -26 5
      vertex 120 -26 0
    endloop
  endfacet
  facet normal 0.097989 -0.995187 0
    outer loop
      vertex 114 -32 0
      vertex 115.171 -31.8847 5
      vertex 114 -32 5
    endloop
  endfacet
  facet normal 0.097989 -0.995187 0
    outer loop
      vertex 115.171 -31.8847 5
      vertex 114 -32 0
      vertex 115.171 -31.8847 0
    endloop
  endfacet
  facet normal 0.29039 -0.956908 0
    outer loop
      vertex 115.171 -31.8847 0
      vertex 116.296 -31.5433 5
      vertex 115.171 -31.8847 5
    endloop
  endfacet
  facet normal 0.29039 -0.956908 0
    outer loop
      vertex 116.296 -31.5433 5
      vertex 115.171 -31.8847 0
      vertex 116.296 -31.5433 0
    endloop
  endfacet
  facet normal 0.097989 0.995187 -0
    outer loop
      vertex 115.171 31.8847 0
      vertex 114 32 5
      vertex 115.171 31.8847 5
    endloop
  endfacet
  facet normal 0.097989 0.995187 0
    outer loop
      vertex 114 32 5
      vertex 115.171 31.8847 0
      vertex 114 32 0
    endloop
  endfacet
  facet normal 0.88208 0.4711 0
    outer loop
      vertex 119.543 28.2961 5
      vertex 118.989 29.3334 0
      vertex 118.989 29.3334 5
    endloop
  endfacet
  facet normal 0.88208 0.4711 0
    outer loop
      vertex 118.989 29.3334 0
      vertex 119.543 28.2961 5
      vertex 119.543 28.2961 0
    endloop
  endfacet
  facet normal 0 1 -0
    outer loop
      vertex 114 32 0
      vertex 0 32 5
      vertex 114 32 5
    endloop
  endfacet
  facet normal 0 1 0
    outer loop
      vertex 0 32 5
      vertex 114 32 0
      vertex 0 32 0
    endloop
  endfacet
  facet normal 0.29039 0.956908 -0
    outer loop
      vertex 116.296 31.5433 0
      vertex 115.171 31.8847 5
      vertex 116.296 31.5433 5
    endloop
  endfacet
  facet normal 0.29039 0.956908 0
    outer loop
      vertex 115.171 31.8847 5
      vertex 116.296 31.5433 0
      vertex 115.171 31.8847 0
    endloop
  endfacet
  facet normal 0.95681 0.290715 0
    outer loop
      vertex 119.885 27.1705 5
      vertex 119.543 28.2961 0
      vertex 119.543 28.2961 5
    endloop
  endfacet
  facet normal 0.95681 0.290715 0
    outer loop
      vertex 119.543 28.2961 0
      vertex 119.885 27.1705 5
      vertex 119.885 27.1705 0
    endloop
  endfacet
  facet normal 0.63408 -0.773268 0
    outer loop
      vertex 117.333 -30.9888 0
      vertex 118.243 -30.2426 5
      vertex 117.333 -30.9888 5
    endloop
  endfacet
  facet normal 0.63408 -0.773268 0
    outer loop
      vertex 118.243 -30.2426 5
      vertex 117.333 -30.9888 0
      vertex 118.243 -30.2426 0
    endloop
  endfacet
  facet normal 0 -1 0
    outer loop
      vertex 0 -32 0
      vertex 114 -32 5
      vertex 0 -32 5
    endloop
  endfacet
  facet normal 0 -1 -0
    outer loop
      vertex 114 -32 5
      vertex 0 -32 0
      vertex 114 -32 0
    endloop
  endfacet
  facet normal 0.471537 -0.881846 0
    outer loop
      vertex 116.296 -31.5433 0
      vertex 117.333 -30.9888 5
      vertex 116.296 -31.5433 5
    endloop
  endfacet
  facet normal 0.471537 -0.881846 0
    outer loop
      vertex 117.333 -30.9888 5
      vertex 116.296 -31.5433 0
      vertex 117.333 -30.9888 0
    endloop
  endfacet
  facet normal 0.995208 -0.0977778 0
    outer loop
      vertex 119.885 -27.1705 5
      vertex 120 -26 0
      vertex 120 -26 5
    endloop
  endfacet
  facet normal 0.995208 -0.0977778 0
    outer loop
      vertex 120 -26 0
      vertex 119.885 -27.1705 5
      vertex 119.885 -27.1705 0
    endloop
  endfacet
  facet normal 0.88208 -0.4711 0
    outer loop
      vertex 118.989 -29.3334 5
      vertex 119.543 -28.2961 0
      vertex 119.543 -28.2961 5
    endloop
  endfacet
  facet normal 0.88208 -0.4711 0
    outer loop
      vertex 119.543 -28.2961 0
      vertex 118.989 -29.3334 5
      vertex 118.989 -29.3334 0
    endloop
  endfacet
  facet normal 0.995208 0.0977778 0
    outer loop
      vertex 120 26 5
      vertex 119.885 27.1705 0
      vertex 119.885 27.1705 5
    endloop
  endfacet
  facet normal 0.995208 0.0977778 0
    outer loop
      vertex 119.885 27.1705 0
      vertex 120 26 5
      vertex 120 26 0
    endloop
  endfacet
  facet normal 0.63408 0.773268 -0
    outer loop
      vertex 118.243 30.2426 0
      vertex 117.333 30.9888 5
      vertex 118.243 30.2426 5
    endloop
  endfacet
  facet normal 0.63408 0.773268 0
    outer loop
      vertex 117.333 30.9888 5
      vertex 118.243 30.2426 0
      vertex 117.333 30.9888 0
    endloop
  endfacet
  facet normal 0.471537 0.881846 -0
    outer loop
      vertex 117.333 30.9888 0
      vertex 116.296 31.5433 5
      vertex 117.333 30.9888 5
    endloop
  endfacet
  facet normal 0.471537 0.881846 0
    outer loop
      vertex 116.296 31.5433 5
      vertex 117.333 30.9888 0
      vertex 116.296 31.5433 0
    endloop
  endfacet
  facet normal 0.95681 -0.290715 0
    outer loop
      vertex 119.543 -28.2961 5
      vertex 119.885 -27.1705 0
      vertex 119.885 -27.1705 5
    endloop
  endfacet
  facet normal 0.95681 -0.290715 0
    outer loop
      vertex 119.885 -27.1705 0
      vertex 119.543 -28.2961 5
      vertex 119.543 -28.2961 0
    endloop
  endfacet
  facet normal 0.773078 -0.634311 0
    outer loop
      vertex 118.243 -30.2426 5
      vertex 118.989 -29.3334 0
      vertex 118.989 -29.3334 5
    endloop
  endfacet
  facet normal 0.773078 -0.634311 0
    outer loop
      vertex 118.989 -29.3334 0
      vertex 118.243 -30.2426 5
      vertex 118.243 -30.2426 0
    endloop
  endfacet
  facet normal 0 0 -1
    outer loop
      vertex 98.9222 -21.4916 0
      vertex 120 -26 0
      vertex 99.0608 -21.751 0
    endloop
  endfacet
  facet normal 0 0 -1
    outer loop
      vertex 120 26 0
      vertex 99.1462 22.0324 0
      vertex 99.175 22.325 0
    endloop
  endfacet
  facet normal 0 0 -1
    outer loop
      vertex 98.7357 -21.2643 0
      vertex 120 -26 0
      vertex 98.9222 -21.4916 0
    endloop
  endfacet
  facet normal 0 0 -1
    outer loop
      vertex 120 26 0
      vertex 99.0608 21.751 0
      vertex 99.1462 22.0324 0
    endloop
  endfacet
  facet normal 0 0 -1
    outer loop
      vertex 98.5084 -21.0778 0
      vertex 120 -26 0
      vertex 98.7357 -21.2643 0
    endloop
  endfacet
  facet normal 0 0 -1
    outer loop
      vertex 120 26 0
      vertex 98.9222 21.4916 0
      vertex 99.0608 21.751 0
    endloop
  endfacet
  facet normal 0 0 -1
    outer loop
      vertex 120 -26 0
      vertex 98.5084 -21.0778 0
      vertex 120 26 0
    endloop
  endfacet
  facet normal 0 0 -1
    outer loop
      vertex 120 26 0
      vertex 98.7357 21.2643 0
      vertex 98.9222 21.4916 0
    endloop
  endfacet
  facet normal 0 0 -1
    outer loop
      vertex 98.5084 21.0778 0
      vertex 120 26 0
      vertex 98.5084 -21.0778 0
    endloop
  endfacet
  facet normal 0 0 -1
    outer loop
      vertex 120 26 0
      vertex 98.5084 21.0778 0
      vertex 98.7357 21.2643 0
    endloop
  endfacet
  facet normal 0 0 -1
    outer loop
      vertex 98.249 -20.9392 0
      vertex 98.5084 21.0778 0
      vertex 98.5084 -21.0778 0
    endloop
  endfacet
  facet normal 0 0 -1
    outer loop
      vertex 98.249 -20.9392 0
      vertex 98.249 20.9392 0
      vertex 98.5084 21.0778 0
    endloop
  endfacet
  facet normal 0 0 -1
    outer loop
      vertex 97.9676 -20.8538 0
      vertex 98.249 20.9392 0
      vertex 98.249 -20.9392 0
    endloop
  endfacet
  facet normal 0 0 -1
    outer loop
      vertex 97.9676 -20.8538 0
      vertex 97.9676 20.8538 0
      vertex 98.249 20.9392 0
    endloop
  endfacet
  facet normal 0 0 -1
    outer loop
      vertex 97.675 -20.825 0
      vertex 97.9676 20.8538 0
      vertex 97.9676 -20.8538 0
    endloop
  endfacet
  facet normal 0 0 -1
    outer loop
      vertex 97.675 -20.825 0
      vertex 97.675 20.825 0
      vertex 97.9676 20.8538 0
    endloop
  endfacet
  facet normal 0 0 -1
    outer loop
      vertex 82.325 -20.825 0
      vertex 97.675 20.825 0
      vertex 97.675 -20.825 0
    endloop
  endfacet
  facet normal 0 0 -1
    outer loop
      vertex 82.325 -20.825 0
      vertex 82.325 20.825 0
      vertex 97.675 20.825 0
    endloop
  endfacet
  facet normal 0 0 -1
    outer loop
      vertex 82.0324 -20.8538 0
      vertex 82.325 20.825 0
      vertex 82.325 -20.825 0
    endloop
  endfacet
  facet normal 0 0 -1
    outer loop
      vertex 82.0324 -20.8538 0
      vertex 82.0324 20.8538 0
      vertex 82.325 20.825 0
    endloop
  endfacet
  facet normal 0 0 -1
    outer loop
      vertex 81.751 -20.9392 0
      vertex 82.0324 20.8538 0
      vertex 82.0324 -20.8538 0
    endloop
  endfacet
  facet normal 0 0 -1
    outer loop
      vertex 81.751 -20.9392 0
      vertex 81.751 20.9392 0
      vertex 82.0324 20.8538 0
    endloop
  endfacet
  facet normal 0 0 -1
    outer loop
      vertex 81.4916 -21.0778 0
      vertex 81.751 20.9392 0
      vertex 81.751 -20.9392 0
    endloop
  endfacet
  facet normal 0 0 -1
    outer loop
      vertex 81.4916 -21.0778 0
      vertex 81.4916 21.0778 0
      vertex 81.751 20.9392 0
    endloop
  endfacet
  facet normal 0 0 -1
    outer loop
      vertex 81.2643 -21.2643 0
      vertex 81.4916 21.0778 0
      vertex 81.4916 -21.0778 0
    endloop
  endfacet
  facet normal 0 0 -1
    outer loop
      vertex 81.2643 -21.2643 0
      vertex 81.2643 21.2643 0
      vertex 81.4916 21.0778 0
    endloop
  endfacet
  facet normal 0 0 -1
    outer loop
      vertex 81.0778 -21.4916 0
      vertex 81.2643 21.2643 0
      vertex 81.2643 -21.2643 0
    endloop
  endfacet
  facet normal 0 0 -1
    outer loop
      vertex 81.0778 -21.4916 0
      vertex 81.0778 21.4916 0
      vertex 81.2643 21.2643 0
    endloop
  endfacet
  facet normal 0 0 -1
    outer loop
      vertex 80.9392 -21.751 0
      vertex 81.0778 21.4916 0
      vertex 81.0778 -21.4916 0
    endloop
  endfacet
  facet normal 0 0 -1
    outer loop
      vertex 80.9392 -21.751 0
      vertex 80.9392 21.751 0
      vertex 81.0778 21.4916 0
    endloop
  endfacet
  facet normal 0 0 -1
    outer loop
      vertex 0 -32 0
      vertex 80.9392 -21.751 0
      vertex 80.8538 -22.0324 0
    endloop
  endfacet
  facet normal -0 0 -1
    outer loop
      vertex 80.9392 -21.751 0
      vertex 0 -32 0
      vertex 80.9392 21.751 0
    endloop
  endfacet
  facet normal 0 0 -1
    outer loop
      vertex 0 -32 0
      vertex 80.8538 -22.0324 0
      vertex 80.825 -22.325 0
    endloop
  endfacet
  facet normal 0 0 -1
    outer loop
      vertex 0 32 0
      vertex 80.9392 21.751 0
      vertex 0 -32 0
    endloop
  endfacet
  facet normal 0 0 -1
    outer loop
      vertex 114 -32 0
      vertex 120 -26 0
      vertex 119.885 -27.1705 0
    endloop
  endfacet
  facet normal 0 0 -1
    outer loop
      vertex 99.1462 -22.0324 0
      vertex 120 -26 0
      vertex 99.175 -22.325 0
    endloop
  endfacet
  facet normal 0 0 -1
    outer loop
      vertex 114 -32 0
      vertex 119.885 -27.1705 0
      vertex 119.543 -28.2961 0
    endloop
  endfacet
  facet normal 0 0 -1
    outer loop
      vertex 99.0608 -21.751 0
      vertex 120 -26 0
      vertex 99.1462 -22.0324 0
    endloop
  endfacet
  facet normal 0 0 -1
    outer loop
      vertex 114 -32 0
      vertex 119.543 -28.2961 0
      vertex 118.989 -29.3334 0
    endloop
  endfacet
  facet normal 0 -0 -1
    outer loop
      vertex 114 32 0
      vertex 120 26 0
      vertex 99.175 22.325 0
    endloop
  endfacet
  facet normal 0 0 -1
    outer loop
      vertex 114 -32 0
      vertex 118.989 -29.3334 0
      vertex 118.243 -30.2426 0
    endloop
  endfacet
  facet normal 0 0 -1
    outer loop
      vertex 120 26 0
      vertex 114 32 0
      vertex 119.885 27.1705 0
    endloop
  endfacet
  facet normal 0 0 -1
    outer loop
      vertex 114 -32 0
      vertex 118.243 -30.2426 0
      vertex 117.333 -30.9888 0
    endloop
  endfacet
  facet normal 0 0 -1
    outer loop
      vertex 119.885 27.1705 0
      vertex 114 32 0
      vertex 119.543 28.2961 0
    endloop
  endfacet
  facet normal 0 0 -1
    outer loop
      vertex 114 -32 0
      vertex 117.333 -30.9888 0
      vertex 116.296 -31.5433 0
    endloop
  endfacet
  facet normal 0 0 -1
    outer loop
      vertex 119.543 28.2961 0
      vertex 114 32 0
      vertex 118.989 29.3334 0
    endloop
  endfacet
  facet normal 0 0 -1
    outer loop
      vertex 114 -32 0
      vertex 116.296 -31.5433 0
      vertex 115.171 -31.8847 0
    endloop
  endfacet
  facet normal 0 0 -1
    outer loop
      vertex 118.989 29.3334 0
      vertex 114 32 0
      vertex 118.243 30.2426 0
    endloop
  endfacet
  facet normal -0 0 -1
    outer loop
      vertex 120 -26 0
      vertex 114 -32 0
      vertex 99.175 -22.325 0
    endloop
  endfacet
  facet normal 0 0 -1
    outer loop
      vertex 118.243 30.2426 0
      vertex 114 32 0
      vertex 117.333 30.9888 0
    endloop
  endfacet
  facet normal 0 0 -1
    outer loop
      vertex 99.175 -22.325 0
      vertex 114 -32 0
      vertex 99.175 -25.675 0
    endloop
  endfacet
  facet normal 0 0 -1
    outer loop
      vertex 114 -32 0
      vertex 99.1462 -25.9676 0
      vertex 99.175 -25.675 0
    endloop
  endfacet
  facet normal 0 0 -1
    outer loop
      vertex 114 -32 0
      vertex 99.0608 -26.249 0
      vertex 99.1462 -25.9676 0
    endloop
  endfacet
  facet normal 0 0 -1
    outer loop
      vertex 114 -32 0
      vertex 98.9222 -26.5084 0
      vertex 99.0608 -26.249 0
    endloop
  endfacet
  facet normal 0 0 -1
    outer loop
      vertex 114 -32 0
      vertex 98.7357 -26.7357 0
      vertex 98.9222 -26.5084 0
    endloop
  endfacet
  facet normal 0 0 -1
    outer loop
      vertex 114 -32 0
      vertex 98.5084 -26.9222 0
      vertex 98.7357 -26.7357 0
    endloop
  endfacet
  facet normal 0 0 -1
    outer loop
      vertex 114 -32 0
      vertex 98.249 -27.0608 0
      vertex 98.5084 -26.9222 0
    endloop
  endfacet
  facet normal 0 0 -1
    outer loop
      vertex 114 -32 0
      vertex 97.9676 -27.1462 0
      vertex 98.249 -27.0608 0
    endloop
  endfacet
  facet normal 0 0 -1
    outer loop
      vertex 114 -32 0
      vertex 97.675 -27.175 0
      vertex 97.9676 -27.1462 0
    endloop
  endfacet
  facet normal 0 0 -1
    outer loop
      vertex 114 -32 0
      vertex 82.325 -27.175 0
      vertex 97.675 -27.175 0
    endloop
  endfacet
  facet normal 0 0 -1
    outer loop
      vertex 114 -32 0
      vertex 82.0324 -27.1462 0
      vertex 82.325 -27.175 0
    endloop
  endfacet
  facet normal 0 0 -1
    outer loop
      vertex 0 -32 0
      vertex 80.825 -22.325 0
      vertex 80.825 -25.675 0
    endloop
  endfacet
  facet normal 0 0 -1
    outer loop
      vertex 80.9392 21.751 0
      vertex 0 32 0
      vertex 80.8538 22.0324 0
    endloop
  endfacet
  facet normal 0 0 -1
    outer loop
      vertex 80.8538 22.0324 0
      vertex 0 32 0
      vertex 80.825 22.325 0
    endloop
  endfacet
  facet normal -0 0 -1
    outer loop
      vertex 80.8538 -25.9676 0
      vertex 0 -32 0
      vertex 80.825 -25.675 0
    endloop
  endfacet
  facet normal -0 0 -1
    outer loop
      vertex 80.9392 -26.249 0
      vertex 0 -32 0
      vertex 80.8538 -25.9676 0
    endloop
  endfacet
  facet normal -0 0 -1
    outer loop
      vertex 81.0778 -26.5084 0
      vertex 0 -32 0
      vertex 80.9392 -26.249 0
    endloop
  endfacet
  facet normal -0 0 -1
    outer loop
      vertex 81.2643 -26.7357 0
      vertex 0 -32 0
      vertex 81.0778 -26.5084 0
    endloop
  endfacet
  facet normal -0 0 -1
    outer loop
      vertex 81.4916 -26.9222 0
      vertex 0 -32 0
      vertex 81.2643 -26.7357 0
    endloop
  endfacet
  facet normal -0 0 -1
    outer loop
      vertex 81.751 -27.0608 0
      vertex 0 -32 0
      vertex 81.4916 -26.9222 0
    endloop
  endfacet
  facet normal -0 0 -1
    outer loop
      vertex 82.0324 -27.1462 0
      vertex 0 -32 0
      vertex 81.751 -27.0608 0
    endloop
  endfacet
  facet normal 0 0 -1
    outer loop
      vertex 0 -32 0
      vertex 82.0324 -27.1462 0
      vertex 114 -32 0
    endloop
  endfacet
  facet normal 0 0 -1
    outer loop
      vertex 117.333 30.9888 0
      vertex 114 32 0
      vertex 116.296 31.5433 0
    endloop
  endfacet
  facet normal 0 0 -1
    outer loop
      vertex 116.296 31.5433 0
      vertex 114 32 0
      vertex 115.171 31.8847 0
    endloop
  endfacet
  facet normal 0 0 -1
    outer loop
      vertex 99.175 25.675 0
      vertex 114 32 0
      vertex 99.175 22.325 0
    endloop
  endfacet
  facet normal 0 0 -1
    outer loop
      vertex 99.1462 25.9676 0
      vertex 114 32 0
      vertex 99.175 25.675 0
    endloop
  endfacet
  facet normal 0 0 -1
    outer loop
      vertex 99.0608 26.249 0
      vertex 114 32 0
      vertex 99.1462 25.9676 0
    endloop
  endfacet
  facet normal 0 0 -1
    outer loop
      vertex 98.9222 26.5084 0
      vertex 114 32 0
      vertex 99.0608 26.249 0
    endloop
  endfacet
  facet normal 0 0 -1
    outer loop
      vertex 98.7357 26.7357 0
      vertex 114 32 0
      vertex 98.9222 26.5084 0
    endloop
  endfacet
  facet normal 0 0 -1
    outer loop
      vertex 98.5084 26.9222 0
      vertex 114 32 0
      vertex 98.7357 26.7357 0
    endloop
  endfacet
  facet normal 0 0 -1
    outer loop
      vertex 98.249 27.0608 0
      vertex 114 32 0
      vertex 98.5084 26.9222 0
    endloop
  endfacet
  facet normal 0 0 -1
    outer loop
      vertex 97.9676 27.1462 0
      vertex 114 32 0
      vertex 98.249 27.0608 0
    endloop
  endfacet
  facet normal 0 0 -1
    outer loop
      vertex 97.675 27.175 0
      vertex 114 32 0
      vertex 97.9676 27.1462 0
    endloop
  endfacet
  facet normal 0 0 -1
    outer loop
      vertex 82.325 27.175 0
      vertex 114 32 0
      vertex 97.675 27.175 0
    endloop
  endfacet
  facet normal 0 0 -1
    outer loop
      vertex 82.0324 27.1462 0
      vertex 114 32 0
      vertex 82.325 27.175 0
    endloop
  endfacet
  facet normal 0 0 -1
    outer loop
      vertex 80.825 22.325 0
      vertex 0 32 0
      vertex 80.825 25.675 0
    endloop
  endfacet
  facet normal 0 0 -1
    outer loop
      vertex 80.825 25.675 0
      vertex 0 32 0
      vertex 80.8538 25.9676 0
    endloop
  endfacet
  facet normal 0 0 -1
    outer loop
      vertex 80.8538 25.9676 0
      vertex 0 32 0
      vertex 80.9392 26.249 0
    endloop
  endfacet
  facet normal 0 0 -1
    outer loop
      vertex 80.9392 26.249 0
      vertex 0 32 0
      vertex 81.0778 26.5084 0
    endloop
  endfacet
  facet normal 0 0 -1
    outer loop
      vertex 81.0778 26.5084 0
      vertex 0 32 0
      vertex 81.2643 26.7357 0
    endloop
  endfacet
  facet normal 0 0 -1
    outer loop
      vertex 82.0324 27.1462 0
      vertex 0 32 0
      vertex 114 32 0
    endloop
  endfacet
  facet normal 0 0 -1
    outer loop
      vertex 81.751 27.0608 0
      vertex 0 32 0
      vertex 82.0324 27.1462 0
    endloop
  endfacet
  facet normal 0 0 -1
    outer loop
      vertex 81.4916 26.9222 0
      vertex 0 32 0
      vertex 81.751 27.0608 0
    endloop
  endfacet
  facet normal 0 0 -1
    outer loop
      vertex 81.2643 26.7357 0
      vertex 0 32 0
      vertex 81.4916 26.9222 0
    endloop
  endfacet
  facet normal 0.773078 0.634311 0
    outer loop
      vertex 118.989 29.3334 5
      vertex 118.243 30.2426 0
      vertex 118.243 30.2426 5
    endloop
  endfacet
  facet normal 0.773078 0.634311 0
    outer loop
      vertex 118.243 30.2426 0
      vertex 118.989 29.3334 5
      vertex 118.989 29.3334 0
    endloop
  endfacet
  facet normal -0.956904 -0.290404 0
    outer loop
      vertex 99.1462 -22.0324 0
      vertex 99.0608 -21.751 5
      vertex 99.0608 -21.751 0
    endloop
  endfacet
  facet normal -0.956904 -0.290404 0
    outer loop
      vertex 99.0608 -21.751 5
      vertex 99.1462 -22.0324 0
      vertex 99.1462 -22.0324 5
    endloop
  endfacet
  facet normal 0 -1 0
    outer loop
      vertex 82.325 -20.825 0
      vertex 85.9111 -20.825 5
      vertex 82.325 -20.825 5
    endloop
  endfacet
  facet normal 0 -1 -0
    outer loop
      vertex 85.9111 -20.825 5
      vertex 82.325 -20.825 0
      vertex 94.0889 -20.825 5
    endloop
  endfacet
  facet normal 0 -1 0
    outer loop
      vertex 97.675 -20.825 0
      vertex 94.0889 -20.825 5
      vertex 82.325 -20.825 0
    endloop
  endfacet
  facet normal 0 -1 0
    outer loop
      vertex 94.0889 -20.825 5
      vertex 97.675 -20.825 0
      vertex 97.675 -20.825 5
    endloop
  endfacet
  facet normal 0 -1 0
    outer loop
      vertex 85.9111 -20.825 5
      vertex 94.0889 -20.825 8
      vertex 85.9111 -20.825 8
    endloop
  endfacet
  facet normal 0 -1 -0
    outer loop
      vertex 94.0889 -20.825 8
      vertex 85.9111 -20.825 5
      vertex 94.0889 -20.825 5
    endloop
  endfacet
  facet normal 0.995191 -0.0979545 0
    outer loop
      vertex 80.825 -22.325 5
      vertex 80.8538 -22.0324 0
      vertex 80.8538 -22.0324 5
    endloop
  endfacet
  facet normal 0.995191 -0.0979545 0
    outer loop
      vertex 80.8538 -22.0324 0
      vertex 80.825 -22.325 5
      vertex 80.825 -22.325 0
    endloop
  endfacet
  facet normal 0 1 -0
    outer loop
      vertex 97.675 -27.175 0
      vertex 94.0889 -27.175 5
      vertex 97.675 -27.175 5
    endloop
  endfacet
  facet normal 0 1 0
    outer loop
      vertex 94.0889 -27.175 5
      vertex 97.675 -27.175 0
      vertex 85.9111 -27.175 5
    endloop
  endfacet
  facet normal 0 1 0
    outer loop
      vertex 82.325 -27.175 0
      vertex 85.9111 -27.175 5
      vertex 97.675 -27.175 0
    endloop
  endfacet
  facet normal 0 1 0
    outer loop
      vertex 85.9111 -27.175 5
      vertex 82.325 -27.175 0
      vertex 82.325 -27.175 5
    endloop
  endfacet
  facet normal 0 1 -0
    outer loop
      vertex 94.0889 -27.175 5
      vertex 85.9111 -27.175 8
      vertex 94.0889 -27.175 8
    endloop
  endfacet
  facet normal 0 1 0
    outer loop
      vertex 85.9111 -27.175 8
      vertex 94.0889 -27.175 5
      vertex 85.9111 -27.175 5
    endloop
  endfacet
  facet normal -0.995191 0.0979545 0
    outer loop
      vertex 99.1462 -25.9676 0
      vertex 99.175 -25.675 5
      vertex 99.175 -25.675 0
    endloop
  endfacet
  facet normal -0.995191 0.0979545 0
    outer loop
      vertex 99.175 -25.675 5
      vertex 99.1462 -25.9676 0
      vertex 99.1462 -25.9676 5
    endloop
  endfacet
  facet normal 0.773078 0.634311 0
    outer loop
      vertex 81.2643 -26.7357 5
      vertex 81.0778 -26.5084 0
      vertex 81.0778 -26.5084 5
    endloop
  endfacet
  facet normal 0.773078 0.634311 0
    outer loop
      vertex 81.0778 -26.5084 0
      vertex 81.2643 -26.7357 5
      vertex 81.2643 -26.7357 0
    endloop
  endfacet
  facet normal -0.634311 -0.773078 0
    outer loop
      vertex 98.5084 -21.0778 0
      vertex 98.7357 -21.2643 5
      vertex 98.5084 -21.0778 5
    endloop
  endfacet
  facet normal -0.634311 -0.773078 -0
    outer loop
      vertex 98.7357 -21.2643 5
      vertex 98.5084 -21.0778 0
      vertex 98.7357 -21.2643 0
    endloop
  endfacet
  facet normal -1 0 0
    outer loop
      vertex 99.175 -25.675 0
      vertex 99.175 -22.325 5
      vertex 99.175 -22.325 0
    endloop
  endfacet
  facet normal -1 -0 0
    outer loop
      vertex 99.175 -22.325 5
      vertex 99.175 -25.675 0
      vertex 99.175 -25.675 5
    endloop
  endfacet
  facet normal -0.773078 0.634311 0
    outer loop
      vertex 98.7357 -26.7357 0
      vertex 98.9222 -26.5084 5
      vertex 98.9222 -26.5084 0
    endloop
  endfacet
  facet normal -0.773078 0.634311 0
    outer loop
      vertex 98.9222 -26.5084 5
      vertex 98.7357 -26.7357 0
      vertex 98.7357 -26.7357 5
    endloop
  endfacet
  facet normal 0.881995 0.471259 0
    outer loop
      vertex 81.0778 -26.5084 5
      vertex 80.9392 -26.249 0
      vertex 80.9392 -26.249 5
    endloop
  endfacet
  facet normal 0.881995 0.471259 0
    outer loop
      vertex 80.9392 -26.249 0
      vertex 81.0778 -26.5084 5
      vertex 81.0778 -26.5084 0
    endloop
  endfacet
  facet normal 0.995191 0.0979545 0
    outer loop
      vertex 80.8538 -25.9676 5
      vertex 80.825 -25.675 0
      vertex 80.825 -25.675 5
    endloop
  endfacet
  facet normal 0.995191 0.0979545 0
    outer loop
      vertex 80.825 -25.675 0
      vertex 80.8538 -25.9676 5
      vertex 80.8538 -25.9676 0
    endloop
  endfacet
  facet normal 0.634311 -0.773078 0
    outer loop
      vertex 81.2643 -21.2643 0
      vertex 81.4916 -21.0778 5
      vertex 81.2643 -21.2643 5
    endloop
  endfacet
  facet normal 0.634311 -0.773078 0
    outer loop
      vertex 81.4916 -21.0778 5
      vertex 81.2643 -21.2643 0
      vertex 81.4916 -21.0778 0
    endloop
  endfacet
  facet normal 0.956904 0.290404 0
    outer loop
      vertex 80.9392 -26.249 5
      vertex 80.8538 -25.9676 0
      vertex 80.8538 -25.9676 5
    endloop
  endfacet
  facet normal 0.956904 0.290404 0
    outer loop
      vertex 80.8538 -25.9676 0
      vertex 80.9392 -26.249 5
      vertex 80.9392 -26.249 0
    endloop
  endfacet
  facet normal -0.471259 -0.881995 0
    outer loop
      vertex 98.249 -20.9392 0
      vertex 98.5084 -21.0778 5
      vertex 98.249 -20.9392 5
    endloop
  endfacet
  facet normal -0.471259 -0.881995 -0
    outer loop
      vertex 98.5084 -21.0778 5
      vertex 98.249 -20.9392 0
      vertex 98.5084 -21.0778 0
    endloop
  endfacet
  facet normal -0.995191 -0.0979545 0
    outer loop
      vertex 99.175 -22.325 0
      vertex 99.1462 -22.0324 5
      vertex 99.1462 -22.0324 0
    endloop
  endfacet
  facet normal -0.995191 -0.0979545 0
    outer loop
      vertex 99.1462 -22.0324 5
      vertex 99.175 -22.325 0
      vertex 99.175 -22.325 5
    endloop
  endfacet
  facet normal -0.0979545 -0.995191 0
    outer loop
      vertex 97.675 -20.825 0
      vertex 97.9676 -20.8538 5
      vertex 97.675 -20.825 5
    endloop
  endfacet
  facet normal -0.0979545 -0.995191 -0
    outer loop
      vertex 97.9676 -20.8538 5
      vertex 97.675 -20.825 0
      vertex 97.9676 -20.8538 0
    endloop
  endfacet
  facet normal 0.773078 -0.634311 0
    outer loop
      vertex 81.0778 -21.4916 5
      vertex 81.2643 -21.2643 0
      vertex 81.2643 -21.2643 5
    endloop
  endfacet
  facet normal 0.773078 -0.634311 0
    outer loop
      vertex 81.2643 -21.2643 0
      vertex 81.0778 -21.4916 5
      vertex 81.0778 -21.4916 0
    endloop
  endfacet
  facet normal 0.0979545 0.995191 -0
    outer loop
      vertex 82.325 -27.175 0
      vertex 82.0324 -27.1462 5
      vertex 82.325 -27.175 5
    endloop
  endfacet
  facet normal 0.0979545 0.995191 0
    outer loop
      vertex 82.0324 -27.1462 5
      vertex 82.325 -27.175 0
      vertex 82.0324 -27.1462 0
    endloop
  endfacet
  facet normal 0.290404 -0.956904 0
    outer loop
      vertex 81.751 -20.9392 0
      vertex 82.0324 -20.8538 5
      vertex 81.751 -20.9392 5
    endloop
  endfacet
  facet normal 0.290404 -0.956904 0
    outer loop
      vertex 82.0324 -20.8538 5
      vertex 81.751 -20.9392 0
      vertex 82.0324 -20.8538 0
    endloop
  endfacet
  facet normal 1 -0 0
    outer loop
      vertex 80.825 -25.675 5
      vertex 80.825 -22.325 0
      vertex 80.825 -22.325 5
    endloop
  endfacet
  facet normal 1 0 0
    outer loop
      vertex 80.825 -22.325 0
      vertex 80.825 -25.675 5
      vertex 80.825 -25.675 0
    endloop
  endfacet
  facet normal -0.0979545 0.995191 0
    outer loop
      vertex 97.9676 -27.1462 0
      vertex 97.675 -27.175 5
      vertex 97.9676 -27.1462 5
    endloop
  endfacet
  facet normal -0.0979545 0.995191 0
    outer loop
      vertex 97.675 -27.175 5
      vertex 97.9676 -27.1462 0
      vertex 97.675 -27.175 0
    endloop
  endfacet
  facet normal -0.881995 -0.471259 0
    outer loop
      vertex 99.0608 -21.751 0
      vertex 98.9222 -21.4916 5
      vertex 98.9222 -21.4916 0
    endloop
  endfacet
  facet normal -0.881995 -0.471259 0
    outer loop
      vertex 98.9222 -21.4916 5
      vertex 99.0608 -21.751 0
      vertex 99.0608 -21.751 5
    endloop
  endfacet
  facet normal -0.881995 0.471259 0
    outer loop
      vertex 98.9222 -26.5084 0
      vertex 99.0608 -26.249 5
      vertex 99.0608 -26.249 0
    endloop
  endfacet
  facet normal -0.881995 0.471259 0
    outer loop
      vertex 99.0608 -26.249 5
      vertex 98.9222 -26.5084 0
      vertex 98.9222 -26.5084 5
    endloop
  endfacet
  facet normal 0.290404 0.956904 -0
    outer loop
      vertex 82.0324 -27.1462 0
      vertex 81.751 -27.0608 5
      vertex 82.0324 -27.1462 5
    endloop
  endfacet
  facet normal 0.290404 0.956904 0
    outer loop
      vertex 81.751 -27.0608 5
      vertex 82.0324 -27.1462 0
      vertex 81.751 -27.0608 0
    endloop
  endfacet
  facet normal 0.471259 0.881995 -0
    outer loop
      vertex 81.751 -27.0608 0
      vertex 81.4916 -26.9222 5
      vertex 81.751 -27.0608 5
    endloop
  endfacet
  facet normal 0.471259 0.881995 0
    outer loop
      vertex 81.4916 -26.9222 5
      vertex 81.751 -27.0608 0
      vertex 81.4916 -26.9222 0
    endloop
  endfacet
  facet normal 0.0979545 -0.995191 0
    outer loop
      vertex 82.0324 -20.8538 0
      vertex 82.325 -20.825 5
      vertex 82.0324 -20.8538 5
    endloop
  endfacet
  facet normal 0.0979545 -0.995191 0
    outer loop
      vertex 82.325 -20.825 5
      vertex 82.0324 -20.8538 0
      vertex 82.325 -20.825 0
    endloop
  endfacet
  facet normal -0.773078 -0.634311 0
    outer loop
      vertex 98.9222 -21.4916 0
      vertex 98.7357 -21.2643 5
      vertex 98.7357 -21.2643 0
    endloop
  endfacet
  facet normal -0.773078 -0.634311 0
    outer loop
      vertex 98.7357 -21.2643 5
      vertex 98.9222 -21.4916 0
      vertex 98.9222 -21.4916 5
    endloop
  endfacet
  facet normal 0.471259 -0.881995 0
    outer loop
      vertex 81.4916 -21.0778 0
      vertex 81.751 -20.9392 5
      vertex 81.4916 -21.0778 5
    endloop
  endfacet
  facet normal 0.471259 -0.881995 0
    outer loop
      vertex 81.751 -20.9392 5
      vertex 81.4916 -21.0778 0
      vertex 81.751 -20.9392 0
    endloop
  endfacet
  facet normal 0.634311 0.773078 -0
    outer loop
      vertex 81.4916 -26.9222 0
      vertex 81.2643 -26.7357 5
      vertex 81.4916 -26.9222 5
    endloop
  endfacet
  facet normal 0.634311 0.773078 0
    outer loop
      vertex 81.2643 -26.7357 5
      vertex 81.4916 -26.9222 0
      vertex 81.2643 -26.7357 0
    endloop
  endfacet
  facet normal -0.290404 0.956904 0
    outer loop
      vertex 98.249 -27.0608 0
      vertex 97.9676 -27.1462 5
      vertex 98.249 -27.0608 5
    endloop
  endfacet
  facet normal -0.290404 0.956904 0
    outer loop
      vertex 97.9676 -27.1462 5
      vertex 98.249 -27.0608 0
      vertex 97.9676 -27.1462 0
    endloop
  endfacet
  facet normal -0.634311 0.773078 0
    outer loop
      vertex 98.7357 -26.7357 0
      vertex 98.5084 -26.9222 5
      vertex 98.7357 -26.7357 5
    endloop
  endfacet
  facet normal -0.634311 0.773078 0
    outer loop
      vertex 98.5084 -26.9222 5
      vertex 98.7357 -26.7357 0
      vertex 98.5084 -26.9222 0
    endloop
  endfacet
  facet normal -0.290404 -0.956904 0
    outer loop
      vertex 97.9676 -20.8538 0
      vertex 98.249 -20.9392 5
      vertex 97.9676 -20.8538 5
    endloop
  endfacet
  facet normal -0.290404 -0.956904 -0
    outer loop
      vertex 98.249 -20.9392 5
      vertex 97.9676 -20.8538 0
      vertex 98.249 -20.9392 0
    endloop
  endfacet
  facet normal 0.881995 -0.471259 0
    outer loop
      vertex 80.9392 -21.751 5
      vertex 81.0778 -21.4916 0
      vertex 81.0778 -21.4916 5
    endloop
  endfacet
  facet normal 0.881995 -0.471259 0
    outer loop
      vertex 81.0778 -21.4916 0
      vertex 80.9392 -21.751 5
      vertex 80.9392 -21.751 0
    endloop
  endfacet
  facet normal -0.956904 0.290404 0
    outer loop
      vertex 99.0608 -26.249 0
      vertex 99.1462 -25.9676 5
      vertex 99.1462 -25.9676 0
    endloop
  endfacet
  facet normal -0.956904 0.290404 0
    outer loop
      vertex 99.1462 -25.9676 5
      vertex 99.0608 -26.249 0
      vertex 99.0608 -26.249 5
    endloop
  endfacet
  facet normal -0.471259 0.881995 0
    outer loop
      vertex 98.5084 -26.9222 0
      vertex 98.249 -27.0608 5
      vertex 98.5084 -26.9222 5
    endloop
  endfacet
  facet normal -0.471259 0.881995 0
    outer loop
      vertex 98.249 -27.0608 5
      vertex 98.5084 -26.9222 0
      vertex 98.249 -27.0608 0
    endloop
  endfacet
  facet normal 0.956904 -0.290404 0
    outer loop
      vertex 80.8538 -22.0324 5
      vertex 80.9392 -21.751 0
      vertex 80.9392 -21.751 5
    endloop
  endfacet
  facet normal 0.956904 -0.290404 0
    outer loop
      vertex 80.9392 -21.751 0
      vertex 80.8538 -22.0324 5
      vertex 80.8538 -22.0324 0
    endloop
  endfacet
  facet normal -0.956904 -0.290404 0
    outer loop
      vertex 99.1462 25.9676 0
      vertex 99.0608 26.249 5
      vertex 99.0608 26.249 0
    endloop
  endfacet
  facet normal -0.956904 -0.290404 0
    outer loop
      vertex 99.0608 26.249 5
      vertex 99.1462 25.9676 0
      vertex 99.1462 25.9676 5
    endloop
  endfacet
  facet normal 0 -1 0
    outer loop
      vertex 82.325 27.175 0
      vertex 85.9111 27.175 5
      vertex 82.325 27.175 5
    endloop
  endfacet
  facet normal 0 -1 -0
    outer loop
      vertex 85.9111 27.175 5
      vertex 82.325 27.175 0
      vertex 94.0889 27.175 5
    endloop
  endfacet
  facet normal 0 -1 0
    outer loop
      vertex 97.675 27.175 0
      vertex 94.0889 27.175 5
      vertex 82.325 27.175 0
    endloop
  endfacet
  facet normal 0 -1 0
    outer loop
      vertex 94.0889 27.175 5
      vertex 97.675 27.175 0
      vertex 97.675 27.175 5
    endloop
  endfacet
  facet normal 0 -1 0
    outer loop
      vertex 85.9111 27.175 5
      vertex 94.0889 27.175 8
      vertex 85.9111 27.175 8
    endloop
  endfacet
  facet normal 0 -1 -0
    outer loop
      vertex 94.0889 27.175 8
      vertex 85.9111 27.175 5
      vertex 94.0889 27.175 5
    endloop
  endfacet
  facet normal 0.995191 -0.0979545 0
    outer loop
      vertex 80.825 25.675 5
      vertex 80.8538 25.9676 0
      vertex 80.8538 25.9676 5
    endloop
  endfacet
  facet normal 0.995191 -0.0979545 0
    outer loop
      vertex 80.8538 25.9676 0
      vertex 80.825 25.675 5
      vertex 80.825 25.675 0
    endloop
  endfacet
  facet normal 0 1 -0
    outer loop
      vertex 97.675 20.825 0
      vertex 94.0889 20.825 5
      vertex 97.675 20.825 5
    endloop
  endfacet
  facet normal 0 1 0
    outer loop
      vertex 94.0889 20.825 5
      vertex 97.675 20.825 0
      vertex 85.9111 20.825 5
    endloop
  endfacet
  facet normal 0 1 0
    outer loop
      vertex 82.325 20.825 0
      vertex 85.9111 20.825 5
      vertex 97.675 20.825 0
    endloop
  endfacet
  facet normal 0 1 0
    outer loop
      vertex 85.9111 20.825 5
      vertex 82.325 20.825 0
      vertex 82.325 20.825 5
    endloop
  endfacet
  facet normal 0 1 -0
    outer loop
      vertex 94.0889 20.825 5
      vertex 85.9111 20.825 8
      vertex 94.0889 20.825 8
    endloop
  endfacet
  facet normal 0 1 0
    outer loop
      vertex 85.9111 20.825 8
      vertex 94.0889 20.825 5
      vertex 85.9111 20.825 5
    endloop
  endfacet
  facet normal -0.995191 0.0979545 0
    outer loop
      vertex 99.1462 22.0324 0
      vertex 99.175 22.325 5
      vertex 99.175 22.325 0
    endloop
  endfacet
  facet normal -0.995191 0.0979545 0
    outer loop
      vertex 99.175 22.325 5
      vertex 99.1462 22.0324 0
      vertex 99.1462 22.0324 5
    endloop
  endfacet
  facet normal 0.773078 0.634311 0
    outer loop
      vertex 81.2643 21.2643 5
      vertex 81.0778 21.4916 0
      vertex 81.0778 21.4916 5
    endloop
  endfacet
  facet normal 0.773078 0.634311 0
    outer loop
      vertex 81.0778 21.4916 0
      vertex 81.2643 21.2643 5
      vertex 81.2643 21.2643 0
    endloop
  endfacet
  facet normal -0.634311 -0.773078 0
    outer loop
      vertex 98.5084 26.9222 0
      vertex 98.7357 26.7357 5
      vertex 98.5084 26.9222 5
    endloop
  endfacet
  facet normal -0.634311 -0.773078 -0
    outer loop
      vertex 98.7357 26.7357 5
      vertex 98.5084 26.9222 0
      vertex 98.7357 26.7357 0
    endloop
  endfacet
  facet normal -1 0 0
    outer loop
      vertex 99.175 22.325 0
      vertex 99.175 25.675 5
      vertex 99.175 25.675 0
    endloop
  endfacet
  facet normal -1 -0 0
    outer loop
      vertex 99.175 25.675 5
      vertex 99.175 22.325 0
      vertex 99.175 22.325 5
    endloop
  endfacet
  facet normal -0.773078 0.634311 0
    outer loop
      vertex 98.7357 21.2643 0
      vertex 98.9222 21.4916 5
      vertex 98.9222 21.4916 0
    endloop
  endfacet
  facet normal -0.773078 0.634311 0
    outer loop
      vertex 98.9222 21.4916 5
      vertex 98.7357 21.2643 0
      vertex 98.7357 21.2643 5
    endloop
  endfacet
  facet normal 0.995191 0.0979545 0
    outer loop
      vertex 80.8538 22.0324 5
      vertex 80.825 22.325 0
      vertex 80.825 22.325 5
    endloop
  endfacet
  facet normal 0.995191 0.0979545 0
    outer loop
      vertex 80.825 22.325 0
      vertex 80.8538 22.0324 5
      vertex 80.8538 22.0324 0
    endloop
  endfacet
  facet normal 0.634311 -0.773078 0
    outer loop
      vertex 81.2643 26.7357 0
      vertex 81.4916 26.9222 5
      vertex 81.2643 26.7357 5
    endloop
  endfacet
  facet normal 0.634311 -0.773078 0
    outer loop
      vertex 81.4916 26.9222 5
      vertex 81.2643 26.7357 0
      vertex 81.4916 26.9222 0
    endloop
  endfacet
  facet normal 0.956904 0.290404 0
    outer loop
      vertex 80.9392 21.751 5
      vertex 80.8538 22.0324 0
      vertex 80.8538 22.0324 5
    endloop
  endfacet
  facet normal 0.956904 0.290404 0
    outer loop
      vertex 80.8538 22.0324 0
      vertex 80.9392 21.751 5
      vertex 80.9392 21.751 0
    endloop
  endfacet
  facet normal -0.471259 -0.881995 0
    outer loop
      vertex 98.249 27.0608 0
      vertex 98.5084 26.9222 5
      vertex 98.249 27.0608 5
    endloop
  endfacet
  facet normal -0.471259 -0.881995 -0
    outer loop
      vertex 98.5084 26.9222 5
      vertex 98.249 27.0608 0
      vertex 98.5084 26.9222 0
    endloop
  endfacet
  facet normal -0.995191 -0.0979545 0
    outer loop
      vertex 99.175 25.675 0
      vertex 99.1462 25.9676 5
      vertex 99.1462 25.9676 0
    endloop
  endfacet
  facet normal -0.995191 -0.0979545 0
    outer loop
      vertex 99.1462 25.9676 5
      vertex 99.175 25.675 0
      vertex 99.175 25.675 5
    endloop
  endfacet
  facet normal -0.0979545 -0.995191 0
    outer loop
      vertex 97.675 27.175 0
      vertex 97.9676 27.1462 5
      vertex 97.675 27.175 5
    endloop
  endfacet
  facet normal -0.0979545 -0.995191 -0
    outer loop
      vertex 97.9676 27.1462 5
      vertex 97.675 27.175 0
      vertex 97.9676 27.1462 0
    endloop
  endfacet
  facet normal 0.773078 -0.634311 0
    outer loop
      vertex 81.0778 26.5084 5
      vertex 81.2643 26.7357 0
      vertex 81.2643 26.7357 5
    endloop
  endfacet
  facet normal 0.773078 -0.634311 0
    outer loop
      vertex 81.2643 26.7357 0
      vertex 81.0778 26.5084 5
      vertex 81.0778 26.5084 0
    endloop
  endfacet
  facet normal 0.0979545 0.995191 -0
    outer loop
      vertex 82.325 20.825 0
      vertex 82.0324 20.8538 5
      vertex 82.325 20.825 5
    endloop
  endfacet
  facet normal 0.0979545 0.995191 0
    outer loop
      vertex 82.0324 20.8538 5
      vertex 82.325 20.825 0
      vertex 82.0324 20.8538 0
    endloop
  endfacet
  facet normal 0.290404 -0.956904 0
    outer loop
      vertex 81.751 27.0608 0
      vertex 82.0324 27.1462 5
      vertex 81.751 27.0608 5
    endloop
  endfacet
  facet normal 0.290404 -0.956904 0
    outer loop
      vertex 82.0324 27.1462 5
      vertex 81.751 27.0608 0
      vertex 82.0324 27.1462 0
    endloop
  endfacet
  facet normal 1 -0 0
    outer loop
      vertex 80.825 22.325 5
      vertex 80.825 25.675 0
      vertex 80.825 25.675 5
    endloop
  endfacet
  facet normal 1 0 0
    outer loop
      vertex 80.825 25.675 0
      vertex 80.825 22.325 5
      vertex 80.825 22.325 0
    endloop
  endfacet
  facet normal -0.0979545 0.995191 0
    outer loop
      vertex 97.9676 20.8538 0
      vertex 97.675 20.825 5
      vertex 97.9676 20.8538 5
    endloop
  endfacet
  facet normal -0.0979545 0.995191 0
    outer loop
      vertex 97.675 20.825 5
      vertex 97.9676 20.8538 0
      vertex 97.675 20.825 0
    endloop
  endfacet
  facet normal -0.881995 -0.471259 0
    outer loop
      vertex 99.0608 26.249 0
      vertex 98.9222 26.5084 5
      vertex 98.9222 26.5084 0
    endloop
  endfacet
  facet normal -0.881995 -0.471259 0
    outer loop
      vertex 98.9222 26.5084 5
      vertex 99.0608 26.249 0
      vertex 99.0608 26.249 5
    endloop
  endfacet
  facet normal -0.881995 0.471259 0
    outer loop
      vertex 98.9222 21.4916 0
      vertex 99.0608 21.751 5
      vertex 99.0608 21.751 0
    endloop
  endfacet
  facet normal -0.881995 0.471259 0
    outer loop
      vertex 99.0608 21.751 5
      vertex 98.9222 21.4916 0
      vertex 98.9222 21.4916 5
    endloop
  endfacet
  facet normal 0.290404 0.956904 -0
    outer loop
      vertex 82.0324 20.8538 0
      vertex 81.751 20.9392 5
      vertex 82.0324 20.8538 5
    endloop
  endfacet
  facet normal 0.290404 0.956904 0
    outer loop
      vertex 81.751 20.9392 5
      vertex 82.0324 20.8538 0
      vertex 81.751 20.9392 0
    endloop
  endfacet
  facet normal 0.471259 0.881995 -0
    outer loop
      vertex 81.751 20.9392 0
      vertex 81.4916 21.0778 5
      vertex 81.751 20.9392 5
    endloop
  endfacet
  facet normal 0.471259 0.881995 0
    outer loop
      vertex 81.4916 21.0778 5
      vertex 81.751 20.9392 0
      vertex 81.4916 21.0778 0
    endloop
  endfacet
  facet normal 0.0979545 -0.995191 0
    outer loop
      vertex 82.0324 27.1462 0
      vertex 82.325 27.175 5
      vertex 82.0324 27.1462 5
    endloop
  endfacet
  facet normal 0.0979545 -0.995191 0
    outer loop
      vertex 82.325 27.175 5
      vertex 82.0324 27.1462 0
      vertex 82.325 27.175 0
    endloop
  endfacet
  facet normal -0.773078 -0.634311 0
    outer loop
      vertex 98.9222 26.5084 0
      vertex 98.7357 26.7357 5
      vertex 98.7357 26.7357 0
    endloop
  endfacet
  facet normal -0.773078 -0.634311 0
    outer loop
      vertex 98.7357 26.7357 5
      vertex 98.9222 26.5084 0
      vertex 98.9222 26.5084 5
    endloop
  endfacet
  facet normal 0.471259 -0.881995 0
    outer loop
      vertex 81.4916 26.9222 0
      vertex 81.751 27.0608 5
      vertex 81.4916 26.9222 5
    endloop
  endfacet
  facet normal 0.471259 -0.881995 0
    outer loop
      vertex 81.751 27.0608 5
      vertex 81.4916 26.9222 0
      vertex 81.751 27.0608 0
    endloop
  endfacet
  facet normal 0.634311 0.773078 -0
    outer loop
      vertex 81.4916 21.0778 0
      vertex 81.2643 21.2643 5
      vertex 81.4916 21.0778 5
    endloop
  endfacet
  facet normal 0.634311 0.773078 0
    outer loop
      vertex 81.2643 21.2643 5
      vertex 81.4916 21.0778 0
      vertex 81.2643 21.2643 0
    endloop
  endfacet
  facet normal 0.881995 0.471259 0
    outer loop
      vertex 81.0778 21.4916 5
      vertex 80.9392 21.751 0
      vertex 80.9392 21.751 5
    endloop
  endfacet
  facet normal 0.881995 0.471259 0
    outer loop
      vertex 80.9392 21.751 0
      vertex 81.0778 21.4916 5
      vertex 81.0778 21.4916 0
    endloop
  endfacet
  facet normal -0.290404 0.956904 0
    outer loop
      vertex 98.249 20.9392 0
      vertex 97.9676 20.8538 5
      vertex 98.249 20.9392 5
    endloop
  endfacet
  facet normal -0.290404 0.956904 0
    outer loop
      vertex 97.9676 20.8538 5
      vertex 98.249 20.9392 0
      vertex 97.9676 20.8538 0
    endloop
  endfacet
  facet normal -0.634311 0.773078 0
    outer loop
      vertex 98.7357 21.2643 0
      vertex 98.5084 21.0778 5
      vertex 98.7357 21.2643 5
    endloop
  endfacet
  facet normal -0.634311 0.773078 0
    outer loop
      vertex 98.5084 21.0778 5
      vertex 98.7357 21.2643 0
      vertex 98.5084 21.0778 0
    endloop
  endfacet
  facet normal -0.290404 -0.956904 0
    outer loop
      vertex 97.9676 27.1462 0
      vertex 98.249 27.0608 5
      vertex 97.9676 27.1462 5
    endloop
  endfacet
  facet normal -0.290404 -0.956904 -0
    outer loop
      vertex 98.249 27.0608 5
      vertex 97.9676 27.1462 0
      vertex 98.249 27.0608 0
    endloop
  endfacet
  facet normal 0.881995 -0.471259 0
    outer loop
      vertex 80.9392 26.249 5
      vertex 81.0778 26.5084 0
      vertex 81.0778 26.5084 5
    endloop
  endfacet
  facet normal 0.881995 -0.471259 0
    outer loop
      vertex 81.0778 26.5084 0
      vertex 80.9392 26.249 5
      vertex 80.9392 26.249 0
    endloop
  endfacet
  facet normal -0.956904 0.290404 0
    outer loop
      vertex 99.0608 21.751 0
      vertex 99.1462 22.0324 5
      vertex 99.1462 22.0324 0
    endloop
  endfacet
  facet normal -0.956904 0.290404 0
    outer loop
      vertex 99.1462 22.0324 5
      vertex 99.0608 21.751 0
      vertex 99.0608 21.751 5
    endloop
  endfacet
  facet normal -0.471259 0.881995 0
    outer loop
      vertex 98.5084 21.0778 0
      vertex 98.249 20.9392 5
      vertex 98.5084 21.0778 5
    endloop
  endfacet
  facet normal -0.471259 0.881995 0
    outer loop
      vertex 98.249 20.9392 5
      vertex 98.5084 21.0778 0
      vertex 98.249 20.9392 0
    endloop
  endfacet
  facet normal 0.956904 -0.290404 0
    outer loop
      vertex 80.8538 25.9676 5
      vertex 80.9392 26.249 0
      vertex 80.9392 26.249 5
    endloop
  endfacet
  facet normal 0.956904 -0.290404 0
    outer loop
      vertex 80.9392 26.249 0
      vertex 80.8538 25.9676 5
      vertex 80.8538 25.9676 0
    endloop
  endfacet
endsolid OpenSCAD_Model
