solid OpenSCAD_Model
  facet normal 0.634471 0.772947 -0
    outer loop
      vertex 21.6485 -4.55147 0
      vertex 21.4667 -4.40224 4.6
      vertex 21.6485 -4.55147 4.6
    endloop
  endfacet
  facet normal 0.634471 0.772947 0
    outer loop
      vertex 21.4667 -4.40224 4.6
      vertex 21.6485 -4.55147 0
      vertex 21.4667 -4.40224 0
    endloop
  endfacet
  facet normal 0.957039 -0.28996 0
    outer loop
      vertex 21.9087 -11.0592 4.6
      vertex 21.9769 -10.8341 0
      vertex 21.9769 -10.8341 4.6
    endloop
  endfacet
  facet normal 0.957039 -0.28996 0
    outer loop
      vertex 21.9769 -10.8341 0
      vertex 21.9087 -11.0592 4.6
      vertex 21.9087 -11.0592 0
    endloop
  endfacet
  facet normal -1 0 0
    outer loop
      vertex -22 -10.6 0
      vertex -22 -5.4 4.6
      vertex -22 -5.4 0
    endloop
  endfacet
  facet normal -1 -0 0
    outer loop
      vertex -22 -5.4 4.6
      vertex -22 -10.6 0
      vertex -22 -10.6 4.6
    endloop
  endfacet
  facet normal 0.634649 -0.772801 0
    outer loop
      vertex 21.4667 -11.5978 0
      vertex 21.6485 -11.4485 4.6
      vertex 21.4667 -11.5978 4.6
    endloop
  endfacet
  facet normal 0.634649 -0.772801 0
    outer loop
      vertex 21.6485 -11.4485 4.6
      vertex 21.4667 -11.5978 0
      vertex 21.6485 -11.4485 0
    endloop
  endfacet
  facet normal 0.957042 0.289948 0
    outer loop
      vertex 21.9769 -5.16589 4.6
      vertex 21.9087 -4.94078 0
      vertex 21.9087 -4.94078 4.6
    endloop
  endfacet
  facet normal 0.957042 0.289948 0
    outer loop
      vertex 21.9087 -4.94078 0
      vertex 21.9769 -5.16589 4.6
      vertex 21.9769 -5.16589 0
    endloop
  endfacet
  facet normal 0.28996 -0.957039 0
    outer loop
      vertex 21.0341 -11.7769 0
      vertex 21.2592 -11.7087 4.6
      vertex 21.0341 -11.7769 4.6
    endloop
  endfacet
  facet normal 0.28996 -0.957039 0
    outer loop
      vertex 21.2592 -11.7087 4.6
      vertex 21.0341 -11.7769 0
      vertex 21.2592 -11.7087 0
    endloop
  endfacet
  facet normal -0.0981989 -0.995167 0
    outer loop
      vertex -21.0341 -11.7769 0
      vertex -20.8 -11.8 4.6
      vertex -21.0341 -11.7769 4.6
    endloop
  endfacet
  facet normal -0.0981989 -0.995167 -0
    outer loop
      vertex -20.8 -11.8 4.6
      vertex -21.0341 -11.7769 0
      vertex -20.8 -11.8 0
    endloop
  endfacet
  facet normal -0.995167 -0.0981989 0
    outer loop
      vertex -21.9769 -10.8341 0
      vertex -22 -10.6 4.6
      vertex -22 -10.6 0
    endloop
  endfacet
  facet normal -0.995167 -0.0981989 0
    outer loop
      vertex -22 -10.6 4.6
      vertex -21.9769 -10.8341 0
      vertex -21.9769 -10.8341 4.6
    endloop
  endfacet
  facet normal 0 -1 0
    outer loop
      vertex -20.8 -11.8 0
      vertex 20.8 -11.8 4.6
      vertex -20.8 -11.8 4.6
    endloop
  endfacet
  facet normal 0 -1 -0
    outer loop
      vertex 20.8 -11.8 4.6
      vertex -20.8 -11.8 0
      vertex 20.8 -11.8 0
    endloop
  endfacet
  facet normal 0.0980305 0.995183 -0
    outer loop
      vertex 21.0341 -4.22306 0
      vertex 20.8 -4.2 4.6
      vertex 21.0341 -4.22306 4.6
    endloop
  endfacet
  facet normal 0.0980305 0.995183 0
    outer loop
      vertex 20.8 -4.2 4.6
      vertex 21.0341 -4.22306 0
      vertex 20.8 -4.2 0
    endloop
  endfacet
  facet normal 0.772801 -0.634649 0
    outer loop
      vertex 21.6485 -11.4485 4.6
      vertex 21.7978 -11.2667 0
      vertex 21.7978 -11.2667 4.6
    endloop
  endfacet
  facet normal 0.772801 -0.634649 0
    outer loop
      vertex 21.7978 -11.2667 0
      vertex 21.6485 -11.4485 4.6
      vertex 21.6485 -11.4485 0
    endloop
  endfacet
  facet normal -0.290272 0.956944 0
    outer loop
      vertex -21.0341 -4.22306 0
      vertex -21.2592 -4.29134 4.6
      vertex -21.0341 -4.22306 4.6
    endloop
  endfacet
  facet normal -0.290272 0.956944 0
    outer loop
      vertex -21.2592 -4.29134 4.6
      vertex -21.0341 -4.22306 0
      vertex -21.2592 -4.29134 0
    endloop
  endfacet
  facet normal 0.995167 -0.0981989 0
    outer loop
      vertex 21.9769 -10.8341 4.6
      vertex 22 -10.6 0
      vertex 22 -10.6 4.6
    endloop
  endfacet
  facet normal 0.995167 -0.0981989 0
    outer loop
      vertex 22 -10.6 0
      vertex 21.9769 -10.8341 4.6
      vertex 21.9769 -10.8341 0
    endloop
  endfacet
  facet normal -0.881903 0.471431 0
    outer loop
      vertex -21.9087 -4.94078 0
      vertex -21.7978 -4.73332 4.6
      vertex -21.7978 -4.73332 0
    endloop
  endfacet
  facet normal -0.881903 0.471431 0
    outer loop
      vertex -21.7978 -4.73332 4.6
      vertex -21.9087 -4.94078 0
      vertex -21.9087 -4.94078 4.6
    endloop
  endfacet
  facet normal 0.47136 -0.881941 0
    outer loop
      vertex 21.2592 -11.7087 0
      vertex 21.4667 -11.5978 4.6
      vertex 21.2592 -11.7087 4.6
    endloop
  endfacet
  facet normal 0.47136 -0.881941 0
    outer loop
      vertex 21.4667 -11.5978 4.6
      vertex 21.2592 -11.7087 0
      vertex 21.4667 -11.5978 0
    endloop
  endfacet
  facet normal -0.957039 -0.28996 0
    outer loop
      vertex -21.9087 -11.0592 0
      vertex -21.9769 -10.8341 4.6
      vertex -21.9769 -10.8341 0
    endloop
  endfacet
  facet normal -0.957039 -0.28996 0
    outer loop
      vertex -21.9769 -10.8341 4.6
      vertex -21.9087 -11.0592 0
      vertex -21.9087 -11.0592 4.6
    endloop
  endfacet
  facet normal 0 1 -0
    outer loop
      vertex 20.8 -4.2 0
      vertex -20.8 -4.2 4.6
      vertex 20.8 -4.2 4.6
    endloop
  endfacet
  facet normal 0 1 0
    outer loop
      vertex -20.8 -4.2 4.6
      vertex 20.8 -4.2 0
      vertex -20.8 -4.2 0
    endloop
  endfacet
  facet normal -0.0980305 0.995183 0
    outer loop
      vertex -20.8 -4.2 0
      vertex -21.0341 -4.22306 4.6
      vertex -20.8 -4.2 4.6
    endloop
  endfacet
  facet normal -0.0980305 0.995183 0
    outer loop
      vertex -21.0341 -4.22306 4.6
      vertex -20.8 -4.2 0
      vertex -21.0341 -4.22306 0
    endloop
  endfacet
  facet normal -0.47136 0.881941 0
    outer loop
      vertex -21.2592 -4.29134 0
      vertex -21.4667 -4.40224 4.6
      vertex -21.2592 -4.29134 4.6
    endloop
  endfacet
  facet normal -0.47136 0.881941 0
    outer loop
      vertex -21.4667 -4.40224 4.6
      vertex -21.2592 -4.29134 0
      vertex -21.4667 -4.40224 0
    endloop
  endfacet
  facet normal 0.0981989 -0.995167 0
    outer loop
      vertex 20.8 -11.8 0
      vertex 21.0341 -11.7769 4.6
      vertex 20.8 -11.8 4.6
    endloop
  endfacet
  facet normal 0.0981989 -0.995167 0
    outer loop
      vertex 21.0341 -11.7769 4.6
      vertex 20.8 -11.8 0
      vertex 21.0341 -11.7769 0
    endloop
  endfacet
  facet normal 0 0 1
    outer loop
      vertex 20.8 -4.2 4.6
      vertex 22 -5.4 4.6
      vertex 21.9769 -5.16589 4.6
    endloop
  endfacet
  facet normal 0 0 1
    outer loop
      vertex 22 -5.4 4.6
      vertex 20.8 -4.2 4.6
      vertex 22 -10.6 4.6
    endloop
  endfacet
  facet normal 0 0 1
    outer loop
      vertex 20.8 -4.2 4.6
      vertex 21.9769 -5.16589 4.6
      vertex 21.9087 -4.94078 4.6
    endloop
  endfacet
  facet normal 0 0 1
    outer loop
      vertex 20.8 -11.8 4.6
      vertex 22 -10.6 4.6
      vertex 20.8 -4.2 4.6
    endloop
  endfacet
  facet normal 0 0 1
    outer loop
      vertex 20.8 -4.2 4.6
      vertex 21.9087 -4.94078 4.6
      vertex 21.7978 -4.73332 4.6
    endloop
  endfacet
  facet normal 0 0 1
    outer loop
      vertex 22 -10.6 4.6
      vertex 20.8 -11.8 4.6
      vertex 21.9769 -10.8341 4.6
    endloop
  endfacet
  facet normal 0 0 1
    outer loop
      vertex 20.8 -4.2 4.6
      vertex 21.7978 -4.73332 4.6
      vertex 21.6485 -4.55147 4.6
    endloop
  endfacet
  facet normal 0 0 1
    outer loop
      vertex 21.9769 -10.8341 4.6
      vertex 20.8 -11.8 4.6
      vertex 21.9087 -11.0592 4.6
    endloop
  endfacet
  facet normal 0 0 1
    outer loop
      vertex 20.8 -4.2 4.6
      vertex 21.6485 -4.55147 4.6
      vertex 21.4667 -4.40224 4.6
    endloop
  endfacet
  facet normal 0 0 1
    outer loop
      vertex 21.9087 -11.0592 4.6
      vertex 20.8 -11.8 4.6
      vertex 21.7978 -11.2667 4.6
    endloop
  endfacet
  facet normal 0 0 1
    outer loop
      vertex 20.8 -4.2 4.6
      vertex 21.4667 -4.40224 4.6
      vertex 21.2592 -4.29134 4.6
    endloop
  endfacet
  facet normal 0 0 1
    outer loop
      vertex 21.7978 -11.2667 4.6
      vertex 20.8 -11.8 4.6
      vertex 21.6485 -11.4485 4.6
    endloop
  endfacet
  facet normal 0 0 1
    outer loop
      vertex 20.8 -4.2 4.6
      vertex 21.2592 -4.29134 4.6
      vertex 21.0341 -4.22306 4.6
    endloop
  endfacet
  facet normal 0 0 1
    outer loop
      vertex 21.6485 -11.4485 4.6
      vertex 20.8 -11.8 4.6
      vertex 21.4667 -11.5978 4.6
    endloop
  endfacet
  facet normal 0 0 1
    outer loop
      vertex 21.4667 -11.5978 4.6
      vertex 20.8 -11.8 4.6
      vertex 21.2592 -11.7087 4.6
    endloop
  endfacet
  facet normal 0 0 1
    outer loop
      vertex 21.2592 -11.7087 4.6
      vertex 20.8 -11.8 4.6
      vertex 21.0341 -11.7769 4.6
    endloop
  endfacet
  facet normal -0 0 1
    outer loop
      vertex -20.8 -4.2 4.6
      vertex 20.8 -11.8 4.6
      vertex 20.8 -4.2 4.6
    endloop
  endfacet
  facet normal 0 0 1
    outer loop
      vertex -20.8 -4.2 4.6
      vertex -20.8 -11.8 4.6
      vertex 20.8 -11.8 4.6
    endloop
  endfacet
  facet normal 0 0 1
    outer loop
      vertex -22 -5.4 4.6
      vertex -20.8 -4.2 4.6
      vertex -21.0341 -4.22306 4.6
    endloop
  endfacet
  facet normal 0 0 1
    outer loop
      vertex -20.8 -4.2 4.6
      vertex -22 -5.4 4.6
      vertex -20.8 -11.8 4.6
    endloop
  endfacet
  facet normal 0 0 1
    outer loop
      vertex -22 -5.4 4.6
      vertex -21.0341 -4.22306 4.6
      vertex -21.2592 -4.29134 4.6
    endloop
  endfacet
  facet normal -0 0 1
    outer loop
      vertex -22 -10.6 4.6
      vertex -20.8 -11.8 4.6
      vertex -22 -5.4 4.6
    endloop
  endfacet
  facet normal 0 0 1
    outer loop
      vertex -22 -5.4 4.6
      vertex -21.2592 -4.29134 4.6
      vertex -21.4667 -4.40224 4.6
    endloop
  endfacet
  facet normal 0 0 1
    outer loop
      vertex -20.8 -11.8 4.6
      vertex -22 -10.6 4.6
      vertex -21.0341 -11.7769 4.6
    endloop
  endfacet
  facet normal 0 0 1
    outer loop
      vertex -22 -5.4 4.6
      vertex -21.4667 -4.40224 4.6
      vertex -21.6485 -4.55147 4.6
    endloop
  endfacet
  facet normal 0 0 1
    outer loop
      vertex -21.0341 -11.7769 4.6
      vertex -22 -10.6 4.6
      vertex -21.2592 -11.7087 4.6
    endloop
  endfacet
  facet normal 0 0 1
    outer loop
      vertex -22 -5.4 4.6
      vertex -21.6485 -4.55147 4.6
      vertex -21.7978 -4.73332 4.6
    endloop
  endfacet
  facet normal 0 0 1
    outer loop
      vertex -21.2592 -11.7087 4.6
      vertex -22 -10.6 4.6
      vertex -21.4667 -11.5978 4.6
    endloop
  endfacet
  facet normal 0 0 1
    outer loop
      vertex -22 -5.4 4.6
      vertex -21.7978 -4.73332 4.6
      vertex -21.9087 -4.94078 4.6
    endloop
  endfacet
  facet normal 0 0 1
    outer loop
      vertex -21.4667 -11.5978 4.6
      vertex -22 -10.6 4.6
      vertex -21.6485 -11.4485 4.6
    endloop
  endfacet
  facet normal 0 0 1
    outer loop
      vertex -22 -5.4 4.6
      vertex -21.9087 -4.94078 4.6
      vertex -21.9769 -5.16589 4.6
    endloop
  endfacet
  facet normal 0 0 1
    outer loop
      vertex -21.6485 -11.4485 4.6
      vertex -22 -10.6 4.6
      vertex -21.7978 -11.2667 4.6
    endloop
  endfacet
  facet normal 0 0 1
    outer loop
      vertex -21.7978 -11.2667 4.6
      vertex -22 -10.6 4.6
      vertex -21.9087 -11.0592 4.6
    endloop
  endfacet
  facet normal 0 0 1
    outer loop
      vertex -21.9087 -11.0592 4.6
      vertex -22 -10.6 4.6
      vertex -21.9769 -10.8341 4.6
    endloop
  endfacet
  facet normal -0.47136 -0.881941 0
    outer loop
      vertex -21.4667 -11.5978 0
      vertex -21.2592 -11.7087 4.6
      vertex -21.4667 -11.5978 4.6
    endloop
  endfacet
  facet normal -0.47136 -0.881941 -0
    outer loop
      vertex -21.2592 -11.7087 4.6
      vertex -21.4667 -11.5978 0
      vertex -21.2592 -11.7087 0
    endloop
  endfacet
  facet normal 0.995167 0.0981947 0
    outer loop
      vertex 22 -5.4 4.6
      vertex 21.9769 -5.16589 0
      vertex 21.9769 -5.16589 4.6
    endloop
  endfacet
  facet normal 0.995167 0.0981947 0
    outer loop
      vertex 21.9769 -5.16589 0
      vertex 22 -5.4 4.6
      vertex 22 -5.4 0
    endloop
  endfacet
  facet normal 0.881941 -0.47136 0
    outer loop
      vertex 21.7978 -11.2667 4.6
      vertex 21.9087 -11.0592 0
      vertex 21.9087 -11.0592 4.6
    endloop
  endfacet
  facet normal 0.881941 -0.47136 0
    outer loop
      vertex 21.9087 -11.0592 0
      vertex 21.7978 -11.2667 4.6
      vertex 21.7978 -11.2667 0
    endloop
  endfacet
  facet normal 1 -0 0
    outer loop
      vertex 22 -10.6 4.6
      vertex 22 -5.4 0
      vertex 22 -5.4 4.6
    endloop
  endfacet
  facet normal 1 0 0
    outer loop
      vertex 22 -5.4 0
      vertex 22 -10.6 4.6
      vertex 22 -10.6 0
    endloop
  endfacet
  facet normal -0.995167 0.0981947 0
    outer loop
      vertex -22 -5.4 0
      vertex -21.9769 -5.16589 4.6
      vertex -21.9769 -5.16589 0
    endloop
  endfacet
  facet normal -0.995167 0.0981947 0
    outer loop
      vertex -21.9769 -5.16589 4.6
      vertex -22 -5.4 0
      vertex -22 -5.4 4.6
    endloop
  endfacet
  facet normal 0.47136 0.881941 -0
    outer loop
      vertex 21.4667 -4.40224 0
      vertex 21.2592 -4.29134 4.6
      vertex 21.4667 -4.40224 4.6
    endloop
  endfacet
  facet normal 0.47136 0.881941 0
    outer loop
      vertex 21.2592 -4.29134 4.6
      vertex 21.4667 -4.40224 0
      vertex 21.2592 -4.29134 0
    endloop
  endfacet
  facet normal -0.772886 0.634545 0
    outer loop
      vertex -21.7978 -4.73332 0
      vertex -21.6485 -4.55147 4.6
      vertex -21.6485 -4.55147 0
    endloop
  endfacet
  facet normal -0.772886 0.634545 0
    outer loop
      vertex -21.6485 -4.55147 4.6
      vertex -21.7978 -4.73332 0
      vertex -21.7978 -4.73332 4.6
    endloop
  endfacet
  facet normal -0.957042 0.289948 0
    outer loop
      vertex -21.9769 -5.16589 0
      vertex -21.9087 -4.94078 4.6
      vertex -21.9087 -4.94078 0
    endloop
  endfacet
  facet normal -0.957042 0.289948 0
    outer loop
      vertex -21.9087 -4.94078 4.6
      vertex -21.9769 -5.16589 0
      vertex -21.9769 -5.16589 4.6
    endloop
  endfacet
  facet normal -0.634649 -0.772801 0
    outer loop
      vertex -21.6485 -11.4485 0
      vertex -21.4667 -11.5978 4.6
      vertex -21.6485 -11.4485 4.6
    endloop
  endfacet
  facet normal -0.634649 -0.772801 -0
    outer loop
      vertex -21.4667 -11.5978 4.6
      vertex -21.6485 -11.4485 0
      vertex -21.4667 -11.5978 0
    endloop
  endfacet
  facet normal -0.634471 0.772947 0
    outer loop
      vertex -21.4667 -4.40224 0
      vertex -21.6485 -4.55147 4.6
      vertex -21.4667 -4.40224 4.6
    endloop
  endfacet
  facet normal -0.634471 0.772947 0
    outer loop
      vertex -21.6485 -4.55147 4.6
      vertex -21.4667 -4.40224 0
      vertex -21.6485 -4.55147 0
    endloop
  endfacet
  facet normal 0.881903 0.471431 0
    outer loop
      vertex 21.9087 -4.94078 4.6
      vertex 21.7978 -4.73332 0
      vertex 21.7978 -4.73332 4.6
    endloop
  endfacet
  facet normal 0.881903 0.471431 0
    outer loop
      vertex 21.7978 -4.73332 0
      vertex 21.9087 -4.94078 4.6
      vertex 21.9087 -4.94078 0
    endloop
  endfacet
  facet normal -0.28996 -0.957039 0
    outer loop
      vertex -21.2592 -11.7087 0
      vertex -21.0341 -11.7769 4.6
      vertex -21.2592 -11.7087 4.6
    endloop
  endfacet
  facet normal -0.28996 -0.957039 -0
    outer loop
      vertex -21.0341 -11.7769 4.6
      vertex -21.2592 -11.7087 0
      vertex -21.0341 -11.7769 0
    endloop
  endfacet
  facet normal 0.772886 0.634545 0
    outer loop
      vertex 21.7978 -4.73332 4.6
      vertex 21.6485 -4.55147 0
      vertex 21.6485 -4.55147 4.6
    endloop
  endfacet
  facet normal 0.772886 0.634545 0
    outer loop
      vertex 21.6485 -4.55147 0
      vertex 21.7978 -4.73332 4.6
      vertex 21.7978 -4.73332 0
    endloop
  endfacet
  facet normal 0.290272 0.956944 -0
    outer loop
      vertex 21.2592 -4.29134 0
      vertex 21.0341 -4.22306 4.6
      vertex 21.2592 -4.29134 4.6
    endloop
  endfacet
  facet normal 0.290272 0.956944 0
    outer loop
      vertex 21.0341 -4.22306 4.6
      vertex 21.2592 -4.29134 0
      vertex 21.0341 -4.22306 0
    endloop
  endfacet
  facet normal 0 0 -1
    outer loop
      vertex 20.8 -11.8 0
      vertex 22 -10.6 0
      vertex 21.9769 -10.8341 0
    endloop
  endfacet
  facet normal -0 0 -1
    outer loop
      vertex 22 -10.6 0
      vertex 20.8 -11.8 0
      vertex 22 -5.4 0
    endloop
  endfacet
  facet normal 0 0 -1
    outer loop
      vertex 20.8 -11.8 0
      vertex 21.9769 -10.8341 0
      vertex 21.9087 -11.0592 0
    endloop
  endfacet
  facet normal 0 0 -1
    outer loop
      vertex 20.8 -4.2 0
      vertex 22 -5.4 0
      vertex 20.8 -11.8 0
    endloop
  endfacet
  facet normal 0 0 -1
    outer loop
      vertex 20.8 -11.8 0
      vertex 21.9087 -11.0592 0
      vertex 21.7978 -11.2667 0
    endloop
  endfacet
  facet normal 0 0 -1
    outer loop
      vertex 22 -5.4 0
      vertex 20.8 -4.2 0
      vertex 21.9769 -5.16589 0
    endloop
  endfacet
  facet normal 0 0 -1
    outer loop
      vertex 20.8 -11.8 0
      vertex 21.7978 -11.2667 0
      vertex 21.6485 -11.4485 0
    endloop
  endfacet
  facet normal 0 0 -1
    outer loop
      vertex 21.9769 -5.16589 0
      vertex 20.8 -4.2 0
      vertex 21.9087 -4.94078 0
    endloop
  endfacet
  facet normal 0 0 -1
    outer loop
      vertex 20.8 -11.8 0
      vertex 21.6485 -11.4485 0
      vertex 21.4667 -11.5978 0
    endloop
  endfacet
  facet normal 0 0 -1
    outer loop
      vertex 21.9087 -4.94078 0
      vertex 20.8 -4.2 0
      vertex 21.7978 -4.73332 0
    endloop
  endfacet
  facet normal 0 0 -1
    outer loop
      vertex 20.8 -11.8 0
      vertex 21.4667 -11.5978 0
      vertex 21.2592 -11.7087 0
    endloop
  endfacet
  facet normal 0 0 -1
    outer loop
      vertex 21.7978 -4.73332 0
      vertex 20.8 -4.2 0
      vertex 21.6485 -4.55147 0
    endloop
  endfacet
  facet normal 0 0 -1
    outer loop
      vertex 20.8 -11.8 0
      vertex 21.2592 -11.7087 0
      vertex 21.0341 -11.7769 0
    endloop
  endfacet
  facet normal 0 0 -1
    outer loop
      vertex 21.6485 -4.55147 0
      vertex 20.8 -4.2 0
      vertex 21.4667 -4.40224 0
    endloop
  endfacet
  facet normal 0 0 -1
    outer loop
      vertex 21.4667 -4.40224 0
      vertex 20.8 -4.2 0
      vertex 21.2592 -4.29134 0
    endloop
  endfacet
  facet normal 0 0 -1
    outer loop
      vertex 21.2592 -4.29134 0
      vertex 20.8 -4.2 0
      vertex 21.0341 -4.22306 0
    endloop
  endfacet
  facet normal 0 0 -1
    outer loop
      vertex -20.8 -11.8 0
      vertex 20.8 -4.2 0
      vertex 20.8 -11.8 0
    endloop
  endfacet
  facet normal 0 0 -1
    outer loop
      vertex -20.8 -11.8 0
      vertex -20.8 -4.2 0
      vertex 20.8 -4.2 0
    endloop
  endfacet
  facet normal 0 0 -1
    outer loop
      vertex -22 -10.6 0
      vertex -20.8 -11.8 0
      vertex -21.0341 -11.7769 0
    endloop
  endfacet
  facet normal 0 0 -1
    outer loop
      vertex -20.8 -11.8 0
      vertex -22 -10.6 0
      vertex -20.8 -4.2 0
    endloop
  endfacet
  facet normal 0 0 -1
    outer loop
      vertex -22 -10.6 0
      vertex -21.0341 -11.7769 0
      vertex -21.2592 -11.7087 0
    endloop
  endfacet
  facet normal 0 0 -1
    outer loop
      vertex -22 -5.4 0
      vertex -20.8 -4.2 0
      vertex -22 -10.6 0
    endloop
  endfacet
  facet normal 0 0 -1
    outer loop
      vertex -22 -10.6 0
      vertex -21.2592 -11.7087 0
      vertex -21.4667 -11.5978 0
    endloop
  endfacet
  facet normal 0 0 -1
    outer loop
      vertex -20.8 -4.2 0
      vertex -22 -5.4 0
      vertex -21.0341 -4.22306 0
    endloop
  endfacet
  facet normal 0 0 -1
    outer loop
      vertex -22 -10.6 0
      vertex -21.4667 -11.5978 0
      vertex -21.6485 -11.4485 0
    endloop
  endfacet
  facet normal 0 0 -1
    outer loop
      vertex -21.0341 -4.22306 0
      vertex -22 -5.4 0
      vertex -21.2592 -4.29134 0
    endloop
  endfacet
  facet normal 0 0 -1
    outer loop
      vertex -22 -10.6 0
      vertex -21.6485 -11.4485 0
      vertex -21.7978 -11.2667 0
    endloop
  endfacet
  facet normal 0 0 -1
    outer loop
      vertex -21.2592 -4.29134 0
      vertex -22 -5.4 0
      vertex -21.4667 -4.40224 0
    endloop
  endfacet
  facet normal 0 0 -1
    outer loop
      vertex -22 -10.6 0
      vertex -21.7978 -11.2667 0
      vertex -21.9087 -11.0592 0
    endloop
  endfacet
  facet normal 0 0 -1
    outer loop
      vertex -21.4667 -4.40224 0
      vertex -22 -5.4 0
      vertex -21.6485 -4.55147 0
    endloop
  endfacet
  facet normal 0 0 -1
    outer loop
      vertex -22 -10.6 0
      vertex -21.9087 -11.0592 0
      vertex -21.9769 -10.8341 0
    endloop
  endfacet
  facet normal 0 0 -1
    outer loop
      vertex -21.6485 -4.55147 0
      vertex -22 -5.4 0
      vertex -21.7978 -4.73332 0
    endloop
  endfacet
  facet normal 0 0 -1
    outer loop
      vertex -21.7978 -4.73332 0
      vertex -22 -5.4 0
      vertex -21.9087 -4.94078 0
    endloop
  endfacet
  facet normal 0 0 -1
    outer loop
      vertex -21.9087 -4.94078 0
      vertex -22 -5.4 0
      vertex -21.9769 -5.16589 0
    endloop
  endfacet
  facet normal -0.772801 -0.634649 0
    outer loop
      vertex -21.6485 -11.4485 0
      vertex -21.7978 -11.2667 4.6
      vertex -21.7978 -11.2667 0
    endloop
  endfacet
  facet normal -0.772801 -0.634649 0
    outer loop
      vertex -21.7978 -11.2667 4.6
      vertex -21.6485 -11.4485 0
      vertex -21.6485 -11.4485 4.6
    endloop
  endfacet
  facet normal -0.881941 -0.47136 0
    outer loop
      vertex -21.7978 -11.2667 0
      vertex -21.9087 -11.0592 4.6
      vertex -21.9087 -11.0592 0
    endloop
  endfacet
  facet normal -0.881941 -0.47136 0
    outer loop
      vertex -21.9087 -11.0592 4.6
      vertex -21.7978 -11.2667 0
      vertex -21.7978 -11.2667 4.6
    endloop
  endfacet
  facet normal 0.634649 0.772801 -0
    outer loop
      vertex 21.6485 11.4485 0
      vertex 21.4667 11.5978 4.6
      vertex 21.6485 11.4485 4.6
    endloop
  endfacet
  facet normal 0.634649 0.772801 0
    outer loop
      vertex 21.4667 11.5978 4.6
      vertex 21.6485 11.4485 0
      vertex 21.4667 11.5978 0
    endloop
  endfacet
  facet normal 0.957042 -0.289948 0
    outer loop
      vertex 21.9087 4.94078 4.6
      vertex 21.9769 5.16589 0
      vertex 21.9769 5.16589 4.6
    endloop
  endfacet
  facet normal 0.957042 -0.289948 0
    outer loop
      vertex 21.9769 5.16589 0
      vertex 21.9087 4.94078 4.6
      vertex 21.9087 4.94078 0
    endloop
  endfacet
  facet normal -1 0 0
    outer loop
      vertex -22 5.4 0
      vertex -22 10.6 4.6
      vertex -22 10.6 0
    endloop
  endfacet
  facet normal -1 -0 0
    outer loop
      vertex -22 10.6 4.6
      vertex -22 5.4 0
      vertex -22 5.4 4.6
    endloop
  endfacet
  facet normal 0.634471 -0.772947 0
    outer loop
      vertex 21.4667 4.40224 0
      vertex 21.6485 4.55147 4.6
      vertex 21.4667 4.40224 4.6
    endloop
  endfacet
  facet normal 0.634471 -0.772947 0
    outer loop
      vertex 21.6485 4.55147 4.6
      vertex 21.4667 4.40224 0
      vertex 21.6485 4.55147 0
    endloop
  endfacet
  facet normal 0.957039 0.28996 0
    outer loop
      vertex 21.9769 10.8341 4.6
      vertex 21.9087 11.0592 0
      vertex 21.9087 11.0592 4.6
    endloop
  endfacet
  facet normal 0.957039 0.28996 0
    outer loop
      vertex 21.9087 11.0592 0
      vertex 21.9769 10.8341 4.6
      vertex 21.9769 10.8341 0
    endloop
  endfacet
  facet normal 0.290272 -0.956944 0
    outer loop
      vertex 21.0341 4.22306 0
      vertex 21.2592 4.29134 4.6
      vertex 21.0341 4.22306 4.6
    endloop
  endfacet
  facet normal 0.290272 -0.956944 0
    outer loop
      vertex 21.2592 4.29134 4.6
      vertex 21.0341 4.22306 0
      vertex 21.2592 4.29134 0
    endloop
  endfacet
  facet normal -0.0980305 -0.995183 0
    outer loop
      vertex -21.0341 4.22306 0
      vertex -20.8 4.2 4.6
      vertex -21.0341 4.22306 4.6
    endloop
  endfacet
  facet normal -0.0980305 -0.995183 -0
    outer loop
      vertex -20.8 4.2 4.6
      vertex -21.0341 4.22306 0
      vertex -20.8 4.2 0
    endloop
  endfacet
  facet normal -0.995167 -0.0981947 0
    outer loop
      vertex -21.9769 5.16589 0
      vertex -22 5.4 4.6
      vertex -22 5.4 0
    endloop
  endfacet
  facet normal -0.995167 -0.0981947 0
    outer loop
      vertex -22 5.4 4.6
      vertex -21.9769 5.16589 0
      vertex -21.9769 5.16589 4.6
    endloop
  endfacet
  facet normal 0 -1 0
    outer loop
      vertex -20.8 4.2 0
      vertex 20.8 4.2 4.6
      vertex -20.8 4.2 4.6
    endloop
  endfacet
  facet normal 0 -1 -0
    outer loop
      vertex 20.8 4.2 4.6
      vertex -20.8 4.2 0
      vertex 20.8 4.2 0
    endloop
  endfacet
  facet normal 0.0981989 0.995167 -0
    outer loop
      vertex 21.0341 11.7769 0
      vertex 20.8 11.8 4.6
      vertex 21.0341 11.7769 4.6
    endloop
  endfacet
  facet normal 0.0981989 0.995167 0
    outer loop
      vertex 20.8 11.8 4.6
      vertex 21.0341 11.7769 0
      vertex 20.8 11.8 0
    endloop
  endfacet
  facet normal 0.772886 -0.634545 0
    outer loop
      vertex 21.6485 4.55147 4.6
      vertex 21.7978 4.73332 0
      vertex 21.7978 4.73332 4.6
    endloop
  endfacet
  facet normal 0.772886 -0.634545 0
    outer loop
      vertex 21.7978 4.73332 0
      vertex 21.6485 4.55147 4.6
      vertex 21.6485 4.55147 0
    endloop
  endfacet
  facet normal -0.28996 0.957039 0
    outer loop
      vertex -21.0341 11.7769 0
      vertex -21.2592 11.7087 4.6
      vertex -21.0341 11.7769 4.6
    endloop
  endfacet
  facet normal -0.28996 0.957039 0
    outer loop
      vertex -21.2592 11.7087 4.6
      vertex -21.0341 11.7769 0
      vertex -21.2592 11.7087 0
    endloop
  endfacet
  facet normal 0.995167 -0.0981947 0
    outer loop
      vertex 21.9769 5.16589 4.6
      vertex 22 5.4 0
      vertex 22 5.4 4.6
    endloop
  endfacet
  facet normal 0.995167 -0.0981947 0
    outer loop
      vertex 22 5.4 0
      vertex 21.9769 5.16589 4.6
      vertex 21.9769 5.16589 0
    endloop
  endfacet
  facet normal -0.881941 0.47136 0
    outer loop
      vertex -21.9087 11.0592 0
      vertex -21.7978 11.2667 4.6
      vertex -21.7978 11.2667 0
    endloop
  endfacet
  facet normal -0.881941 0.47136 0
    outer loop
      vertex -21.7978 11.2667 4.6
      vertex -21.9087 11.0592 0
      vertex -21.9087 11.0592 4.6
    endloop
  endfacet
  facet normal 0.47136 -0.881941 0
    outer loop
      vertex 21.2592 4.29134 0
      vertex 21.4667 4.40224 4.6
      vertex 21.2592 4.29134 4.6
    endloop
  endfacet
  facet normal 0.47136 -0.881941 0
    outer loop
      vertex 21.4667 4.40224 4.6
      vertex 21.2592 4.29134 0
      vertex 21.4667 4.40224 0
    endloop
  endfacet
  facet normal -0.957042 -0.289948 0
    outer loop
      vertex -21.9087 4.94078 0
      vertex -21.9769 5.16589 4.6
      vertex -21.9769 5.16589 0
    endloop
  endfacet
  facet normal -0.957042 -0.289948 0
    outer loop
      vertex -21.9769 5.16589 4.6
      vertex -21.9087 4.94078 0
      vertex -21.9087 4.94078 4.6
    endloop
  endfacet
  facet normal 0 1 -0
    outer loop
      vertex 20.8 11.8 0
      vertex -20.8 11.8 4.6
      vertex 20.8 11.8 4.6
    endloop
  endfacet
  facet normal 0 1 0
    outer loop
      vertex -20.8 11.8 4.6
      vertex 20.8 11.8 0
      vertex -20.8 11.8 0
    endloop
  endfacet
  facet normal -0.0981989 0.995167 0
    outer loop
      vertex -20.8 11.8 0
      vertex -21.0341 11.7769 4.6
      vertex -20.8 11.8 4.6
    endloop
  endfacet
  facet normal -0.0981989 0.995167 0
    outer loop
      vertex -21.0341 11.7769 4.6
      vertex -20.8 11.8 0
      vertex -21.0341 11.7769 0
    endloop
  endfacet
  facet normal -0.47136 0.881941 0
    outer loop
      vertex -21.2592 11.7087 0
      vertex -21.4667 11.5978 4.6
      vertex -21.2592 11.7087 4.6
    endloop
  endfacet
  facet normal -0.47136 0.881941 0
    outer loop
      vertex -21.4667 11.5978 4.6
      vertex -21.2592 11.7087 0
      vertex -21.4667 11.5978 0
    endloop
  endfacet
  facet normal 0.0980305 -0.995183 0
    outer loop
      vertex 20.8 4.2 0
      vertex 21.0341 4.22306 4.6
      vertex 20.8 4.2 4.6
    endloop
  endfacet
  facet normal 0.0980305 -0.995183 0
    outer loop
      vertex 21.0341 4.22306 4.6
      vertex 20.8 4.2 0
      vertex 21.0341 4.22306 0
    endloop
  endfacet
  facet normal 0 0 1
    outer loop
      vertex 20.8 11.8 4.6
      vertex 22 10.6 4.6
      vertex 21.9769 10.8341 4.6
    endloop
  endfacet
  facet normal 0 0 1
    outer loop
      vertex 22 10.6 4.6
      vertex 20.8 11.8 4.6
      vertex 22 5.4 4.6
    endloop
  endfacet
  facet normal 0 0 1
    outer loop
      vertex 20.8 11.8 4.6
      vertex 21.9769 10.8341 4.6
      vertex 21.9087 11.0592 4.6
    endloop
  endfacet
  facet normal 0 0 1
    outer loop
      vertex 20.8 4.2 4.6
      vertex 22 5.4 4.6
      vertex 20.8 11.8 4.6
    endloop
  endfacet
  facet normal 0 0 1
    outer loop
      vertex 20.8 11.8 4.6
      vertex 21.9087 11.0592 4.6
      vertex 21.7978 11.2667 4.6
    endloop
  endfacet
  facet normal 0 0 1
    outer loop
      vertex 22 5.4 4.6
      vertex 20.8 4.2 4.6
      vertex 21.9769 5.16589 4.6
    endloop
  endfacet
  facet normal 0 0 1
    outer loop
      vertex 20.8 11.8 4.6
      vertex 21.7978 11.2667 4.6
      vertex 21.6485 11.4485 4.6
    endloop
  endfacet
  facet normal 0 0 1
    outer loop
      vertex 21.9769 5.16589 4.6
      vertex 20.8 4.2 4.6
      vertex 21.9087 4.94078 4.6
    endloop
  endfacet
  facet normal 0 0 1
    outer loop
      vertex 20.8 11.8 4.6
      vertex 21.6485 11.4485 4.6
      vertex 21.4667 11.5978 4.6
    endloop
  endfacet
  facet normal 0 0 1
    outer loop
      vertex 21.9087 4.94078 4.6
      vertex 20.8 4.2 4.6
      vertex 21.7978 4.73332 4.6
    endloop
  endfacet
  facet normal 0 0 1
    outer loop
      vertex 20.8 11.8 4.6
      vertex 21.4667 11.5978 4.6
      vertex 21.2592 11.7087 4.6
    endloop
  endfacet
  facet normal 0 0 1
    outer loop
      vertex 21.7978 4.73332 4.6
      vertex 20.8 4.2 4.6
      vertex 21.6485 4.55147 4.6
    endloop
  endfacet
  facet normal 0 0 1
    outer loop
      vertex 20.8 11.8 4.6
      vertex 21.2592 11.7087 4.6
      vertex 21.0341 11.7769 4.6
    endloop
  endfacet
  facet normal 0 0 1
    outer loop
      vertex 21.6485 4.55147 4.6
      vertex 20.8 4.2 4.6
      vertex 21.4667 4.40224 4.6
    endloop
  endfacet
  facet normal 0 0 1
    outer loop
      vertex 21.4667 4.40224 4.6
      vertex 20.8 4.2 4.6
      vertex 21.2592 4.29134 4.6
    endloop
  endfacet
  facet normal 0 0 1
    outer loop
      vertex 21.2592 4.29134 4.6
      vertex 20.8 4.2 4.6
      vertex 21.0341 4.22306 4.6
    endloop
  endfacet
  facet normal -0 0 1
    outer loop
      vertex -20.8 11.8 4.6
      vertex 20.8 4.2 4.6
      vertex 20.8 11.8 4.6
    endloop
  endfacet
  facet normal 0 0 1
    outer loop
      vertex -20.8 11.8 4.6
      vertex -20.8 4.2 4.6
      vertex 20.8 4.2 4.6
    endloop
  endfacet
  facet normal 0 0 1
    outer loop
      vertex -22 10.6 4.6
      vertex -20.8 11.8 4.6
      vertex -21.0341 11.7769 4.6
    endloop
  endfacet
  facet normal 0 0 1
    outer loop
      vertex -20.8 11.8 4.6
      vertex -22 10.6 4.6
      vertex -20.8 4.2 4.6
    endloop
  endfacet
  facet normal 0 0 1
    outer loop
      vertex -22 10.6 4.6
      vertex -21.0341 11.7769 4.6
      vertex -21.2592 11.7087 4.6
    endloop
  endfacet
  facet normal -0 0 1
    outer loop
      vertex -22 5.4 4.6
      vertex -20.8 4.2 4.6
      vertex -22 10.6 4.6
    endloop
  endfacet
  facet normal 0 0 1
    outer loop
      vertex -22 10.6 4.6
      vertex -21.2592 11.7087 4.6
      vertex -21.4667 11.5978 4.6
    endloop
  endfacet
  facet normal 0 0 1
    outer loop
      vertex -20.8 4.2 4.6
      vertex -22 5.4 4.6
      vertex -21.0341 4.22306 4.6
    endloop
  endfacet
  facet normal 0 0 1
    outer loop
      vertex -22 10.6 4.6
      vertex -21.4667 11.5978 4.6
      vertex -21.6485 11.4485 4.6
    endloop
  endfacet
  facet normal 0 0 1
    outer loop
      vertex -21.0341 4.22306 4.6
      vertex -22 5.4 4.6
      vertex -21.2592 4.29134 4.6
    endloop
  endfacet
  facet normal 0 0 1
    outer loop
      vertex -22 10.6 4.6
      vertex -21.6485 11.4485 4.6
      vertex -21.7978 11.2667 4.6
    endloop
  endfacet
  facet normal 0 0 1
    outer loop
      vertex -21.2592 4.29134 4.6
      vertex -22 5.4 4.6
      vertex -21.4667 4.40224 4.6
    endloop
  endfacet
  facet normal 0 0 1
    outer loop
      vertex -22 10.6 4.6
      vertex -21.7978 11.2667 4.6
      vertex -21.9087 11.0592 4.6
    endloop
  endfacet
  facet normal 0 0 1
    outer loop
      vertex -21.4667 4.40224 4.6
      vertex -22 5.4 4.6
      vertex -21.6485 4.55147 4.6
    endloop
  endfacet
  facet normal 0 0 1
    outer loop
      vertex -22 10.6 4.6
      vertex -21.9087 11.0592 4.6
      vertex -21.9769 10.8341 4.6
    endloop
  endfacet
  facet normal 0 0 1
    outer loop
      vertex -21.6485 4.55147 4.6
      vertex -22 5.4 4.6
      vertex -21.7978 4.73332 4.6
    endloop
  endfacet
  facet normal 0 0 1
    outer loop
      vertex -21.7978 4.73332 4.6
      vertex -22 5.4 4.6
      vertex -21.9087 4.94078 4.6
    endloop
  endfacet
  facet normal 0 0 1
    outer loop
      vertex -21.9087 4.94078 4.6
      vertex -22 5.4 4.6
      vertex -21.9769 5.16589 4.6
    endloop
  endfacet
  facet normal -0.47136 -0.881941 0
    outer loop
      vertex -21.4667 4.40224 0
      vertex -21.2592 4.29134 4.6
      vertex -21.4667 4.40224 4.6
    endloop
  endfacet
  facet normal -0.47136 -0.881941 -0
    outer loop
      vertex -21.2592 4.29134 4.6
      vertex -21.4667 4.40224 0
      vertex -21.2592 4.29134 0
    endloop
  endfacet
  facet normal 0.995167 0.0981989 0
    outer loop
      vertex 22 10.6 4.6
      vertex 21.9769 10.8341 0
      vertex 21.9769 10.8341 4.6
    endloop
  endfacet
  facet normal 0.995167 0.0981989 0
    outer loop
      vertex 21.9769 10.8341 0
      vertex 22 10.6 4.6
      vertex 22 10.6 0
    endloop
  endfacet
  facet normal 0.881903 -0.471431 0
    outer loop
      vertex 21.7978 4.73332 4.6
      vertex 21.9087 4.94078 0
      vertex 21.9087 4.94078 4.6
    endloop
  endfacet
  facet normal 0.881903 -0.471431 0
    outer loop
      vertex 21.9087 4.94078 0
      vertex 21.7978 4.73332 4.6
      vertex 21.7978 4.73332 0
    endloop
  endfacet
  facet normal 1 -0 0
    outer loop
      vertex 22 5.4 4.6
      vertex 22 10.6 0
      vertex 22 10.6 4.6
    endloop
  endfacet
  facet normal 1 0 0
    outer loop
      vertex 22 10.6 0
      vertex 22 5.4 4.6
      vertex 22 5.4 0
    endloop
  endfacet
  facet normal -0.995167 0.0981989 0
    outer loop
      vertex -22 10.6 0
      vertex -21.9769 10.8341 4.6
      vertex -21.9769 10.8341 0
    endloop
  endfacet
  facet normal -0.995167 0.0981989 0
    outer loop
      vertex -21.9769 10.8341 4.6
      vertex -22 10.6 0
      vertex -22 10.6 4.6
    endloop
  endfacet
  facet normal 0.47136 0.881941 -0
    outer loop
      vertex 21.4667 11.5978 0
      vertex 21.2592 11.7087 4.6
      vertex 21.4667 11.5978 4.6
    endloop
  endfacet
  facet normal 0.47136 0.881941 0
    outer loop
      vertex 21.2592 11.7087 4.6
      vertex 21.4667 11.5978 0
      vertex 21.2592 11.7087 0
    endloop
  endfacet
  facet normal -0.772801 0.634649 0
    outer loop
      vertex -21.7978 11.2667 0
      vertex -21.6485 11.4485 4.6
      vertex -21.6485 11.4485 0
    endloop
  endfacet
  facet normal -0.772801 0.634649 0
    outer loop
      vertex -21.6485 11.4485 4.6
      vertex -21.7978 11.2667 0
      vertex -21.7978 11.2667 4.6
    endloop
  endfacet
  facet normal -0.957039 0.28996 0
    outer loop
      vertex -21.9769 10.8341 0
      vertex -21.9087 11.0592 4.6
      vertex -21.9087 11.0592 0
    endloop
  endfacet
  facet normal -0.957039 0.28996 0
    outer loop
      vertex -21.9087 11.0592 4.6
      vertex -21.9769 10.8341 0
      vertex -21.9769 10.8341 4.6
    endloop
  endfacet
  facet normal -0.634471 -0.772947 0
    outer loop
      vertex -21.6485 4.55147 0
      vertex -21.4667 4.40224 4.6
      vertex -21.6485 4.55147 4.6
    endloop
  endfacet
  facet normal -0.634471 -0.772947 -0
    outer loop
      vertex -21.4667 4.40224 4.6
      vertex -21.6485 4.55147 0
      vertex -21.4667 4.40224 0
    endloop
  endfacet
  facet normal -0.634649 0.772801 0
    outer loop
      vertex -21.4667 11.5978 0
      vertex -21.6485 11.4485 4.6
      vertex -21.4667 11.5978 4.6
    endloop
  endfacet
  facet normal -0.634649 0.772801 0
    outer loop
      vertex -21.6485 11.4485 4.6
      vertex -21.4667 11.5978 0
      vertex -21.6485 11.4485 0
    endloop
  endfacet
  facet normal 0.881941 0.47136 0
    outer loop
      vertex 21.9087 11.0592 4.6
      vertex 21.7978 11.2667 0
      vertex 21.7978 11.2667 4.6
    endloop
  endfacet
  facet normal 0.881941 0.47136 0
    outer loop
      vertex 21.7978 11.2667 0
      vertex 21.9087 11.0592 4.6
      vertex 21.9087 11.0592 0
    endloop
  endfacet
  facet normal -0.290272 -0.956944 0
    outer loop
      vertex -21.2592 4.29134 0
      vertex -21.0341 4.22306 4.6
      vertex -21.2592 4.29134 4.6
    endloop
  endfacet
  facet normal -0.290272 -0.956944 -0
    outer loop
      vertex -21.0341 4.22306 4.6
      vertex -21.2592 4.29134 0
      vertex -21.0341 4.22306 0
    endloop
  endfacet
  facet normal 0.772801 0.634649 0
    outer loop
      vertex 21.7978 11.2667 4.6
      vertex 21.6485 11.4485 0
      vertex 21.6485 11.4485 4.6
    endloop
  endfacet
  facet normal 0.772801 0.634649 0
    outer loop
      vertex 21.6485 11.4485 0
      vertex 21.7978 11.2667 4.6
      vertex 21.7978 11.2667 0
    endloop
  endfacet
  facet normal 0.28996 0.957039 -0
    outer loop
      vertex 21.2592 11.7087 0
      vertex 21.0341 11.7769 4.6
      vertex 21.2592 11.7087 4.6
    endloop
  endfacet
  facet normal 0.28996 0.957039 0
    outer loop
      vertex 21.0341 11.7769 4.6
      vertex 21.2592 11.7087 0
      vertex 21.0341 11.7769 0
    endloop
  endfacet
  facet normal 0 0 -1
    outer loop
      vertex 20.8 4.2 0
      vertex 22 5.4 0
      vertex 21.9769 5.16589 0
    endloop
  endfacet
  facet normal -0 0 -1
    outer loop
      vertex 22 5.4 0
      vertex 20.8 4.2 0
      vertex 22 10.6 0
    endloop
  endfacet
  facet normal 0 0 -1
    outer loop
      vertex 20.8 4.2 0
      vertex 21.9769 5.16589 0
      vertex 21.9087 4.94078 0
    endloop
  endfacet
  facet normal 0 0 -1
    outer loop
      vertex 20.8 11.8 0
      vertex 22 10.6 0
      vertex 20.8 4.2 0
    endloop
  endfacet
  facet normal 0 0 -1
    outer loop
      vertex 20.8 4.2 0
      vertex 21.9087 4.94078 0
      vertex 21.7978 4.73332 0
    endloop
  endfacet
  facet normal 0 0 -1
    outer loop
      vertex 22 10.6 0
      vertex 20.8 11.8 0
      vertex 21.9769 10.8341 0
    endloop
  endfacet
  facet normal 0 0 -1
    outer loop
      vertex 20.8 4.2 0
      vertex 21.7978 4.73332 0
      vertex 21.6485 4.55147 0
    endloop
  endfacet
  facet normal 0 0 -1
    outer loop
      vertex 21.9769 10.8341 0
      vertex 20.8 11.8 0
      vertex 21.9087 11.0592 0
    endloop
  endfacet
  facet normal 0 0 -1
    outer loop
      vertex 20.8 4.2 0
      vertex 21.6485 4.55147 0
      vertex 21.4667 4.40224 0
    endloop
  endfacet
  facet normal 0 0 -1
    outer loop
      vertex 21.9087 11.0592 0
      vertex 20.8 11.8 0
      vertex 21.7978 11.2667 0
    endloop
  endfacet
  facet normal 0 0 -1
    outer loop
      vertex 20.8 4.2 0
      vertex 21.4667 4.40224 0
      vertex 21.2592 4.29134 0
    endloop
  endfacet
  facet normal 0 0 -1
    outer loop
      vertex 21.7978 11.2667 0
      vertex 20.8 11.8 0
      vertex 21.6485 11.4485 0
    endloop
  endfacet
  facet normal 0 0 -1
    outer loop
      vertex 20.8 4.2 0
      vertex 21.2592 4.29134 0
      vertex 21.0341 4.22306 0
    endloop
  endfacet
  facet normal 0 0 -1
    outer loop
      vertex 21.6485 11.4485 0
      vertex 20.8 11.8 0
      vertex 21.4667 11.5978 0
    endloop
  endfacet
  facet normal 0 0 -1
    outer loop
      vertex 21.4667 11.5978 0
      vertex 20.8 11.8 0
      vertex 21.2592 11.7087 0
    endloop
  endfacet
  facet normal 0 0 -1
    outer loop
      vertex 21.2592 11.7087 0
      vertex 20.8 11.8 0
      vertex 21.0341 11.7769 0
    endloop
  endfacet
  facet normal 0 0 -1
    outer loop
      vertex -20.8 4.2 0
      vertex 20.8 11.8 0
      vertex 20.8 4.2 0
    endloop
  endfacet
  facet normal 0 0 -1
    outer loop
      vertex -20.8 4.2 0
      vertex -20.8 11.8 0
      vertex 20.8 11.8 0
    endloop
  endfacet
  facet normal 0 0 -1
    outer loop
      vertex -22 5.4 0
      vertex -20.8 4.2 0
      vertex -21.0341 4.22306 0
    endloop
  endfacet
  facet normal 0 0 -1
    outer loop
      vertex -20.8 4.2 0
      vertex -22 5.4 0
      vertex -20.8 11.8 0
    endloop
  endfacet
  facet normal 0 0 -1
    outer loop
      vertex -22 5.4 0
      vertex -21.0341 4.22306 0
      vertex -21.2592 4.29134 0
    endloop
  endfacet
  facet normal 0 0 -1
    outer loop
      vertex -22 10.6 0
      vertex -20.8 11.8 0
      vertex -22 5.4 0
    endloop
  endfacet
  facet normal 0 0 -1
    outer loop
      vertex -22 5.4 0
      vertex -21.2592 4.29134 0
      vertex -21.4667 4.40224 0
    endloop
  endfacet
  facet normal 0 0 -1
    outer loop
      vertex -20.8 11.8 0
      vertex -22 10.6 0
      vertex -21.0341 11.7769 0
    endloop
  endfacet
  facet normal 0 0 -1
    outer loop
      vertex -22 5.4 0
      vertex -21.4667 4.40224 0
      vertex -21.6485 4.55147 0
    endloop
  endfacet
  facet normal 0 0 -1
    outer loop
      vertex -21.0341 11.7769 0
      vertex -22 10.6 0
      vertex -21.2592 11.7087 0
    endloop
  endfacet
  facet normal 0 0 -1
    outer loop
      vertex -22 5.4 0
      vertex -21.6485 4.55147 0
      vertex -21.7978 4.73332 0
    endloop
  endfacet
  facet normal 0 0 -1
    outer loop
      vertex -21.2592 11.7087 0
      vertex -22 10.6 0
      vertex -21.4667 11.5978 0
    endloop
  endfacet
  facet normal 0 0 -1
    outer loop
      vertex -22 5.4 0
      vertex -21.7978 4.73332 0
      vertex -21.9087 4.94078 0
    endloop
  endfacet
  facet normal 0 0 -1
    outer loop
      vertex -21.4667 11.5978 0
      vertex -22 10.6 0
      vertex -21.6485 11.4485 0
    endloop
  endfacet
  facet normal 0 0 -1
    outer loop
      vertex -22 5.4 0
      vertex -21.9087 4.94078 0
      vertex -21.9769 5.16589 0
    endloop
  endfacet
  facet normal 0 0 -1
    outer loop
      vertex -21.6485 11.4485 0
      vertex -22 10.6 0
      vertex -21.7978 11.2667 0
    endloop
  endfacet
  facet normal 0 0 -1
    outer loop
      vertex -21.7978 11.2667 0
      vertex -22 10.6 0
      vertex -21.9087 11.0592 0
    endloop
  endfacet
  facet normal 0 0 -1
    outer loop
      vertex -21.9087 11.0592 0
      vertex -22 10.6 0
      vertex -21.9769 10.8341 0
    endloop
  endfacet
  facet normal -0.772886 -0.634545 0
    outer loop
      vertex -21.6485 4.55147 0
      vertex -21.7978 4.73332 4.6
      vertex -21.7978 4.73332 0
    endloop
  endfacet
  facet normal -0.772886 -0.634545 0
    outer loop
      vertex -21.7978 4.73332 4.6
      vertex -21.6485 4.55147 0
      vertex -21.6485 4.55147 4.6
    endloop
  endfacet
  facet normal -0.881903 -0.471431 0
    outer loop
      vertex -21.7978 4.73332 0
      vertex -21.9087 4.94078 4.6
      vertex -21.9087 4.94078 0
    endloop
  endfacet
  facet normal -0.881903 -0.471431 0
    outer loop
      vertex -21.9087 4.94078 4.6
      vertex -21.7978 4.73332 0
      vertex -21.7978 4.73332 4.6
    endloop
  endfacet
endsolid OpenSCAD_Model
