<svg xmlns="http://www.w3.org/2000/svg" width="960" height="560" viewBox="0 0 960 560" role="img" aria-labelledby="title desc">
  <title id="title">S1 sled interface schematic</title>
  <desc id="desc">Top and side schematic showing S1 sled dimensions, four attachment stations, datum planes, ballast pockets, and coupler pivots.</desc>
  <defs>
    <style>
      .bg { fill: #f8faf8; }
      .body { fill: #e2ece8; stroke: #1f302b; stroke-width: 2; }
      .module { fill: #c8dcd4; stroke: #34544b; stroke-width: 2; stroke-dasharray: 8 5; }
      .station { fill: #25453c; }
      .ballast { fill: #f3c96b; stroke: #7a5c14; stroke-width: 1.5; }
      .datum { stroke: #b03a2e; stroke-width: 2; stroke-dasharray: 7 5; }
      .dim { stroke: #2d3b36; stroke-width: 1.5; marker-start: url(#arrow); marker-end: url(#arrow); }
      .label { font: 15px sans-serif; fill: #17201d; }
      .small { font: 12px sans-serif; fill: #3e514b; }
      .note { font: 13px sans-serif; fill: #596a64; }
    </style>
    <marker id="arrow" markerWidth="8" markerHeight="8" refX="4" refY="4" orient="auto">
      <path d="M0,0 L8,4 L0,8 Z" fill="#2d3b36"/>
    </marker>
  </defs>

  <rect class="bg" x="0" y="0" width="960" height="560"/>
  <text class="label" x="36" y="38">S1 sled interface - 1:87 recalibrated prototype defaults</text>
  <text class="note" x="36" y="60">All dimensions are configurable CAD defaults and are not production certification limits.</text>

  <g transform="translate(80 110)">
    <text class="label" x="0" y="-24">Top view</text>
    <rect class="body" x="0" y="0" width="640" height="144" rx="20"/>
    <path class="body" d="M0,28 L-32,72 L0,116 Z"/>
    <path class="body" d="M640,28 L672,72 L640,116 Z"/>
    <rect class="module" x="80" y="8" width="480" height="128" rx="12"/>
    <line class="datum" x1="320" y1="-18" x2="320" y2="162"/>
    <line class="datum" x1="-44" y1="72" x2="684" y2="72"/>
    <text class="small" x="326" y="-24">X0</text>
    <text class="small" x="690" y="76">Y0</text>

    <circle class="station" cx="122" cy="34" r="10"/>
    <circle class="station" cx="518" cy="34" r="10"/>
    <circle class="station" cx="122" cy="110" r="10"/>
    <circle class="station" cx="518" cy="110" r="10"/>
    <text class="small" x="92" y="28">attachment</text>
    <text class="small" x="92" y="128">stations</text>

    <rect class="ballast" x="172" y="24" width="68" height="26" rx="5"/>
    <rect class="ballast" x="400" y="24" width="68" height="26" rx="5"/>
    <rect class="ballast" x="172" y="94" width="68" height="26" rx="5"/>
    <rect class="ballast" x="400" y="94" width="68" height="26" rx="5"/>
    <rect class="ballast" x="252" y="62" width="136" height="20" rx="5"/>
    <text class="small" x="268" y="56">longitudinal ballast channel</text>

    <circle class="station" cx="-34" cy="72" r="9"/>
    <circle class="station" cx="674" cy="72" r="9"/>
    <text class="small" x="-56" y="100">coupler pivot C0</text>
    <text class="small" x="584" y="100">coupler pivot C0</text>

    <line class="dim" x1="0" y1="188" x2="640" y2="188"/>
    <text class="small" x="232" y="210">300 mm printed body / 320 mm over coupler faces</text>
    <line class="dim" x1="40" y1="166" x2="600" y2="166"/>
    <text class="small" x="270" y="184">286 mm structural deck</text>
    <line class="dim" x1="80" y1="-40" x2="560" y2="-40"/>
    <text class="small" x="268" y="-48">180 x 40 mm module footprint</text>
    <line class="dim" x1="714" y1="0" x2="714" y2="144"/>
    <text class="small" x="724" y="78">42 mm body / 48 mm stabilization width</text>
  </g>

  <g transform="translate(80 410)">
    <text class="label" x="0" y="-26">Side view</text>
    <rect class="body" x="0" y="0" width="640" height="58" rx="8"/>
    <path class="body" d="M0,0 L-32,28 L0,58 Z"/>
    <path class="body" d="M640,0 L672,28 L640,58 Z"/>
    <rect class="module" x="80" y="-78" width="480" height="78" rx="14"/>
    <line class="datum" x1="-44" y1="58" x2="684" y2="58"/>
    <line class="datum" x1="-44" y1="0" x2="684" y2="0"/>
    <text class="small" x="690" y="62">G0 guideway datum</text>
    <text class="small" x="690" y="4">D0/M0 deck and module datum</text>
    <line class="dim" x1="732" y1="0" x2="732" y2="58"/>
    <text class="small" x="746" y="34">12 mm deck height default</text>
    <rect class="ballast" x="272" y="-108" width="96" height="22" rx="5"/>
    <line class="datum" x1="320" y1="-128" x2="320" y2="-80"/>
    <text class="small" x="378" y="-92">optional elevated CG ballast mount</text>
  </g>
</svg>
